<?xml version="1.0" encoding="utf-8"?>
<svg version="1.1" xmlns:xlink="http://www.w3.org/1999/xlink" width="37px" height="31px" xmlns="http://www.w3.org/2000/svg">
  <g transform="matrix(1 0 0 1 -1756 -46 )">
    <path d="M 9.2138671875 2.130086724482989  C 12.048285590277779 0.7100289081609952  15.143663194444446 0  18.5 0  C 21.856336805555557 0  24.951714409722225 0.7100289081609952  27.7861328125 2.130086724482989  C 30.62055121527778 3.5501445408049794  32.86480034722223 5.476873471203023  34.518880208333336 7.910273515677117  C 36.17296006944444 10.34367356015121  37 13.001111852346003  37 15.882588392261509  C 37 19.343117633978206  35.82367621527777 22.455525906159664  33.471028645833336 25.219813208805867  C 31.118381076388893 27.98410051145208  28.079210069444446 29.89704247275962  24.353515625 30.958639092728486  C 23.919921875000004 31.02757393818101  23.598741319444446 30.97931954636424  23.389973958333336 30.813875917278185  C 23.18120659722222 30.64843228819213  23.076822916666664 30.441627751834556  23.076822916666664 30.193462308205472  C 23.076822916666664 30.152101400933955  23.080837673611114 29.62474983322215  23.0888671875 28.611407605070045  C 23.096896701388893 27.598065376917948  23.100911458333336 26.6708917055815  23.100911458333336 25.829886591060706  C 23.100911458333336 24.49255058928174  22.683376736111114 23.513675783855902  21.848307291666664 22.89326217478319  C 22.763671875 22.81054036024016  23.586697048611114 22.686457638425615  24.3173828125 22.52101400933956  C 25.048068576388893 22.355570380253504  25.802842881944446 22.08672448298866  26.581705729166664 21.714476317545028  C 27.360568576388893 21.3422281521014  28.010959201388893 20.883811429842115  28.532877604166664 20.339226150767175  C 29.054796006944446 19.794640871692234  29.48036024305556 19.070824994440738  29.8095703125 18.167778519012675  C 30.138780381944446 17.264732043584612  30.303385416666664 16.227262619524122  30.303385416666664 15.055370246831222  C 30.303385416666664 13.41472092506115  29.669053819444446 11.99466310873916  28.400390625 10.795196797865245  C 28.99457465277778 9.540582610629308  28.930338541666664 8.13431176339782  28.207682291666664 6.57638425617078  C 27.758029513888893 6.4523015343562395  27.107638888888893 6.52812986435401  26.256510416666664 6.80386924616411  C 25.405381944444446 7.079608627974204  24.666666666666664 7.382921947965311  24.040364583333336 7.713809206137424  L 23.125 8.210140093395598  C 21.631510416666668 7.851678897042471  20.089843750000004 7.672448298865911  18.5 7.672448298865911  C 16.91015625 7.672448298865911  15.368489583333332 7.851678897042471  13.875 8.210140093395598  C 13.618055555555557 8.058483433400042  13.27680121527778 7.872359350678226  12.851236979166668 7.651767845230152  C 12.425672743055557 7.431176339782075  11.755208333333334 7.165777184789861  10.83984375 6.8555703802535035  C 9.924479166666668 6.545363575717146  9.241970486111112 6.4523015343562395  8.792317708333334 6.57638425617078  C 8.069661458333334 8.13431176339782  8.005425347222223 9.540582610629308  8.599609375 10.795196797865245  C 7.330946180555556 11.99466310873916  6.696614583333334 13.41472092506115  6.696614583333334 15.055370246831222  C 6.696614583333334 16.227262619524122  6.861219618055556 17.261285301311986  7.1904296875 18.157438292194797  C 7.519639756944445 19.053591283077605  7.941189236111112 19.777407160329105  8.455078125 20.3288859239493  C 8.96896701388889 20.880364687569486  9.615342881944446 21.3422281521014  10.394205729166668 21.714476317545028  C 11.17306857638889 22.08672448298866  11.927842881944446 22.355570380253504  12.658528645833332 22.52101400933956  C 13.389214409722223 22.686457638425615  14.212239583333332 22.81054036024016  15.127604166666668 22.89326217478319  C 14.501302083333332 23.38959306204136  14.10785590277778 24.099621970202357  13.947265625 25.023348899266175  C 13.610026041666668 25.161218590171227  13.248697916666668 25.264620858350014  12.86328125 25.333555703802535  C 12.477864583333332 25.40249054925506  12.020182291666668 25.436957971981318  11.490234375 25.436957971981318  C 10.960286458333334 25.436957971981318  10.434353298611112 25.288748054258395  9.912434895833332 24.992328218812542  C 9.390516493055557 24.69590838336669  8.944878472222223 24.265065599288416  8.575520833333334 23.69979986657772  C 8.270399305555557 23.25861685568156  7.880967881944445 22.90015565932844  7.4072265625 22.624416277518346  C 6.933485243055556 22.34867689570825  6.536024305555556 22.18323326662219  6.21484375 22.12808539026017  L 5.733072916666666 22.066044029352902  C 5.395833333333334 22.066044029352902  5.162977430555555 22.097064709806535  5.034505208333334 22.15910607071381  C 4.906032986111112 22.22114743162108  4.865885416666667 22.300422503891483  4.9140625 22.396931287525017  C 4.962239583333334 22.493440071158545  5.034505208333334 22.589948854792084  5.130859375 22.686457638425615  C 5.227213541666667 22.78296642205915  5.331597222222223 22.865688236602175  5.444010416666666 22.934623082054706  L 5.612630208333334 23.03802535023349  C 5.965928819444445 23.175895041138535  6.315212673611112 23.43784745385813  6.660481770833334 23.82388258839226  C 7.005750868055556 24.20991772292639  7.258680555555556 24.561485434734262  7.419270833333334 24.878585723815878  L 7.66015625 25.354236157438294  C 7.868923611111112 25.878140982877472  8.222222222222223 26.302090282410493  8.720052083333334 26.626084056037357  C 9.217881944444446 26.950077829664224  9.755859375000002 27.156882366021794  10.333984375 27.246497665110073  C 10.912109375000002 27.336112964198353  11.47016059027778 27.384367356015122  12.008138020833332 27.391260840560374  C 12.54611545138889 27.398154325105626  12.991753472222223 27.37402712919724  13.345052083333332 27.318879252835224  L 13.899088541666668 27.236157438292196  C 13.899088541666668 27.760062263731374  13.903103298611112 28.37013564598621  13.9111328125 29.066377585056703  C 13.91916232638889 29.762619524127196  13.923177083333332 30.138314431843447  13.923177083333332 30.193462308205472  C 13.923177083333332 30.441627751834556  13.81879340277778 30.64843228819213  13.610026041666668 30.813875917278185  C 13.401258680555557 30.97931954636424  13.080078125 31.02757393818101  12.646484375 30.958639092728486  C 8.920789930555557 29.89704247275962  5.881618923611112 27.98410051145208  3.528971354166667 25.219813208805867  C 1.176323784722222 22.455525906159664  0 19.343117633978206  0 15.882588392261509  C 0 13.001111852346003  0.8270399305555555 10.34367356015121  2.481119791666667 7.910273515677117  C 4.135199652777779 5.476873471203023  6.379448784722223 3.5501445408049794  9.2138671875 2.130086724482989  Z M 6.696614583333334 22.851901267511675  C 6.841145833333334 22.934623082054706  6.94552951388889 22.9208361129642  7.009765625 22.81054036024016  C 7.057942708333334 22.714031576606626  7.001736111111112 22.631309762063598  6.841145833333334 22.562374916611073  C 6.680555555555556 22.52101400933956  6.576171875 22.53480097843006  6.527994791666666 22.603735823882587  C 6.479817708333334 22.70024460751612  6.536024305555556 22.78296642205915  6.696614583333334 22.851901267511675  Z M 7.37109375 23.451634422948633  C 7.531684027777779 23.58950411385368  7.66015625 23.610184567489437  7.756510416666666 23.513675783855902  C 7.868923611111112 23.444740938403378  7.852864583333334 23.334445185679343  7.708333333333334 23.18278852568379  C 7.547743055555556 23.058705803869245  7.419270833333334 23.03802535023349  7.322916666666666 23.120747164776517  C 7.210503472222223 23.18968201022904  7.2265625 23.299977762953077  7.37109375 23.451634422948633  Z M 8.069661458333334 24.299533022014675  C 8.214192708333334 24.478763620191238  8.350694444444445 24.527018012008007  8.479166666666666 24.444296197464976  C 8.623697916666666 24.34778741383144  8.623697916666666 24.216811207471647  8.479166666666666 24.05136757838559  C 8.350694444444445 23.872136980209028  8.214192708333334 23.830776072937514  8.069661458333334 23.927284856571045  C 7.925130208333334 23.99621970202357  7.925130208333334 24.120302423838112  8.069661458333334 24.299533022014675  Z M 9.009114583333334 25.250833889259507  C 9.201822916666666 25.416277518345566  9.362413194444446 25.436957971981318  9.490885416666668 25.31287525016678  C 9.61935763888889 25.20257949744274  9.587239583333334 25.071603291082944  9.39453125 24.91994663108739  C 9.201822916666666 24.754503002001332  9.04123263888889 24.733822548365577  8.912760416666666 24.85790527018012  C 8.768229166666666 24.968201022904157  8.800347222222223 25.09917722926395  9.009114583333334 25.250833889259507  Z M 10.40625 25.953969312875248  C 10.647135416666668 26.03669112741828  10.799696180555557 25.995330220146762  10.863932291666668 25.829886591060706  C 10.912109375 25.678229931065157  10.807725694444446 25.567934178341112  10.55078125 25.49899933288859  C 10.309895833333334 25.443851456526573  10.157335069444446 25.492105848343343  10.093098958333332 25.64376250833889  C 10.028862847222223 25.795419168334444  10.133246527777779 25.89882143651323  10.40625 25.953969312875248  Z M 11.99609375 26.16077384923282  C 12.253038194444446 26.16077384923282  12.381510416666668 26.084945519235042  12.381510416666668 25.933288859239493  C 12.381510416666668 25.75405826106293  12.245008680555557 25.678229931065157  11.972005208333332 25.705803869246164  C 11.71506076388889 25.705803869246164  11.586588541666668 25.78163219924394  11.586588541666668 25.933288859239493  C 11.586588541666668 26.112519457416056  11.723090277777779 26.18834778741383  11.99609375 26.16077384923282  Z M 13.44140625 26.01601067378252  C 13.698350694444446 25.960862797420504  13.81076388888889 25.864354013786972  13.778645833333332 25.726484322881923  C 13.74652777777778 25.57482766288637  13.60199652777778 25.512786301979098  13.345052083333332 25.540360240160105  C 13.08810763888889 25.58172114743162  12.975694444444446 25.685123415610406  13.0078125 25.85056704469646  C 13.039930555555557 26.01601067378252  13.184461805555557 26.071158550144546  13.44140625 26.01601067378252  Z " fill-rule="nonzero" fill="#fdfdfa" stroke="none" transform="matrix(1 0 0 1 1756 46 )" />
  </g>
</svg>