<?xml version="1.0" encoding="utf-8"?>
<svg version="1.1" xmlns:xlink="http://www.w3.org/1999/xlink" width="12px" height="16px" xmlns="http://www.w3.org/2000/svg">
  <g transform="matrix(1 0 0 1 -38 -148 )">
    <path d="M 8.12109375 7.21875  C 8.70703125 6.697916666666666  9 6.069444444444445  9 5.333333333333334  C 9 4.597222222222221  8.70703125 3.96875  8.12109375 3.447916666666666  C 7.53515625 2.927083333333334  6.828125000000001 2.666666666666666  6 2.666666666666666  C 5.171875 2.666666666666666  4.46484375 2.927083333333334  3.87890625 3.447916666666666  C 3.29296875 3.96875  3 4.597222222222221  3 5.333333333333334  C 3 6.069444444444445  3.29296875 6.697916666666666  3.87890625 7.21875  C 4.46484375 7.739583333333334  5.171875 8  6 8  C 6.828125000000001 8  7.53515625 7.739583333333334  8.12109375 7.21875  Z M 10.2421875 1.5625  C 11.4140625 2.604166666666666  12 3.861111111111109  12 5.333333333333334  C 12 6.090277777777777  11.87109375 6.711805555555555  11.61328125 7.197916666666666  L 7.34765625 15.260416666666666  C 7.22265625 15.489583333333334  7.037109375 15.670138888888888  6.791015625 15.802083333333334  C 6.544921875 15.934027777777779  6.28125 16  6 16  C 5.71875 16  5.455078125 15.934027777777779  5.208984375 15.802083333333334  C 4.962890625 15.670138888888888  4.78125 15.489583333333334  4.6640625 15.260416666666666  L 0.38671875 7.197916666666666  C 0.12890625 6.711805555555555  0 6.090277777777777  0 5.333333333333334  C 0 3.861111111111109  0.5859375 2.604166666666666  1.7578125 1.5625  C 2.9296875000000004 0.5208333333333339  4.34375 0  6 0  C 7.65625 0  9.0703125 0.5208333333333339  10.2421875 1.5625  Z " fill-rule="nonzero" fill="#7f7f7f" stroke="none" transform="matrix(1 0 0 1 38 148 )" />
  </g>
</svg>