<?xml version="1.0" encoding="utf-8"?>
<svg version="1.1" xmlns:xlink="http://www.w3.org/1999/xlink" width="668px" height="41px" xmlns="http://www.w3.org/2000/svg">
  <defs>
    <filter x="558px" y="417px" width="668px" height="41px" filterUnits="userSpaceOnUse" id="filter155">
      <feOffset dx="5" dy="5" in="SourceAlpha" result="shadowOffsetInner" />
      <feGaussianBlur stdDeviation="2.5" in="shadowOffsetInner" result="shadowGaussian" />
      <feComposite in2="shadowGaussian" operator="atop" in="SourceAlpha" result="shadowComposite" />
      <feColorMatrix type="matrix" values="0 0 0 0 0  0 0 0 0 0  0 0 0 0 0  0 0 0 0.34901960784313724 0  " in="shadowComposite" />
    </filter>
    <g id="widget156">
      <path d="M 558.5 422  A 4.5 4.5 0 0 1 563 417.5 L 1211 417.5  A 4.5 4.5 0 0 1 1215.5 422 L 1215.5 443  A 4.5 4.5 0 0 1 1211 447.5 L 563 447.5  A 4.5 4.5 0 0 1 558.5 443 L 558.5 422  Z " fill-rule="nonzero" fill="#1720b6" stroke="none" />
      <path d="M 558.5 422  A 4.5 4.5 0 0 1 563 417.5 L 1211 417.5  A 4.5 4.5 0 0 1 1215.5 422 L 1215.5 443  A 4.5 4.5 0 0 1 1211 447.5 L 563 447.5  A 4.5 4.5 0 0 1 558.5 443 L 558.5 422  Z " stroke-width="1" stroke="#1720b6" fill="none" />
    </g>
  </defs>
  <g transform="matrix(1 0 0 1 -558 -417 )">
    <use xlink:href="#widget156" filter="url(#filter155)" />
    <use xlink:href="#widget156" />
  </g>
</svg>