<?xml version="1.0" encoding="utf-8"?>
<svg version="1.1" xmlns:xlink="http://www.w3.org/1999/xlink" width="177px" height="41px" xmlns="http://www.w3.org/2000/svg">
  <defs>
    <filter x="91px" y="590px" width="177px" height="41px" filterUnits="userSpaceOnUse" id="filter1879">
      <feOffset dx="5" dy="5" in="SourceAlpha" result="shadowOffsetInner" />
      <feGaussianBlur stdDeviation="2.5" in="shadowOffsetInner" result="shadowGaussian" />
      <feComposite in2="shadowGaussian" operator="atop" in="SourceAlpha" result="shadowComposite" />
      <feColorMatrix type="matrix" values="0 0 0 0 0  0 0 0 0 0  0 0 0 0 0  0 0 0 0.34901960784313724 0  " in="shadowComposite" />
    </filter>
    <g id="widget1880">
      <path d="M 91.5 595  A 4.5 4.5 0 0 1 96 590.5 L 253 590.5  A 4.5 4.5 0 0 1 257.5 595 L 257.5 616  A 4.5 4.5 0 0 1 253 620.5 L 96 620.5  A 4.5 4.5 0 0 1 91.5 616 L 91.5 595  Z " fill-rule="nonzero" fill="#1720b6" stroke="none" />
      <path d="M 91.5 595  A 4.5 4.5 0 0 1 96 590.5 L 253 590.5  A 4.5 4.5 0 0 1 257.5 595 L 257.5 616  A 4.5 4.5 0 0 1 253 620.5 L 96 620.5  A 4.5 4.5 0 0 1 91.5 616 L 91.5 595  Z " stroke-width="1" stroke="#1720b6" fill="none" />
    </g>
  </defs>
  <g transform="matrix(1 0 0 1 -91 -590 )">
    <use xlink:href="#widget1880" filter="url(#filter1879)" />
    <use xlink:href="#widget1880" />
  </g>
</svg>