<?xml version="1.0" encoding="utf-8"?>
<svg version="1.1" xmlns:xlink="http://www.w3.org/1999/xlink" width="937px" height="60px" xmlns="http://www.w3.org/2000/svg">
  <defs>
    <filter x="786px" y="736px" width="937px" height="60px" filterUnits="userSpaceOnUse" id="filter87">
      <feOffset dx="5" dy="5" in="SourceAlpha" result="shadowOffsetInner" />
      <feGaussianBlur stdDeviation="2.5" in="shadowOffsetInner" result="shadowGaussian" />
      <feComposite in2="shadowGaussian" operator="atop" in="SourceAlpha" result="shadowComposite" />
      <feColorMatrix type="matrix" values="0 0 0 0 0  0 0 0 0 0  0 0 0 0 0  0 0 0 0.34901960784313724 0  " in="shadowComposite" />
    </filter>
    <g id="widget88">
      <path d="M 786.5 741  A 4.5 4.5 0 0 1 791 736.5 L 1708 736.5  A 4.5 4.5 0 0 1 1712.5 741 L 1712.5 781  A 4.5 4.5 0 0 1 1708 785.5 L 791 785.5  A 4.5 4.5 0 0 1 786.5 781 L 786.5 741  Z " fill-rule="nonzero" fill="#1720b6" stroke="none" />
      <path d="M 786.5 741  A 4.5 4.5 0 0 1 791 736.5 L 1708 736.5  A 4.5 4.5 0 0 1 1712.5 741 L 1712.5 781  A 4.5 4.5 0 0 1 1708 785.5 L 791 785.5  A 4.5 4.5 0 0 1 786.5 781 L 786.5 741  Z " stroke-width="1" stroke="#1720b6" fill="none" />
    </g>
  </defs>
  <g transform="matrix(1 0 0 1 -786 -736 )">
    <use xlink:href="#widget88" filter="url(#filter87)" />
    <use xlink:href="#widget88" />
  </g>
</svg>