<?xml version="1.0" encoding="utf-8"?>
<svg version="1.1" xmlns:xlink="http://www.w3.org/1999/xlink" width="177px" height="41px" xmlns="http://www.w3.org/2000/svg">
  <defs>
    <filter x="91px" y="555px" width="177px" height="41px" filterUnits="userSpaceOnUse" id="filter245">
      <feOffset dx="5" dy="5" in="SourceAlpha" result="shadowOffsetInner" />
      <feGaussianBlur stdDeviation="2.5" in="shadowOffsetInner" result="shadowGaussian" />
      <feComposite in2="shadowGaussian" operator="atop" in="SourceAlpha" result="shadowComposite" />
      <feColorMatrix type="matrix" values="0 0 0 0 0  0 0 0 0 0  0 0 0 0 0  0 0 0 0.34901960784313724 0  " in="shadowComposite" />
    </filter>
    <g id="widget246">
      <path d="M 91.5 560  A 4.5 4.5 0 0 1 96 555.5 L 253 555.5  A 4.5 4.5 0 0 1 257.5 560 L 257.5 581  A 4.5 4.5 0 0 1 253 585.5 L 96 585.5  A 4.5 4.5 0 0 1 91.5 581 L 91.5 560  Z " fill-rule="nonzero" fill="#1e98d7" stroke="none" fill-opacity="0" />
      <path d="M 91.5 560  A 4.5 4.5 0 0 1 96 555.5 L 253 555.5  A 4.5 4.5 0 0 1 257.5 560 L 257.5 581  A 4.5 4.5 0 0 1 253 585.5 L 96 585.5  A 4.5 4.5 0 0 1 91.5 581 L 91.5 560  Z " stroke-width="1" stroke="#1720b6" fill="none" />
    </g>
  </defs>
  <g transform="matrix(1 0 0 1 -91 -555 )">
    <use xlink:href="#widget246" filter="url(#filter245)" />
    <use xlink:href="#widget246" />
  </g>
</svg>