<?xml version="1.0" encoding="utf-8"?>
<svg version="1.1" xmlns:xlink="http://www.w3.org/1999/xlink" width="612px" height="60px" xmlns="http://www.w3.org/2000/svg">
  <defs>
    <filter x="485px" y="603px" width="612px" height="60px" filterUnits="userSpaceOnUse" id="filter155">
      <feOffset dx="5" dy="5" in="SourceAlpha" result="shadowOffsetInner" />
      <feGaussianBlur stdDeviation="2.5" in="shadowOffsetInner" result="shadowGaussian" />
      <feComposite in2="shadowGaussian" operator="atop" in="SourceAlpha" result="shadowComposite" />
      <feColorMatrix type="matrix" values="0 0 0 0 0  0 0 0 0 0  0 0 0 0 0  0 0 0 0.34901960784313724 0  " in="shadowComposite" />
    </filter>
    <g id="widget156">
      <path d="M 485.5 608  A 4.5 4.5 0 0 1 490 603.5 L 1082 603.5  A 4.5 4.5 0 0 1 1086.5 608 L 1086.5 648  A 4.5 4.5 0 0 1 1082 652.5 L 490 652.5  A 4.5 4.5 0 0 1 485.5 648 L 485.5 608  Z " fill-rule="nonzero" fill="#1720b6" stroke="none" />
      <path d="M 485.5 608  A 4.5 4.5 0 0 1 490 603.5 L 1082 603.5  A 4.5 4.5 0 0 1 1086.5 608 L 1086.5 648  A 4.5 4.5 0 0 1 1082 652.5 L 490 652.5  A 4.5 4.5 0 0 1 485.5 648 L 485.5 608  Z " stroke-width="1" stroke="#1720b6" fill="none" />
    </g>
  </defs>
  <g transform="matrix(1 0 0 1 -485 -603 )">
    <use xlink:href="#widget156" filter="url(#filter155)" />
    <use xlink:href="#widget156" />
  </g>
</svg>