<?xml version="1.0" encoding="utf-8"?>
<svg version="1.1" xmlns:xlink="http://www.w3.org/1999/xlink" width="55px" height="44px" xmlns="http://www.w3.org/2000/svg">
  <g transform="matrix(1 0 0 1 -10 -10 )">
    <path d="M 54.319661458333336 35.853125  C 54.77322048611111 36.28854166666667  55 36.80416666666667  55 37.4  L 55 41.8  C 55 42.39583333333333  54.77322048611111 42.91145833333333  54.319661458333336 43.346875  C 53.866102430555564 43.782291666666666  53.328993055555564 44  52.708333333333336 44  L 2.2916666666666665 44  C 1.6710069444444446 44  1.1338975694444444 43.782291666666666  0.6803385416666666 43.346875  C 0.2267795138888889 42.91145833333333  0 42.39583333333333  0 41.8  L 0 37.4  C 0 36.80416666666667  0.2267795138888889 36.28854166666667  0.6803385416666666 35.853125  C 1.1338975694444444 35.41770833333333  1.6710069444444446 35.2  2.2916666666666665 35  L 52.708333333333336 35  C 53.328993055555564 35.2  53.866102430555564 35.41770833333333  54.319661458333336 35.853125  Z M 54.319661458333336 18.253124999999997  C 54.77322048611111 18.688541666666666  55 19.204166666666666  55 19.799999999999997  L 55 24.200000000000003  C 55 24.79583333333333  54.77322048611111 25.31145833333333  54.319661458333336 25.746875000000003  C 53.866102430555564 26.182291666666664  53.328993055555564 26.4  52.708333333333336 26  L 2.2916666666666665 26  C 1.6710069444444446 26.4  1.1338975694444444 26.182291666666664  0.6803385416666666 25.746875000000003  C 0.2267795138888889 25.31145833333333  0 24.79583333333333  0 24.200000000000003  L 0 19.799999999999997  C 0 19.204166666666666  0.2267795138888889 18.688541666666666  0.6803385416666666 18.253124999999997  C 1.1338975694444444 17.817708333333336  1.6710069444444446 17.6  2.2916666666666665 18  L 52.708333333333336 18  C 53.328993055555564 17.6  53.866102430555564 17.817708333333336  54.319661458333336 18.253124999999997  Z M 54.319661458333336 0.653125000000002  C 54.77322048611111 1.0885416666666634  55 1.6041666666666634  55 2.200000000000002  L 55 6.600000000000001  C 55 7.195833333333329  54.77322048611111 7.711458333333329  54.319661458333336 8.146875000000001  C 53.866102430555564 8.582291666666663  53.328993055555564 8.799999999999997  52.708333333333336 9  L 2.2916666666666665 9  C 1.6710069444444446 8.799999999999997  1.1338975694444444 8.582291666666663  0.6803385416666666 8.146875000000001  C 0.2267795138888889 7.711458333333329  0 7.195833333333329  0 6.600000000000001  L 0 2.200000000000002  C 0 1.6041666666666634  0.2267795138888889 1.0885416666666634  0.6803385416666666 0.653125000000002  C 1.1338975694444444 0.21770833333333073  1.6710069444444446 0  2.2916666666666665 0  L 52.708333333333336 0  C 53.328993055555564 0  53.866102430555564 0.21770833333333073  54.319661458333336 0.653125000000002  Z " fill-rule="nonzero" fill="#ffffff" stroke="none" transform="matrix(1 0 0 1 10 10 )" />
  </g>
</svg>