<?xml version="1.0" encoding="utf-8"?>
<svg version="1.1" xmlns:xlink="http://www.w3.org/1999/xlink" width="11px" height="12px" xmlns="http://www.w3.org/2000/svg">
  <g transform="matrix(1 0 0 1 -804 -7 )">
    <path d="M 8.199869791666668 7.30078125  C 8.223741319444446 7.32421875  8.235677083333332 7.354166666666665  8.235677083333332 7.390625000000001  L 8.235677083333332 8.2421875  C 8.235677083333332 8.502604166666664  8.148546006944446 8.734375  7.974283854166667 8.9375  C 7.80002170138889 9.140625  7.575629340277779 9.298177083333332  7.301106770833333 9.41015625  C 7.02658420138889 9.522135416666666  6.744900173611112 9.606770833333334  6.4560546875 9.6640625  C 6.16720920138889 9.721354166666666  5.88671875 9.75  5.614583333333333 9.75  C 4.635850694444445 9.75  3.8182508680555562 9.388020833333334  3.1617838541666665 8.6640625  C 2.505316840277778 7.940104166666665  2.177083333333333 7.039062500000001  2.177083333333333 5.9609375  C 2.177083333333333 4.903645833333334  2.5017361111111116 4.020833333333333  3.1510416666666665 3.3124999999999996  C 3.8003472222222228 2.604166666666666  4.609592013888889 2.25  5.578776041666667 2.25  C 5.741102430555555 2.25  5.921332465277779 2.26171875  6.119466145833333 2.28515625  C 6.31759982638889 2.30859375  6.539605034722223 2.35546875  6.785481770833333 2.42578125  C 7.0313585069444455 2.49609375  7.25217013888889 2.5846354166666665  7.447916666666667 2.6914062499999996  C 7.6436631944444455 2.7981770833333326  7.8083767361111125 2.9453125000000004  7.942057291666667 3.1328125000000004  C 8.075737847222223 3.3203125000000004  8.142578125 3.5312500000000004  8.142578125 3.7656250000000004  L 8.142578125 4.6171875  C 8.142578125 4.700520833333332  8.104383680555555 4.7421875  8.027994791666668 4.7421875  L 7.182942708333333 4.7421875  C 7.1065538194444455 4.7421875  7.068359375000001 4.700520833333332  7.068359375 4.6171875  L 7.068359375 4.0703125  C 7.068359375000001 3.846354166666666  6.912000868055555 3.670572916666666  6.599283854166667 3.5429687500000004  C 6.286566840277779 3.415364583333332  5.958333333333333 3.3515625  5.614583333333333 3.3515625  C 4.946180555555556 3.3515625  4.400716145833334 3.5898437500000004  3.9781901041666665 4.06640625  C 3.5556640625 4.54296875  3.3444010416666665 5.161458333333334  3.3444010416666665 5.921875  C 3.3444010416666665 6.708333333333332  3.5628255208333335 7.358072916666667  3.9996744791666665 7.871093750000001  C 4.4365234375 8.384114583333332  4.993923611111112 8.640625  5.671875 8.640625  C 5.996527777777779 8.640625  6.325954861111112 8.578125  6.66015625 8.453125  C 6.99435763888889 8.328125  7.161458333333333 8.15625  7.161458333333333 7.937499999999999  L 7.161458333333333 7.390625000000001  C 7.161458333333333 7.354166666666665  7.172200520833333 7.32421875  7.193684895833333 7.30078125  C 7.215169270833333 7.27734375  7.240234375 7.265625  7.268880208333333 7.265625  L 8.12109375 7.265625  C 8.149739583333332 7.265625  8.17599826388889 7.27734375  8.199869791666668 7.30078125  Z M 7.279622395833333 1.3984375000000004  C 6.7138671875 1.1328124999999996  6.120659722222223 1.0000000000000004  5.5 1.0000000000000004  C 4.879340277777778 1.0000000000000004  4.2861328125 1.1328124999999996  3.7203776041666665 1.3984375000000004  C 3.1546223958333335 1.6640625  2.667643229166667 2.0195312500000004  2.259440104166667 2.4648437500000004  C 1.8512369791666667 2.9101562500000004  1.525390625 3.4414062499999996  1.2819010416666665 4.05859375  C 1.0384114583333335 4.67578125  0.9166666666666666 5.322916666666666  0.9166666666666666 6  C 0.9166666666666666 6.677083333333334  1.0384114583333335 7.32421875  1.2819010416666665 7.941406250000001  C 1.525390625 8.55859375  1.8512369791666667 9.08984375  2.259440104166667 9.53515625  C 2.667643229166667 9.98046875  3.1546223958333335 10.3359375  3.7203776041666665 10.6015625  C 4.2861328125 10.8671875  4.879340277777778 11  5.5 11  C 6.120659722222223 11  6.7138671875 10.8671875  7.279622395833333 10.6015625  C 7.845377604166667 10.3359375  8.332356770833332 9.98046875  8.740559895833332 9.53515625  C 9.148763020833332 9.08984375  9.474609375 8.55859375  9.718098958333332 7.941406250000001  C 9.961588541666668 7.32421875  10.083333333333332 6.677083333333334  10.083333333333332 6  C 10.083333333333332 5.322916666666666  9.961588541666668 4.67578125  9.718098958333332 4.05859375  C 9.474609375 3.4414062499999996  9.148763020833332 2.9101562500000004  8.740559895833332 2.4648437500000004  C 8.332356770833332 2.0195312500000004  7.845377604166667 1.6640625  7.279622395833333 1.3984375000000004  Z M 10.262369791666668 2.98828125  C 10.754123263888888 3.907552083333332  11 4.911458333333332  11 6  C 11 7.088541666666667  10.754123263888888 8.092447916666664  10.262369791666668 9.01171875  C 9.770616319444446 9.930989583333334  9.103407118055555 10.658854166666666  8.2607421875 11.1953125  C 7.4180772569444455 11.731770833333334  6.497829861111112 12  5.5 12  C 4.502170138888889 12  3.581922743055556 11.731770833333334  2.7392578125 11.1953125  C 1.8965928819444446 10.658854166666666  1.2293836805555558 9.930989583333334  0.7376302083333334 9.01171875  C 0.24587673611111108 8.092447916666664  0 7.088541666666667  0 6  C 0 4.911458333333332  0.24587673611111108 3.907552083333332  0.7376302083333334 2.98828125  C 1.2293836805555558 2.0690104166666665  1.8965928819444446 1.3411458333333321  2.7392578125 0.8046874999999996  C 3.581922743055556 0.26822916666666563  4.502170138888889 0  5.5 0  C 6.497829861111112 0  7.4180772569444455 0.26822916666666563  8.2607421875 0.8046874999999996  C 9.103407118055555 1.3411458333333321  9.770616319444446 2.0690104166666665  10.262369791666668 2.98828125  Z " fill-rule="nonzero" fill="#000000" stroke="none" transform="matrix(1 0 0 1 804 7 )" />
  </g>
</svg>