<?xml version="1.0" encoding="utf-8"?>
<svg version="1.1" xmlns:xlink="http://www.w3.org/1999/xlink" width="177px" height="41px" xmlns="http://www.w3.org/2000/svg">
  <defs>
    <filter x="91px" y="693px" width="177px" height="41px" filterUnits="userSpaceOnUse" id="filter181">
      <feOffset dx="5" dy="5" in="SourceAlpha" result="shadowOffsetInner" />
      <feGaussianBlur stdDeviation="2.5" in="shadowOffsetInner" result="shadowGaussian" />
      <feComposite in2="shadowGaussian" operator="atop" in="SourceAlpha" result="shadowComposite" />
      <feColorMatrix type="matrix" values="0 0 0 0 0  0 0 0 0 0  0 0 0 0 0  0 0 0 0.34901960784313724 0  " in="shadowComposite" />
    </filter>
    <g id="widget182">
      <path d="M 91.5 698  A 4.5 4.5 0 0 1 96 693.5 L 253 693.5  A 4.5 4.5 0 0 1 257.5 698 L 257.5 719  A 4.5 4.5 0 0 1 253 723.5 L 96 723.5  A 4.5 4.5 0 0 1 91.5 719 L 91.5 698  Z " fill-rule="nonzero" fill="#1e98d7" stroke="none" fill-opacity="0" />
      <path d="M 91.5 698  A 4.5 4.5 0 0 1 96 693.5 L 253 693.5  A 4.5 4.5 0 0 1 257.5 698 L 257.5 719  A 4.5 4.5 0 0 1 253 723.5 L 96 723.5  A 4.5 4.5 0 0 1 91.5 719 L 91.5 698  Z " stroke-width="1" stroke="#1720b6" fill="none" />
    </g>
  </defs>
  <g transform="matrix(1 0 0 1 -91 -693 )">
    <use xlink:href="#widget182" filter="url(#filter181)" />
    <use xlink:href="#widget182" />
  </g>
</svg>