<?xml version="1.0" encoding="utf-8"?>
<svg version="1.1" xmlns:xlink="http://www.w3.org/1999/xlink" width="22px" height="12px" xmlns="http://www.w3.org/2000/svg">
  <g transform="matrix(1 0 0 1 -16 -26 )">
    <path d="M 21.779559118236474 9.814432989690722  C 21.926519706078825 9.951890034364258  22 10.109965635738831  22 10.288659793814434  C 22 10.467353951890033  21.926519706078825 10.625429553264603  21.779559118236474 10.762886597938145  L 20.67735470941884 11.79381443298969  C 20.53039412157649 11.931271477663227  20.361389445557784 12  20.170340681362724 12  C 19.979291917167668 12  19.810287241148966 11.931271477663227  19.663326653306612 11.79381443298969  L 11 3.6907216494845363  L 2.3366733466933867 11.79381443298969  C 2.1897127588510354 11.931271477663227  2.0207080828323316 12  1.8296593186372745 12  C 1.638610554442218 12  1.4696058784235142 11.931271477663227  1.3226452905811623 11.79381443298969  L 0.22044088176352705 10.762886597938145  C 0.0734802939211759 10.625429553264603  0 10.467353951890033  0 10.288659793814434  C 0 10.109965635738831  0.0734802939211759 9.951890034364258  0.22044088176352705 9.814432989690722  L 10.492985971943888 0.20618556701030988  C 10.63994655978624 0.06872852233676818  10.808951235804944 0  11 0  C 11.191048764195058 0  11.360053440213761 0.06872852233676818  11.507014028056112 0.20618556701030988  L 21.779559118236474 9.814432989690722  Z " fill-rule="nonzero" fill="#000000" stroke="none" transform="matrix(1 0 0 1 16 26 )" />
  </g>
</svg>