<?xml version="1.0" encoding="utf-8"?>
<svg version="1.1" xmlns:xlink="http://www.w3.org/1999/xlink" width="23px" height="19px" xmlns="http://www.w3.org/2000/svg">
  <g transform="matrix(1 0 0 1 -1252 -9 )">
    <path d="M 5.7275390625 1.3055370246831224  C 7.489474826388889 0.4351790082277067  9.413628472222223 0  11.5 0  C 13.586371527777779 0  15.510525173611114 0.4351790082277067  17.2724609375 1.3055370246831224  C 19.03439670138889 2.175895041138536  20.429470486111114 3.356793417834111  21.457682291666668 4.848232154769846  C 22.485894097222218 6.33967089170558  23 7.9684233933733575  23 9.734489659773184  C 23 11.8554591950189  22.268771701388886 13.7630642650656  20.806315104166668 15.457304869913274  C 19.343858506944446 17.151545474760955  17.454644097222225 18.323993773626864  15.138671875 18.974649766511007  C 14.869140625000002 19.01690015565933  14.669487847222225 18.987324883255503  14.539713541666668 18.885923949299535  C 14.40993923611111 18.784523015343563  14.345052083333332 18.657771847898598  14.345052083333332 18.505670446964643  C 14.345052083333332 18.48032021347565  14.347547743055557 18.157104736490997  14.3525390625 17.536024016010675  C 14.357530381944446 16.914943295530353  14.360026041666668 16.346675561485437  14.360026041666668 15.831220813875918  C 14.360026041666668 15.011563264398486  14.100477430555557 14.411607738492327  13.581380208333332 14.031354236157437  C 14.150390625 13.980653769179453  14.662000868055557 13.904603068712474  15.1162109375 13.803202134756505  C 15.570421006944446 13.701801200800535  16.039605034722225 13.537024683122082  16.523763020833332 13.308872581721147  C 17.007921006944446 13.080720480320213  17.412217881944446 12.799755392483878  17.736653645833332 12.46597731821214  C 18.061089409722225 12.132199243940402  18.325629340277782 11.688570157883033  18.5302734375 11.135090060040026  C 18.734917534722225 10.581609962197021  18.837239583333332 9.945741605514785  18.837239583333332 9.22748498999333  C 18.837239583333332 8.221925728263287  18.442925347222225 7.351567711807872  17.654296875 6.616410940627086  C 18.02365451388889 5.847453858127641  17.983723958333332 4.98554591950189  17.534505208333332 4.030687124749833  C 17.254991319444446 3.954636424282856  16.850694444444446 4.001111852346006  16.321614583333332 4.170113408939294  C 15.792534722222225 4.339114965532576  15.333333333333332 4.525016677785191  14.944010416666668 4.727818545697131  L 14.375 5.032021347565044  C 13.446614583333336 4.812319323993773  12.488281250000002 4.702468312208139  11.5 4.702468312208139  C 10.51171875 4.702468312208139  9.553385416666666 4.812319323993773  8.625 5.032021347565044  C 8.465277777777779 4.939070491438736  8.253146701388891 4.824994440738267  7.988606770833334 4.689793195463642  C 7.724066840277779 4.554591950189014  7.307291666666668 4.391927951967979  6.73828125 4.201801200800534  C 6.169270833333334 4.011674449633089  5.745008680555557 3.954636424282856  5.465494791666667 4.030687124749833  C 5.016276041666667 4.98554591950189  4.976345486111112 5.847453858127641  5.345703125 6.616410940627086  C 4.557074652777779 7.351567711807872  4.162760416666667 8.221925728263287  4.162760416666667 9.22748498999333  C 4.162760416666667 9.945741605514785  4.265082465277779 10.579497442739605  4.4697265625 11.12875250166778  C 4.674370659722222 11.678007560595951  4.936414930555556 12.121636646653323  5.255859375 12.459639759839893  C 5.5753038194444455 12.79764287302646  5.977105034722223 13.080720480320213  6.461263020833334 13.308872581721147  C 6.945421006944445 13.537024683122082  7.414605034722223 13.701801200800535  7.868815104166666 13.803202134756505  C 8.323025173611112 13.904603068712474  8.834635416666666 13.980653769179453  9.403645833333334 14.031354236157437  C 9.014322916666666 14.335557038025351  8.769748263888891 14.770736046253058  8.669921875 15.33689126084056  C 8.460286458333334 15.421392039137203  8.235677083333334 15.484767622859685  7.99609375 15.527018012008005  C 7.756510416666666 15.569268401156327  7.472005208333334 15.590393595730486  7.142578125 15.590393595730486  C 6.813151041666668 15.590393595730486  6.486219618055557 15.499555259061596  6.161783854166666 15.317878585723816  C 5.837348090277779 15.136201912386037  5.560329861111112 14.872136980209028  5.330729166666667 14.525683789192795  C 5.141059027777779 14.255281298643537  4.898980034722222 14.03557927507227  4.6044921875 13.866577718478986  C 4.310004340277779 13.6975761618857  4.062934027777779 13.596175227929729  3.86328125 13.562374916611073  L 3.563802083333333 13.524349566377584  C 3.354166666666667 13.524349566377584  3.2094184027777777 13.543362241494329  3.129557291666667 13.58138759172782  C 3.0496961805555562 13.619412941961308  3.024739583333334 13.668000889481878  3.0546875 13.727151434289526  C 3.084635416666667 13.786301979097173  3.129557291666667 13.845452523904825  3.189453125 13.904603068712474  C 3.249348958333334 13.963753613520124  3.3142361111111116 14.014454080498108  3.384114583333333 14.056704469646432  L 3.488932291666667 14.120080053368913  C 3.7085503472222223 14.204580831665552  3.9256727430555562 14.365132310429175  4.140299479166667 14.601734489659773  C 4.354926215277779 14.838336668890369  4.512152777777779 15.053813653546806  4.611979166666667 15.248165443629086  L 4.76171875 15.539693128752502  C 4.891493055555556 15.860796086279741  5.111111111111112 16.120635979541916  5.420572916666667 16.319212808539024  C 5.730034722222223 16.517789637536136  6.064453125000001 16.6445408049811  6.423828125 16.699466310873916  C 6.783203125000001 16.75439181676673  7.13009982638889 16.78396708917056  7.464518229166666 16.78819212808539  C 7.798936631944445 16.79241716700022  8.075954861111112 16.77762953079831  8.295572916666666 16.743829219479654  L 8.639973958333334 16.693128752501668  C 8.639973958333334 17.014231710028906  8.642469618055557 17.38814765399155  8.6474609375 17.81487658438959  C 8.652452256944445 18.241605514787636  8.654947916666666 18.471870135645986  8.654947916666666 18.505670446964643  C 8.654947916666666 18.657771847898598  8.590060763888891 18.784523015343563  8.460286458333334 18.885923949299535  C 8.330512152777779 18.987324883255503  8.130859375 19.01690015565933  7.861328125 18.974649766511007  C 5.545355902777779 18.323993773626864  3.6561414930555562 17.151545474760955  2.1936848958333335 15.457304869913274  C 0.7312282986111109 13.7630642650656  0 11.8554591950189  0 9.734489659773184  C 0 7.9684233933733575  0.5141059027777777 6.33967089170558  1.5423177083333335 4.848232154769846  C 2.5705295138888893 3.356793417834111  3.9656032986111116 2.175895041138536  5.7275390625 1.3055370246831224  Z M 4.162760416666667 14.006004002668446  C 4.252604166666667 14.056704469646432  4.3174913194444455 14.048254391816767  4.357421875 13.980653769179453  C 4.387369791666667 13.921503224371804  4.352430555555556 13.870802757393816  4.252604166666667 13.828552368245498  C 4.152777777777779 13.803202134756505  4.087890625 13.811652212586166  4.057942708333333 13.85390260173449  C 4.027994791666667 13.913053146542136  4.062934027777779 13.963753613520124  4.162760416666667 14.006004002668446  Z M 4.58203125 14.37358238825884  C 4.681857638888889 14.458083166555479  4.76171875 14.470758283299977  4.821614583333333 14.411607738492327  C 4.891493055555556 14.369357349344005  4.881510416666667 14.301756726706694  4.791666666666667 14.208805870580388  C 4.691840277777779 14.132755170113409  4.611979166666667 14.120080053368913  4.552083333333333 14.170780520346899  C 4.482204861111112 14.213030909495217  4.4921875 14.280631532132531  4.58203125 14.37358238825884  Z M 5.016276041666667 14.893262174783189  C 5.106119791666667 15.003113186568823  5.190972222222222 15.032688458972649  5.270833333333333 14.981987991994663  C 5.360677083333333 14.922837447187012  5.360677083333333 14.842561707805205  5.270833333333333 14.741160773849233  C 5.190972222222222 14.631309762063596  5.106119791666667 14.605959528574605  5.016276041666667 14.665110073382253  C 4.926432291666667 14.707360462530575  4.926432291666667 14.783411162997552  5.016276041666667 14.893262174783189  Z M 5.600260416666667 15.476317545030021  C 5.720052083333333 15.577718478985991  5.819878472222223 15.590393595730486  5.899739583333334 15.51434289526351  C 5.979600694444445 15.446742272626196  5.959635416666668 15.366466533244385  5.83984375 15.273515677118079  C 5.720052083333333 15.172114743162107  5.6202256944444455 15.159439626417612  5.540364583333333 15.23549032688459  C 5.450520833333333 15.303090949521902  5.470486111111112 15.383366688903712  5.600260416666667 15.476317545030021  Z M 6.46875 15.907271514342895  C 6.618489583333334 15.957971981320881  6.713324652777779 15.932621747831886  6.753255208333334 15.831220813875918  C 6.783203125 15.738269957749612  6.718315972222223 15.670669335112295  6.55859375 15.628418945963976  C 6.408854166666668 15.594618634645318  6.314019097222223 15.624193907049145  6.274088541666666 15.71714476317545  C 6.2341579861111125 15.810095619301755  6.299045138888889 15.873471203024238  6.46875 15.907271514342895  Z M 7.45703125 16.034022681787857  C 7.616753472222223 16.034022681787857  7.696614583333334 15.987547253724703  7.696614583333334 15.894596397598399  C 7.696614583333334 15.784745385812764  7.611762152777779 15.738269957749612  7.442057291666666 15.755170113408939  C 7.282335069444445 15.755170113408939  7.202473958333334 15.801645541472093  7.202473958333334 15.894596397598399  C 7.202473958333334 16.004447409384035  7.287326388888889 16.050922837447185  7.45703125 16.034022681787857  Z M 8.35546875 15.945296864576385  C 8.515190972222223 15.911496553257727  8.585069444444445 15.85234600845008  8.565104166666666 15.767845230153437  C 8.545138888888891 15.67489437402713  8.455295138888891 15.63686902379364  8.295572916666666 15.653769179452969  C 8.135850694444445 15.67911941294196  8.065972222222223 15.742494996664442  8.0859375 15.843895930620413  C 8.105902777777779 15.945296864576385  8.195746527777779 15.979097175895044  8.35546875 15.945296864576385  Z " fill-rule="nonzero" fill="#000000" stroke="none" transform="matrix(1 0 0 1 1252 9 )" />
  </g>
</svg>