<?xml version="1.0" encoding="utf-8"?>
<svg version="1.1" xmlns:xlink="http://www.w3.org/1999/xlink" width="37px" height="22px" xmlns="http://www.w3.org/2000/svg">
  <g transform="matrix(1 0 0 1 -17 -33 )">
    <path d="M 36.62925851703407 17.993127147766323  C 36.87641950567802 18.245131729667804  37 18.534936998854523  37 18.86254295532646  C 37 19.190148911798392  36.87641950567802 19.479954180985107  36.62925851703407 19.7319587628866  L 34.77555110220441 21.621993127147764  C 34.528390113560455 21.87399770904925  34.24415497661991 22  33.92284569138276 22  C 33.60153640614563 22  33.31730126920508 21.87399770904925  33.07014028056112 21.621993127147764  L 18.5 6.766323024054984  L 3.929859719438878 21.621993127147764  C 3.6826987307949235 21.87399770904925  3.398463593854376 22  3.0771543086172346 22  C 2.7558450233800937 22  2.4716098864395466 21.87399770904925  2.224448897795591 21.621993127147764  L 0.37074148296593185 19.7319587628866  C 0.12358049432197765 19.479954180985107  0 19.190148911798392  0 18.86254295532646  C 0 18.534936998854523  0.12358049432197765 18.245131729667804  0.37074148296593185 17.993127147766323  L 17.647294589178355 0.3780068728522348  C 17.894455577822313 0.12600229095074167  18.178690714762862 0  18.5 0  C 18.82130928523714 0  19.10554442217769 0.12600229095074167  19.352705410821642 0.3780068728522348  L 36.62925851703407 17.993127147766323  Z " fill-rule="nonzero" fill="#000000" stroke="none" transform="matrix(1 0 0 1 17 33 )" />
  </g>
</svg>