<?xml version="1.0" encoding="utf-8"?>
<svg version="1.1" xmlns:xlink="http://www.w3.org/1999/xlink" width="34px" height="20px" xmlns="http://www.w3.org/2000/svg">
  <g transform="matrix(1 0 0 1 -1088 -7 )">
    <path d="M 8.466796875 1.3742494996664445  C 11.071397569444445 0.45808316655548076  13.915798611111112 0  17 0  C 20.08420138888889 0  22.928602430555557 0.45808316655548076  25.533203125 1.3742494996664445  C 28.137803819444446 2.290415832777406  30.200086805555557 3.5334667556148536  31.720052083333336 5.103402268178785  C 33.24001736111111 6.673337780742717  34 8.387814098287745  34 10.246831220813878  C 34 12.479430731598843  32.91905381944444 14.487436068490105  30.757161458333336 16.270847231487657  C 28.595269097222225 18.054258394485213  25.802517361111114 19.288414498554594  22.37890625 19.973315543695797  C 21.980468750000004 20.017789637536136  21.685329861111114 19.9866577718479  21.493489583333336 19.879919946631087  C 21.301649305555554 19.773182121414276  21.205729166666664 19.639759839893262  21.205729166666664 19.479653102068045  C 21.205729166666664 19.452968645763843  21.20941840277778 19.11274182788526  21.216796875 18.458972648432287  C 21.224175347222225 17.80520346897932  21.227864583333336 17.207026906826776  21.227864583333336 16.66444296197465  C 21.227864583333336 15.80164554147209  20.84418402777778 15.170113408939292  20.076822916666664 14.76984656437625  C 20.91796875 14.716477651767846  21.67426215277778 14.636424282855236  22.345703125 14.529686457638427  C 23.017144097222225 14.422948632421615  23.710720486111114 14.249499666444297  24.426432291666664 14.00933955970647  C 25.142144097222225 13.769179452968645  25.739800347222225 13.473426728930399  26.219401041666664 13.122081387591727  C 26.699001736111114 12.770736046253056  27.090060763888893 12.303758060929509  27.392578125 11.72114743162108  C 27.695095486111114 11.138536802312654  27.846354166666664 10.469201690015563  27.846354166666664 9.713142094729822  C 27.846354166666664 8.654658661329774  27.263454861111114 7.738492328218813  26.09765625 6.964643095396932  C 26.643663194444446 6.15521458750278  26.584635416666664 5.247943073159885  25.920572916666664 4.242828552368245  C 25.507378472222225 4.162775183455638  24.909722222222225 4.211696686680007  24.127604166666664 4.389593062041362  C 23.345486111111114 4.5674894374027115  22.666666666666664 4.763175450300201  22.091145833333336 4.976651100733822  L 21.25 5.296864576384257  C 19.877604166666668 5.065599288414497  18.460937500000004 4.94996664442962  17 4.94996664442962  C 15.5390625 4.94996664442962  14.122395833333332 5.065599288414497  12.75 5.296864576384257  C 12.51388888888889 5.199021569935511  12.200303819444446 5.078941516566598  11.809244791666668 4.9366244162775175  C 11.41818576388889 4.794307315988435  10.802083333333334 4.623082054703136  9.9609375 4.422948632421615  C 9.119791666666668 4.222815210140094  8.492621527777779 4.162775183455638  8.079427083333334 4.242828552368245  C 7.415364583333334 5.247943073159885  7.356336805555556 6.15521458750278  7.90234375 6.964643095396932  C 6.736545138888889 7.738492328218813  6.153645833333334 8.654658661329774  6.153645833333334 9.713142094729822  C 6.153645833333334 10.469201690015563  6.304904513888889 11.136313097620636  6.607421875 11.714476317545031  C 6.909939236111112 12.292639537469423  7.297309027777779 12.759617522792972  7.76953125 13.115410273515678  C 8.241753472222223 13.471203024238378  8.835720486111112 13.769179452968645  9.551432291666668 14.00933955970647  C 10.267144097222223 14.249499666444297  10.960720486111112 14.422948632421615  11.632161458333332 14.529686457638427  C 12.303602430555557 14.636424282855236  13.059895833333332 14.716477651767846  13.901041666666668 14.76984656437625  C 13.325520833333332 15.090060040026685  12.963975694444446 15.548143206582166  12.81640625 16.144096064042696  C 12.506510416666668 16.23304425172337  12.174479166666668 16.299755392483878  11.8203125 16.344229486324217  C 11.466145833333332 16.388703580164552  11.045572916666668 16.410940627084724  10.55859375 16.410940627084724  C 10.071614583333334 16.410940627084724  9.588324652777779 16.315321325327997  9.108723958333332 16.124082721814542  C 8.62912326388889 15.932844118301091  8.219618055555555 15.654881031798977  7.880208333333334 15.290193462308206  C 7.599826388888889 15.005559261730038  7.241970486111112 14.774293973760283  6.806640625 14.596397598398934  C 6.371310763888889 14.418501223037579  6.006076388888889 14.311763397820767  5.7109375 14.276184122748498  L 5.268229166666666 14.236157438292194  C 4.958333333333334 14.236157438292194  4.744357638888888 14.256170780520346  4.626302083333334 14.296197464976652  C 4.508246527777779 14.336224149432955  4.471354166666667 14.387369357349344  4.515625 14.449633088725818  C 4.559895833333334 14.511896820102288  4.626302083333334 14.574160551478762  4.71484375 14.636424282855236  C 4.803385416666667 14.69868801423171  4.899305555555556 14.752056926840114  5.002604166666666 14.796531020680455  L 5.157552083333334 14.863242161440962  C 5.482204861111112 14.952190349121635  5.803168402777779 15.121191905714921  6.120442708333334 15.370246831220813  C 6.437717013888889 15.619301756726705  6.670138888888889 15.846119635312428  6.817708333333334 16.050700466977986  L 7.0390625 16.357571714476318  C 7.230902777777779 16.695574827662885  7.555555555555556 16.969090504780965  8.013020833333334 17.178118745830552  C 8.470486111111112 17.387146986880143  8.964843750000002 17.520569268401157  9.49609375 17.578385590393594  C 10.027343750000002 17.636201912386035  10.540147569444446 17.667333778074273  11.034505208333332 17.671781187458308  C 11.528862847222223 17.67622859684234  11.938368055555557 17.66066266399822  12.263020833333332 17.62508338892595  L 12.772135416666668 17.571714476317545  C 12.772135416666668 17.909717589504112  12.775824652777779 18.303313319991105  12.783203125 18.752501667778517  C 12.790581597222223 19.201690015565934  12.794270833333332 19.444073826995773  12.794270833333332 19.479653102068045  C 12.794270833333332 19.639759839893262  12.698350694444446 19.773182121414276  12.506510416666668 19.879919946631087  C 12.31467013888889 19.9866577718479  12.01953125 20.017789637536136  11.62109375 19.973315543695797  C 8.19748263888889 19.288414498554594  5.404730902777779 18.054258394485213  3.242838541666667 16.270847231487657  C 1.0809461805555554 14.487436068490105  0 12.479430731598843  0 10.246831220813878  C 0 8.387814098287745  0.7599826388888888 6.673337780742717  2.279947916666667 5.103402268178785  C 3.7999131944444446 3.5334667556148536  5.862196180555556 2.290415832777406  8.466796875 1.3742494996664445  Z M 6.153645833333334 14.743162108072047  C 6.286458333333334 14.796531020680455  6.382378472222223 14.787636201912386  6.44140625 14.716477651767846  C 6.485677083333334 14.654213920391372  6.434027777777779 14.600845007782965  6.286458333333334 14.55637091394263  C 6.138888888888889 14.529686457638427  6.04296875 14.53858127640649  5.998697916666666 14.583055370246832  C 5.954427083333334 14.645319101623302  6.006076388888889 14.69868801423171  6.153645833333334 14.743162108072047  Z M 6.7734375 15.13008672448299  C 6.921006944444445 15.219034912163663  7.0390625 15.232377140315766  7.127604166666666 15.170113408939292  C 7.230902777777779 15.125639315098953  7.216145833333334 15.054480764954414  7.083333333333334 14.956637758505671  C 6.935763888888889 14.876584389593061  6.817708333333334 14.863242161440962  6.729166666666666 14.916611074049367  C 6.625868055555556 14.961085167889703  6.640625 15.032243718034245  6.7734375 15.13008672448299  Z M 7.415364583333334 15.677118078719145  C 7.548177083333334 15.792750722704024  7.673611111111112 15.823882588392262  7.791666666666666 15.770513675783855  C 7.924479166666666 15.708249944407381  7.924479166666666 15.623749166110741  7.791666666666666 15.51701134089393  C 7.673611111111112 15.401378696909049  7.548177083333334 15.374694240604846  7.415364583333334 15.43695797198132  C 7.282552083333334 15.481432065821659  7.282552083333334 15.561485434734266  7.415364583333334 15.677118078719145  Z M 8.278645833333334 16.29086057371581  C 8.455729166666666 16.397598398932622  8.603298611111112 16.410940627084724  8.721354166666668 16.330887258172115  C 8.839409722222223 16.259728708027573  8.809895833333334 16.17522792973093  8.6328125 16.07738492328219  C 8.455729166666666 15.970647098065376  8.308159722222223 15.957304869913276  8.190104166666666 16.03735823882588  C 8.057291666666666 16.108516788970423  8.086805555555555 16.193017567267066  8.278645833333334 16.29086057371581  Z M 9.5625 16.74449633088726  C 9.783854166666668 16.797865243495664  9.92404513888889 16.77118078719146  9.983072916666668 16.66444296197465  C 10.02734375 16.566599955525906  9.931423611111112 16.495441405381364  9.6953125 16.450967311541028  C 9.473958333333334 16.415388036468755  9.333767361111112 16.446519902156997  9.274739583333332 16.544362908605738  C 9.215711805555557 16.64220591505448  9.311631944444445 16.708917055814986  9.5625 16.74449633088726  Z M 11.0234375 16.877918612408273  C 11.259548611111112 16.877918612408273  11.377604166666668 16.8289971091839  11.377604166666668 16.731154102735157  C 11.377604166666668 16.615521458750276  11.25217013888889 16.566599955525906  11.001302083333332 16.584389593062042  C 10.765190972222223 16.584389593062042  10.647135416666668 16.633311096286413  10.647135416666668 16.731154102735157  C 10.647135416666668 16.84678674672004  10.772569444444445 16.895708249944406  11.0234375 16.877918612408273  Z M 12.3515625 16.784523015343563  C 12.587673611111112 16.74894374027129  12.690972222222223 16.68668000889482  12.661458333333332 16.597731821214143  C 12.631944444444446 16.4998888147654  12.499131944444446 16.459862130309094  12.263020833333332 16.47765176784523  C 12.026909722222223 16.504336224149434  11.923611111111112 16.571047364909937  11.953125 16.67778519012675  C 11.98263888888889 16.784523015343563  12.11545138888889 16.820102290415836  12.3515625 16.784523015343563  Z " fill-rule="nonzero" fill="#000000" stroke="none" transform="matrix(1 0 0 1 1088 7 )" />
  </g>
</svg>