<?xml version="1.0" encoding="utf-8"?>
<svg version="1.1" xmlns:xlink="http://www.w3.org/1999/xlink" width="31px" height="20px" xmlns="http://www.w3.org/2000/svg">
  <g transform="matrix(1 0 0 1 -1135 -13 )">
    <path d="M 0.38346354166666663 6.498637602179837  L 7 6.498637602179837  L 7 20  L 0.38346354166666663 20  L 0.38346354166666663 6.498637602179837  Z M 6.438151041666666 0.6607629427792916  C 7.110894097222223 1.1012715712988186  7.453993055555556 1.6575840145322407  7.467447916666666 2.3297002724795646  C 7.480902777777778 2.9927338782924595  7.141167534722223 3.5467756584922783  6.4482421875 3.9918256130790186  C 5.755316840277778 4.436875567665757  4.84375 4.659400544959129  3.713541666666667 4.659400544959129  L 3.673177083333333 4.659400544959129  C 2.5698784722222228 4.659400544959129  1.681857638888889 4.436875567665757  1.0091145833333335 3.9918256130790186  C 0.33637152777777773 3.5467756584922783  0 2.9927338782924595  0 2.3297002724795646  C 0 1.6575840145322407  0.34646267361111105 1.1012715712988186  1.0393880208333335 0.6607629427792916  C 1.7323133680555558 0.22025431425976238  2.637152777777778 0  3.75390625 0  C 4.870659722222222 0  5.765407986111112 0.22025431425976238  6.438151041666666 0.6607629427792916  Z M 28.901041666666664 7.731607629427792  C 30.300347222222218 8.762488646684831  31 10.272479564032697  31 12.26158038147139  L 31 20  L 24.360026041666664 20  L 24.360026041666664 12.779291553133515  C 24.360026041666664 11.825613079019073  24.087565104166664 11.07856494096276  23.542643229166664 10.538147138964577  C 22.997721354166664 9.997729336966392  22.146701388888893 9.727520435967303  20.989583333333336 9.727520435967303  C 20.141927083333336 9.727520435967303  19.43218315972222 9.884196185286102  18.8603515625 10.197547683923705  C 18.288519965277782 10.510899182561309  17.861328125 10.899182561307903  17.578776041666664 11.362397820163487  C 17.430772569444446 11.634877384196185  17.356770833333336 12.002724795640328  17.356770833333336 12.465940054495913  L 17.356770833333336 20  L 10.716796875 20  C 10.743706597222223 16.376021798365123  10.757161458333332 13.4377838328792  10.757161458333332 11.185286103542236  C 10.757161458333332 8.932788374205266  10.750434027777779 7.588555858310626  10.736979166666668 7.15258855585831  L 10.716796875 6.498637602179837  L 17.356770833333336 6.498637602179837  L 17.356770833333336 8.460490463215258  L 17.31640625 8.460490463215258  C 17.58550347222222 8.169845594913713  17.861328125 7.915531335149863  18.143880208333336 7.697547683923707  C 18.426432291666664 7.479564032697548  18.806532118055557 7.243415077202542  19.2841796875 6.9891008174386915  C 19.761827256944446 6.734786557674839  20.347113715277782 6.537238873751134  21.0400390625 6.396457765667575  C 21.732964409722225 6.255676657584015  22.503255208333336 6.185286103542234  23.350911458333336 6.185286103542234  C 25.651692708333336 6.185286103542234  27.50173611111111 6.700726612170753  28.901041666666664 7.731607629427792  Z " fill-rule="nonzero" fill="#000000" stroke="none" transform="matrix(1 0 0 1 1135 13 )" />
  </g>
</svg>