<?xml version="1.0" encoding="utf-8"?>
<svg version="1.1" xmlns:xlink="http://www.w3.org/1999/xlink" width="30px" height="19px" xmlns="http://www.w3.org/2000/svg">
  <g transform="matrix(1 0 0 1 -40 -6 )">
    <path d="M 28.325892857142858 7.300426136363637  C 28.962053571428573 6.949573863636363  29.52008928571429 6.558238636363637  30 6.126420454545453  L 30 16.84090909090909  C 30 17.43465909090909  29.73772321428572 17.942945075757578  29.213169642857142 18.365767045454547  C 28.688616071428577 18.788589015151512  28.05803571428572 19  27.32142857142857 19  L 2.678571428571429 19  C 1.9419642857142858 19  1.3113839285714286 18.788589015151512  0.7868303571428572 18.365767045454547  C 0.2622767857142858 17.942945075757578  0 17.43465909090909  0 16.84090909090909  L 0 6.126420454545453  C 0.4910714285714287 6.567234848484848  1.0546875000000002 6.9585700757575735  1.6908482142857144 7.300426136363637  C 5.7310267857142865 9.513494318181818  8.504464285714285 11.06534090909091  10.011160714285715 11.95596590909091  C 10.647321428571429 12.333806818181818  11.163504464285715 12.628432765151514  11.559709821428571 12.83984375  C 11.955915178571429 13.051254734848483  12.483258928571429 13.267163825757574  13.141741071428571 13.487571022727273  C 13.800223214285715 13.707978219696969  14.4140625 13.818181818181818  14.983258928571429 13.818181818181818  L 15 13.818181818181818  L 15.016741071428571 13.818181818181818  C 15.585937500000004 13.818181818181818  16.199776785714285 13.707978219696969  16.85825892857143 13.487571022727273  C 17.516741071428577 13.267163825757574  18.044084821428577 13.051254734848483  18.44029017857143 12.83984375  C 18.836495535714285 12.628432765151514  19.35267857142857 12.333806818181818  19.98883928571429 11.95596590909091  C 21.88616071428572 10.849431818181818  24.665178571428577 9.297585227272728  28.325892857142858 7.300426136363637  Z M 29.204799107142858 0.6342329545454536  C 29.734933035714285 1.0570549242424225  30 1.5653409090909092  30 2.159090909090909  C 30 2.869791666666664  29.726562500000004 3.5490056818181817  29.1796875 4.196732954545453  C 28.6328125 4.8444602272727275  27.95200892857143 5.3977272727272725  27.13727678571429 5.856534090909091  C 22.94084821428572 8.204545454545453  20.329241071428577 9.666429924242426  19.302455357142858 10.2421875  C 19.19084821428572 10.305160984848484  18.953683035714285 10.442353219696969  18.59095982142857 10.653764204545455  C 18.228236607142858 10.865175189393938  17.926897321428577 11.036103219696969  17.68694196428571 11.166548295454545  C 17.446986607142858 11.29699337121212  17.15680803571429 11.443181818181818  16.81640625 11.605113636363637  C 16.476004464285715 11.767045454545455  16.15513392857143 11.888494318181818  15.853794642857142 11.969460227272727  C 15.552455357142858 12.050426136363637  15.273437500000002 12.09090909090909  15.016741071428571 12.09090909090909  L 15 12.09090909090909  L 14.983258928571429 12.09090909090909  C 14.7265625 12.09090909090909  14.447544642857144 12.050426136363637  14.146205357142856 11.969460227272727  C 13.844866071428571 11.888494318181818  13.523995535714286 11.767045454545455  13.18359375 11.605113636363637  C 12.843191964285715 11.443181818181818  12.553013392857142 11.29699337121212  12.313058035714285 11.166548295454545  C 12.073102678571429 11.036103219696969  11.771763392857144 10.865175189393938  11.409040178571429 10.653764204545455  C 11.046316964285715 10.442353219696969  10.809151785714288 10.305160984848484  10.697544642857144 10.2421875  C 9.681919642857142 9.666429924242426  8.219866071428571 8.845525568181818  6.311383928571428 7.779474431818182  C 4.402901785714286 6.713423295454544  3.258928571428572 6.072443181818179  2.879464285714286 5.856534090909091  C 2.1875 5.478693181818179  1.5345982142857146 4.959161931818182  0.9207589285714287 4.297940340909091  C 0.30691964285714296 3.63671875  0 3.022727272727272  0 2.455965909090909  C 0 1.7542613636363629  0.2315848214285715 1.169507575757573  0.6947544642857144 0.7017045454545464  C 1.1579241071428574 0.23390151515151336  1.819196428571429 0  2.678571428571429 0  L 27.32142857142857 0  C 28.046875 0  28.67466517857143 0.21141098484848242  29.204799107142858 0.6342329545454536  Z " fill-rule="nonzero" fill="#000000" stroke="none" transform="matrix(1 0 0 1 40 6 )" />
  </g>
</svg>