<?xml version="1.0" encoding="utf-8"?>
<svg version="1.1" xmlns:xlink="http://www.w3.org/1999/xlink" width="26px" height="19px" xmlns="http://www.w3.org/2000/svg">
  <g transform="matrix(1 0 0 1 -1291 -9 )">
    <path d="M 0.3216145833333333 6.173705722070846  L 6 6.173705722070846  L 6 19  L 0.3216145833333333 19  L 0.3216145833333333 6.173705722070846  Z M 5.399739583333333 0.627724795640327  C 5.963975694444445 1.0462079927338777  6.251736111111112 1.5747048138056288  6.263020833333333 2.2132152588555862  C 6.274305555555555 2.8430971843778368  5.989366319444445 3.3694368755676645  5.408203125 3.7922343324250676  C 4.827039930555555 4.2150317892824685  4.0625 4.4264305177111725  3.1145833333333335 4.4264305177111725  L 3.0807291666666665 4.4264305177111725  C 2.1553819444444446 4.4264305177111725  1.410590277777778 4.2150317892824685  0.8463541666666667 3.7922343324250676  C 0.2821180555555555 3.3694368755676645  0 2.8430971843778368  0 2.2132152588555862  C 0 1.5747048138056288  0.2905815972222222 1.0462079927338777  0.8717447916666667 0.627724795640327  C 1.4529079861111112 0.20924159854677427  2.211805555555556 0  3.1484375 0  C 4.085069444444445 0  4.835503472222222 0.20924159854677427  5.399739583333333 0.627724795640327  Z M 24.239583333333332 7.345027247956403  C 25.413194444444443 8.32436421435059  26 9.758855585831062  26 11.648501362397822  L 26 19  L 20.430989583333332 19  L 20.430989583333332 12.140326975476839  C 20.430989583333332 11.23433242506812  20.202473958333332 10.524636693914623  19.745442708333332 10.011239782016348  C 19.288411458333332 9.497842870118072  18.57465277777778 9.241144414168938  17.604166666666668 9.241144414168938  C 16.893229166666668 9.241144414168938  16.297960069444446 9.389986376021797  15.818359375 9.68767029972752  C 15.338758680555557 9.985354223433243  14.98046875 10.354223433242508  14.743489583333332 10.794277929155314  C 14.61935763888889 11.053133514986376  14.557291666666668 11.40258855585831  14.557291666666668 11.842643051771118  L 14.557291666666668 19  L 8.98828125 19  C 9.010850694444445 15.557220708446865  9.022135416666666 12.76589464123524  9.022135416666666 10.626021798365123  C 9.022135416666666 8.486148955495004  9.016493055555557 7.209128065395094  9.005208333333334 6.794959128065395  L 8.98828125 6.173705722070846  L 14.557291666666668 6.173705722070846  L 14.557291666666668 8.037465940054496  L 14.5234375 8.037465940054496  C 14.749131944444445 7.761353315168028  14.98046875 7.51975476839237  15.217447916666668 7.312670299727522  C 15.454427083333332 7.105585831062671  15.773220486111112 6.881244323342415  16.173828125 6.639645776566757  C 16.57443576388889 6.398047229791097  17.065321180555557 6.210376930063577  17.646484375 6.076634877384197  C 18.227647569444446 5.942892824704814  18.873697916666668 5.876021798365122  19.584635416666668 5.876021798365122  C 21.514322916666668 5.876021798365122  23.06597222222222 6.365690281562215  24.239583333333332 7.345027247956403  Z " fill-rule="nonzero" fill="#000000" stroke="none" transform="matrix(1 0 0 1 1291 9 )" />
  </g>
</svg>