<?xml version="1.0" encoding="utf-8"?>
<svg version="1.1" xmlns:xlink="http://www.w3.org/1999/xlink" width="39px" height="20px" xmlns="http://www.w3.org/2000/svg">
  <g transform="matrix(1 0 0 1 -1127 -7 )">
    <path d="M 0.482421875 6.498637602179837  L 9 6.498637602179837  L 9 20  L 0.482421875 20  L 0.482421875 6.498637602179837  Z M 8.099609375 0.6607629427792916  C 8.945963541666668 1.1012715712988186  9.377604166666668 1.6575840145322407  9.39453125 2.3297002724795646  C 9.411458333333334 2.9927338782924595  8.984049479166668 3.5467756584922783  8.1123046875 3.9918256130790186  C 7.240559895833333 4.436875567665757  6.09375 4.659400544959129  4.671875 4.659400544959129  L 4.62109375 4.659400544959129  C 3.233072916666667 4.659400544959129  2.115885416666667 4.436875567665757  1.26953125 3.9918256130790186  C 0.42317708333333326 3.5467756584922783  0 2.9927338782924595  0 2.3297002724795646  C 0 1.6575840145322407  0.43587239583333326 1.1012715712988186  1.3076171875 0.6607629427792916  C 2.179361979166667 0.22025431425976238  3.317708333333334 0  4.72265625 0  C 6.127604166666667 0  7.253255208333334 0.22025431425976238  8.099609375 0.6607629427792916  Z M 36.359375 7.731607629427792  C 38.119791666666664 8.762488646684831  39 10.272479564032697  39 12.26158038147139  L 39 20  L 30.646484375 20  L 30.646484375 12.779291553133515  C 30.646484375 11.825613079019073  30.3037109375 11.07856494096276  29.6181640625 10.538147138964577  C 28.9326171875 9.997729336966392  27.86197916666667 9.727520435967303  26.40625 9.727520435967303  C 25.33984375 9.727520435967303  24.446940104166668 9.884196185286102  23.7275390625 10.197547683923705  C 23.008138020833336 10.510899182561309  22.470703125 10.899182561307903  22.115234375 11.362397820163487  C 21.929036458333336 11.634877384196185  21.8359375 12.002724795640328  21.8359375 12.465940054495913  L 21.8359375 20  L 13.482421875 20  C 13.516276041666668 16.376021798365123  13.533203125 13.4377838328792  13.533203125 11.185286103542236  C 13.533203125 8.932788374205266  13.524739583333334 7.588555858310626  13.5078125 7.15258855585831  L 13.482421875 6.498637602179837  L 21.8359375 6.498637602179837  L 21.8359375 8.460490463215258  L 21.78515625 8.460490463215258  C 22.123697916666668 8.169845594913713  22.470703125 7.915531335149863  22.826171875 7.697547683923707  C 23.181640625 7.479564032697548  23.659830729166668 7.243415077202542  24.2607421875 6.9891008174386915  C 24.861653645833336 6.734786557674839  25.597981770833336 6.537238873751134  26.4697265625 6.396457765667575  C 27.34147135416667 6.255676657584015  28.310546875 6.185286103542234  29.376953125 6.185286103542234  C 32.271484375 6.185286103542234  34.598958333333336 6.700726612170753  36.359375 7.731607629427792  Z " fill-rule="nonzero" fill="#000000" stroke="none" transform="matrix(1 0 0 1 1127 7 )" />
  </g>
</svg>