<?xml version="1.0" encoding="utf-8"?>
<svg version="1.1" xmlns:xlink="http://www.w3.org/1999/xlink" width="30px" height="19px" xmlns="http://www.w3.org/2000/svg">
  <g transform="matrix(1 0 0 1 -293 -6 )">
    <path d="M 7.470703125 1.3055370246831224  C 9.768880208333334 0.4351790082277067  12.278645833333334 0  15 0  C 17.721354166666668 0  20.23111979166667 0.4351790082277067  22.529296875 1.3055370246831224  C 24.827473958333332 2.175895041138536  26.64713541666667 3.356793417834111  27.98828125 4.848232154769846  C 29.32942708333333 6.33967089170558  30 7.9684233933733575  30 9.734489659773184  C 30 11.8554591950189  29.04622395833333 13.7630642650656  27.138671875 15.457304869913274  C 25.231119791666668 17.151545474760955  22.766927083333336 18.323993773626864  19.74609375 18.974649766511007  C 19.394531250000004 19.01690015565933  19.134114583333336 18.987324883255503  18.96484375 18.885923949299535  C 18.795572916666668 18.784523015343563  18.7109375 18.657771847898598  18.7109375 18.505670446964643  C 18.7109375 18.48032021347565  18.714192708333336 18.157104736490997  18.720703125 17.536024016010675  C 18.727213541666668 16.914943295530353  18.73046875 16.346675561485437  18.73046875 15.831220813875918  C 18.73046875 15.011563264398486  18.391927083333336 14.411607738492327  17.71484375 14.031354236157437  C 18.45703125 13.980653769179453  19.124348958333336 13.904603068712474  19.716796875 13.803202134756505  C 20.309244791666668 13.701801200800535  20.921223958333336 13.537024683122082  21.552734375 13.308872581721147  C 22.184244791666668 13.080720480320213  22.711588541666668 12.799755392483878  23.134765625 12.46597731821214  C 23.557942708333336 12.132199243940402  23.90299479166667 11.688570157883033  24.169921875 11.135090060040026  C 24.436848958333336 10.581609962197021  24.5703125 9.945741605514785  24.5703125 9.22748498999333  C 24.5703125 8.221925728263287  24.055989583333336 7.351567711807872  23.02734375 6.616410940627086  C 23.509114583333332 5.847453858127641  23.45703125 4.98554591950189  22.87109375 4.030687124749833  C 22.506510416666668 3.954636424282856  21.979166666666668 4.001111852346006  21.2890625 4.170113408939294  C 20.598958333333336 4.339114965532576  20 4.525016677785191  19.4921875 4.727818545697131  L 18.75 5.032021347565044  C 17.539062500000004 4.812319323993773  16.289062500000004 4.702468312208139  15 4.702468312208139  C 13.7109375 4.702468312208139  12.4609375 4.812319323993773  11.25 5.032021347565044  C 11.041666666666668 4.939070491438736  10.764973958333336 4.824994440738267  10.419921875 4.689793195463642  C 10.074869791666668 4.554591950189014  9.531250000000002 4.391927951967979  8.7890625 4.201801200800534  C 8.046875 4.011674449633089  7.493489583333335 3.954636424282856  7.12890625 4.030687124749833  C 6.54296875 4.98554591950189  6.490885416666667 5.847453858127641  6.97265625 6.616410940627086  C 5.944010416666668 7.351567711807872  5.4296875 8.221925728263287  5.4296875 9.22748498999333  C 5.4296875 9.945741605514785  5.563151041666668 10.579497442739605  5.830078125 11.12875250166778  C 6.097005208333333 11.678007560595951  6.438802083333334 12.121636646653323  6.85546875 12.459639759839893  C 7.272135416666668 12.79764287302646  7.796223958333334 13.080720480320213  8.427734375 13.308872581721147  C 9.059244791666666 13.537024683122082  9.671223958333334 13.701801200800535  10.263671875 13.803202134756505  C 10.856119791666668 13.904603068712474  11.5234375 13.980653769179453  12.265625 14.031354236157437  C 11.7578125 14.335557038025351  11.438802083333336 14.770736046253058  11.30859375 15.33689126084056  C 11.03515625 15.421392039137203  10.7421875 15.484767622859685  10.4296875 15.527018012008005  C 10.1171875 15.569268401156327  9.74609375 15.590393595730486  9.31640625 15.590393595730486  C 8.886718750000002 15.590393595730486  8.460286458333336 15.499555259061596  8.037109375 15.317878585723816  C 7.613932291666668 15.136201912386037  7.252604166666667 14.872136980209028  6.953125 14.525683789192795  C 6.705729166666668 14.255281298643537  6.389973958333333 14.03557927507227  6.005859375 13.866577718478986  C 5.621744791666668 13.6975761618857  5.299479166666668 13.596175227929729  5.0390625 13.562374916611073  L 4.6484375 13.524349566377584  C 4.375 13.524349566377584  4.186197916666667 13.543362241494329  4.08203125 13.58138759172782  C 3.977864583333334 13.619412941961308  3.9453125000000004 13.668000889481878  3.984375 13.727151434289526  C 4.0234375 13.786301979097173  4.08203125 13.845452523904825  4.16015625 13.904603068712474  C 4.238281250000001 13.963753613520124  4.322916666666667 14.014454080498108  4.4140625 14.056704469646432  L 4.55078125 14.120080053368913  C 4.837239583333333 14.204580831665552  5.120442708333334 14.365132310429175  5.400390625 14.601734489659773  C 5.680338541666668 14.838336668890369  5.885416666666668 15.053813653546806  6.015625 15.248165443629086  L 6.2109375 15.539693128752502  C 6.380208333333334 15.860796086279741  6.666666666666667 16.120635979541916  7.0703125 16.319212808539024  C 7.473958333333335 16.517789637536136  7.910156250000002 16.6445408049811  8.37890625 16.699466310873916  C 8.847656250000002 16.75439181676673  9.300130208333336 16.78396708917056  9.736328125 16.78819212808539  C 10.172526041666666 16.79241716700022  10.533854166666668 16.77762953079831  10.8203125 16.743829219479654  L 11.26953125 16.693128752501668  C 11.26953125 17.014231710028906  11.272786458333336 17.38814765399155  11.279296875 17.81487658438959  C 11.285807291666666 18.241605514787636  11.2890625 18.471870135645986  11.2890625 18.505670446964643  C 11.2890625 18.657771847898598  11.204427083333336 18.784523015343563  11.03515625 18.885923949299535  C 10.865885416666668 18.987324883255503  10.60546875 19.01690015565933  10.25390625 18.974649766511007  C 7.233072916666668 18.323993773626864  4.768880208333334 17.151545474760955  2.861328125 15.457304869913274  C 0.9537760416666665 13.7630642650656  0 11.8554591950189  0 9.734489659773184  C 0 7.9684233933733575  0.6705729166666665 6.33967089170558  2.01171875 4.848232154769846  C 3.352864583333334 3.356793417834111  5.172526041666667 2.175895041138536  7.470703125 1.3055370246831224  Z M 5.4296875 14.006004002668446  C 5.546875 14.056704469646432  5.631510416666668 14.048254391816767  5.68359375 13.980653769179453  C 5.72265625 13.921503224371804  5.677083333333334 13.870802757393816  5.546875 13.828552368245498  C 5.416666666666668 13.803202134756505  5.33203125 13.811652212586166  5.29296875 13.85390260173449  C 5.25390625 13.913053146542136  5.299479166666668 13.963753613520124  5.4296875 14.006004002668446  Z M 5.9765625 14.37358238825884  C 6.106770833333334 14.458083166555479  6.2109375 14.470758283299977  6.2890625 14.411607738492327  C 6.380208333333334 14.369357349344005  6.3671875 14.301756726706694  6.25 14.208805870580388  C 6.119791666666668 14.132755170113409  6.015625 14.120080053368913  5.9375 14.170780520346899  C 5.846354166666667 14.213030909495217  5.859375 14.280631532132531  5.9765625 14.37358238825884  Z M 6.54296875 14.893262174783189  C 6.66015625 15.003113186568823  6.770833333333333 15.032688458972649  6.875 14.981987991994663  C 6.9921875 14.922837447187012  6.9921875 14.842561707805205  6.875 14.741160773849233  C 6.770833333333333 14.631309762063596  6.66015625 14.605959528574605  6.54296875 14.665110073382253  C 6.42578125 14.707360462530575  6.42578125 14.783411162997552  6.54296875 14.893262174783189  Z M 7.3046875 15.476317545030021  C 7.4609375 15.577718478985991  7.591145833333334 15.590393595730486  7.695312500000001 15.51434289526351  C 7.799479166666667 15.446742272626196  7.773437500000001 15.366466533244385  7.6171875 15.273515677118079  C 7.4609375 15.172114743162107  7.330729166666668 15.159439626417612  7.2265625 15.23549032688459  C 7.109375 15.303090949521902  7.135416666666667 15.383366688903712  7.3046875 15.476317545030021  Z M 8.4375 15.907271514342895  C 8.6328125 15.957971981320881  8.756510416666668 15.932621747831886  8.80859375 15.831220813875918  C 8.84765625 15.738269957749612  8.763020833333334 15.670669335112295  8.5546875 15.628418945963976  C 8.359375000000002 15.594618634645318  8.235677083333334 15.624193907049145  8.18359375 15.71714476317545  C 8.131510416666668 15.810095619301755  8.216145833333334 15.873471203024238  8.4375 15.907271514342895  Z M 9.7265625 16.034022681787857  C 9.934895833333334 16.034022681787857  10.0390625 15.987547253724703  10.0390625 15.894596397598399  C 10.0390625 15.784745385812764  9.928385416666668 15.738269957749612  9.70703125 15.755170113408939  C 9.498697916666666 15.755170113408939  9.39453125 15.801645541472093  9.39453125 15.894596397598399  C 9.39453125 16.004447409384035  9.505208333333334 16.050922837447185  9.7265625 16.034022681787857  Z M 10.8984375 15.945296864576385  C 11.106770833333334 15.911496553257727  11.197916666666666 15.85234600845008  11.171875 15.767845230153437  C 11.145833333333336 15.67489437402713  11.028645833333336 15.63686902379364  10.8203125 15.653769179452969  C 10.611979166666666 15.67911941294196  10.520833333333334 15.742494996664442  10.546875 15.843895930620413  C 10.572916666666668 15.945296864576385  10.690104166666668 15.979097175895044  10.8984375 15.945296864576385  Z " fill-rule="nonzero" fill="#1720b6" stroke="none" transform="matrix(1 0 0 1 293 6 )" />
  </g>
</svg>