<?xml version="1.0" encoding="utf-8"?>
<svg version="1.1" xmlns:xlink="http://www.w3.org/1999/xlink" width="51px" height="43px" xmlns="http://www.w3.org/2000/svg">
  <g transform="matrix(1 0 0 1 -1707 -23 )">
    <path d="M 12.7001953125 2.9546364242828558  C 16.607096354166668 0.9848788080942836  20.873697916666668 0  25.5 0  C 30.126302083333336 0  34.392903645833336 0.9848788080942836  38.2998046875 2.9546364242828558  C 42.206705729166664 4.924394040471423  45.300130208333336 7.596953524571935  47.580078125 10.972314876584388  C 49.86002604166666 14.34767622859684  51 18.03380031131865  51 22.030687124749836  C 51 26.83077607293751  49.378580729166664 31.147987547253727  46.1357421875 34.98232154769846  C 42.892903645833336 38.81665554814321  38.70377604166667 41.47009117189238  33.568359375 42.942628418945965  C 32.97070312500001 43.03824772070269  32.52799479166667 42.97131420947298  32.240234375 42.74182788525684  C 31.952473958333332 42.51234156104069  31.808593749999996 42.22548365577052  31.808593749999996 41.8812541694463  C 31.808593749999996 41.82388258839226  31.814127604166668 41.09239492995331  31.8251953125 39.68679119412942  C 31.836263020833336 38.28118745830554  31.841796875000004 36.99510784967757  31.841796875000004 35.8285523682455  C 31.841796875000004 33.97353791416499  31.266276041666668 32.615743829219475  30.115234374999996 31.755170113408937  C 31.376953125 31.640426951300867  32.51139322916667 31.46831220813876  33.5185546875 31.238825883922615  C 34.525716145833336 31.009339559706472  35.56608072916667 30.636424282855238  36.6396484375 30.120080053368913  C 37.713216145833336 29.603735823882587  38.609700520833336 28.967867467200357  39.3291015625 28.212474983322213  C 40.04850260416667 27.45708249944407  40.63509114583334 26.453079830998444  41.0888671875 25.20046697798532  C 41.54264322916667 23.947854124972203  41.76953125 22.50878363353346  41.76953125 20.883255503669115  C 41.76953125 18.607516121859017  40.89518229166667 16.637758505670448  39.146484375 14.973982655103404  C 39.965494791666664 13.233711363130976  39.876953125 11.283077607293752  38.880859375 9.122081387591727  C 38.261067708333336 8.949966644429622  37.364583333333336 9.055147876362014  36.19140625 9.437625083388927  C 35.01822916666667 9.82010229041583  34 10.240827218145432  33.13671875 10.699799866577717  L 31.875 11.388258839226152  C 29.816406250000004 10.89103847009117  27.691406250000007 10.642428285523682  25.5 10.642428285523682  C 23.30859375 10.642428285523682  21.18359375 10.89103847009117  19.125 11.388258839226152  C 18.770833333333336 11.17789637536135  18.30045572916667 10.919724260618185  17.7138671875 10.613742494996663  C 17.127278645833336 10.307760729375136  16.203125000000004 9.939626417611743  14.94140625 9.509339559706472  C 13.679687500000002 9.079052701801203  12.73893229166667 8.949966644429622  12.119140625 9.122081387591727  C 11.123046875 11.283077607293752  11.034505208333334 13.233711363130976  11.853515625 14.973982655103404  C 10.104817708333334 16.637758505670448  9.23046875 18.607516121859017  9.23046875 20.883255503669115  C 9.23046875 22.50878363353346  9.457356770833334 23.943073159884367  9.9111328125 25.186124082721815  C 10.364908854166666 26.42917500555926  10.945963541666668 27.433177674004888  11.654296875 28.198132088058706  C 12.362630208333336 28.963086502112514  13.253580729166668 29.603735823882587  14.327148437500002 30.120080053368913  C 15.400716145833334 30.636424282855238  16.441080729166668 31.009339559706472  17.4482421875 31.238825883922615  C 18.455403645833336 31.46831220813876  19.58984375 31.640426951300867  20.8515625 31.755170113408937  C 19.98828125 32.44362908605737  19.44596354166667 33.42850789415166  19.224609375 34.70980653769179  C 18.759765625 34.90104514120525  18.26171875 35.04447409384034  17.73046875 35.14009339559706  C 17.19921875 35.23571269735379  16.568359375 35.283522348232154  15.837890625 35.283522348232154  C 15.107421875000002 35.283522348232154  14.38248697916667 35.07794084945519  13.663085937499998 34.666777851901266  C 12.943684895833334 34.25561485434734  12.329427083333334 33.657994218367804  11.8203125 32.87391594396264  C 11.399739583333334 32.26195241271959  10.862955729166666 31.764732043584612  10.2099609375 31.382254836557706  C 9.556966145833334 30.999777629530794  9.009114583333334 30.77029130531465  8.56640625 30.693795863909273  L 7.902343749999999 30.607738492328217  C 7.437500000000001 30.607738492328217  7.116536458333333 30.65076717811874  6.939453125000001 30.7368245496998  C 6.762369791666668 30.822881921280853  6.707031250000001 30.93284411830109  6.7734375 31.066711140760507  C 6.839843750000001 31.20057816321992  6.939453125000001 31.33444518567934  7.072265625 31.46831220813876  C 7.205078125000001 31.602179230598175  7.348958333333334 31.716922392706245  7.503906249999999 31.81254169446298  L 7.736328125000001 31.955970647098066  C 8.223307291666666 32.14720925061152  8.704752604166668 32.510562597287084  9.1806640625 33.04603068712475  C 9.656575520833334 33.58149877696241  10.005208333333334 34.06915721592172  10.2265625 34.50900600400267  L 10.55859375 35.168779186124084  C 10.846354166666668 35.8954858794752  11.333333333333334 36.48354458527907  12.01953125 36.932955303535685  C 12.70572916666667 37.38236602179231  13.447265625000004 37.66922392706249  14.244140625 37.79352901934623  C 15.041015625000004 37.91783411162997  15.81022135416667 37.984767622859685  16.5517578125 37.99432955303536  C 17.293294270833332 38.00389148321103  17.907552083333336 37.970424727596175  18.39453125 37.8939292861908  L 19.158203125 37.77918612408272  C 19.158203125 38.50589281743384  19.163736979166668 39.352123637980874  19.1748046875 40.31787858572381  C 19.185872395833332 41.283633533466755  19.19140625 41.804758728040916  19.19140625 41.8812541694463  C 19.19140625 42.22548365577052  19.04752604166667 42.51234156104069  18.759765625 42.74182788525684  C 18.472005208333336 42.97131420947298  18.029296875 43.03824772070269  17.431640625 42.942628418945965  C 12.296223958333334 41.47009117189238  8.107096354166668 38.81665554814321  4.8642578125 34.98232154769846  C 1.621419270833333 31.147987547253727  0 26.83077607293751  0 22.030687124749836  C 0 18.03380031131865  1.1399739583333333 14.34767622859684  3.4199218750000004 10.972314876584388  C 5.699869791666667 7.596953524571935  8.793294270833334 4.924394040471423  12.7001953125 2.9546364242828558  Z M 9.23046875 31.697798532354902  C 9.4296875 31.81254169446298  9.573567708333336 31.79341783411163  9.662109375 31.640426951300867  C 9.728515625 31.50655992884145  9.651041666666668 31.391816766733374  9.4296875 31.296197464976654  C 9.208333333333334 31.238825883922615  9.064453125 31.257949744273954  8.998046875 31.35356904603069  C 8.931640625 31.487436068490098  9.009114583333334 31.602179230598175  9.23046875 31.697798532354902  Z M 10.16015625 32.52968645763843  C 10.381510416666668 32.720925061151874  10.55859375 32.749610851678895  10.69140625 32.615743829219475  C 10.846354166666668 32.52012452746275  10.82421875 32.36713364465199  10.625 32.156771180787196  C 10.403645833333334 31.984656437625084  10.2265625 31.955970647098066  10.09375 32.07071380920614  C 9.938802083333334 32.16633311096286  9.9609375 32.31932399377362  10.16015625 32.52968645763843  Z M 11.123046875 33.70580386924616  C 11.322265625 33.95441405381366  11.510416666666666 34.021347565043364  11.6875 33.90660440293529  C 11.88671875 33.772737380475874  11.88671875 33.59106070713809  11.6875 33.36157438292195  C 11.510416666666666 33.112964198354454  11.322265625 33.05559261730042  11.123046875 33.18945963975984  C 10.923828125 33.285078941516566  10.923828125 33.45719368467867  11.123046875 33.70580386924616  Z M 12.41796875 35.02535023348899  C 12.68359375 35.25483655770514  12.904947916666668 35.283522348232154  13.082031250000002 35.11140760507005  C 13.259114583333334 34.95841672225929  13.214843750000002 34.7767400489215  12.94921875 34.566377585056706  C 12.68359375 34.33689126084056  12.462239583333336 34.308205470313546  12.28515625 34.48032021347565  C 12.0859375 34.63331109628641  12.130208333333334 34.81498776962419  12.41796875 35.02535023348899  Z M 14.34375 36.0006671114076  C 14.675781250000002 36.11541027351568  14.886067708333334 36.058038692461636  14.974609375000002 35.8285523682455  C 15.041015625 35.6181899043807  14.897135416666668 35.46519902156993  14.54296875 35.36957971981321  C 14.210937500000002 35.293084278407825  14.000651041666668 35.36001778963754  13.912109374999998 35.570380253502336  C 13.823567708333336 35.78074271736713  13.967447916666668 35.924171670002224  14.34375 36.0006671114076  Z M 16.53515625 36.28752501667778  C 16.889322916666668 36.28752501667778  17.06640625 36.182343784745385  17.06640625 35.97198132088059  C 17.06640625 35.7233711363131  16.878255208333336 35.6181899043807  16.501953125 35.65643762508339  C 16.147786458333332 35.65643762508339  15.970703125000002 35.76161885701579  15.970703125000002 35.97198132088059  C 15.970703125000002 36.22059150544808  16.158854166666668 36.325772737380476  16.53515625 36.28752501667778  Z M 18.52734375 36.08672448298866  C 18.881510416666668 36.01022904158328  19.036458333333332 35.87636201912387  18.9921875 35.685123415610406  C 18.94791666666667 35.47476095174561  18.74869791666667 35.38870358016455  18.39453125 35.426951300867245  C 18.040364583333332 35.48432288192128  17.885416666666668 35.62775183455637  17.9296875 35.85723815877251  C 17.973958333333336 36.08672448298866  18.173177083333336 36.16321992439404  18.52734375 36.08672448298866  Z " fill-rule="nonzero" fill="#fdfdfa" stroke="none" transform="matrix(1 0 0 1 1707 23 )" />
  </g>
</svg>