<?xml version="1.0" encoding="utf-8"?>
<svg version="1.1" xmlns:xlink="http://www.w3.org/1999/xlink" width="42px" height="24px" xmlns="http://www.w3.org/2000/svg">
  <g transform="matrix(1 0 0 1 -1075 -33 )">
    <path d="M 10.458984375 1.6490993995997334  C 13.676432291666668 0.5496997998665769  17.190104166666668 0  21 0  C 24.809895833333336 0  28.323567708333336 0.5496997998665769  31.541015625 1.6490993995997334  C 34.758463541666664 2.748498999332887  37.305989583333336 4.240160106737824  39.18359375 6.124082721814542  C 41.061197916666664 8.008005336891259  42 10.065376917945294  42 12.296197464976652  C 42 14.97531687791861  40.664713541666664 17.384923282188126  37.994140625 19.52501667778519  C 35.323567708333336 21.66511007338226  31.87369791666667 23.14609739826551  27.64453125 23.967978652434958  C 27.152343750000004 24.021347565043364  26.78776041666667 23.983989326217475  26.55078125 23.855903935957308  C 26.313802083333332 23.727818545697133  26.1953125 23.567711807871916  26.1953125 23.375583722481657  C 26.1953125 23.34356237491661  26.199869791666668 22.935290193462308  26.208984375 22.150767178118745  C 26.218098958333336 21.366244162775185  26.22265625 20.64843228819213  26.22265625 19.99733155436958  C 26.22265625 18.96197464976651  25.748697916666668 18.20413609072715  24.80078125 17.7238158772515  C 25.83984375 17.659773182121413  26.774088541666668 17.563709139426283  27.603515625 17.435623749166112  C 28.432942708333336 17.307538358905937  29.28971354166667 17.099399599733154  30.173828125 16.811207471647766  C 31.057942708333336 16.523015343562374  31.796223958333336 16.168112074716475  32.388671875 15.746497665110072  C 32.98111979166667 15.324883255503666  33.464192708333336 14.764509673115409  33.837890625 14.065376917945295  C 34.21158854166667 13.366244162775184  34.3984375 12.563042028018677  34.3984375 11.655770513675785  C 34.3984375 10.38559039359573  33.67838541666667 9.286190793862577  32.23828125 8.357571714476318  C 32.912760416666664 7.386257505003336  32.83984375 6.297531687791861  32.01953125 5.091394262841894  C 31.509114583333336 4.995330220146766  30.770833333333336 5.054036024016008  29.8046875 5.267511674449634  C 28.83854166666667 5.480987324883254  28 5.715810540360241  27.2890625 5.9719813208805865  L 26.25 6.356237491661108  C 24.554687500000004 6.078719146097397  22.804687500000004 5.939959973315544  21 5.939959973315544  C 19.1953125 5.939959973315544  17.4453125 6.078719146097397  15.75 6.356237491661108  C 15.458333333333334 6.238825883922614  15.07096354166667 6.094729819879917  14.587890625 5.923949299533021  C 14.104817708333334 5.753168779186122  13.343750000000002 5.547698465643763  12.3046875 5.307538358905938  C 11.265625 5.067378252168113  10.490885416666668 4.995330220146766  9.98046875 5.091394262841894  C 9.16015625 6.297531687791861  9.087239583333334 7.386257505003336  9.76171875 8.357571714476318  C 8.321614583333334 9.286190793862577  7.6015625 10.38559039359573  7.6015625 11.655770513675785  C 7.6015625 12.563042028018677  7.788411458333334 13.363575717144762  8.162109375 14.057371581054037  C 8.535807291666666 14.751167444963308  9.014322916666668 15.311541027351566  9.59765625 15.738492328218813  C 10.180989583333334 16.165443629086056  10.914713541666668 16.523015343562374  11.798828125 16.811207471647766  C 12.682942708333334 17.099399599733154  13.539713541666668 17.307538358905937  14.369140625 17.435623749166112  C 15.198567708333336 17.563709139426283  16.1328125 17.659773182121413  17.171875 17.7238158772515  C 16.4609375 18.10807204803202  16.014322916666668 18.657771847898598  15.83203125 19.372915276851234  C 15.44921875 19.479653102068045  15.0390625 19.559706470980654  14.6015625 19.61307538358906  C 14.1640625 19.666444296197465  13.64453125 19.693128752501668  13.04296875 19.693128752501668  C 12.441406250000002 19.693128752501668  11.844401041666668 19.578385590393594  11.251953125 19.34889926617745  C 10.659505208333334 19.119412941961308  10.153645833333334 18.785857238158773  9.734375 18.348232154769846  C 9.388020833333334 18.00667111407605  8.945963541666666 17.729152768512343  8.408203125 17.51567711807872  C 7.870442708333334 17.302201467645094  7.419270833333334 17.17411607738492  7.0546875 17.1314209472982  L 6.5078125 17.083388925950633  C 6.125 17.083388925950633  5.860677083333333 17.107404936624413  5.71484375 17.155436957971983  C 5.569010416666668 17.203468979319545  5.523437500000001 17.264843228819213  5.578125 17.33955970647098  C 5.6328125 17.414276184122745  5.71484375 17.488992661774518  5.82421875 17.563709139426283  C 5.933593750000001 17.63842561707805  6.052083333333334 17.702468312208136  6.1796875 17.755837224816545  L 6.37109375 17.835890593729154  C 6.772135416666667 17.94262841894596  7.168619791666668 18.145430286857906  7.560546875 18.444296197464976  C 7.952473958333334 18.743162108072045  8.239583333333334 19.015343562374913  8.421875 19.26084056037358  L 8.6953125 19.62908605737158  C 8.932291666666668 20.03468979319546  9.333333333333334 20.362908605737157  9.8984375 20.613742494996664  C 10.46354166666667 20.864576384256175  11.074218750000002 21.02468312208139  11.73046875 21.094062708472315  C 12.386718750000002 21.16344229486324  13.02018229166667 21.200800533689126  13.630859375 21.20613742494997  C 14.241536458333334 21.211474316210804  14.747395833333336 21.192795196797867  15.1484375 21.15010006671114  L 15.77734375 21.086057371581056  C 15.77734375 21.491661107404937  15.781901041666668 21.963975983989325  15.791015625 22.503002001334224  C 15.800130208333334 23.04202801867912  15.8046875 23.33288859239493  15.8046875 23.375583722481657  C 15.8046875 23.567711807871916  15.68619791666667 23.727818545697133  15.44921875 23.855903935957308  C 15.212239583333334 23.983989326217475  14.84765625 24.021347565043364  14.35546875 23.967978652434958  C 10.126302083333334 23.14609739826551  6.676432291666668 21.66511007338226  4.005859375 19.52501667778519  C 1.335286458333333 17.384923282188126  0 14.97531687791861  0 12.296197464976652  C 0 10.065376917945294  0.9388020833333333 8.008005336891259  2.81640625 6.124082721814542  C 4.694010416666667 4.240160106737824  7.241536458333334 2.748498999332887  10.458984375 1.6490993995997334  Z M 7.6015625 17.691794529686458  C 7.765625 17.755837224816545  7.884114583333335 17.745163442294864  7.95703125 17.659773182121413  C 8.01171875 17.585056704469647  7.947916666666668 17.52101400933956  7.765625 17.467645096731154  C 7.583333333333334 17.435623749166112  7.46484375 17.44629753168779  7.41015625 17.499666444296196  C 7.35546875 17.57438292194796  7.419270833333334 17.63842561707805  7.6015625 17.691794529686458  Z M 8.3671875 18.156104069379587  C 8.549479166666668 18.262841894596395  8.6953125 18.278852568378916  8.8046875 18.20413609072715  C 8.932291666666668 18.150767178118745  8.9140625 18.065376917945297  8.75 17.947965310206804  C 8.567708333333334 17.851901267511675  8.421875 17.835890593729154  8.3125 17.899933288859238  C 8.184895833333334 17.953302201467643  8.203125 18.03869246164109  8.3671875 18.156104069379587  Z M 9.16015625 18.812541694462976  C 9.32421875 18.951300867244832  9.479166666666666 18.988659106070713  9.625 18.924616410940626  C 9.7890625 18.84989993328886  9.7890625 18.748498999332888  9.625 18.620413609072713  C 9.479166666666666 18.48165443629086  9.32421875 18.449633088725818  9.16015625 18.524349566377584  C 8.99609375 18.57771847898599  8.99609375 18.67378252168112  9.16015625 18.812541694462976  Z M 10.2265625 19.549032688458972  C 10.4453125 19.677118078719147  10.627604166666668 19.693128752501668  10.7734375 19.59706470980654  C 10.919270833333334 19.51167444963309  10.882812500000002 19.41027351567712  10.6640625 19.292861907938626  C 10.4453125 19.16477651767845  10.263020833333334 19.14876584389593  10.1171875 19.24482988659106  C 9.953125 19.33022014676451  9.989583333333334 19.43162108072048  10.2265625 19.549032688458972  Z M 11.8125 20.09339559706471  C 12.0859375 20.157438292194797  12.259114583333334 20.12541694462975  12.33203125 19.99733155436958  C 12.38671875 19.879919946631087  12.268229166666668 19.794529686457636  11.9765625 19.74116077384923  C 11.703125000000002 19.698465643762507  11.529947916666668 19.735823882588395  11.45703125 19.853235490326885  C 11.384114583333336 19.970647098065378  11.502604166666668 20.050700466977986  11.8125 20.09339559706471  Z M 13.6171875 20.253502334889927  C 13.908854166666668 20.253502334889927  14.0546875 20.19479653102068  14.0546875 20.07738492328219  C 14.0546875 19.938625750500332  13.899739583333334 19.879919946631087  13.58984375 19.901267511674448  C 13.298177083333334 19.901267511674448  13.15234375 19.959973315543696  13.15234375 20.07738492328219  C 13.15234375 20.216144096064045  13.307291666666668 20.274849899933287  13.6171875 20.253502334889927  Z M 15.2578125 20.141427618412273  C 15.549479166666668 20.09873248832555  15.677083333333334 20.024016010673783  15.640625 19.917278185456972  C 15.60416666666667 19.79986657771848  15.44010416666667 19.751834556370916  15.1484375 19.773182121414276  C 14.856770833333334 19.805203468979318  14.729166666666668 19.885256837891927  14.765625 20.0133422281521  C 14.802083333333334 20.141427618412273  14.966145833333334 20.184122748499  15.2578125 20.141427618412273  Z " fill-rule="nonzero" fill="#fdfdfa" stroke="none" transform="matrix(1 0 0 1 1075 33 )" />
  </g>
</svg>