<?xml version="1.0" encoding="utf-8"?>
<svg version="1.1" xmlns:xlink="http://www.w3.org/1999/xlink" width="48px" height="34px" xmlns="http://www.w3.org/2000/svg">
  <g transform="matrix(1 0 0 1 -1255 -24 )">
    <path d="M 11.953125 2.3362241494329554  C 15.630208333333334 0.7787413831443173  19.645833333333336 0  24 0  C 28.354166666666668 0  32.36979166666667 0.7787413831443173  36.046875 2.3362241494329554  C 39.723958333333336 3.89370691572159  42.63541666666667 6.006893484545251  44.78125 8.675783855903934  C 46.92708333333333 11.344674227262617  48 14.259283967089166  48 17.41961307538359  C 48 21.21503224371803  46.47395833333333 24.62864131643318  43.421875 27.660440293529017  C 40.36979166666667 30.692239270624864  36.427083333333336 32.79030464754281  31.59375 33.95463642428285  C 31.031250000000007 34.030242383811434  30.614583333333336 33.97731821214143  30.34375 33.79586390927285  C 30.072916666666664 33.61440960640427  29.9375 33.387591727818545  29.9375 33.11541027351568  C 29.9375 33.07004669779853  29.942708333333336 32.49166110740494  29.953125 31.380253502334888  C 29.96354166666667 30.268845897264846  29.96875 29.251945741605518  29.96875 28.329553035356906  C 29.96875 26.862797420502556  29.427083333333336 25.789192795196797  28.34375 25.108739159439626  C 29.53125 25.018012008005336  30.598958333333336 24.881921280853902  31.546875 24.700466977985325  C 32.49479166666667 24.519012675116745  33.473958333333336 24.224149432955304  34.484375 23.815877251501  C 35.49479166666667 23.407605070046696  36.33854166666667 22.904825439181675  37.015625 22.307538358905934  C 37.692708333333336 21.710251278630192  38.24479166666667 20.916388703580164  38.671875 19.925950633755836  C 39.098958333333336 18.93551256393151  39.3125 17.797642873026458  39.3125 16.512341561040696  C 39.3125 14.712919724260617  38.489583333333336 13.155436957971983  36.84375 11.839893262174783  C 37.614583333333336 10.463864798754726  37.53125 8.921503224371802  36.59375 7.212808539026017  C 36.01041666666667 7.076717811874585  35.16666666666667 7.159884367356011  34.0625 7.462308205470315  C 32.958333333333336 7.76473204358461  32 8.097398265510343  31.1875 8.460306871247498  L 30 9.004669779853238  C 28.062500000000004 8.611518790304645  26.062500000000007 8.414943295530353  24 8.414943295530353  C 21.9375 8.414943295530353  19.9375 8.611518790304645  18 9.004669779853238  C 17.666666666666668 8.838336668890369  17.223958333333336 8.634200578163215  16.671875 8.39226150767178  C 16.119791666666668 8.150322437180339  15.250000000000002 7.859239492995331  14.0625 7.519012675116746  C 12.875 7.17878585723816  11.989583333333336 7.076717811874585  11.40625 7.212808539026017  C 10.46875 8.921503224371802  10.385416666666668 10.463864798754726  11.15625 11.839893262174783  C 9.510416666666668 13.155436957971983  8.6875 14.712919724260617  8.6875 16.512341561040696  C 8.6875 17.797642873026458  8.901041666666668 18.93173226595508  9.328125 19.914609739826552  C 9.755208333333334 20.89748721369802  10.302083333333334 21.691349788748052  10.96875 22.29619746497665  C 11.635416666666668 22.901045141205245  12.473958333333336 23.407605070046696  13.484375 23.815877251501  C 14.494791666666668 24.224149432955304  15.473958333333336 24.519012675116745  16.421875 24.700466977985325  C 17.369791666666668 24.881921280853902  18.4375 25.018012008005336  19.625 25.108739159439626  C 18.8125 25.653102068045364  18.302083333333336 26.431843451189682  18.09375 27.44496330887258  C 17.65625 27.59617522792973  17.1875 27.709584167222594  16.6875 27.785190126751168  C 16.1875 27.86079608627974  15.59375 27.898599066044028  14.90625 27.898599066044028  C 14.218750000000002 27.898599066044028  13.536458333333336 27.736046253057594  12.859375 27.410940627084724  C 12.182291666666668 27.085835001111853  11.604166666666668 26.613297754058262  11.125 25.99332888592395  C 10.729166666666668 25.509450744941066  10.223958333333334 25.116299755392482  9.609375 24.81387591727819  C 8.994791666666668 24.511452079163885  8.479166666666668 24.329997776295304  8.0625 24.269513008672448  L 7.4375 24.20146764509673  C 7 24.20146764509673  6.697916666666666 24.235490326884587  6.53125 24.303535690460308  C 6.364583333333334 24.37158105403602  6.312500000000001 24.458527907493885  6.375 24.564376250833888  C 6.4375 24.670224594173888  6.53125 24.7760729375139  6.65625 24.881921280853902  C 6.781250000000001 24.987769624193906  6.916666666666668 25.078496775628192  7.0625 25.154102735156773  L 7.28125 25.267511674449636  C 7.739583333333334 25.41872359350678  8.192708333333334 25.706026239715367  8.640625 26.12941961307538  C 9.088541666666668 26.5528129864354  9.416666666666668 26.938403380031126  9.625 27.286190793862573  L 9.9375 27.80787191460974  C 10.208333333333334 28.382477207026902  10.666666666666668 28.84745385812764  11.3125 29.20280186791194  C 11.958333333333336 29.558149877696245  12.656250000000004 29.78496775628197  13.40625 29.883255503669112  C 14.156250000000004 29.98154325105626  14.880208333333336 30.034467422726262  15.578125 30.042028018679122  C 16.276041666666668 30.049588614631976  16.854166666666668 30.023126528796976  17.3125 29.962641761174115  L 18.03125 29.87191460973983  C 18.03125 30.446519902156993  18.036458333333336 31.115632643984878  18.046875 31.879252835223483  C 18.057291666666668 32.642873026462084  18.0625 33.05492550589282  18.0625 33.11541027351568  C 18.0625 33.387591727818545  17.927083333333336 33.61440960640427  17.65625 33.79586390927285  C 17.385416666666668 33.97731821214143  16.96875 34.030242383811434  16.40625 33.95463642428285  C 11.572916666666668 32.79030464754281  7.630208333333334 30.692239270624864  4.578125 27.660440293529017  C 1.5260416666666665 24.62864131643318  0 21.21503224371803  0 17.41961307538359  C 0 14.259283967089166  1.0729166666666665 11.344674227262617  3.21875 8.675783855903934  C 5.364583333333334 6.006893484545251  8.276041666666668 3.89370691572159  11.953125 2.3362241494329554  Z M 8.6875 25.063375583722483  C 8.875 25.154102735156773  9.010416666666668 25.138981543251056  9.09375 25.018012008005336  C 9.15625 24.912163664665332  9.083333333333334 24.821436513231042  8.875 24.74583055370247  C 8.666666666666668 24.700466977985325  8.53125 24.715588169891035  8.46875 24.791194129419612  C 8.40625 24.897042472759612  8.479166666666668 24.987769624193906  8.6875 25.063375583722483  Z M 9.5625 25.721147431621084  C 9.770833333333334 25.872359350678227  9.9375 25.8950411385368  10.0625 25.789192795196797  C 10.208333333333334 25.71358683566822  10.1875 25.592617300422503  10 25.42628418945964  C 9.791666666666668 25.290193462308206  9.625 25.267511674449636  9.5 25.358238825883923  C 9.354166666666668 25.433844785412496  9.375 25.554814320658213  9.5625 25.721147431621084  Z M 10.46875 26.65110073382255  C 10.65625 26.847676228596843  10.833333333333334 26.900600400266846  11 26.809873248832552  C 11.1875 26.70402490549255  11.1875 26.56037358238826  11 26.37891927951968  C 10.833333333333334 26.182343784745385  10.65625 26.13698020902824  10.46875 26.242828552368245  C 10.28125 26.318434511896818  10.28125 26.45452523904825  10.46875 26.65110073382255  Z M 11.6875 27.694462975316878  C 11.9375 27.875917278185458  12.145833333333336 27.898599066044028  12.3125 27.762508338892594  C 12.479166666666668 27.641538803646878  12.437500000000002 27.497887480542584  12.1875 27.33155436957972  C 11.9375 27.15010006671114  11.729166666666668 27.12741827885257  11.5625 27.263509006004  C 11.375 27.38447854124972  11.416666666666668 27.52812986435401  11.6875 27.694462975316878  Z M 13.5 28.46564376250834  C 13.8125 28.55637091394263  14.010416666666668 28.511007338225482  14.09375 28.329553035356906  C 14.15625 28.163219924394042  14.020833333333336 28.042250389148318  13.6875 27.966644429619745  C 13.375000000000002 27.906159661996885  13.177083333333336 27.95908383366689  13.09375 28.12541694462975  C 13.010416666666668 28.291750055592615  13.145833333333334 28.40515899488548  13.5 28.46564376250834  Z M 15.5625 28.692461641094063  C 15.895833333333336 28.692461641094063  16.0625 28.60929508561263  16.0625 28.44296197464977  C 16.0625 28.246386479875472  15.885416666666668 28.163219924394042  15.53125 28.19346230820547  C 15.197916666666668 28.19346230820547  15.03125 28.276628863686902  15.03125 28.44296197464977  C 15.03125 28.639537469424063  15.208333333333334 28.72270402490549  15.5625 28.692461641094063  Z M 17.4375 28.533689126084056  C 17.770833333333336 28.473204358461196  17.916666666666668 28.367356015121196  17.875 28.216144096064042  C 17.833333333333336 28.04981098510118  17.645833333333336 27.98176562152546  17.3125 28.01200800533689  C 16.979166666666668 28.057371581054035  16.833333333333336 28.170780520346895  16.875 28.352234823215476  C 16.916666666666668 28.533689126084056  17.104166666666668 28.59417389370692  17.4375 28.533689126084056  Z " fill-rule="nonzero" fill="#fdfdfa" stroke="none" transform="matrix(1 0 0 1 1255 24 )" />
  </g>
</svg>