<?xml version="1.0" encoding="utf-8"?>
<svg version="1.1" xmlns:xlink="http://www.w3.org/1999/xlink" width="48px" height="33px" xmlns="http://www.w3.org/2000/svg">
  <g transform="matrix(1 0 0 1 -1327 -25 )">
    <path d="M 1 11  L 11 11  L 11 33  L 1 33  L 1 11  Z M 9.96875 1.090258855585831  C 11.010416666666668 1.8170980926430507  11.541666666666668 2.735013623978197  11.5625 3.8440054495912817  C 11.583333333333334 4.938010899182558  11.057291666666668 5.852179836512259  9.984375 6.58651226158038  C 8.911458333333334 7.320844686648499  7.5 7.688010899182563  5.75 7.688010899182563  L 5.6875 7.688010899182563  C 3.979166666666667 7.688010899182563  2.604166666666667 7.320844686648499  1.5625 6.58651226158038  C 0.5208333333333333 5.852179836512259  0 4.938010899182558  0 3.8440054495912817  C 0 2.735013623978197  0.5364583333333333 1.8170980926430507  1.609375 1.090258855585831  C 2.682291666666667 0.36341961852860794  4.083333333333334 0  5.8125 0  C 7.541666666666666 0  8.927083333333334 0.36341961852860794  9.96875 1.090258855585831  Z M 44.75 12.757152588555858  C 46.916666666666664 14.458106267029972  48 16.94959128065395  48 20.231607629427796  L 48 33  L 37 33  L 37 21.085831062670298  C 37.71875 19.51226158038147  37.296875 18.279632152588555  36.453125 17.387942779291553  C 35.609375 16.496253405994548  34.29166666666667 16.05040871934605  32.5 16.05040871934605  C 31.1875 16.05040871934605  30.088541666666668 16.30892370572207  29.203125 16.82595367847411  C 28.317708333333336 17.34298365122616  27.65625 17.983651226158038  27.21875 18.747956403269754  C 26.989583333333336 19.197547683923705  26.875 19.80449591280654  26 20.56880108991826  L 26 33  L 16.59375 33  C 16.635416666666668 27.02043596730245  16.65625 22.17234332425068  16.65625 18.45572207084469  C 16.65625 14.739100817438691  16.645833333333336 12.521117166212534  16.625 11.801771117166211  L 16.59375 11  L 26.875 11  L 26.875 13.959809264305175  L 26.8125 13.959809264305175  C 27.229166666666668 13.480245231607627  27.65625 13.060626702997276  28.09375 12.700953678474116  C 28.53125 12.341280653950953  29.11979166666667 11.951634877384194  29.859375 11.53201634877384  C 30.598958333333336 11.112397820163483  31.505208333333336 10.786444141689373  32.578125 10.554155313351501  C 33.65104166666667 10.321866485013626  34.84375 10.205722070844685  36.15625 10.205722070844685  C 39.71875 10.205722070844685  42.583333333333336 11.056198910081743  44.75 12.757152588555858  Z " fill-rule="nonzero" fill="#fdfdfa" stroke="none" transform="matrix(1 0 0 1 1327 25 )" />
  </g>
</svg>