<?xml version="1.0" encoding="utf-8"?>
<svg version="1.1" xmlns:xlink="http://www.w3.org/1999/xlink" width="42px" height="24px" xmlns="http://www.w3.org/2000/svg">
  <g transform="matrix(1 0 0 1 -1137 -34 )">
    <path d="M 1 7.798365122615805  L 10 7.798365122615805  L 10 24  L 1 24  L 1 7.798365122615805  Z M 8.72265625 0.7929155313351499  C 9.634114583333334 1.3215258855585823  10.098958333333334 1.9891008174386888  10.1171875 2.7956403269754775  C 10.135416666666666 3.5912806539509514  9.675130208333334 4.256130790190734  8.736328125 4.790190735694822  C 7.797526041666667 5.324250681198908  6.5625 5.591280653950955  5.03125 5.591280653950955  L 4.9765625 5.591280653950955  C 3.481770833333334 5.591280653950955  2.2786458333333335 5.324250681198908  1.3671875 4.790190735694822  C 0.4557291666666666 4.256130790190734  0 3.5912806539509514  0 2.7956403269754775  C 0 1.9891008174386888  0.46940104166666663 1.3215258855585823  1.408203125 0.7929155313351499  C 2.3470052083333335 0.26430517711171486  3.5729166666666674 0  5.0859375 0  C 6.598958333333333 0  7.811197916666667 0.26430517711171486  8.72265625 0.7929155313351499  Z M 39.15625 9.277929155313352  C 41.05208333333333 10.514986376021799  42 12.326975476839237  42 14.713896457765669  L 42 24  L 33.00390625 24  L 33.00390625 15.335149863760217  C 33.00390625 14.190735694822887  32.634765625 13.294277929155314  31.896484375 12.645776566757494  C 31.158203125 11.99727520435967  30.005208333333336 11.673024523160763  28.4375 11.673024523160763  C 27.2890625 11.673024523160763  26.327473958333336 11.861035422343324  25.552734375 12.237057220708445  C 24.77799479166667 12.61307901907357  24.19921875 13.079019073569484  23.81640625 13.634877384196185  C 23.615885416666668 13.961852861035421  23.515625 14.403269754768392  23.515625 14.959128065395097  L 23.515625 24  L 14.51953125 24  C 14.555989583333334 19.651226158038146  14.57421875 16.12534059945504  14.57421875 13.422343324250683  C 14.57421875 10.71934604904632  14.565104166666668 9.106267029972752  14.546875 8.583106267029972  L 14.51953125 7.798365122615805  L 23.515625 7.798365122615805  L 23.515625 10.152588555858308  L 23.4609375 10.152588555858308  C 23.825520833333336 9.803814713896458  24.19921875 9.498637602179837  24.58203125 9.237057220708447  C 24.96484375 8.975476839237057  25.479817708333336 8.69209809264305  26.126953125 8.38692098092643  C 26.774088541666668 8.081743869209806  27.56705729166667 7.844686648501361  28.505859375 7.675749318801091  C 29.44466145833334 7.506811989100818  30.48828125 7.42234332425068  31.63671875 7.42234332425068  C 34.75390625 7.42234332425068  37.260416666666664 8.040871934604905  39.15625 9.277929155313352  Z " fill-rule="nonzero" fill="#fdfdfa" stroke="none" transform="matrix(1 0 0 1 1137 34 )" />
  </g>
</svg>