<?xml version="1.0" encoding="utf-8"?>
<svg version="1.1" xmlns:xlink="http://www.w3.org/1999/xlink" width="51px" height="42px" xmlns="http://www.w3.org/2000/svg">
  <g transform="matrix(1 0 0 1 -1784 -24 )">
    <path d="M 1 14  L 12 14  L 12 42  L 1 42  L 1 14  Z M 10.591796875 1.3876021798365124  C 11.698567708333334 2.312670299727519  12.263020833333336 3.4809264305177052  12.28515625 4.892370572207086  C 12.307291666666666 6.2847411444141645  11.748372395833334 7.448228882833784  10.6083984375 8.38283378746594  C 9.468424479166666 9.31743869209809  7.96875 9.784741144414172  6.109375 9.784741144414172  L 6.04296875 9.784741144414172  C 4.227864583333334 9.784741144414172  2.766927083333334 9.31743869209809  1.6601562500000002 8.38283378746594  C 0.5533854166666665 7.448228882833784  0 6.2847411444141645  0 4.892370572207086  C 0 3.4809264305177052  0.5699869791666666 2.312670299727519  1.7099609375000002 1.3876021798365124  C 2.8499348958333335 0.462534059945501  4.338541666666668 0  6.17578125 0  C 8.013020833333334 0  9.485026041666668 0.462534059945501  10.591796875 1.3876021798365124  Z M 47.546875 16.236376021798364  C 49.84895833333333 18.401226158038146  51 21.572207084468666  51 25.74931880108992  L 51 42  L 40 42  L 40 26.836512261580378  C 40.076171875 24.833787465940052  39.6279296875 23.2649863760218  38.7314453125 22.13010899182561  C 37.8349609375 20.995231607629425  36.434895833333336 20.427792915531334  34.53125 20.427792915531334  C 33.13671875 20.427792915531334  31.969075520833336 20.756811989100814  31.0283203125 21.414850136239778  C 30.08756510416667 22.07288828337875  29.384765625 22.888283378746596  28.919921874999996 23.861035422343324  C 28.676432291666668 24.43324250681199  28.554687500000004 25.205722070844686  28 26.17847411444142  L 28 42  L 17.630859375 42  C 17.675130208333336 34.38964577656675  17.697265625 28.21934604904632  17.697265625 23.489100817438697  C 17.697265625 18.75885558583106  17.686197916666668 15.935967302452315  17.6640625 15.02043596730245  L 17.630859375 14  L 28.554687500000004 14  L 28.554687500000004 17.76702997275204  L 28.48828125 17.76702997275204  C 28.930989583333336 17.1566757493188  29.384765625 16.622615803814714  29.849609375000004 16.164850136239785  C 30.314453124999996 15.70708446866485  30.939778645833336 15.211171662125338  31.7255859375 14.677111716621251  C 32.51139322916667 14.143051771117161  33.47428385416667 13.728201634877383  34.6142578125 13.43256130790191  C 35.75423177083334 13.136920980926432  37.021484375 12.98910081743869  38.416015625 12.98910081743869  C 42.201171875 12.98910081743869  45.244791666666664 14.071525885558582  47.546875 16.236376021798364  Z " fill-rule="nonzero" fill="#fdfdfa" stroke="none" transform="matrix(1 0 0 1 1784 24 )" />
  </g>
</svg>