<?xml version="1.0" encoding="utf-8"?>
<svg version="1.1" xmlns:xlink="http://www.w3.org/1999/xlink" width="15px" height="15px" xmlns="http://www.w3.org/2000/svg">
  <g transform="matrix(1 0 0 1 -868 -827 )">
    <path d="M 875.5 827  C 879.7 827  883 830.3  883 834.5  C 883 838.7  879.7 842  875.5 842  C 871.3 842  868 838.7  868 834.5  C 868 830.3  871.3 827  875.5 827  Z " fill-rule="nonzero" fill="#ffffff" stroke="none" />
    <path d="M 875.5 827.5  C 879.42 827.5  882.5 830.58  882.5 834.5  C 882.5 838.42  879.42 841.5  875.5 841.5  C 871.58 841.5  868.5 838.42  868.5 834.5  C 868.5 830.58  871.58 827.5  875.5 827.5  Z " stroke-width="1" stroke="#1720b6" fill="none" />
  </g>
</svg>