<?xml version="1.0" encoding="utf-8"?>
<svg version="1.1" xmlns:xlink="http://www.w3.org/1999/xlink" width="207px" height="60px" xmlns="http://www.w3.org/2000/svg">
  <defs>
    <filter x="873px" y="417px" width="207px" height="60px" filterUnits="userSpaceOnUse" id="filter43">
      <feOffset dx="5" dy="5" in="SourceAlpha" result="shadowOffsetInner" />
      <feGaussianBlur stdDeviation="2.5" in="shadowOffsetInner" result="shadowGaussian" />
      <feComposite in2="shadowGaussian" operator="atop" in="SourceAlpha" result="shadowComposite" />
      <feColorMatrix type="matrix" values="0 0 0 0 0  0 0 0 0 0  0 0 0 0 0  0 0 0 0.34901960784313724 0  " in="shadowComposite" />
    </filter>
    <g id="widget44">
      <path d="M 873.5 424  A 6.5 6.5 0 0 1 880 417.5 L 1063 417.5  A 6.5 6.5 0 0 1 1069.5 424 L 1069.5 460  A 6.5 6.5 0 0 1 1063 466.5 L 880 466.5  A 6.5 6.5 0 0 1 873.5 460 L 873.5 424  Z " fill-rule="nonzero" fill="#02a7f0" stroke="none" fill-opacity="0" />
      <path d="M 873.5 424  A 6.5 6.5 0 0 1 880 417.5 L 1063 417.5  A 6.5 6.5 0 0 1 1069.5 424 L 1069.5 460  A 6.5 6.5 0 0 1 1063 466.5 L 880 466.5  A 6.5 6.5 0 0 1 873.5 460 L 873.5 424  Z " stroke-width="1" stroke="#1720b6" fill="none" />
    </g>
  </defs>
  <g transform="matrix(1 0 0 1 -873 -417 )">
    <use xlink:href="#widget44" filter="url(#filter43)" />
    <use xlink:href="#widget44" />
  </g>
</svg>