<?xml version="1.0" encoding="utf-8"?>
<svg version="1.1" xmlns:xlink="http://www.w3.org/1999/xlink" width="34px" height="25px" xmlns="http://www.w3.org/2000/svg">
  <g transform="matrix(1 0 0 1 -1762 -17 )">
    <path d="M 8.466796875 1.7178118745830555  C 11.071397569444445 0.572603958194351  13.915798611111112 0  17 0  C 20.08420138888889 0  22.928602430555557 0.572603958194351  25.533203125 1.7178118745830555  C 28.137803819444446 2.8630197909717574  30.200086805555557 4.416833444518567  31.720052083333336 6.379252835223481  C 33.24001736111111 8.341672225928395  34 10.484767622859682  34 12.808539026017346  C 34 15.599288414498552  32.91905381944444 18.10929508561263  30.757161458333336 20.338559039359573  C 28.595269097222225 22.567822993106518  25.802517361111114 24.11051812319324  22.37890625 24.96664442961975  C 21.980468750000004 25.02223704692017  21.685329861111114 24.98332221480987  21.493489583333336 24.84989993328886  C 21.301649305555554 24.716477651767846  21.205729166666664 24.549699799866577  21.205729166666664 24.34956637758506  C 21.205729166666664 24.3162108072048  21.20941840277778 23.890927284856573  21.216796875 23.07371581054036  C 21.224175347222225 22.25650433622415  21.227864583333336 21.50878363353347  21.227864583333336 20.830553702468315  C 21.227864583333336 19.752056926840115  20.84418402777778 18.962641761174115  20.076822916666664 18.46230820547031  C 20.91796875 18.395597064709808  21.67426215277778 18.295530353569045  22.345703125 18.162108072048035  C 23.017144097222225 18.028685790527017  23.710720486111114 17.81187458305537  24.426432291666664 17.511674449633087  C 25.142144097222225 17.211474316210808  25.739800347222225 16.841783411162996  26.219401041666664 16.402601734489657  C 26.699001736111114 15.963420057816318  27.090060763888893 15.379697576161885  27.392578125 14.65143428952635  C 27.695095486111114 13.923171002890816  27.846354166666664 13.086502112519454  27.846354166666664 12.141427618412276  C 27.846354166666664 10.818323326662219  27.263454861111114 9.673115410273518  26.09765625 8.705803869246164  C 26.643663194444446 7.694018234378475  26.584635416666664 6.559928841449855  25.920572916666664 5.303535690460307  C 25.507378472222225 5.203468979319547  24.909722222222225 5.264620858350008  24.127604166666664 5.486991327551702  C 23.345486111111114 5.70936179675339  22.666666666666664 5.953969312875252  22.091145833333336 6.220813875917278  L 21.25 6.621080720480322  C 19.877604166666668 6.3319991105181215  18.460937500000004 6.1874583055370245  17 6.1874583055370245  C 15.5390625 6.1874583055370245  14.122395833333332 6.3319991105181215  12.75 6.621080720480322  C 12.51388888888889 6.498776962419389  12.200303819444446 6.3486768957082464  11.809244791666668 6.170780520346897  C 11.41818576388889 5.992884144985544  10.802083333333334 5.77885256837892  9.9609375 5.528685790527018  C 9.119791666666668 5.278519012675117  8.492621527777779 5.203468979319547  8.079427083333334 5.303535690460307  C 7.415364583333334 6.559928841449855  7.356336805555556 7.694018234378475  7.90234375 8.705803869246164  C 6.736545138888889 9.673115410273518  6.153645833333334 10.818323326662219  6.153645833333334 12.141427618412276  C 6.153645833333334 13.086502112519454  6.304904513888889 13.920391372025795  6.607421875 14.643095396931288  C 6.909939236111112 15.36579942183678  7.297309027777779 15.949521903491215  7.76953125 16.394262841894598  C 8.241753472222223 16.839003780297972  8.835720486111112 17.211474316210808  9.551432291666668 17.511674449633087  C 10.267144097222223 17.81187458305537  10.960720486111112 18.028685790527017  11.632161458333332 18.162108072048035  C 12.303602430555557 18.295530353569045  13.059895833333332 18.395597064709808  13.901041666666668 18.46230820547031  C 13.325520833333332 18.862575050033357  12.963975694444446 19.435179008227706  12.81640625 20.180120080053367  C 12.506510416666668 20.291305314654213  12.174479166666668 20.37469424060485  11.8203125 20.43028685790527  C 11.466145833333332 20.485879475205692  11.045572916666668 20.513675783855902  10.55859375 20.513675783855902  C 10.071614583333334 20.513675783855902  9.588324652777779 20.394151656659997  9.108723958333332 20.15510340226818  C 8.62912326388889 19.916055147876364  8.219618055555555 19.56860128974872  7.880208333333334 19.11274182788526  C 7.599826388888889 18.75694907716255  7.241970486111112 18.467867467200357  6.806640625 18.245496997998668  C 6.371310763888889 18.023126528796972  6.006076388888889 17.889704247275958  5.7109375 17.845230153435622  L 5.268229166666666 17.79519679786524  C 4.958333333333334 17.79519679786524  4.744357638888888 17.82021347565043  4.626302083333334 17.870246831220815  C 4.508246527777779 17.920280186791192  4.471354166666667 17.984211696686682  4.515625 18.062041360907273  C 4.559895833333334 18.13987102512786  4.626302083333334 18.217700689348455  4.71484375 18.295530353569045  C 4.803385416666667 18.373360017789636  4.899305555555556 18.440071158550143  5.002604166666666 18.495663775850566  L 5.157552083333334 18.579052701801203  C 5.482204861111112 18.690237936402042  5.803168402777779 18.90148988214365  6.120442708333334 19.212808539026017  C 6.437717013888889 19.52412719590838  6.670138888888889 19.807649544140535  6.817708333333334 20.063375583722483  L 7.0390625 20.4469646430954  C 7.230902777777779 20.869468534578605  7.555555555555556 21.211363130976206  8.013020833333334 21.472648432288192  C 8.470486111111112 21.733933733600182  8.964843750000002 21.900711585501448  9.49609375 21.972981987991993  C 10.027343750000002 22.045252390482542  10.540147569444446 22.08416722259284  11.034505208333332 22.089726484322885  C 11.528862847222223 22.095285746052923  11.938368055555557 22.075828329997776  12.263020833333332 22.031354236157437  L 12.772135416666668 21.964643095396934  C 12.772135416666668 22.38714698688014  12.775824652777779 22.87914164998888  12.783203125 23.440627084723147  C 12.790581597222223 24.002112519457416  12.794270833333332 24.305092283744717  12.794270833333332 24.34956637758506  C 12.794270833333332 24.549699799866577  12.698350694444446 24.716477651767846  12.506510416666668 24.84989993328886  C 12.31467013888889 24.98332221480987  12.01953125 25.02223704692017  11.62109375 24.96664442961975  C 8.19748263888889 24.11051812319324  5.404730902777779 22.567822993106518  3.242838541666667 20.338559039359573  C 1.0809461805555554 18.10929508561263  0 15.599288414498552  0 12.808539026017346  C 0 10.484767622859682  0.7599826388888888 8.341672225928395  2.279947916666667 6.379252835223481  C 3.7999131944444446 4.416833444518567  5.862196180555556 2.8630197909717574  8.466796875 1.7178118745830555  Z M 6.153645833333334 18.42895263509006  C 6.286458333333334 18.495663775850566  6.382378472222223 18.484545252390483  6.44140625 18.395597064709808  C 6.485677083333334 18.317767400489217  6.434027777777779 18.251056259728706  6.286458333333334 18.195463642428287  C 6.138888888888889 18.162108072048035  6.04296875 18.173226595508112  5.998697916666666 18.22881921280854  C 5.954427083333334 18.306648877029126  6.006076388888889 18.373360017789636  6.153645833333334 18.42895263509006  Z M 6.7734375 18.912608405603738  C 6.921006944444445 19.023793640204577  7.0390625 19.040471425394706  7.127604166666666 18.962641761174115  C 7.230902777777779 18.907049143873692  7.216145833333334 18.818100956193017  7.083333333333334 18.695797198132087  C 6.935763888888889 18.59573048699133  6.817708333333334 18.579052701801203  6.729166666666666 18.645763842561706  C 6.625868055555556 18.70135645986213  6.640625 18.790304647542804  6.7734375 18.912608405603738  Z M 7.415364583333334 19.596397598398934  C 7.548177083333334 19.74093840338003  7.673611111111112 19.77985323549033  7.791666666666666 19.713142094729818  C 7.924479166666666 19.635312430509227  7.924479166666666 19.529686457638427  7.791666666666666 19.396264176117413  C 7.673611111111112 19.25172337113631  7.548177083333334 19.21836780075606  7.415364583333334 19.29619746497665  C 7.282552083333334 19.351790082277073  7.282552083333334 19.451856793417832  7.415364583333334 19.596397598398934  Z M 8.278645833333334 20.363575717144762  C 8.455729166666666 20.496997998665776  8.603298611111112 20.513675783855902  8.721354166666668 20.413609072715143  C 8.839409722222223 20.32466088503447  8.809895833333334 20.219034912163664  8.6328125 20.096731154102734  C 8.455729166666666 19.96330887258172  8.308159722222223 19.946631087391594  8.190104166666666 20.046697798532353  C 8.057291666666666 20.13564598621303  8.086805555555555 20.241271959083832  8.278645833333334 20.363575717144762  Z M 9.5625 20.930620413609073  C 9.783854166666668 20.99733155436958  9.92404513888889 20.963975983989325  9.983072916666668 20.830553702468315  C 10.02734375 20.708249944407385  9.931423611111112 20.619301756726706  9.6953125 20.563709139426283  C 9.473958333333334 20.519235045585944  9.333767361111112 20.558149877696245  9.274739583333332 20.68045363575717  C 9.215711805555557 20.8027573938181  9.311631944444445 20.886146319768734  9.5625 20.930620413609073  Z M 11.0234375 21.09739826551034  C 11.259548611111112 21.09739826551034  11.377604166666668 21.036246386479874  11.377604166666668 20.913942628418948  C 11.377604166666668 20.769401823437846  11.25217013888889 20.708249944407385  11.001302083333332 20.730486991327552  C 10.765190972222223 20.730486991327552  10.647135416666668 20.791638870358017  10.647135416666668 20.913942628418948  C 10.647135416666668 21.058483433400045  10.772569444444445 21.119635312430507  11.0234375 21.09739826551034  Z M 12.3515625 20.98065376917945  C 12.587673611111112 20.936179675339115  12.690972222222223 20.858350011118524  12.661458333333332 20.74716477651768  C 12.631944444444446 20.62486101845675  12.499131944444446 20.57482766288637  12.263020833333332 20.59706470980654  C 12.026909722222223 20.63042028018679  11.923611111111112 20.713809206137423  11.953125 20.847231487658437  C 11.98263888888889 20.98065376917945  12.11545138888889 21.025127863019794  12.3515625 20.98065376917945  Z " fill-rule="nonzero" fill="#1720b6" stroke="none" transform="matrix(1 0 0 1 1762 17 )" />
  </g>
</svg>