<?xml version="1.0" encoding="utf-8"?>
<svg version="1.1" xmlns:xlink="http://www.w3.org/1999/xlink" width="370px" height="60px" xmlns="http://www.w3.org/2000/svg">
  <defs>
    <filter x="878px" y="413px" width="370px" height="60px" filterUnits="userSpaceOnUse" id="filter5543">
      <feOffset dx="5" dy="5" in="SourceAlpha" result="shadowOffsetInner" />
      <feGaussianBlur stdDeviation="2.5" in="shadowOffsetInner" result="shadowGaussian" />
      <feComposite in2="shadowGaussian" operator="atop" in="SourceAlpha" result="shadowComposite" />
      <feColorMatrix type="matrix" values="0 0 0 0 0  0 0 0 0 0  0 0 0 0 0  0 0 0 0.34901960784313724 0  " in="shadowComposite" />
    </filter>
    <g id="widget5544">
      <path d="M 878.5 420  A 6.5 6.5 0 0 1 885 413.5 L 1231 413.5  A 6.5 6.5 0 0 1 1237.5 420 L 1237.5 456  A 6.5 6.5 0 0 1 1231 462.5 L 885 462.5  A 6.5 6.5 0 0 1 878.5 456 L 878.5 420  Z " fill-rule="nonzero" fill="#02a7f0" stroke="none" fill-opacity="0" />
      <path d="M 878.5 420  A 6.5 6.5 0 0 1 885 413.5 L 1231 413.5  A 6.5 6.5 0 0 1 1237.5 420 L 1237.5 456  A 6.5 6.5 0 0 1 1231 462.5 L 885 462.5  A 6.5 6.5 0 0 1 878.5 456 L 878.5 420  Z " stroke-width="1" stroke="#1720b6" fill="none" />
    </g>
  </defs>
  <g transform="matrix(1 0 0 1 -878 -413 )">
    <use xlink:href="#widget5544" filter="url(#filter5543)" />
    <use xlink:href="#widget5544" />
  </g>
</svg>