<?xml version="1.0" encoding="utf-8"?>
<svg version="1.1" xmlns:xlink="http://www.w3.org/1999/xlink" width="31px" height="20px" xmlns="http://www.w3.org/2000/svg">
  <g transform="matrix(1 0 0 1 -19 -28 )">
    <path d="M 30.68937875751503 16.3573883161512  C 30.896459585838343 16.586483390607096  31 16.849942726231383  31 17.147766323024058  C 31 17.44558991981672  30.896459585838343 17.709049255441005  30.68937875751503 17.938144329896907  L 29.136272545090183 19.65635738831615  C 28.92919171676687 19.885452462772044  28.69104876419506 20  28.42184368737475 20  C 28.152638610554444 20  27.914495657982634 19.885452462772044  27.707414829659317 19.65635738831615  L 15.5 6.151202749140894  L 3.292585170340681 19.65635738831615  C 3.0855043420173685 19.885452462772044  2.8473613894455583 20  2.5781563126252505 20  C 2.3089512358049435 20  2.0708082832331334 19.885452462772044  1.8637274549098195 19.65635738831615  L 0.3106212424849699 17.938144329896907  C 0.10354041416165695 17.709049255441005  0 17.44558991981672  0 17.147766323024058  C 0 16.849942726231383  0.10354041416165695 16.586483390607096  0.3106212424849699 16.3573883161512  L 14.785571142284569 0.3436426116838498  C 14.992651970607884 0.11454753722794697  15.230794923179694 0  15.5 0  C 15.76920507682031 0  16.00734802939212 0.11454753722794697  16.21442885771543 0.3436426116838498  L 30.68937875751503 16.3573883161512  Z " fill-rule="nonzero" fill="#0a1322" stroke="none" transform="matrix(1 0 0 1 19 28 )" />
  </g>
</svg>