<?xml version="1.0" encoding="utf-8"?>
<svg version="1.1" xmlns:xlink="http://www.w3.org/1999/xlink" width="266px" height="48px" xmlns="http://www.w3.org/2000/svg">
  <defs>
    <filter x="81px" y="451px" width="266px" height="48px" filterUnits="userSpaceOnUse" id="filter7741">
      <feOffset dx="5" dy="5" in="SourceAlpha" result="shadowOffsetInner" />
      <feGaussianBlur stdDeviation="2.5" in="shadowOffsetInner" result="shadowGaussian" />
      <feComposite in2="shadowGaussian" operator="atop" in="SourceAlpha" result="shadowComposite" />
      <feColorMatrix type="matrix" values="0 0 0 0 0  0 0 0 0 0  0 0 0 0 0  0 0 0 0.34901960784313724 0  " in="shadowComposite" />
    </filter>
    <g id="widget7742">
      <path d="M 81.5 458  A 6.5 6.5 0 0 1 88 451.5 L 330 451.5  A 6.5 6.5 0 0 1 336.5 458 L 336.5 482  A 6.5 6.5 0 0 1 330 488.5 L 88 488.5  A 6.5 6.5 0 0 1 81.5 482 L 81.5 458  Z " fill-rule="nonzero" fill="#02a7f0" stroke="none" fill-opacity="0" />
      <path d="M 81.5 458  A 6.5 6.5 0 0 1 88 451.5 L 330 451.5  A 6.5 6.5 0 0 1 336.5 458 L 336.5 482  A 6.5 6.5 0 0 1 330 488.5 L 88 488.5  A 6.5 6.5 0 0 1 81.5 482 L 81.5 458  Z " stroke-width="1" stroke="#001109" fill="none" />
    </g>
  </defs>
  <g transform="matrix(1 0 0 1 -81 -451 )">
    <use xlink:href="#widget7742" filter="url(#filter7741)" />
    <use xlink:href="#widget7742" />
  </g>
</svg>