<?xml version="1.0" encoding="utf-8"?>
<svg version="1.1" xmlns:xlink="http://www.w3.org/1999/xlink" width="329px" height="48px" xmlns="http://www.w3.org/2000/svg">
  <defs>
    <filter x="86px" y="307px" width="329px" height="48px" filterUnits="userSpaceOnUse" id="filter6313">
      <feOffset dx="5" dy="5" in="SourceAlpha" result="shadowOffsetInner" />
      <feGaussianBlur stdDeviation="2.5" in="shadowOffsetInner" result="shadowGaussian" />
      <feComposite in2="shadowGaussian" operator="atop" in="SourceAlpha" result="shadowComposite" />
      <feColorMatrix type="matrix" values="0 0 0 0 0  0 0 0 0 0  0 0 0 0 0  0 0 0 0.34901960784313724 0  " in="shadowComposite" />
    </filter>
    <g id="widget6314">
      <path d="M 86.5 314  A 6.5 6.5 0 0 1 93 307.5 L 398 307.5  A 6.5 6.5 0 0 1 404.5 314 L 404.5 338  A 6.5 6.5 0 0 1 398 344.5 L 93 344.5  A 6.5 6.5 0 0 1 86.5 338 L 86.5 314  Z " fill-rule="nonzero" fill="#02a7f0" stroke="none" fill-opacity="0" />
      <path d="M 86.5 314  A 6.5 6.5 0 0 1 93 307.5 L 398 307.5  A 6.5 6.5 0 0 1 404.5 314 L 404.5 338  A 6.5 6.5 0 0 1 398 344.5 L 93 344.5  A 6.5 6.5 0 0 1 86.5 338 L 86.5 314  Z " stroke-width="1" stroke="#214373" fill="none" />
    </g>
  </defs>
  <g transform="matrix(1 0 0 1 -86 -307 )">
    <use xlink:href="#widget6314" filter="url(#filter6313)" />
    <use xlink:href="#widget6314" />
  </g>
</svg>