<?xml version="1.0" encoding="utf-8"?>
<svg version="1.1" xmlns:xlink="http://www.w3.org/1999/xlink" width="537px" height="60px" xmlns="http://www.w3.org/2000/svg">
  <defs>
    <filter x="99px" y="491px" width="537px" height="60px" filterUnits="userSpaceOnUse" id="filter13">
      <feOffset dx="5" dy="5" in="SourceAlpha" result="shadowOffsetInner" />
      <feGaussianBlur stdDeviation="2.5" in="shadowOffsetInner" result="shadowGaussian" />
      <feComposite in2="shadowGaussian" operator="atop" in="SourceAlpha" result="shadowComposite" />
      <feColorMatrix type="matrix" values="0 0 0 0 0  0 0 0 0 0  0 0 0 0 0  0 0 0 0.34901960784313724 0  " in="shadowComposite" />
    </filter>
    <g id="widget14">
      <path d="M 99.5 498  A 6.5 6.5 0 0 1 106 491.5 L 619 491.5  A 6.5 6.5 0 0 1 625.5 498 L 625.5 534  A 6.5 6.5 0 0 1 619 540.5 L 106 540.5  A 6.5 6.5 0 0 1 99.5 534 L 99.5 498  Z " fill-rule="nonzero" fill="#001109" stroke="none" />
      <path d="M 99.5 498  A 6.5 6.5 0 0 1 106 491.5 L 619 491.5  A 6.5 6.5 0 0 1 625.5 498 L 625.5 534  A 6.5 6.5 0 0 1 619 540.5 L 106 540.5  A 6.5 6.5 0 0 1 99.5 534 L 99.5 498  Z " stroke-width="1" stroke="#001109" fill="none" />
    </g>
  </defs>
  <g transform="matrix(1 0 0 1 -99 -491 )">
    <use xlink:href="#widget14" filter="url(#filter13)" />
    <use xlink:href="#widget14" />
  </g>
</svg>