<?xml version="1.0" encoding="utf-8"?>
<svg version="1.1" xmlns:xlink="http://www.w3.org/1999/xlink" width="329px" height="48px" xmlns="http://www.w3.org/2000/svg">
  <defs>
    <filter x="1006px" y="320px" width="329px" height="48px" filterUnits="userSpaceOnUse" id="filter269">
      <feOffset dx="5" dy="5" in="SourceAlpha" result="shadowOffsetInner" />
      <feGaussianBlur stdDeviation="2.5" in="shadowOffsetInner" result="shadowGaussian" />
      <feComposite in2="shadowGaussian" operator="atop" in="SourceAlpha" result="shadowComposite" />
      <feColorMatrix type="matrix" values="0 0 0 0 0  0 0 0 0 0  0 0 0 0 0  0 0 0 0.34901960784313724 0  " in="shadowComposite" />
    </filter>
    <g id="widget270">
      <path d="M 1006.5 327  A 6.5 6.5 0 0 1 1013 320.5 L 1318 320.5  A 6.5 6.5 0 0 1 1324.5 327 L 1324.5 351  A 6.5 6.5 0 0 1 1318 357.5 L 1013 357.5  A 6.5 6.5 0 0 1 1006.5 351 L 1006.5 327  Z " fill-rule="nonzero" fill="#001109" stroke="none" />
      <path d="M 1006.5 327  A 6.5 6.5 0 0 1 1013 320.5 L 1318 320.5  A 6.5 6.5 0 0 1 1324.5 327 L 1324.5 351  A 6.5 6.5 0 0 1 1318 357.5 L 1013 357.5  A 6.5 6.5 0 0 1 1006.5 351 L 1006.5 327  Z " stroke-width="1" stroke="#001109" fill="none" />
    </g>
  </defs>
  <g transform="matrix(1 0 0 1 -1006 -320 )">
    <use xlink:href="#widget270" filter="url(#filter269)" />
    <use xlink:href="#widget270" />
  </g>
</svg>