<?xml version="1.0" encoding="utf-8"?>
<svg version="1.1" xmlns:xlink="http://www.w3.org/1999/xlink" width="200px" height="41px" xmlns="http://www.w3.org/2000/svg">
  <defs>
    <filter x="82px" y="555px" width="200px" height="41px" filterUnits="userSpaceOnUse" id="filter63">
      <feOffset dx="5" dy="5" in="SourceAlpha" result="shadowOffsetInner" />
      <feGaussianBlur stdDeviation="2.5" in="shadowOffsetInner" result="shadowGaussian" />
      <feComposite in2="shadowGaussian" operator="atop" in="SourceAlpha" result="shadowComposite" />
      <feColorMatrix type="matrix" values="0 0 0 0 0  0 0 0 0 0  0 0 0 0 0  0 0 0 0.34901960784313724 0  " in="shadowComposite" />
    </filter>
    <g id="widget64">
      <path d="M 82.5 560  A 4.5 4.5 0 0 1 87 555.5 L 267 555.5  A 4.5 4.5 0 0 1 271.5 560 L 271.5 581  A 4.5 4.5 0 0 1 267 585.5 L 87 585.5  A 4.5 4.5 0 0 1 82.5 581 L 82.5 560  Z " fill-rule="nonzero" fill="#001109" stroke="none" />
      <path d="M 82.5 560  A 4.5 4.5 0 0 1 87 555.5 L 267 555.5  A 4.5 4.5 0 0 1 271.5 560 L 271.5 581  A 4.5 4.5 0 0 1 267 585.5 L 87 585.5  A 4.5 4.5 0 0 1 82.5 581 L 82.5 560  Z " stroke-width="1" stroke="#001109" fill="none" />
    </g>
  </defs>
  <g transform="matrix(1 0 0 1 -82 -555 )">
    <use xlink:href="#widget64" filter="url(#filter63)" />
    <use xlink:href="#widget64" />
  </g>
</svg>