<?xml version="1.0" encoding="utf-8"?>
<svg version="1.1" xmlns:xlink="http://www.w3.org/1999/xlink" width="200px" height="41px" xmlns="http://www.w3.org/2000/svg">
  <defs>
    <filter x="82px" y="570px" width="200px" height="41px" filterUnits="userSpaceOnUse" id="filter1885">
      <feOffset dx="5" dy="5" in="SourceAlpha" result="shadowOffsetInner" />
      <feGaussianBlur stdDeviation="2.5" in="shadowOffsetInner" result="shadowGaussian" />
      <feComposite in2="shadowGaussian" operator="atop" in="SourceAlpha" result="shadowComposite" />
      <feColorMatrix type="matrix" values="0 0 0 0 0  0 0 0 0 0  0 0 0 0 0  0 0 0 0.34901960784313724 0  " in="shadowComposite" />
    </filter>
    <g id="widget1886">
      <path d="M 82.5 575  A 4.5 4.5 0 0 1 87 570.5 L 267 570.5  A 4.5 4.5 0 0 1 271.5 575 L 271.5 596  A 4.5 4.5 0 0 1 267 600.5 L 87 600.5  A 4.5 4.5 0 0 1 82.5 596 L 82.5 575  Z " fill-rule="nonzero" fill="#000000" stroke="none" fill-opacity="0.8980392156862745" />
      <path d="M 82.5 575  A 4.5 4.5 0 0 1 87 570.5 L 267 570.5  A 4.5 4.5 0 0 1 271.5 575 L 271.5 596  A 4.5 4.5 0 0 1 267 600.5 L 87 600.5  A 4.5 4.5 0 0 1 82.5 596 L 82.5 575  Z " stroke-width="1" stroke="#001109" fill="none" />
    </g>
  </defs>
  <g transform="matrix(1 0 0 1 -82 -570 )">
    <use xlink:href="#widget1886" filter="url(#filter1885)" />
    <use xlink:href="#widget1886" />
  </g>
</svg>