<?xml version="1.0" encoding="utf-8"?>
<svg version="1.1" xmlns:xlink="http://www.w3.org/1999/xlink" width="200px" height="41px" xmlns="http://www.w3.org/2000/svg">
  <defs>
    <filter x="85px" y="569px" width="200px" height="41px" filterUnits="userSpaceOnUse" id="filter1825">
      <feOffset dx="5" dy="5" in="SourceAlpha" result="shadowOffsetInner" />
      <feGaussianBlur stdDeviation="2.5" in="shadowOffsetInner" result="shadowGaussian" />
      <feComposite in2="shadowGaussian" operator="atop" in="SourceAlpha" result="shadowComposite" />
      <feColorMatrix type="matrix" values="0 0 0 0 0  0 0 0 0 0  0 0 0 0 0  0 0 0 0.34901960784313724 0  " in="shadowComposite" />
    </filter>
    <g id="widget1826">
      <path d="M 85.5 574  A 4.5 4.5 0 0 1 90 569.5 L 270 569.5  A 4.5 4.5 0 0 1 274.5 574 L 274.5 595  A 4.5 4.5 0 0 1 270 599.5 L 90 599.5  A 4.5 4.5 0 0 1 85.5 595 L 85.5 574  Z " fill-rule="nonzero" fill="#1e98d7" stroke="none" fill-opacity="0" />
      <path d="M 85.5 574  A 4.5 4.5 0 0 1 90 569.5 L 270 569.5  A 4.5 4.5 0 0 1 274.5 574 L 274.5 595  A 4.5 4.5 0 0 1 270 599.5 L 90 599.5  A 4.5 4.5 0 0 1 85.5 595 L 85.5 574  Z " stroke-width="1" stroke="#1720b6" fill="none" />
    </g>
  </defs>
  <g transform="matrix(1 0 0 1 -85 -569 )">
    <use xlink:href="#widget1826" filter="url(#filter1825)" />
    <use xlink:href="#widget1826" />
  </g>
</svg>