<?xml version="1.0" encoding="utf-8"?>
<svg version="1.1" xmlns:xlink="http://www.w3.org/1999/xlink" width="200px" height="41px" xmlns="http://www.w3.org/2000/svg">
  <defs>
    <filter x="85px" y="560px" width="200px" height="41px" filterUnits="userSpaceOnUse" id="filter5873">
      <feOffset dx="5" dy="5" in="SourceAlpha" result="shadowOffsetInner" />
      <feGaussianBlur stdDeviation="2.5" in="shadowOffsetInner" result="shadowGaussian" />
      <feComposite in2="shadowGaussian" operator="atop" in="SourceAlpha" result="shadowComposite" />
      <feColorMatrix type="matrix" values="0 0 0 0 0  0 0 0 0 0  0 0 0 0 0  0 0 0 0.34901960784313724 0  " in="shadowComposite" />
    </filter>
    <g id="widget5874">
      <path d="M 85.5 565  A 4.5 4.5 0 0 1 90 560.5 L 270 560.5  A 4.5 4.5 0 0 1 274.5 565 L 274.5 586  A 4.5 4.5 0 0 1 270 590.5 L 90 590.5  A 4.5 4.5 0 0 1 85.5 586 L 85.5 565  Z " fill-rule="nonzero" fill="#aaaaaa" stroke="none" />
      <path d="M 85.5 565  A 4.5 4.5 0 0 1 90 560.5 L 270 560.5  A 4.5 4.5 0 0 1 274.5 565 L 274.5 586  A 4.5 4.5 0 0 1 270 590.5 L 90 590.5  A 4.5 4.5 0 0 1 85.5 586 L 85.5 565  Z " stroke-width="1" stroke="#000000" fill="none" />
    </g>
  </defs>
  <g transform="matrix(1 0 0 1 -85 -560 )">
    <use xlink:href="#widget5874" filter="url(#filter5873)" />
    <use xlink:href="#widget5874" />
  </g>
</svg>