<?xml version="1.0" encoding="utf-8"?>
<svg version="1.1" xmlns:xlink="http://www.w3.org/1999/xlink" width="200px" height="41px" xmlns="http://www.w3.org/2000/svg">
  <defs>
    <filter x="85px" y="574px" width="200px" height="41px" filterUnits="userSpaceOnUse" id="filter6335">
      <feOffset dx="5" dy="5" in="SourceAlpha" result="shadowOffsetInner" />
      <feGaussianBlur stdDeviation="2.5" in="shadowOffsetInner" result="shadowGaussian" />
      <feComposite in2="shadowGaussian" operator="atop" in="SourceAlpha" result="shadowComposite" />
      <feColorMatrix type="matrix" values="0 0 0 0 0  0 0 0 0 0  0 0 0 0 0  0 0 0 0.34901960784313724 0  " in="shadowComposite" />
    </filter>
    <g id="widget6336">
      <path d="M 85.5 579  A 4.5 4.5 0 0 1 90 574.5 L 270 574.5  A 4.5 4.5 0 0 1 274.5 579 L 274.5 600  A 4.5 4.5 0 0 1 270 604.5 L 90 604.5  A 4.5 4.5 0 0 1 85.5 600 L 85.5 579  Z " fill-rule="nonzero" fill="#1e98d7" stroke="none" fill-opacity="0" />
      <path d="M 85.5 579  A 4.5 4.5 0 0 1 90 574.5 L 270 574.5  A 4.5 4.5 0 0 1 274.5 579 L 274.5 600  A 4.5 4.5 0 0 1 270 604.5 L 90 604.5  A 4.5 4.5 0 0 1 85.5 600 L 85.5 579  Z " stroke-width="1" stroke="#1720b6" fill="none" />
    </g>
  </defs>
  <g transform="matrix(1 0 0 1 -85 -574 )">
    <use xlink:href="#widget6336" filter="url(#filter6335)" />
    <use xlink:href="#widget6336" />
  </g>
</svg>