<?xml version="1.0" encoding="utf-8"?>
<svg version="1.1" xmlns:xlink="http://www.w3.org/1999/xlink" width="662px" height="45px" xmlns="http://www.w3.org/2000/svg">
  <defs>
    <filter x="553px" y="394px" width="662px" height="45px" filterUnits="userSpaceOnUse" id="filter6309">
      <feOffset dx="5" dy="5" in="SourceAlpha" result="shadowOffsetInner" />
      <feGaussianBlur stdDeviation="2.5" in="shadowOffsetInner" result="shadowGaussian" />
      <feComposite in2="shadowGaussian" operator="atop" in="SourceAlpha" result="shadowComposite" />
      <feColorMatrix type="matrix" values="0 0 0 0 0  0 0 0 0 0  0 0 0 0 0  0 0 0 0.34901960784313724 0  " in="shadowComposite" />
    </filter>
    <g id="widget6310">
      <path d="M 553.5 399  A 4.5 4.5 0 0 1 558 394.5 L 1200 394.5  A 4.5 4.5 0 0 1 1204.5 399 L 1204.5 424  A 4.5 4.5 0 0 1 1200 428.5 L 558 428.5  A 4.5 4.5 0 0 1 553.5 424 L 553.5 399  Z " fill-rule="nonzero" fill="#1e98d7" stroke="none" fill-opacity="0" />
      <path d="M 553.5 399  A 4.5 4.5 0 0 1 558 394.5 L 1200 394.5  A 4.5 4.5 0 0 1 1204.5 399 L 1204.5 424  A 4.5 4.5 0 0 1 1200 428.5 L 558 428.5  A 4.5 4.5 0 0 1 553.5 424 L 553.5 399  Z " stroke-width="1" stroke="#1720b6" fill="none" />
    </g>
  </defs>
  <g transform="matrix(1 0 0 1 -553 -394 )">
    <use xlink:href="#widget6310" filter="url(#filter6309)" />
    <use xlink:href="#widget6310" />
  </g>
</svg>