<?xml version="1.0" encoding="utf-8"?>
<svg version="1.1" xmlns:xlink="http://www.w3.org/1999/xlink" width="937px" height="60px" xmlns="http://www.w3.org/2000/svg">
  <defs>
    <filter x="786px" y="618px" width="937px" height="60px" filterUnits="userSpaceOnUse" id="filter5811">
      <feOffset dx="5" dy="5" in="SourceAlpha" result="shadowOffsetInner" />
      <feGaussianBlur stdDeviation="2.5" in="shadowOffsetInner" result="shadowGaussian" />
      <feComposite in2="shadowGaussian" operator="atop" in="SourceAlpha" result="shadowComposite" />
      <feColorMatrix type="matrix" values="0 0 0 0 0  0 0 0 0 0  0 0 0 0 0  0 0 0 0.34901960784313724 0  " in="shadowComposite" />
    </filter>
    <g id="widget5812">
      <path d="M 786.5 623  A 4.5 4.5 0 0 1 791 618.5 L 1708 618.5  A 4.5 4.5 0 0 1 1712.5 623 L 1712.5 663  A 4.5 4.5 0 0 1 1708 667.5 L 791 667.5  A 4.5 4.5 0 0 1 786.5 663 L 786.5 623  Z " fill-rule="nonzero" fill="#000000" stroke="none" />
      <path d="M 786.5 623  A 4.5 4.5 0 0 1 791 618.5 L 1708 618.5  A 4.5 4.5 0 0 1 1712.5 623 L 1712.5 663  A 4.5 4.5 0 0 1 1708 667.5 L 791 667.5  A 4.5 4.5 0 0 1 786.5 663 L 786.5 623  Z " stroke-width="1" stroke="#000000" fill="none" />
    </g>
  </defs>
  <g transform="matrix(1 0 0 1 -786 -618 )">
    <use xlink:href="#widget5812" filter="url(#filter5811)" />
    <use xlink:href="#widget5812" />
  </g>
</svg>