<?xml version="1.0" encoding="utf-8"?>
<svg version="1.1" xmlns:xlink="http://www.w3.org/1999/xlink" width="50px" height="50px" xmlns="http://www.w3.org/2000/svg">
  <g transform="matrix(1 0 0 1 -640 -204 )">
    <path d="M 47.19328703703704 13.278068644560792  C 49.064429012345684 16.87512119449292  50 20.738801628853988  50 24.86910994764398  C 50 28.281946868334302  49.33931327160494 31.539654838084154  48.01793981481482 34.64223385689355  C 46.6965663580247 37.744812875702934  44.92187500000001 40.41593949970913  42.69386574074074 42.65561372891216  C 40.46585648148148 44.89528795811518  37.808641975308646 46.67927089393058  34.72222222222222 48.00756253635835  C 31.635802469135804 49.33585417878612  28.39506172839506 50  25 50  C 21.60493827160494 50  18.3641975308642 49.33585417878612  15.277777777777779 48.00756253635835  C 12.19135802469136 46.67927089393058  9.534143518518519 44.89528795811518  7.306134259259259 42.65561372891216  C 5.078125 40.41593949970913  3.303433641975309 37.744812875702934  1.9820601851851853 34.64223385689355  C 0.6606867283950618 31.539654838084154  0 28.281946868334302  0 24.86910994764398  C 0 20.738801628853988  0.9355709876543213 16.87512119449292  2.806712962962963 13.278068644560792  C 4.677854938271605 9.681016094628658  7.233796296296297 6.719022687609078  10.474537037037036 4.392088423502038  C 13.715277777777779 2.0651541593949996  17.32253086419753 0.6011246848943164  21.296296296296298 0  L 21.296296296296298 6.631762652705059  C 17.03317901234568 7.504363001745201  13.49826388888889 9.647081636610427  10.691550925925926 13.059918557300755  C 7.884837962962964 16.47275547799108  6.481481481481481 20.409152608105487  6.481481481481481 24.86910994764398  C 6.481481481481481 27.3899554004266  6.97337962962963 29.799301919720765  7.957175925925926 32.09714950552647  C 8.940972222222223 34.39499709133217  10.257523148148149 36.37289121582315  11.906828703703704 38.030831878999415  C 13.55613425925926 39.688772542175684  15.523726851851851 41.01221640488656  17.80960648148148 42.00116346713205  C 20.09548611111111 42.990110529377546  22.492283950617285 43.48458406050029  25 43.48458406050029  C 27.50771604938272 43.48458406050029  29.90451388888889 42.990110529377546  32.19039351851852 42.00116346713205  C 34.476273148148145 41.01221640488656  36.44386574074074 39.688772542175684  38.0931712962963 38.030831878999415  C 39.742476851851855 36.37289121582315  41.05902777777778 34.39499709133217  42.042824074074076 32.09714950552647  C 43.026620370370374 29.799301919720765  43.51851851851852 27.3899554004266  43.51851851851852 24.86910994764398  C 43.51851851851852 20.409152608105487  42.11516203703704 16.47275547799108  39.308449074074076 13.059918557300755  C 36.50173611111111 9.647081636610427  32.96682098765433 7.504363001745201  28.703703703703702 6.631762652705059  L 28.703703703703702 0  C 32.677469135802475 0.6011246848943164  36.28472222222222 2.0651541593949996  39.52546296296296 4.392088423502038  C 42.76620370370371 6.719022687609078  45.3221450617284 9.681016094628658  47.19328703703704 13.278068644560792  Z " fill-rule="nonzero" fill="#ffffff" stroke="none" transform="matrix(1 0 0 1 640 204 )" />
  </g>
</svg>