<?xml version="1.0" encoding="utf-8"?>
<svg version="1.1" xmlns:xlink="http://www.w3.org/1999/xlink" width="68px" height="70px" xmlns="http://www.w3.org/2000/svg">
  <g transform="matrix(1 0 0 1 -926 -345 )">
    <path d="M 17.34735576923077 52.80381944444444  C 18.368990384615387 53.816550925925924  18.879807692307693 55.038580246913575  18.879807692307693 56.46990740740741  C 18.879807692307693 57.90123456790123  18.368990384615387 59.12326388888889  17.34735576923077 60.13599537037037  C 16.325721153846153 61.14872685185185  15.092948717948719 61.65509259259259  13.649038461538462 61.65509259259259  C 12.232371794871797 61.65509259259259  11.006410256410259 61.141975308641975  9.971153846153847 60.11574074074074  C 8.935897435897436 59.08950617283951  8.418269230769232 57.87422839506173  8.418269230769232 56.46990740740741  C 8.418269230769232 55.038580246913575  8.929086538461538 53.816550925925924  9.950721153846153 52.80381944444444  C 10.972355769230768 51.79108796296296  12.205128205128204 51.28472222222222  13.649038461538462 51.28472222222222  C 15.092948717948719 51.28472222222222  16.325721153846153 51.79108796296296  17.34735576923077 52.80381944444444  Z M 37.698317307692314 61.14872685185185  C 38.71995192307693 62.161458333333336  39.230769230769226 63.383487654320994  39.230769230769226 64.81481481481481  C 39.230769230769226 66.24614197530863  38.71995192307693 67.46817129629629  37.698317307692314 68.48090277777779  C 36.676682692307686 69.49363425925927  35.443910256410255 70  34 70  C 32.556089743589745 70  31.32331730769231 69.49363425925927  30.301682692307693 68.48090277777779  C 29.280048076923077 67.46817129629629  28.76923076923077 66.24614197530863  28.76923076923077 64.81481481481481  C 28.76923076923077 63.383487654320994  29.280048076923077 62.161458333333336  30.301682692307693 61.14872685185185  C 31.32331730769231 60.13599537037037  32.556089743589745 59.62962962962963  34 59.62962962962963  C 35.443910256410255 59.62962962962963  36.676682692307686 60.13599537037037  37.698317307692314 61.14872685185185  Z M 8.929086538461538 32.630208333333336  C 9.950721153846153 33.64293981481482  10.461538461538462 34.86496913580247  10.461538461538462 36.296296296296305  C 10.461538461538462 37.72762345679012  9.950721153846153 38.94965277777778  8.929086538461538 39.96238425925926  C 7.907451923076923 40.97511574074074  6.674679487179488 41.48148148148148  5.230769230769231 41.48148148148148  C 3.786858974358975 41.48148148148148  2.5540865384615383 40.97511574074074  1.5324519230769231 39.96238425925926  C 0.5108173076923077 38.94965277777778  0 37.72762345679012  0 36.296296296296305  C 0 34.86496913580247  0.5108173076923077 33.64293981481482  1.5324519230769231 32.630208333333336  C 2.5540865384615383 31.617476851851848  3.786858974358975 31.11111111111111  5.230769230769231 31.11111111111111  C 6.674679487179488 31.11111111111111  7.907451923076923 31.617476851851848  8.929086538461538 32.630208333333336  Z M 58.04927884615385 52.80381944444444  C 59.07091346153846 53.816550925925924  59.581730769230774 55.038580246913575  59.581730769230774 56.46990740740741  C 59.581730769230774 57.87422839506173  59.064102564102576 59.08950617283951  58.02884615384615 60.11574074074074  C 56.993589743589745 61.141975308641975  55.767628205128204 61.65509259259259  54.35096153846154 61.65509259259259  C 52.907051282051285 61.65509259259259  51.67427884615385 61.14872685185185  50.652644230769226 60.13599537037037  C 49.63100961538461 59.12326388888889  49.120192307692314 57.90123456790123  49.120192307692314 56.46990740740741  C 49.120192307692314 55.038580246913575  49.63100961538461 53.816550925925924  50.652644230769226 52.80381944444444  C 51.67427884615385 51.79108796296296  52.907051282051285 51.28472222222222  54.35096153846154 51.28472222222222  C 55.7948717948718 51.28472222222222  57.027644230769226 51.79108796296296  58.04927884615385 52.80381944444444  Z M 18.266826923076923 11.545138888888891  C 19.547275641025642 12.814429012345673  20.1875 14.340277777777782  20.1875 16.122685185185183  C 20.1875 17.905092592592595  19.547275641025642 19.430941358024683  18.266826923076923 20.70023148148148  C 16.986378205128204 21.96952160493827  15.447115384615385 22.604166666666664  13.649038461538462 22.604166666666664  C 11.850961538461538 22.604166666666664  10.311698717948719 21.96952160493827  9.03125 20.70023148148148  C 7.750801282051283 19.430941358024683  7.110576923076923 17.905092592592595  7.110576923076923 16.122685185185183  C 7.110576923076923 14.340277777777782  7.750801282051283 12.814429012345673  9.03125 11.545138888888891  C 10.311698717948719 10.275848765432093  11.850961538461538 9.641203703703706  13.649038461538462 9.641203703703706  C 15.447115384615385 9.641203703703706  16.986378205128204 10.275848765432093  18.266826923076923 11.545138888888891  Z M 66.46754807692308 32.630208333333336  C 67.48918269230771 33.64293981481482  68.00000000000001 34.86496913580247  68 36.296296296296305  C 68.00000000000001 37.72762345679012  67.48918269230771 38.94965277777778  66.46754807692308 39.96238425925926  C 65.44591346153847 40.97511574074074  64.21314102564104 41.48148148148148  62.769230769230774 41.48148148148148  C 61.32532051282052 41.48148148148148  60.09254807692307 40.97511574074074  59.07091346153846 39.96238425925926  C 58.04927884615385 38.94965277777778  57.53846153846154 37.72762345679012  57.53846153846154 36.296296296296305  C 57.53846153846154 34.86496913580247  58.04927884615385 33.64293981481482  59.07091346153846 32.630208333333336  C 60.09254807692307 31.617476851851848  61.32532051282052 31.11111111111111  62.769230769230774 31.11111111111111  C 64.21314102564104 31.11111111111111  65.44591346153847 31.617476851851848  66.46754807692308 32.630208333333336  Z M 39.557692307692314 2.268518518518521  C 41.083333333333336 3.7808641975308577  41.84615384615385 5.617283950617278  41.84615384615385 7.777777777777781  C 41.84615384615385 9.938271604938269  41.083333333333336 11.77469135802468  39.557692307692314 13.287037037037035  C 38.032051282051285 14.79938271604938  36.17948717948718 15.555555555555555  34 15.555555555555555  C 31.820512820512825 15.555555555555555  29.967948717948726 14.79938271604938  28.442307692307693 13.287037037037035  C 26.916666666666668 11.77469135802468  26.153846153846157 9.938271604938269  26.153846153846157 7.777777777777781  C 26.153846153846157 5.617283950617278  26.916666666666668 3.7808641975308577  28.442307692307693 2.268518518518521  C 29.967948717948726 0.7561728395061762  31.820512820512825 0  34 0  C 36.17948717948718 0  38.032051282051285 0.7561728395061762  39.557692307692314 2.268518518518521  Z M 60.807692307692314 9.722222222222218  C 62.605769230769226 11.50462962962963  63.504807692307686 13.638117283950614  63.504807692307686 16.122685185185183  C 63.504807692307686 18.63425925925926  62.605769230769226 20.77449845679012  60.807692307692314 22.543402777777782  C 59.00961538461539 24.31230709876543  56.8573717948718 25.19675925925926  54.35096153846154 25.19675925925926  C 51.817307692307686 25.19675925925926  49.658253205128204 24.31230709876543  47.87379807692307 22.543402777777782  C 46.08934294871795 20.77449845679012  45.19711538461539 18.63425925925926  45.19711538461539 16.122685185185183  C 45.19711538461539 13.638117283950614  46.08934294871795 11.50462962962963  47.87379807692307 9.722222222222218  C 49.658253205128204 7.939814814814815  51.817307692307686 7.048611111111109  54.35096153846154 7.048611111111109  C 56.8573717948718 7.048611111111109  59.00961538461539 7.939814814814815  60.807692307692314 9.722222222222218  Z " fill-rule="nonzero" fill="#ffffff" stroke="none" transform="matrix(1 0 0 1 926 345 )" />
  </g>
</svg>