<?xml version="1.0" encoding="utf-8"?>
<svg version="1.1" xmlns:xlink="http://www.w3.org/1999/xlink" width="70px" height="70px" xmlns="http://www.w3.org/2000/svg">
  <g transform="matrix(1 0 0 1 -926 -345 )">
    <path d="M 66.07060185185185 18.58929610238511  C 68.69020061728396 23.625169672290088  70 29.034322280395582  70 34.81675392670157  C 70 39.59472561566802  69.07503858024691 44.155516773317814  67.22511574074073 48.499127399650966  C 65.37519290123457 52.842738025984104  62.89062500000001 56.582315299592786  59.77141203703703 59.71785922047702  C 56.652199074074076 62.853403141361255  52.9320987654321 65.3509792515028  48.61111111111111 67.21058755090169  C 44.29012345679013 69.07019585030056  39.75308641975308 70  35 70  C 30.246913580246915 70  25.709876543209877 69.07019585030056  21.38888888888889 67.21058755090169  C 17.067901234567902 65.3509792515028  13.347800925925926 62.853403141361255  10.228587962962962 59.71785922047702  C 7.109375 56.582315299592786  4.624807098765433 52.842738025984104  2.7748842592592595 48.499127399650966  C 0.9249614197530865 44.155516773317814  0 39.59472561566802  0 34.81675392670157  C 0 29.034322280395582  1.30979938271605 23.625169672290088  3.929398148148148 18.58929610238511  C 6.548996913580248 13.553422532480122  10.127314814814815 9.406631762652708  14.664351851851851 6.148923792902854  C 19.20138888888889 2.8912158231529994  24.251543209876544 0.8415745588520429  29.814814814814817 0  L 29.814814814814817 9.284467713787082  C 23.846450617283953 10.506108202443281  18.897569444444446 13.505914291254598  14.968171296296296 18.283885980221054  C 11.038773148148149 23.06185766918751  9.074074074074074 28.57281365134768  9.074074074074074 34.81675392670157  C 9.074074074074074 38.34593756059724  9.762731481481481 41.719022687609076  11.140046296296296 44.93600930773705  C 12.51736111111111 48.152995927865035  14.360532407407408 50.92204770215242  16.669560185185183 53.24316463059918  C 18.978587962962962 55.56428155904595  21.73321759259259 57.417102966841185  24.933449074074076 58.80162885398487  C 28.133680555555554 60.18615474112856  31.489197530864196 60.87841768470041  35 60.87841768470041  C 38.510802469135804 60.87841768470041  41.86631944444444 60.18615474112856  45.066550925925924 58.80162885398487  C 48.266782407407405 57.417102966841185  51.02141203703703 55.56428155904595  53.33043981481482 53.24316463059918  C 55.639467592592595 50.92204770215242  57.48263888888889 48.152995927865035  58.8599537037037 44.93600930773705  C 60.23726851851852 41.719022687609076  60.925925925925924 38.34593756059724  60.925925925925924 34.81675392670157  C 60.925925925925924 28.57281365134768  58.96122685185185 23.06185766918751  55.0318287037037 18.283885980221054  C 51.10243055555556 13.505914291254598  46.15354938271606 10.506108202443281  40.18518518518518 9.284467713787082  L 40.18518518518518 0  C 45.74845679012346 0.8415745588520429  50.79861111111111 2.8912158231529994  55.33564814814815 6.148923792902854  C 59.87268518518519 9.406631762652708  63.45100308641975 13.553422532480122  66.07060185185185 18.58929610238511  Z " fill-rule="nonzero" fill="#ffffff" stroke="none" transform="matrix(1 0 0 1 926 345 )" />
  </g>
</svg>