<?xml version="1.0" encoding="utf-8"?>
<svg version="1.1" xmlns:xlink="http://www.w3.org/1999/xlink" width="48px" height="50px" xmlns="http://www.w3.org/2000/svg">
  <g transform="matrix(1 0 0 1 -640 -204 )">
    <path d="M 12.245192307692307 37.71701388888889  C 12.966346153846155 38.44039351851852  13.326923076923077 39.313271604938265  13.326923076923077 40.33564814814815  C 13.326923076923077 41.35802469135802  12.966346153846155 42.23090277777778  12.245192307692307 42.954282407407405  C 11.524038461538462 43.67766203703704  10.653846153846155 44.03935185185185  9.634615384615385 44.03935185185185  C 8.634615384615387 44.03935185185185  7.769230769230771 43.67283950617284  7.038461538461538 42.93981481481482  C 6.307692307692308 42.20679012345679  5.9423076923076925 41.338734567901234  5.9423076923076925 40.33564814814815  C 5.9423076923076925 39.313271604938265  6.302884615384615 38.44039351851852  7.024038461538462 37.71701388888889  C 7.7451923076923075 36.99363425925925  8.615384615384615 36.63194444444444  9.634615384615385 36.63194444444444  C 10.653846153846155 36.63194444444444  11.524038461538462 36.99363425925925  12.245192307692307 37.71701388888889  Z M 26.610576923076927 43.67766203703704  C 27.33173076923077 44.40104166666667  27.69230769230769 45.273919753086425  27.69230769230769 46.2962962962963  C 27.69230769230769 47.31867283950617  27.33173076923077 48.191550925925924  26.610576923076927 48.91493055555556  C 25.889423076923073 49.63831018518518  25.019230769230766 50  24 50  C 22.980769230769234 50  22.110576923076927 49.63831018518518  21.389423076923077 48.91493055555556  C 20.66826923076923 48.191550925925924  20.307692307692307 47.31867283950617  20.307692307692307 46.2962962962963  C 20.307692307692307 45.273919753086425  20.66826923076923 44.40104166666667  21.389423076923077 43.67766203703704  C 22.110576923076927 42.954282407407405  22.980769230769234 42.592592592592595  24 42.592592592592595  C 25.019230769230766 42.592592592592595  25.889423076923073 42.954282407407405  26.610576923076927 43.67766203703704  Z M 6.302884615384615 23.307291666666668  C 7.024038461538462 24.030671296296298  7.384615384615385 24.90354938271605  7.384615384615385 25.92592592592593  C 7.384615384615385 26.948302469135797  7.024038461538462 27.821180555555557  6.302884615384615 28.544560185185187  C 5.581730769230769 29.267939814814813  4.711538461538462 29.629629629629626  3.6923076923076925 29.629629629629626  C 2.6730769230769234 29.629629629629626  1.8028846153846154 29.267939814814813  1.0817307692307692 28.544560185185187  C 0.3605769230769231 27.821180555555557  0 26.948302469135797  0 25.92592592592593  C 0 24.90354938271605  0.3605769230769231 24.030671296296298  1.0817307692307692 23.307291666666668  C 1.8028846153846154 22.583912037037035  2.6730769230769234 22.22222222222222  3.6923076923076925 22.22222222222222  C 4.711538461538462 22.22222222222222  5.581730769230769 22.583912037037035  6.302884615384615 23.307291666666668  Z M 40.97596153846154 37.71701388888889  C 41.69711538461539 38.44039351851852  42.05769230769231 39.313271604938265  42.05769230769231 40.33564814814815  C 42.05769230769231 41.338734567901234  41.6923076923077 42.20679012345679  40.96153846153846 42.93981481481482  C 40.23076923076923 43.67283950617284  39.36538461538461 44.03935185185185  38.36538461538461 44.03935185185185  C 37.34615384615385 44.03935185185185  36.47596153846154 43.67766203703704  35.75480769230769 42.954282407407405  C 35.03365384615385 42.23090277777778  34.67307692307693 41.35802469135802  34.67307692307693 40.33564814814815  C 34.67307692307693 39.313271604938265  35.03365384615385 38.44039351851852  35.75480769230769 37.71701388888889  C 36.47596153846154 36.99363425925925  37.34615384615385 36.63194444444444  38.36538461538461 36.63194444444444  C 39.38461538461539 36.63194444444444  40.25480769230769 36.99363425925925  40.97596153846154 37.71701388888889  Z M 12.89423076923077 8.246527777777779  C 13.798076923076923 9.15316358024691  14.25 10.243055555555557  14.25 11.516203703703704  C 14.25 12.789351851851855  13.798076923076923 13.879243827160487  12.89423076923077 14.785879629629628  C 11.990384615384615 15.692515432098764  10.903846153846153 16.145833333333332  9.634615384615385 16.145833333333332  C 8.365384615384615 16.145833333333332  7.278846153846155 15.692515432098764  6.375 14.785879629629628  C 5.471153846153847 13.879243827160487  5.019230769230769 12.789351851851855  5.019230769230769 11.516203703703704  C 5.019230769230769 10.243055555555557  5.471153846153847 9.15316358024691  6.375 8.246527777777779  C 7.278846153846155 7.339891975308638  8.365384615384615 6.886574074074075  9.634615384615385 6.886574074074075  C 10.903846153846153 6.886574074074075  11.990384615384615 7.339891975308638  12.89423076923077 8.246527777777779  Z M 46.918269230769226 23.307291666666668  C 47.63942307692309 24.030671296296298  48.000000000000014 24.90354938271605  48 25.92592592592593  C 48.000000000000014 26.948302469135797  47.63942307692309 27.821180555555557  46.918269230769226 28.544560185185187  C 46.19711538461539 29.267939814814813  45.32692307692308 29.629629629629626  44.30769230769231 29.629629629629626  C 43.28846153846154 29.629629629629626  42.418269230769226 29.267939814814813  41.69711538461539 28.544560185185187  C 40.97596153846154 27.821180555555557  40.61538461538461 26.948302469135797  40.61538461538461 25.92592592592593  C 40.61538461538461 24.90354938271605  40.97596153846154 24.030671296296298  41.69711538461539 23.307291666666668  C 42.418269230769226 22.583912037037035  43.28846153846154 22.22222222222222  44.30769230769231 22.22222222222222  C 45.32692307692308 22.22222222222222  46.19711538461539 22.583912037037035  46.918269230769226 23.307291666666668  Z M 27.923076923076927 1.620370370370372  C 29.000000000000004 2.7006172839506126  29.53846153846154 4.012345679012341  29.53846153846154 5.555555555555558  C 29.53846153846154 7.098765432098764  29.000000000000004 8.410493827160487  27.923076923076927 9.490740740740739  C 26.846153846153847 10.570987654320984  25.53846153846154 11.11111111111111  24 11.11111111111111  C 22.461538461538463 11.11111111111111  21.15384615384616 10.570987654320984  20.076923076923077 9.490740740740739  C 19 8.410493827160487  18.461538461538463 7.098765432098764  18.461538461538463 5.555555555555558  C 18.461538461538463 4.012345679012341  19 2.7006172839506126  20.076923076923077 1.620370370370372  C 21.15384615384616 0.5401234567901259  22.461538461538463 0  24 0  C 25.53846153846154 0  26.846153846153847 0.5401234567901259  27.923076923076927 1.620370370370372  Z M 42.92307692307693 6.944444444444442  C 44.19230769230769 8.217592592592593  44.82692307692307 9.74151234567901  44.82692307692307 11.516203703703704  C 44.82692307692307 13.310185185185187  44.19230769230769 14.838927469135799  42.92307692307693 16.102430555555557  C 41.65384615384615 17.365933641975307  40.13461538461539 17.997685185185187  38.36538461538461 17.997685185185187  C 36.57692307692307 17.997685185185187  35.05288461538461 17.365933641975307  33.793269230769226 16.102430555555557  C 32.53365384615385 14.838927469135799  31.903846153846153 13.310185185185187  31.903846153846153 11.516203703703704  C 31.903846153846153 9.74151234567901  32.53365384615385 8.217592592592593  33.793269230769226 6.944444444444442  C 35.05288461538461 5.671296296296297  36.57692307692307 5.034722222222221  38.36538461538461 5.034722222222221  C 40.13461538461539 5.034722222222221  41.65384615384615 5.671296296296297  42.92307692307693 6.944444444444442  Z " fill-rule="nonzero" fill="#ffffff" stroke="none" transform="matrix(1 0 0 1 640 204 )" />
  </g>
</svg>