<?xml version="1.0" encoding="utf-8"?>
<svg version="1.1" xmlns:xlink="http://www.w3.org/1999/xlink" width="44px" height="35px" xmlns="http://www.w3.org/2000/svg">
  <g transform="matrix(1 0 0 1 -34 -25 )">
    <path d="M 10.95703125 2.404936624416278  C 14.327690972222223 0.8016455414720913  18.008680555555557 0  22 0  C 25.991319444444446 0  29.672309027777782 0.8016455414720913  33.04296875 2.404936624416278  C 36.41362847222222 4.008227707360461  39.082465277777786 6.183566822325994  41.04947916666667 8.930953969312874  C 43.01649305555555 11.678341116299753  44 14.678674672003552  44 17.931954636424283  C 44 21.839003780297972  42.601128472222214 25.353013119857685  39.80338541666667 28.4739826551034  C 37.005642361111114 31.594952190349126  33.39149305555556 33.75472537247054  28.9609375 34.95330220146764  C 28.445312500000004 35.03113186568824  28.06336805555556 34.97665110073382  27.815104166666668 34.789859906604406  C 27.56684027777778 34.603068712474986  27.442708333333332 34.36957971981321  27.442708333333332 34.089392928619084  C 27.442708333333332 34.04269513008672  27.447482638888893 33.4472981987992  27.45703125 32.3032021347565  C 27.466579861111114 31.15910607071381  27.471354166666668 30.112297086946857  27.471354166666668 29.162775183455636  C 27.471354166666668 27.65287969757616  26.974826388888893 26.547698465643762  25.981770833333332 25.847231487658437  C 27.0703125 25.75383589059373  28.049045138888893 25.613742494996664  28.91796875 25.426951300867245  C 29.786892361111114 25.240160106737825  30.68446180555556 24.936624416277517  31.610677083333332 24.516344229486325  C 32.536892361111114 24.09606404269513  33.310329861111114 23.578496775628196  33.93098958333333 22.96364242828552  C 34.55164930555556 22.348788080942846  35.05772569444445 21.53157660662664  35.44921875 20.512008005336888  C 35.84071180555556 19.492439404047143  36.03645833333333 18.321102957527238  36.03645833333333 16.997998665777185  C 36.03645833333333 15.145652657327107  35.28211805555556 13.542361574382923  33.7734375 12.188125416944631  C 34.48003472222222 10.771625528129864  34.40364583333333 9.183900378029797  33.54427083333333 7.424949966644429  C 33.009548611111114 7.284856571047367  32.236111111111114 7.370469201690011  31.223958333333332 7.681787858572383  C 30.21180555555556 7.993106515454746  29.333333333333332 8.335557038025351  28.588541666666668 8.709139426284189  L 27.5 9.26951300867245  C 25.723958333333336 8.86479875472537  23.890625000000004 8.662441627751834  22 8.662441627751834  C 20.109375 8.662441627751834  18.276041666666664 8.86479875472537  16.5 9.26951300867245  C 16.194444444444446 9.098287747387145  15.788628472222225 8.888147653991545  15.282552083333334 8.639092728485656  C 14.776475694444446 8.390037802979762  13.979166666666668 8.090393595730488  12.890625 7.740160106737826  C 11.802083333333334 7.389926617745164  10.990451388888891 7.284856571047367  10.455729166666668 7.424949966644429  C 9.596354166666668 9.183900378029797  9.519965277777779 10.771625528129864  10.2265625 12.188125416944631  C 8.717881944444446 13.542361574382923  7.963541666666667 15.145652657327107  7.963541666666667 16.997998665777185  C 7.963541666666667 18.321102957527238  8.159288194444446 19.488547920836112  8.55078125 20.500333555703804  C 8.942274305555555 21.51211919057149  9.44357638888889 22.3293306648877  10.0546875 22.951967978652437  C 10.665798611111112 23.57460529241716  11.434461805555557 24.09606404269513  12.360677083333334 24.516344229486325  C 13.28689236111111 24.936624416277517  14.184461805555557 25.240160106737825  15.053385416666666 25.426951300867245  C 15.92230902777778 25.613742494996664  16.901041666666664 25.75383589059373  17.989583333333336 25.847231487658437  C 17.244791666666664 26.4076050700467  16.776909722222225 27.20925061151879  16.5859375 28.252168112074717  C 16.184895833333336 28.407827440515902  15.755208333333334 28.524571936846787  15.296875 28.602401601067378  C 14.838541666666666 28.68023126528797  14.294270833333334 28.719146097398266  13.6640625 28.719146097398266  C 13.033854166666668 28.719146097398266  12.408420138888891 28.551812319323993  11.787760416666666 28.21714476317545  C 11.167100694444446 27.88247720702691  10.637152777777779 27.39604180564821  10.197916666666668 26.75783855903936  C 9.835069444444446 26.25972870802757  9.371961805555555 25.855014454080496  8.80859375 25.543695797198133  C 8.245225694444446 25.232377140315762  7.7725694444444455 25.045585946186343  7.390625 24.983322214809874  L 6.817708333333333 24.91327551701134  C 6.416666666666667 24.91327551701134  6.139756944444445 24.948298865910605  5.986979166666667 25.01834556370914  C 5.83420138888889 25.08839226150767  5.786458333333334 25.177896375361353  5.84375 25.286857905270182  C 5.901041666666667 25.395819435179003  5.986979166666667 25.504780965087836  6.1015625 25.613742494996664  C 6.216145833333334 25.72270402490549  6.340277777777779 25.8160996219702  6.473958333333333 25.893929286190797  L 6.674479166666667 26.010673782521682  C 7.094618055555555 26.16633311096286  7.50998263888889 26.462085835001112  7.920572916666667 26.897931954636423  C 8.331163194444446 27.333778074271734  8.631944444444446 27.730709361796748  8.822916666666668 28.088725817211476  L 9.109375 28.625750500333556  C 9.35763888888889 29.21725594841005  9.777777777777779 29.695908383366685  10.369791666666668 30.06170780520347  C 10.961805555555559 30.427507227040252  11.601562500000002 30.660996219702028  12.2890625 30.76217478318879  C 12.976562500000002 30.86335334667556  13.640190972222225 30.917834111629976  14.279947916666666 30.925617078052035  C 14.91970486111111 30.93340004447409  15.44965277777778 30.906159661996888  15.869791666666666 30.843895930620413  L 16.528645833333336 30.750500333555706  C 16.528645833333336 31.342005781632196  16.533420138888893 32.030798309984434  16.54296875 32.816877918612406  C 16.55251736111111 33.602957527240385  16.557291666666664 34.0271291972426  16.557291666666664 34.089392928619084  C 16.557291666666664 34.36957971981321  16.433159722222225 34.603068712474986  16.184895833333336 34.789859906604406  C 15.936631944444446 34.97665110073382  15.5546875 35.03113186568824  15.0390625 34.95330220146764  C 10.608506944444446 33.75472537247054  6.99435763888889 31.594952190349126  4.196614583333334 28.4739826551034  C 1.3988715277777775 25.353013119857685  0 21.839003780297972  0 17.931954636424283  C 0 14.678674672003552  0.9835069444444443 11.678341116299753  2.9505208333333335 8.930953969312874  C 4.917534722222223 6.183566822325994  7.586371527777779 4.008227707360461  10.95703125 2.404936624416278  Z M 7.963541666666667 25.800533689126084  C 8.135416666666668 25.893929286190797  8.259548611111112 25.878363353346675  8.3359375 25.75383589059373  C 8.393229166666668 25.644874360684902  8.32638888888889 25.55147876362019  8.135416666666668 25.4736490993996  C 7.9444444444444455 25.426951300867245  7.8203125 25.442517233711357  7.763020833333333 25.520346897931955  C 7.705729166666667 25.62930842784078  7.7725694444444455 25.72270402490549  7.963541666666667 25.800533689126084  Z M 8.765625 26.47765176784523  C 8.956597222222223 26.63331109628641  9.109375 26.656659995552587  9.223958333333332 26.547698465643762  C 9.35763888888889 26.469868801423168  9.338541666666668 26.345341338670224  9.166666666666668 26.174116077384923  C 8.975694444444446 26.034022681787857  8.822916666666668 26.010673782521682  8.708333333333332 26.10406937958639  C 8.574652777777779 26.18189904380698  8.59375 26.306426506559927  8.765625 26.47765176784523  Z M 9.596354166666668 27.434956637758503  C 9.768229166666668 27.637313764732045  9.930555555555555 27.691794529686458  10.083333333333332 27.598398932621745  C 10.255208333333332 27.48943740271292  10.255208333333332 27.341561040693797  10.083333333333332 27.154769846564378  C 9.930555555555555 26.952412719590836  9.768229166666668 26.905714921058483  9.596354166666668 27.01467645096731  C 9.424479166666668 27.092506115187902  9.424479166666668 27.232599510784965  9.596354166666668 27.434956637758503  Z M 10.713541666666668 28.509006004002668  C 10.942708333333332 28.69579719813209  11.133680555555557 28.719146097398266  11.286458333333334 28.579052701801203  C 11.43923611111111 28.454525239048255  11.401041666666668 28.30664887702913  11.171875 28.13542361574383  C 10.942708333333332 27.94863242161441  10.751736111111112 27.925283522348234  10.598958333333332 28.065376917945294  C 10.427083333333332 28.18990438069824  10.465277777777779 28.337780742717364  10.713541666666668 28.509006004002668  Z M 12.375 29.3028685790527  C 12.661458333333334 29.396264176117413  12.842881944444446 29.349566377585056  12.919270833333334 29.162775183455636  C 12.9765625 28.991549922170336  12.852430555555557 28.867022459417385  12.546875 28.789192795196797  C 12.260416666666668 28.726929063820325  12.078993055555557 28.78140982877474  12.002604166666666 28.95263509006004  C 11.92621527777778 29.12386035134534  12.050347222222223 29.240604847676227  12.375 29.3028685790527  Z M 14.265625 29.536357571714476  C 14.571180555555557 29.536357571714476  14.723958333333334 29.45074494107182  14.723958333333334 29.279519679786524  C 14.723958333333334 29.077162552812986  14.561631944444446 28.991549922170336  14.236979166666666 29.022681787858573  C 13.93142361111111 29.022681787858573  13.778645833333334 29.108294418501224  13.778645833333334 29.279519679786524  C 13.778645833333334 29.481876806760067  13.940972222222223 29.56748943740271  14.265625 29.536357571714476  Z M 15.984375 29.372915276851234  C 16.289930555555557 29.31065154547476  16.42361111111111 29.201690015565937  16.385416666666664 29.046030687124752  C 16.347222222222225 28.87480542583945  16.175347222222225 28.804758728040916  15.869791666666666 28.83589059372915  C 15.56423611111111 28.882588392261507  15.430555555555557 28.99933288859239  15.46875 29.186124082721815  C 15.506944444444446 29.372915276851234  15.678819444444446 29.43517900822771  15.984375 29.372915276851234  Z " fill-rule="nonzero" fill="#001109" stroke="none" transform="matrix(1 0 0 1 34 25 )" />
  </g>
</svg>