<?xml version="1.0" encoding="utf-8"?>
<svg version="1.1" xmlns:xlink="http://www.w3.org/1999/xlink" width="22px" height="16px" xmlns="http://www.w3.org/2000/svg">
  <g transform="matrix(1 0 0 1 -34 -13 )">
    <path d="M 5.478515625 1.0993995997331556  C 7.163845486111112 0.3664665332443846  9.004340277777779 0  11 0  C 12.995659722222223 0  14.836154513888891 0.3664665332443846  16.521484375 1.0993995997331556  C 18.20681423611111 1.8323326662219248  19.541232638888893 2.826773404491883  20.524739583333336 4.082721814543028  C 21.508246527777775 5.338670224594173  22 6.710251278630196  22 8.197464976651101  C 22 9.983544585279073  21.300564236111107 11.589948854792084  19.901692708333336 13.016677785190126  C 18.502821180555557 14.443406715588171  16.69574652777778 15.430731598843675  14.48046875 15.978652434956638  C 14.222656250000002 16.01423171002891  14.03168402777778 15.989326217478318  13.907552083333334 15.90393595730487  C 13.78342013888889 15.818545697131421  13.721354166666666 15.71180787191461  13.721354166666666 15.583722481654437  C 13.721354166666666 15.562374916611073  13.723741319444446 15.290193462308206  13.728515625 14.76717811874583  C 13.733289930555557 14.244162775183456  13.735677083333334 13.76562152546142  13.735677083333334 13.33155436957972  C 13.735677083333334 12.641316433177673  13.487413194444446 12.136090727151434  12.990885416666666 11.815877251501  C 13.53515625 11.773182121414276  14.024522569444446 11.709139426284189  14.458984375 11.623749166110741  C 14.893446180555557 11.538358905937292  15.34223090277778 11.399599733155437  15.805338541666666 11.207471647765177  C 16.268446180555557 11.015343562374916  16.655164930555557 10.778741383144318  16.965494791666664 10.497665110073381  C 17.27582465277778 10.216588837002444  17.528862847222225 9.843006448743607  17.724609375 9.376917945296864  C 17.92035590277778 8.910829441850122  18.018229166666664 8.375361352012451  18.018229166666664 7.770513675783857  C 18.018229166666664 6.92372692906382  17.64105902777778 6.190793862575051  16.88671875 5.5717144763175455  C 17.24001736111111 4.924171670002224  17.201822916666664 4.198354458527907  16.772135416666664 3.394262841894596  C 16.504774305555557 3.3302201467645105  16.118055555555557 3.369357349344005  15.611979166666666 3.511674449633089  C 15.10590277777778 3.6539915499221696  14.666666666666666 3.810540360240161  14.294270833333334 3.9813208805870577  L 13.75 4.237491661107406  C 12.861979166666668 4.052479430731598  11.945312500000002 3.959973315543696  11 3.959973315543696  C 10.0546875 3.959973315543696  9.138020833333332 4.052479430731598  8.25 4.237491661107406  C 8.097222222222223 4.159217255948409  7.8943142361111125 4.063153213253278  7.641276041666667 3.949299533022014  C 7.388237847222223 3.8354458527907482  6.989583333333334 3.6984656437625087  6.4453125 3.538358905937292  C 5.901041666666667 3.378252168112075  5.4952256944444455 3.3302201467645105  5.227864583333334 3.394262841894596  C 4.798177083333334 4.198354458527907  4.759982638888889 4.924171670002224  5.11328125 5.5717144763175455  C 4.358940972222223 6.190793862575051  3.9817708333333335 6.92372692906382  3.9817708333333335 7.770513675783857  C 3.9817708333333335 8.375361352012451  4.079644097222223 8.909050478096509  4.275390625 9.371581054036024  C 4.471137152777778 9.834111629975538  4.721788194444445 10.207694018234378  5.02734375 10.492328218812542  C 5.332899305555556 10.776962419390703  5.717230902777779 11.015343562374916  6.180338541666667 11.207471647765177  C 6.643446180555555 11.399599733155437  7.092230902777779 11.538358905937292  7.526692708333333 11.623749166110741  C 7.96115451388889 11.709139426284189  8.450520833333332 11.773182121414276  8.994791666666668 11.815877251501  C 8.622395833333332 12.072048032021348  8.388454861111112 12.438514565265733  8.29296875 12.915276851234156  C 8.092447916666668 12.986435401378698  7.877604166666667 13.039804313987103  7.6484375 13.075383589059372  C 7.419270833333333 13.110962864131643  7.147135416666667 13.128752501667778  6.83203125 13.128752501667778  C 6.516927083333334 13.128752501667778  6.2042100694444455 13.052257060262397  5.893880208333333 12.899266177451635  C 5.583550347222223 12.746275294640872  5.318576388888889 12.523904825439182  5.098958333333334 12.232154769846565  C 4.917534722222223 12.004447409384031  4.685980902777778 11.819435179008227  4.404296875 11.677118078719147  C 4.122612847222223 11.534800978430063  3.8862847222222228 11.449410718256614  3.6953125 11.420947298198799  L 3.4088541666666665 11.388925950633755  C 3.2083333333333335 11.388925950633755  3.0698784722222223 11.404936624416276  2.9934895833333335 11.436957971981322  C 2.917100694444445 11.468979319546364  2.893229166666667 11.509895485879476  2.921875 11.559706470980654  C 2.9505208333333335 11.60951745608183  2.9934895833333335 11.65932844118301  3.05078125 11.709139426284189  C 3.108072916666667 11.758950411385367  3.1701388888888893 11.80164554147209  3.2369791666666665 11.837224816544364  L 3.3372395833333335 11.89059372915277  C 3.5473090277777777 11.961752279297308  3.754991319444445 12.096953524571937  3.9602864583333335 12.29619746497665  C 4.165581597222223 12.495441405381364  4.315972222222223 12.676895708249942  4.411458333333334 12.840560373582388  L 4.5546875 13.086057371581054  C 4.678819444444445 13.356459862130308  4.888888888888889 13.575272403824771  5.184895833333334 13.742494996664442  C 5.4809027777777795 13.909717589504115  5.800781250000001 14.016455414720927  6.14453125 14.062708472314876  C 6.488281250000001 14.108961529908827  6.8200954861111125 14.133867022459418  7.139973958333333 14.137424949966645  C 7.459852430555555 14.14098287747387  7.72482638888889 14.128530131198577  7.934895833333333 14.10006671114076  L 8.264322916666668 14.057371581054037  C 8.264322916666668 14.32777407160329  8.266710069444446 14.642650655992883  8.271484375 15.002001334222815  C 8.276258680555555 15.361352012452747  8.278645833333332 15.555259061596619  8.278645833333332 15.583722481654437  C 8.278645833333332 15.71180787191461  8.216579861111112 15.818545697131421  8.092447916666668 15.90393595730487  C 7.968315972222223 15.989326217478318  7.77734375 16.01423171002891  7.51953125 15.978652434956638  C 5.304253472222223 15.430731598843675  3.497178819444445 14.443406715588171  2.098307291666667 13.016677785190126  C 0.6994357638888887 11.589948854792084  0 9.983544585279073  0 8.197464976651101  C 0 6.710251278630196  0.49175347222222215 5.338670224594173  1.4752604166666667 4.082721814543028  C 2.4587673611111116 2.826773404491883  3.7931857638888893 1.8323326662219248  5.478515625 1.0993995997331556  Z M 3.9817708333333335 11.794529686457638  C 4.067708333333334 11.837224816544364  4.129774305555556 11.830108961529909  4.16796875 11.773182121414276  C 4.196614583333334 11.723371136313098  4.163194444444445 11.680676006226372  4.067708333333334 11.645096731154103  C 3.9722222222222228 11.623749166110741  3.91015625 11.630865021125192  3.8815104166666665 11.666444296197465  C 3.8528645833333335 11.716255281298642  3.8862847222222228 11.758950411385367  3.9817708333333335 11.794529686457638  Z M 4.3828125 12.104069379586392  C 4.478298611111112 12.17522792973093  4.5546875 12.185901712252612  4.611979166666666 12.136090727151434  C 4.678819444444445 12.100511452079163  4.669270833333334 12.043584611963531  4.583333333333334 11.965310206804537  C 4.487847222222223 11.90126751167445  4.411458333333334 11.89059372915277  4.354166666666666 11.933288859239493  C 4.287326388888889 11.968868134311762  4.296875 12.025794974427395  4.3828125 12.104069379586392  Z M 4.798177083333334 12.541694462975316  C 4.884114583333334 12.63420057816322  4.965277777777778 12.65910607071381  5.041666666666666 12.616410940627084  C 5.127604166666666 12.566599955525906  5.127604166666666 12.498999332888593  5.041666666666666 12.413609072715143  C 4.965277777777778 12.32110295752724  4.884114583333334 12.299755392483878  4.798177083333334 12.349566377585056  C 4.712239583333334 12.385145652657327  4.712239583333334 12.449188347787413  4.798177083333334 12.541694462975316  Z M 5.356770833333334 13.032688458972649  C 5.471354166666666 13.118078719146098  5.566840277777779 13.128752501667778  5.643229166666667 13.064709806537692  C 5.719618055555555 13.00778296642206  5.700520833333334 12.940182343784745  5.5859375 12.86190793862575  C 5.471354166666666 12.7765176784523  5.375868055555556 12.76584389593062  5.299479166666666 12.829886591060706  C 5.213541666666666 12.88681343117634  5.232638888888889 12.954414053813652  5.356770833333334 13.032688458972649  Z M 6.1875 13.395597064709806  C 6.330729166666667 13.438292194796531  6.421440972222223 13.416944629753168  6.459635416666667 13.33155436957972  C 6.48828125 13.253279964420726  6.426215277777779 13.19635312430509  6.2734375 13.160773849232822  C 6.130208333333334 13.132310429175005  6.039496527777779 13.157215921725596  6.001302083333333 13.23549032688459  C 5.96310763888889 13.313764732043584  6.025173611111112 13.36713364465199  6.1875 13.395597064709806  Z M 7.1328125 13.502334889926617  C 7.285590277777779 13.502334889926617  7.361979166666667 13.463197687347119  7.361979166666667 13.384923282188126  C 7.361979166666667 13.292417167000222  7.280815972222223 13.253279964420726  7.118489583333333 13.267511674449633  C 6.965711805555555 13.267511674449633  6.889322916666667 13.306648877029131  6.889322916666667 13.384923282188126  C 6.889322916666667 13.47742939737603  6.970486111111112 13.516566599955524  7.1328125 13.502334889926617  Z M 7.9921875 13.42761841227485  C 8.144965277777779 13.399154992217033  8.211805555555555 13.349344007115857  8.192708333333332 13.278185456971315  C 8.173611111111112 13.19991105181232  8.087673611111112 13.167889704247276  7.934895833333333 13.182121414276184  C 7.782118055555555 13.203468979319545  7.715277777777779 13.256837891927951  7.734375 13.3422281521014  C 7.753472222222223 13.42761841227485  7.839409722222223 13.456081832332668  7.9921875 13.42761841227485  Z " fill-rule="nonzero" fill="#f59a23" stroke="none" transform="matrix(1 0 0 1 34 13 )" />
  </g>
</svg>