<?xml version="1.0" encoding="utf-8"?>
<svg version="1.1" xmlns:xlink="http://www.w3.org/1999/xlink" width="35px" height="26px" xmlns="http://www.w3.org/2000/svg">
  <g transform="matrix(1 0 0 1 -94 -13 )">
    <path d="M 1 8.448228882833789  L 8 8.448228882833789  L 8 26  L 1 26  L 1 8.448228882833789  Z M 7.268880208333333 0.8589918256130791  C 8.028428819444445 1.4316530426884642  8.415798611111112 2.1548592188919127  8.430989583333332 3.028610354223434  C 8.446180555555555 3.8905540417801974  8.062608506944445 4.6108083560399615  7.2802734375 5.189373297002724  C 6.497938368055555 5.767938237965484  5.46875 6.057220708446868  4.192708333333334 6.057220708446868  L 4.147135416666666 6.057220708446868  C 2.9014756944444446 6.057220708446868  1.8988715277777781 5.767938237965484  1.1393229166666667 5.189373297002724  C 0.37977430555555547 4.6108083560399615  0 3.8905540417801974  0 3.028610354223434  C 0 2.1548592188919127  0.39116753472222215 1.4316530426884642  1.1735026041666667 0.8589918256130791  C 1.9558376736111114 0.2863306085376911  2.9774305555555562 0  4.23828125 0  C 5.499131944444445 0  6.509331597222222 0.2863306085376911  7.268880208333333 0.8589918256130791  Z M 32.63020833333333 10.05108991825613  C 34.21006944444444 11.391235240690282  35 13.354223433242506  35 15.940054495912808  L 35 26  L 27.503255208333332 26  L 27.503255208333332 16.613079019073567  C 27.503255208333332 15.373297002724794  27.195638020833332 14.402134423251589  26.580403645833332 13.699591280653951  C 25.965169270833332 12.99704813805631  25.004340277777782 12.645776566757494  23.697916666666668 12.645776566757494  C 22.740885416666668 12.645776566757494  21.939561631944446 12.849455040871934  21.2939453125 13.256811989100816  C 20.648328993055557 13.664168937329702  20.166015625 14.168937329700274  19.847005208333332 14.771117166212534  C 19.67990451388889 15.12534059945504  19.596354166666668 15.603542234332425  19.596354166666668 16.20572207084469  L 19.596354166666668 26  L 12.099609375 26  C 12.129991319444445 21.28882833787466  12.145182291666666 17.46911898274296  12.145182291666666 14.540871934604906  C 12.145182291666666 11.612624886466847  12.137586805555557 9.865122615803815  12.122395833333334 9.298365122615802  L 12.099609375 8.448228882833789  L 19.596354166666668 8.448228882833789  L 19.596354166666668 10.998637602179835  L 19.55078125 10.998637602179835  C 19.854600694444446 10.620799273387828  20.166015625 10.290190735694823  20.485026041666668 10.006811989100818  C 20.804036458333332 9.723433242506811  21.233181423611114 9.416439600363304  21.7724609375 9.085831062670298  C 22.31174045138889 8.75522252497729  22.972547743055557 8.498410535876475  23.7548828125 8.31539509536785  C 24.53721788194445 8.13237965485922  25.406901041666668 8.040871934604903  26.363932291666668 8.040871934604903  C 28.961588541666668 8.040871934604903  31.05034722222222 8.71094459582198  32.63020833333333 10.05108991825613  Z " fill-rule="nonzero" fill="#080e1e" stroke="none" transform="matrix(1 0 0 1 94 13 )" />
  </g>
</svg>