<?xml version="1.0" encoding="utf-8"?>
<svg version="1.1" xmlns:xlink="http://www.w3.org/1999/xlink" width="49px" height="35px" xmlns="http://www.w3.org/2000/svg">
  <g transform="matrix(1 0 0 1 -94 -25 )">
    <path d="M 1 12  L 12 12  L 12 35  L 1 35  L 1 12  Z M 10.176432291666666 1.1563351498637604  C 11.239800347222223 1.9272252497729325  11.782118055555557 2.9007720254314213  11.803385416666666 4.076975476839238  C 11.824652777777779 5.237284287011804  11.287651909722223 6.206857402361487  10.1923828125 6.9856948228882825  C 9.097113715277779 7.764532243415074  7.65625 8.153950953678477  5.869791666666667 8.153950953678477  L 5.805989583333333 8.153950953678477  C 4.062065972222222 8.153950953678477  2.6584201388888893 7.764532243415074  1.5950520833333335 6.9856948228882825  C 0.5316840277777777 6.206857402361487  0 5.237284287011804  0 4.076975476839238  C 0 2.9007720254314213  0.547634548611111 1.9272252497729325  1.6429036458333335 1.1563351498637604  C 2.738172743055556 0.3854450499545842  4.168402777777779 0  5.93359375 0  C 7.698784722222222 0  9.113064236111112 0.3854450499545842  10.176432291666666 1.1563351498637604  Z M 45.682291666666664 13.530313351498636  C 47.89409722222222 15.334355131698455  49 17.97683923705722  49 21.457765667574932  L 49 35  L 38 35  L 38 22.36376021798365  C 38.504557291666664 20.694822888283376  38.073893229166664 19.38748864668483  37.212565104166664 18.44175749318801  C 36.351236979166664 17.496026339691188  35.00607638888889 17.02316076294278  33.177083333333336 17.02316076294278  C 31.837239583333336 17.02316076294278  30.715386284722225 17.29734332425068  29.8115234375 17.84570844686648  C 28.907660590277782 18.39407356948229  28.232421875 19.073569482288832  27.785807291666664 19.884196185286104  C 27.551866319444446 20.361035422343324  27.434895833333336 21.004768392370572  27 21.81539509536785  L 27 35  L 16.939453125 35  C 16.981987847222225 28.658038147138964  17.003255208333332 23.5161217075386  17.003255208333332 19.57425068119891  C 17.003255208333332 15.632379654859218  16.99262152777778 13.279972752043596  16.971354166666668 12.517029972752043  L 16.939453125 12  L 27.434895833333336 12  L 27.434895833333336 14.805858310626702  L 27.37109375 14.805858310626702  C 27.796440972222225 14.297229791099  28.232421875 13.852179836512262  28.679036458333336 13.470708446866487  C 29.125651041666664 13.089237057220709  29.726453993055557 12.675976385104448  30.4814453125 12.23092643051771  C 31.236436631944446 11.785876475930968  32.16156684027778 11.440168029064486  33.2568359375 11.193801089918258  C 34.35210503472223 10.947434150772025  35.569661458333336 10.824250681198908  36.909505208333336 10.824250681198908  C 40.546223958333336 10.824250681198908  43.470486111111114 11.726271571298819  45.682291666666664 13.530313351498636  Z " fill-rule="nonzero" fill="#f59a23" stroke="none" transform="matrix(1 0 0 1 94 25 )" />
  </g>
</svg>