<?xml version="1.0" encoding="utf-8"?>
<svg version="1.1" xmlns:xlink="http://www.w3.org/1999/xlink" width="32px" height="26px" xmlns="http://www.w3.org/2000/svg">
  <g transform="matrix(1 0 0 1 -34 -13 )">
    <path d="M 7.96875 1.7865243495663778  C 10.42013888888889 0.595508116522125  13.097222222222223 0  16 0  C 18.90277777777778 0  21.579861111111114 0.595508116522125  24.03125 1.7865243495663778  C 26.48263888888889 2.9775405826106276  28.423611111111114 4.593506782299309  29.854166666666668 6.63442294863242  C 31.284722222222218 8.675339114965531  32 10.904158327774068  32 13.32088058705804  C 32 16.223259951078493  30.982638888888886 18.833666889037136  28.947916666666668 21.152101400933955  C 26.913194444444446 23.47053591283078  24.284722222222225 25.074938848120972  21.0625 25.96531020680454  C 20.687500000000004 26.02312652879698  20.409722222222225 25.982655103402266  20.229166666666668 25.843895930620416  C 20.04861111111111 25.70513675783856  19.958333333333332 25.53168779186124  19.958333333333332 25.32354903268846  C 19.958333333333332 25.288859239492993  19.961805555555557 24.846564376250836  19.96875 23.996664442961976  C 19.975694444444446 23.146764509673115  19.979166666666668 22.369134978874808  19.979166666666668 21.663775850567045  C 19.979166666666668 20.54213920391372  19.618055555555557 19.72114743162108  18.895833333333332 19.200800533689126  C 19.6875 19.1314209472982  20.399305555555557 19.027351567711808  21.03125 18.888592394929955  C 21.663194444444446 18.749833222148098  22.315972222222225 18.524349566377584  22.989583333333332 18.212141427618413  C 23.663194444444446 17.899933288859238  24.225694444444446 17.515454747609517  24.677083333333332 17.058705803869245  C 25.128472222222225 16.601956860128972  25.496527777777782 15.99488547920836  25.78125 15.237491661107404  C 26.065972222222225 14.48009784300645  26.208333333333332 13.609962197020232  26.208333333333332 12.627084723148768  C 26.208333333333332 11.251056259728708  25.659722222222225 10.060040026684458  24.5625 9.05403602401601  C 25.07638888888889 8.001778963753614  25.020833333333332 6.82232599510785  24.395833333333332 5.5156771180787185  C 24.006944444444446 5.41160773849233  23.444444444444446 5.475205692684009  22.708333333333332 5.70647098065377  C 21.972222222222225 5.937736268623525  21.333333333333332 6.192128085390261  20.791666666666668 6.4696464309539685  L 20 6.885923949299534  C 18.708333333333336 6.585279074938846  17.375000000000004 6.434956637758505  16 6.434956637758505  C 14.625 6.434956637758505  13.291666666666666 6.585279074938846  12 6.885923949299534  C 11.777777777777779 6.758728040916164  11.482638888888891 6.602623971536577  11.114583333333334 6.417611741160773  C 10.746527777777779 6.232599510784966  10.166666666666668 6.010006671114077  9.375 5.7498332221481  C 8.583333333333334 5.489659773182122  7.993055555555557 5.41160773849233  7.604166666666667 5.5156771180787185  C 6.979166666666667 6.82232599510785  6.923611111111112 8.001778963753614  7.4375 9.05403602401601  C 6.340277777777779 10.060040026684458  5.791666666666667 11.251056259728708  5.791666666666667 12.627084723148768  C 5.791666666666667 13.609962197020232  5.934027777777779 14.477207026906827  6.21875 15.22881921280854  C 6.503472222222222 15.98043139871025  6.868055555555556 16.587502779630864  7.3125 17.05003335557038  C 7.7569444444444455 17.51256393150989  8.315972222222223 17.899933288859238  8.989583333333334 18.212141427618413  C 9.663194444444445 18.524349566377584  10.315972222222223 18.749833222148098  10.947916666666666 18.888592394929955  C 11.579861111111112 19.027351567711808  12.291666666666666 19.1314209472982  13.083333333333334 19.200800533689126  C 12.541666666666666 19.61707805203469  12.201388888888891 20.212586168556815  12.0625 20.987324883255503  C 11.770833333333334 21.102957527240385  11.458333333333334 21.189682010229042  11.125 21.24749833222148  C 10.791666666666666 21.30531465421392  10.395833333333334 21.33422281521014  9.9375 21.33422281521014  C 9.479166666666668 21.33422281521014  9.024305555555557 21.209917722926395  8.572916666666666 20.961307538358906  C 8.121527777777779 20.712697353791416  7.736111111111112 20.35134534133867  7.416666666666667 19.877251501000668  C 7.152777777777779 19.507227040249052  6.815972222222222 19.20658216588837  6.40625 18.975316877918615  C 5.996527777777779 18.744051589948853  5.652777777777779 18.605292417166996  5.375 18.55903935957305  L 4.958333333333333 18.507004669779853  C 4.666666666666667 18.507004669779853  4.465277777777778 18.533022014676447  4.354166666666667 18.585056704469647  C 4.243055555555556 18.63709139426284  4.208333333333334 18.703580164554147  4.25 18.784523015343563  C 4.291666666666667 18.865465866132975  4.354166666666667 18.94640871692239  4.4375 19.027351567711808  C 4.520833333333334 19.10829441850122  4.611111111111112 19.177674004892147  4.708333333333333 19.23549032688459  L 4.854166666666667 19.322214809873252  C 5.159722222222222 19.437847453858126  5.461805555555556 19.6575494774294  5.760416666666667 19.981320880587056  C 6.059027777777779 20.305092283744717  6.277777777777779 20.599955525906157  6.416666666666667 20.86591060707138  L 6.625 21.264843228819213  C 6.805555555555556 21.704247275961748  7.111111111111112 22.05981765621525  7.541666666666667 22.33155436957972  C 7.972222222222224 22.60329108294419  8.437500000000002 22.776740048921507  8.9375 22.851901267511675  C 9.437500000000002 22.927062486101843  9.920138888888891 22.967533911496552  10.385416666666666 22.973315543695797  C 10.850694444444445 22.97909717589504  11.236111111111112 22.95886146319769  11.541666666666666 22.912608405603734  L 12.020833333333334 22.84322881921281  C 12.020833333333334 23.282632866355346  12.024305555555557 23.794307315988434  12.03125 24.378252168112073  C 12.038194444444445 24.962197020235713  12.041666666666666 25.277295975094507  12.041666666666666 25.32354903268846  C 12.041666666666666 25.53168779186124  11.951388888888891 25.70513675783856  11.770833333333334 25.843895930620416  C 11.590277777777779 25.982655103402266  11.3125 26.02312652879698  10.9375 25.96531020680454  C 7.715277777777779 25.074938848120972  5.086805555555556 23.47053591283078  3.0520833333333335 21.152101400933955  C 1.017361111111111 18.833666889037136  0 16.223259951078493  0 13.32088058705804  C 0 10.904158327774068  0.7152777777777777 8.675339114965531  2.1458333333333335 6.63442294863242  C 3.5763888888888893 4.593506782299309  5.517361111111112 2.9775405826106276  7.96875 1.7865243495663778  Z M 5.791666666666667 19.16611074049366  C 5.916666666666667 19.23549032688459  6.0069444444444455 19.2239270624861  6.0625 19.1314209472982  C 6.104166666666667 19.050478096508783  6.055555555555556 18.981098510117857  5.916666666666667 18.923282188125416  C 5.777777777777779 18.888592394929955  5.6875 18.900155659328437  5.645833333333333 18.95797198132088  C 5.604166666666667 19.038914832110294  5.652777777777779 19.10829441850122  5.791666666666667 19.16611074049366  Z M 6.375 19.669112741827888  C 6.513888888888889 19.784745385812762  6.625 19.802090282410493  6.708333333333333 19.72114743162108  C 6.805555555555556 19.66333110962864  6.791666666666667 19.570824994440738  6.666666666666667 19.44362908605737  C 6.527777777777779 19.33955970647098  6.416666666666667 19.322214809873252  6.333333333333333 19.391594396264175  C 6.236111111111112 19.449410718256615  6.25 19.541916833444517  6.375 19.669112741827888  Z M 6.979166666666667 20.380253502334888  C 7.104166666666667 20.530575939515234  7.222222222222222 20.57104736490994  7.333333333333333 20.50166777851901  C 7.458333333333333 20.420724927729598  7.458333333333333 20.31087391594396  7.333333333333333 20.17211474316211  C 7.222222222222222 20.021792305981766  7.104166666666667 19.9871025127863  6.979166666666667 20.068045363575717  C 6.854166666666667 20.125861685568157  6.854166666666667 20.229931065154545  6.979166666666667 20.380253502334888  Z M 7.791666666666667 21.178118745830552  C 7.958333333333333 21.31687791861241  8.097222222222223 21.33422281521014  8.208333333333334 21.23015343562375  C 8.319444444444445 21.137647320435846  8.291666666666668 21.02779630865021  8.125 20.900600400266843  C 7.958333333333333 20.76184122748499  7.8194444444444455 20.74449633088726  7.708333333333333 20.848565710473647  C 7.583333333333333 20.941071825661552  7.611111111111112 21.050922837447185  7.791666666666667 21.178118745830552  Z M 9 21.767845230153434  C 9.208333333333334 21.837224816544364  9.340277777777779 21.8025350233489  9.395833333333334 21.663775850567045  C 9.4375 21.53657994218368  9.347222222222223 21.444073826995773  9.125 21.386257505003336  C 8.916666666666668 21.340004447409385  8.784722222222223 21.380475872804094  8.729166666666666 21.507671781187458  C 8.673611111111112 21.634867689570825  8.76388888888889 21.721592172559482  9 21.767845230153434  Z M 10.375 21.94129419613075  C 10.597222222222223 21.94129419613075  10.708333333333334 21.87769624193907  10.708333333333334 21.750500333555706  C 10.708333333333334 21.60017789637536  10.590277777777779 21.53657994218368  10.354166666666666 21.559706470980654  C 10.131944444444445 21.559706470980654  10.020833333333334 21.62330442517234  10.020833333333334 21.750500333555706  C 10.020833333333334 21.90082277073605  10.13888888888889 21.964420724927727  10.375 21.94129419613075  Z M 11.625 21.81987991994663  C 11.847222222222223 21.77362686235268  11.944444444444445 21.692684011563266  11.916666666666666 21.577051367578385  C 11.888888888888891 21.44985545919502  11.763888888888891 21.397820769401825  11.541666666666666 21.420947298198797  C 11.319444444444445 21.455637091394262  11.222222222222223 21.54236157438292  11.25 21.681120747164776  C 11.277777777777779 21.81987991994663  11.402777777777779 21.866132977540584  11.625 21.81987991994663  Z " fill-rule="nonzero" fill="#001109" stroke="none" transform="matrix(1 0 0 1 34 13 )" />
  </g>
</svg>