<?xml version="1.0" encoding="utf-8"?>
<svg version="1.1" xmlns:xlink="http://www.w3.org/1999/xlink" width="25px" height="16px" xmlns="http://www.w3.org/2000/svg">
  <g transform="matrix(1 0 0 1 -94 -13 )">
    <path d="M 0.30924479166666663 5.19891008174387  L 6 5.19891008174387  L 6 16  L 0.30924479166666663 16  L 0.30924479166666663 5.19891008174387  Z M 5.192057291666666 0.5286103542234333  C 5.734592013888889 0.8810172570390549  6.011284722222223 1.3260672116257926  6.022135416666666 1.8637602179836517  C 6.032986111111112 2.3941871026339676  5.759006076388889 2.8374205267938226  5.2001953125 3.193460490463215  C 4.641384548611112 3.5495004541326054  3.90625 3.7275204359673033  2.994791666666667 3.7275204359673033  L 2.962239583333333 3.7275204359673033  C 2.0724826388888893 3.7275204359673033  1.3563368055555558 3.5495004541326054  0.8138020833333334 3.193460490463215  C 0.27126736111111105 2.8374205267938226  0 2.3941871026339676  0 1.8637602179836517  C 0 1.3260672116257926  0.2794053819444444 0.8810172570390549  0.8382161458333334 0.5286103542234333  C 1.3970269097222223 0.1762034514078099  2.1267361111111116 0  3.02734375 0  C 3.927951388888889 0  4.649522569444445 0.1762034514078099  5.192057291666666 0.5286103542234333  Z M 23.307291666666664 6.185286103542234  C 24.435763888888886 7.009990917347865  25 8.217983651226158  25 9.809264305177113  L 25 16  L 19.645182291666664 16  L 19.645182291666664 10.223433242506811  C 19.645182291666664 9.460490463215258  19.425455729166664 8.862851952770209  18.986002604166664 8.430517711171662  C 18.546549479166664 7.998183469573114  17.860243055555557 7.782016348773842  16.927083333333336 7.782016348773842  C 16.243489583333336 7.782016348773842  15.67111545138889 7.907356948228882  15.2099609375 8.158038147138964  C 14.748806423611112 8.408719346049047  14.404296875 8.719346049046322  14.176432291666666 9.08991825613079  C 14.057074652777779 9.307901907356948  13.997395833333334 9.602179836512262  13.997395833333334 9.972752043596731  L 13.997395833333334 16  L 8.642578125 16  C 8.66427951388889 13.100817438692097  8.675130208333332 10.75022706630336  8.675130208333332 8.948228882833789  C 8.675130208333332 7.146230699364214  8.669704861111112 6.070844686648501  8.658854166666668 5.722070844686648  L 8.642578125 5.19891008174387  L 13.997395833333334 5.19891008174387  L 13.997395833333334 6.768392370572206  L 13.96484375 6.768392370572206  C 14.18185763888889 6.535876475930971  14.404296875 6.332425068119891  14.632161458333334 6.158038147138965  C 14.860026041666666 5.983651226158038  15.166558159722223 5.7947320617620335  15.5517578125 5.591280653950953  C 15.936957465277779 5.387829246139871  16.408962673611114 5.2297910990009076  16.9677734375 5.117166212534061  C 17.526584201388893 5.004541326067212  18.147786458333336 4.948228882833787  18.831380208333336 4.948228882833787  C 20.686848958333336 4.948228882833787  22.178819444444446 5.3605812897366025  23.307291666666664 6.185286103542234  Z " fill-rule="nonzero" fill="#080e1e" stroke="none" transform="matrix(1 0 0 1 94 13 )" />
  </g>
</svg>