<?xml version="1.0" encoding="utf-8"?>
<svg version="1.1" xmlns:xlink="http://www.w3.org/1999/xlink" width="30px" height="22px" xmlns="http://www.w3.org/2000/svg">
  <g transform="matrix(1 0 0 1 -395 -13 )">
    <path d="M 29.62890625 17.9265625  C 29.876302083333332 18.144270833333334  30 18.402083333333334  30 18.7  L 30 20.9  C 30 21.197916666666664  29.876302083333332 21.455729166666664  29.62890625 21.6734375  C 29.38151041666667 21.891145833333333  29.08854166666667 22  28.75 22  L 1.25 22  C 0.9114583333333335 22  0.6184895833333334 21.891145833333333  0.37109375 21.6734375  C 0.12369791666666667 21.455729166666664  0 21.197916666666664  0 20.9  L 0 18.7  C 0 18.402083333333334  0.12369791666666667 18.144270833333334  0.37109375 17.9265625  C 0.6184895833333334 17.708854166666665  0.9114583333333335 17.6  1.25 17.6  L 28.75 17.6  C 29.08854166666667 17.6  29.38151041666667 17.708854166666665  29.62890625 17.9265625  Z M 29.62890625 9.126562499999999  C 29.876302083333332 9.344270833333333  30 9.602083333333333  30 9.899999999999999  L 30 12.100000000000001  C 30 12.397916666666665  29.876302083333332 12.655729166666665  29.62890625 12.873437500000001  C 29.38151041666667 13.091145833333332  29.08854166666667 13.2  28.75 13  L 1.25 13  C 0.9114583333333335 13.2  0.6184895833333334 13.091145833333332  0.37109375 12.873437500000001  C 0.12369791666666667 12.655729166666665  0 12.397916666666665  0 12.100000000000001  L 0 9.899999999999999  C 0 9.602083333333333  0.12369791666666667 9.344270833333333  0.37109375 9.126562499999999  C 0.6184895833333334 8.908854166666668  0.9114583333333335 8.8  1.25 9  L 28.75 9  C 29.08854166666667 8.8  29.38151041666667 8.908854166666668  29.62890625 9.126562499999999  Z M 29.62890625 0.326562500000001  C 29.876302083333332 0.5442708333333317  30 0.8020833333333317  30 1.100000000000001  L 30 3.3000000000000007  C 30 3.5979166666666647  29.876302083333332 3.8557291666666647  29.62890625 4.073437500000001  C 29.38151041666667 4.291145833333331  29.08854166666667 4.399999999999999  28.75 4.399999999999999  L 1.25 4.399999999999999  C 0.9114583333333335 4.399999999999999  0.6184895833333334 4.291145833333331  0.37109375 4.073437500000001  C 0.12369791666666667 3.8557291666666647  0 3.5979166666666647  0 3.3000000000000007  L 0 1.100000000000001  C 0 0.8020833333333317  0.12369791666666667 0.5442708333333317  0.37109375 0.326562500000001  C 0.6184895833333334 0.10885416666666536  0.9114583333333335 0  1.25 0  L 28.75 0  C 29.08854166666667 0  29.38151041666667 0.10885416666666536  29.62890625 0.326562500000001  Z " fill-rule="nonzero" fill="#001109" stroke="none" transform="matrix(1 0 0 1 395 13 )" />
  </g>
</svg>