<?xml version="1.0" encoding="utf-8"?>
<svg version="1.1" xmlns:xlink="http://www.w3.org/1999/xlink" width="10px" height="9px" xmlns="http://www.w3.org/2000/svg">
  <g transform="matrix(1 0 0 1 -49 -53 )">
    <path d="M 7.454427083333334 5.4755859375  C 7.476128472222223 5.4931640625  7.486979166666666 5.515624999999999  7.486979166666666 5.542968750000001  L 7.486979166666666 6.181640624999999  C 7.486979166666666 6.376953124999999  7.407769097222223 6.550781249999999  7.249348958333334 6.703125000000001  C 7.0909288194444455 6.85546875  6.886935763888889 6.973632812499999  6.637369791666666 7.0576171875  C 6.3878038194444455 7.1416015625  6.131727430555555 7.205078125  5.869140625 7.248046875  C 5.6065538194444455 7.291015625  5.3515625 7.3125  5.104166666666666 7.3125  C 4.214409722222222 7.3125  3.4711371527777786 7.041015625000001  2.874348958333333 6.498046874999999  C 2.2775607638888893 5.955078124999999  1.9791666666666665 5.279296875000001  1.9791666666666665 4.470703125  C 1.9791666666666665 3.677734375  2.274305555555556 3.015625  2.864583333333333 2.4843749999999996  C 3.4548611111111116 1.9531249999999996  4.190538194444445 1.6875  5.071614583333334 1.6875  C 5.219184027777778 1.6875  5.383029513888889 1.6962890625  5.563151041666666 1.7138671875  C 5.7432725694444455 1.7314453125  5.945095486111112 1.7666015625  6.168619791666666 1.8193359375  C 6.392144097222223 1.8720703125  6.5928819444444455 1.9384765625  6.770833333333334 2.0185546874999996  C 6.948784722222223 2.0986328124999996  7.098524305555557 2.2089843750000004  7.220052083333334 2.3496093750000004  C 7.341579861111112 2.4902343750000004  7.40234375 2.6484375000000004  7.40234375 2.8242187500000004  L 7.40234375 3.462890625  C 7.40234375 3.5253906249999987  7.367621527777778 3.5566406249999996  7.298177083333334 3.5566406249999996  L 6.529947916666666 3.5566406249999996  C 6.460503472222223 3.5566406249999996  6.425781250000001 3.5253906249999987  6.42578125 3.462890625  L 6.42578125 3.0527343750000004  C 6.425781250000001 2.8847656249999996  6.283637152777778 2.7529296874999996  5.999348958333334 2.6572265625000004  C 5.715060763888889 2.561523437499999  5.416666666666666 2.513671875  5.104166666666666 2.513671875  C 4.496527777777779 2.513671875  4.000651041666667 2.6923828125000004  3.616536458333333 3.0498046875  C 3.232421875 3.4072265624999996  3.040364583333333 3.87109375  3.040364583333333 4.44140625  C 3.040364583333333 5.031249999999999  3.238932291666667 5.5185546875  3.636067708333333 5.903320312500001  C 4.033203125 6.288085937499999  4.539930555555555 6.480468749999999  5.15625 6.480468749999999  C 5.451388888888889 6.480468749999999  5.750868055555555 6.43359375  6.0546875 6.339843749999999  C 6.3585069444444455 6.246093750000001  6.510416666666666 6.1171875  6.510416666666666 5.953124999999999  L 6.510416666666666 5.542968750000001  C 6.510416666666666 5.515624999999999  6.520182291666666 5.4931640625  6.539713541666666 5.4755859375  C 6.559244791666666 5.4580078125  6.58203125 5.44921875  6.608072916666666 5.44921875  L 7.3828125 5.44921875  C 7.408854166666666 5.44921875  7.4327256944444455 5.4580078125  7.454427083333334 5.4755859375  Z M 6.617838541666666 1.0488281250000004  C 6.103515625 0.8496093749999997  5.564236111111112 0.7500000000000003  5 0.7500000000000003  C 4.435763888888889 0.7500000000000003  3.896484375 0.8496093749999997  3.382161458333333 1.0488281250000004  C 2.867838541666667 1.248046875  2.4251302083333335 1.5146484375000004  2.0540364583333335 1.8486328125000004  C 1.6829427083333335 2.1826171875000004  1.38671875 2.5810546874999996  1.1653645833333333 3.0439453125000004  C 0.9440104166666667 3.5068359375  0.8333333333333333 3.9921874999999996  0.8333333333333333 4.5  C 0.8333333333333333 5.0078125  0.9440104166666667 5.4931640625  1.1653645833333333 5.956054687500001  C 1.38671875 6.418945312499999  1.6829427083333335 6.8173828125  2.0540364583333335 7.1513671875  C 2.4251302083333335 7.4853515625  2.867838541666667 7.751953125  3.382161458333333 7.951171875  C 3.896484375 8.150390625  4.435763888888889 8.25  5 8.25  C 5.564236111111112 8.25  6.103515625 8.150390625  6.617838541666666 7.951171875  C 7.132161458333334 7.751953125  7.574869791666666 7.4853515625  7.945963541666666 7.1513671875  C 8.317057291666666 6.8173828125  8.61328125 6.418945312499999  8.834635416666666 5.956054687500001  C 9.055989583333334 5.4931640625  9.166666666666666 5.0078125  9.166666666666666 4.5  C 9.166666666666666 3.9921874999999996  9.055989583333334 3.5068359375  8.834635416666666 3.0439453125000004  C 8.61328125 2.5810546874999996  8.317057291666666 2.1826171875000004  7.945963541666666 1.8486328125000004  C 7.574869791666666 1.5146484375000004  7.132161458333334 1.248046875  6.617838541666666 1.0488281250000004  Z M 9.329427083333334 2.2412109375  C 9.776475694444443 2.930664062499999  10 3.6835937499999987  10 4.5  C 10 5.31640625  9.776475694444443 6.069335937499999  9.329427083333334 6.7587890625  C 8.882378472222223 7.4482421875  8.275824652777779 7.994140625  7.509765625 8.396484375  C 6.743706597222223 8.798828125  5.907118055555555 9  5 9  C 4.092881944444445 9  3.2562934027777777 8.798828125  2.490234375 8.396484375  C 1.7241753472222223 7.994140625  1.117621527777778 7.4482421875  0.6705729166666667 6.7587890625  C 0.22352430555555552 6.069335937499999  0 5.31640625  0 4.5  C 0 3.6835937499999987  0.22352430555555552 2.930664062499999  0.6705729166666667 2.2412109375  C 1.117621527777778 1.5517578125  1.7241753472222223 1.0058593749999991  2.490234375 0.6035156249999997  C 3.2562934027777777 0.20117187499999922  4.092881944444445 0  5 0  C 5.907118055555555 0  6.743706597222223 0.20117187499999922  7.509765625 0.6035156249999997  C 8.275824652777779 1.0058593749999991  8.882378472222223 1.5517578125  9.329427083333334 2.2412109375  Z " fill-rule="nonzero" fill="#001109" stroke="none" transform="matrix(1 0 0 1 49 53 )" />
  </g>
</svg>