<?xml version="1.0" encoding="utf-8"?>
<svg version="1.1" xmlns:xlink="http://www.w3.org/1999/xlink" width="11px" height="8px" xmlns="http://www.w3.org/2000/svg">
  <g transform="matrix(1 0 0 1 -501 -30 )">
    <path d="M 8.199869791666668 4.8671875  C 8.223741319444446 4.8828125  8.235677083333332 4.902777777777777  8.235677083333332 4.927083333333334  L 8.235677083333332 5.494791666666666  C 8.235677083333332 5.668402777777777  8.148546006944446 5.822916666666666  7.974283854166667 5.958333333333334  C 7.80002170138889 6.09375  7.575629340277779 6.198784722222221  7.301106770833333 6.2734375  C 7.02658420138889 6.348090277777778  6.744900173611112 6.404513888888889  6.4560546875 6.442708333333333  C 6.16720920138889 6.480902777777778  5.88671875 6.5  5.614583333333333 6.5  C 4.635850694444445 6.5  3.8182508680555562 6.258680555555556  3.1617838541666665 5.776041666666666  C 2.505316840277778 5.293402777777777  2.177083333333333 4.692708333333334  2.177083333333333 3.973958333333333  C 2.177083333333333 3.2690972222222223  2.5017361111111116 2.6805555555555554  3.1510416666666665 2.208333333333333  C 3.8003472222222228 1.7361111111111107  4.609592013888889 1.5  5.578776041666667 1.5  C 5.741102430555555 1.5  5.921332465277779 1.5078125  6.119466145833333 1.5234375  C 6.31759982638889 1.5390625  6.539605034722223 1.5703125  6.785481770833333 1.6171875  C 7.0313585069444455 1.6640625  7.25217013888889 1.7230902777777777  7.447916666666667 1.794270833333333  C 7.6436631944444455 1.8654513888888884  7.8083767361111125 1.963541666666667  7.942057291666667 2.088541666666667  C 8.075737847222223 2.213541666666667  8.142578125 2.354166666666667  8.142578125 2.510416666666667  L 8.142578125 3.078125  C 8.142578125 3.1336805555555545  8.104383680555555 3.161458333333333  8.027994791666668 3.161458333333333  L 7.182942708333333 3.161458333333333  C 7.1065538194444455 3.161458333333333  7.068359375000001 3.1336805555555545  7.068359375 3.078125  L 7.068359375 2.713541666666667  C 7.068359375000001 2.5642361111111107  6.912000868055555 2.4470486111111107  6.599283854166667 2.361979166666667  C 6.286566840277779 2.2769097222222214  5.958333333333333 2.234375  5.614583333333333 2.234375  C 4.946180555555556 2.234375  4.400716145833334 2.393229166666667  3.9781901041666665 2.7109375  C 3.5556640625 3.028645833333333  3.3444010416666665 3.4409722222222223  3.3444010416666665 3.947916666666667  C 3.3444010416666665 4.472222222222221  3.5628255208333335 4.905381944444445  3.9996744791666665 5.247395833333334  C 4.4365234375 5.589409722222221  4.993923611111112 5.760416666666666  5.671875 5.760416666666666  C 5.996527777777779 5.760416666666666  6.325954861111112 5.71875  6.66015625 5.635416666666666  C 6.99435763888889 5.552083333333334  7.161458333333333 5.4375  7.161458333333333 5.291666666666666  L 7.161458333333333 4.927083333333334  C 7.161458333333333 4.902777777777777  7.172200520833333 4.8828125  7.193684895833333 4.8671875  C 7.215169270833333 4.8515625  7.240234375 4.84375  7.268880208333333 4.84375  L 8.12109375 4.84375  C 8.149739583333332 4.84375  8.17599826388889 4.8515625  8.199869791666668 4.8671875  Z M 7.279622395833333 0.932291666666667  C 6.7138671875 0.755208333333333  6.120659722222223 0.666666666666667  5.5 0.666666666666667  C 4.879340277777778 0.666666666666667  4.2861328125 0.755208333333333  3.7203776041666665 0.932291666666667  C 3.1546223958333335 1.109375  2.667643229166667 1.346354166666667  2.259440104166667 1.643229166666667  C 1.8512369791666667 1.940104166666667  1.525390625 2.294270833333333  1.2819010416666665 2.705729166666667  C 1.0384114583333335 3.1171875  0.9166666666666666 3.5486111111111107  0.9166666666666666 4  C 0.9166666666666666 4.451388888888889  1.0384114583333335 4.8828125  1.2819010416666665 5.294270833333334  C 1.525390625 5.705729166666666  1.8512369791666667 6.059895833333333  2.259440104166667 6.356770833333333  C 2.667643229166667 6.653645833333333  3.1546223958333335 6.890625  3.7203776041666665 7.067708333333333  C 4.2861328125 7.244791666666667  4.879340277777778 7.333333333333333  5.5 7.333333333333333  C 6.120659722222223 7.333333333333333  6.7138671875 7.244791666666667  7.279622395833333 7.067708333333333  C 7.845377604166667 6.890625  8.332356770833332 6.653645833333333  8.740559895833332 6.356770833333333  C 9.148763020833332 6.059895833333333  9.474609375 5.705729166666666  9.718098958333332 5.294270833333334  C 9.961588541666668 4.8828125  10.083333333333332 4.451388888888889  10.083333333333332 4  C 10.083333333333332 3.5486111111111107  9.961588541666668 3.1171875  9.718098958333332 2.705729166666667  C 9.474609375 2.294270833333333  9.148763020833332 1.940104166666667  8.740559895833332 1.643229166666667  C 8.332356770833332 1.346354166666667  7.845377604166667 1.109375  7.279622395833333 0.932291666666667  Z M 10.262369791666668 1.9921875  C 10.754123263888888 2.6050347222222214  11 3.2743055555555545  11 4  C 11 4.725694444444445  10.754123263888888 5.394965277777777  10.262369791666668 6.0078125  C 9.770616319444446 6.620659722222222  9.103407118055555 7.105902777777778  8.2607421875 7.463541666666667  C 7.4180772569444455 7.821180555555556  6.497829861111112 8  5.5 8  C 4.502170138888889 8  3.581922743055556 7.821180555555556  2.7392578125 7.463541666666667  C 1.8965928819444446 7.105902777777778  1.2293836805555558 6.620659722222222  0.7376302083333334 6.0078125  C 0.24587673611111108 5.394965277777777  0 4.725694444444445  0 4  C 0 3.2743055555555545  0.24587673611111108 2.6050347222222214  0.7376302083333334 1.9921875  C 1.2293836805555558 1.3793402777777777  1.8965928819444446 0.8940972222222214  2.7392578125 0.536458333333333  C 3.581922743055556 0.17881944444444375  4.502170138888889 0  5.5 0  C 6.497829861111112 0  7.4180772569444455 0.17881944444444375  8.2607421875 0.536458333333333  C 9.103407118055555 0.8940972222222214  9.770616319444446 1.3793402777777777  10.262369791666668 1.9921875  Z " fill-rule="nonzero" fill="#000000" stroke="none" transform="matrix(1 0 0 1 501 30 )" />
  </g>
</svg>