<?xml version="1.0" encoding="utf-8"?>
<svg version="1.1" xmlns:xlink="http://www.w3.org/1999/xlink" width="132px" height="73px" xmlns="http://www.w3.org/2000/svg">
  <g transform="matrix(1 0 0 1 -157 0 )">
    <path d="M 59 5.615384615384611  L 59 39.044471153846146  L 100.375 62.997596153846146  C 94.97685185185186 66.15625  88.67476851851852 68.61298076923077  81.46875 70.36778846153847  C 74.2627314814815 72.12259615384616  66.66203703703704 73  58.666666666666664 73  C 48.02314814814815 73  38.20717592592593 71.49379006410257  29.21875 68.4813701923077  C 20.23032407407408 65.46895032051282  13.113425925925927 61.381710737179496  7.868055555555555 56.21965144230769  C 2.622685185185185 51.0575921474359  0 45.42027243589743  0 39.30769230769231  C 0 33.19511217948717  2.622685185185185 27.55779246794871  7.868055555555555 22.395733173076927  C 13.113425925925927 17.233673878205128  20.23032407407408 13.14643429487179  29.21875 10.134014423076925  C 38.20717592592593 7.121594551282044  48.02314814814815 5.615384615384611  59 5.615384615384611  Z M 114.58333333333334 63.26081730769231  L 72.9513888888889 39  L 132 39  C 132.00000000000003 43.8994391025641  130.47222222222223 48.264523237179475  127.41666666666667 52.40294471153846  C 124.36111111111113 56.54136618589743  120.08333333333334 60.160657051282044  114.58333333333334 63.26081730769231  Z M 119.24305555555556 16.780348557692307  C 124.48842592592592 21.942407852564095  127.1111111111111 27.57972756410256  127.1111111111111 34  L 68 34  L 68 0  C 79.08796296296298 0  88.90393518518519 1.5062099358974406  97.89236111111111 4.518629807692306  C 106.88078703703704 7.531049679487171  113.99768518518519 11.618289262820507  119.24305555555556 16.780348557692307  Z " fill-rule="nonzero" fill="#000000" stroke="none" transform="matrix(1 0 0 1 157 0 )" />
  </g>
</svg>