<?xml version="1.0" encoding="utf-8"?>
<svg version="1.1" xmlns:xlink="http://www.w3.org/1999/xlink" width="232px" height="173px" xmlns="http://www.w3.org/2000/svg">
  <g transform="matrix(1 0 0 1 -160 0 )">
    <path d="M 104 13.3076923076923  L 104 92.53004807692307  L 176.41666666666666 149.29567307692307  C 166.929012345679 156.78125  155.85262345679013 162.6033653846154  143.1875 166.76201923076923  C 130.5223765432099 170.9206730769231  117.16358024691358 173  103.1111111111111 173  C 84.40432098765433 173  67.1520061728395 169.4304887820513  51.354166666666664 162.29146634615384  C 35.55632716049384 155.1524439102564  23.047839506172842 145.46624599358975  13.828703703703704 133.23287259615384  C 4.609567901234567 120.99949919871794  0 107.63982371794872  0 93.15384615384615  C 0 78.66786858974356  4.609567901234567 65.30819310897434  13.828703703703704 53.07481971153847  C 23.047839506172842 40.84144631410256  35.55632716049384 31.155248397435887  51.354166666666664 24.016225961538467  C 67.1520061728395 16.877203525641008  84.40432098765433 13.3076923076923  104 13.3076923076923  Z M 201.38888888888889 149.91947115384616  L 128.2175925925926 93  L 232 93  C 232.00000000000006 104.03565705128206  229.31481481481484 114.38030849358972  223.94444444444446 124.18780048076924  C 218.5740740740741 133.9952924679487  211.05555555555557 142.57251602564102  201.38888888888889 149.91947115384616  Z M 209.57870370370372 39.767127403846146  C 218.79783950617283 52.00050080128204  223.4074074074074 65.36017628205127  223.4074074074074 80  L 120 80  L 120 0  C 139.00308641975312 0  156.25540123456793 3.569511217948729  172.05324074074073 10.70853365384615  C 187.85108024691357 17.84755608974357  200.35956790123458 27.53375400641024  209.57870370370372 39.767127403846146  Z " fill-rule="nonzero" fill="#000000" stroke="none" transform="matrix(1 0 0 1 160 0 )" />
  </g>
</svg>