<?xml version="1.0" encoding="utf-8"?>
<svg version="1.1" xmlns:xlink="http://www.w3.org/1999/xlink" width="232px" height="173px" xmlns="http://www.w3.org/2000/svg">
  <g transform="matrix(1 0 0 1 -162 0 )">
    <path d="M 44 86  L 73 86  L 73 144  L 44 144  L 44 86  Z M 87 29  L 116 29  L 116 144  L 87 144  L 87 29  Z M 15 158  L 232 158  L 232 173  L 0 173  L 0 0  L 15 0  L 15 158  Z M 130 58  L 159 58  L 159 144  L 130 144  L 130 58  Z M 174 15  L 203 15  L 203 144  L 174 144  L 174 15  Z " fill-rule="nonzero" fill="#000000" stroke="none" transform="matrix(1 0 0 1 162 0 )" />
  </g>
</svg>