<?xml version="1.0" encoding="utf-8"?>
<svg version="1.1" xmlns:xlink="http://www.w3.org/1999/xlink" width="132px" height="73px" xmlns="http://www.w3.org/2000/svg">
  <g transform="matrix(1 0 0 1 -145 0 )">
    <path d="M 25 36  L 42 36  L 42 60  L 25 60  L 25 36  Z M 50 13  L 66 13  L 66 60  L 50 60  L 50 13  Z M 9 67  L 132 67  L 132 73  L 0 73  L 0 0  L 9 0  L 9 67  Z M 74 25  L 90 25  L 90 60  L 74 60  L 74 25  Z M 99 6  L 115 6  L 115 60  L 99 60  L 99 6  Z " fill-rule="nonzero" fill="#000000" stroke="none" transform="matrix(1 0 0 1 145 0 )" />
  </g>
</svg>