<?xml version="1.0" encoding="utf-8"?>
<svg version="1.1" xmlns:xlink="http://www.w3.org/1999/xlink" width="232px" height="173px" xmlns="http://www.w3.org/2000/svg">
  <g transform="matrix(1 0 0 1 -146 0 )">
    <path d="M 132 141  L 132 157  L 215 157  L 215 141  L 132 141  Z M 83 79  L 83 94  L 215 94  L 215 79  L 83 79  Z M 165 16  L 165 32  L 215 32  L 215 16  L 165 16  Z M 229.54017857142856 128.15269886363635  C 231.18005952380952 129.70904356060603  232 131.55208333333331  232 133.6818181818182  L 232 165.13636363636365  C 232 167.26609848484847  231.18005952380952 169.10913825757575  229.54017857142856 170.66548295454544  C 227.90029761904765 172.22182765151516  225.95833333333334 173  223.71428571428572 173  L 8.285714285714285 173  C 6.041666666666667 173  4.0997023809523805 172.22182765151516  2.459821428571429 170.66548295454544  C 0.8199404761904762 169.10913825757575  0 167.26609848484847  0 165.13636363636365  L 0 133.6818181818182  C 0 131.55208333333331  0.8199404761904762 129.70904356060603  2.459821428571429 128.15269886363635  C 4.0997023809523805 126.59635416666669  6.041666666666667 125.81818181818183  8.285714285714285 125  L 223.71428571428572 125  C 225.95833333333334 125.81818181818183  227.90029761904765 126.59635416666669  229.54017857142856 128.15269886363635  Z M 229.54017857142856 65.24360795454544  C 231.18005952380952 66.79995265151513  232 68.6429924242424  232 70.77272727272727  L 232 102.22727272727272  C 232 104.35700757575756  231.18005952380952 106.20004734848483  229.54017857142856 107.75639204545453  C 227.90029761904765 109.31273674242424  225.95833333333334 110.0909090909091  223.71428571428572 110  L 8.285714285714285 110  C 6.041666666666667 110.0909090909091  4.0997023809523805 109.31273674242424  2.459821428571429 107.75639204545453  C 0.8199404761904762 106.20004734848483  0 104.35700757575756  0 102.22727272727272  L 0 70.77272727272727  C 0 68.6429924242424  0.8199404761904762 66.79995265151513  2.459821428571429 65.24360795454544  C 4.0997023809523805 63.687263257575744  6.041666666666667 62.909090909090914  8.285714285714285 63  L 223.71428571428572 63  C 225.95833333333334 62.909090909090914  227.90029761904765 63.687263257575744  229.54017857142856 65.24360795454544  Z M 229.54017857142856 2.3345170454545543  C 231.18005952380952 3.8908617424242187  232 5.733901515151505  232 7.863636363636356  L 232 39.31818181818182  C 232 41.44791666666666  231.18005952380952 43.29095643939392  229.54017857142856 44.84730113636364  C 227.90029761904765 46.40364583333331  225.95833333333334 47.18181818181818  223.71428571428572 48  L 8.285714285714285 48  C 6.041666666666667 47.18181818181818  4.0997023809523805 46.40364583333331  2.459821428571429 44.84730113636364  C 0.8199404761904762 43.29095643939392  0 41.44791666666666  0 39.31818181818182  L 0 7.863636363636356  C 0 5.733901515151505  0.8199404761904762 3.8908617424242187  2.459821428571429 2.3345170454545543  C 4.0997023809523805 0.7781723484848322  6.041666666666667 0  8.285714285714285 0  L 223.71428571428572 0  C 225.95833333333334 0  227.90029761904765 0.7781723484848322  229.54017857142856 2.3345170454545543  Z " fill-rule="nonzero" fill="#000000" stroke="none" transform="matrix(1 0 0 1 146 0 )" />
  </g>
</svg>