<?xml version="1.0" encoding="utf-8"?>
<svg version="1.1" xmlns:xlink="http://www.w3.org/1999/xlink" width="132px" height="73px" xmlns="http://www.w3.org/2000/svg">
  <g transform="matrix(1 0 0 1 -134 0 )">
    <path d="M 75.42857142857143 59  L 75.42857142857143 66  L 122.57142857142857 66  L 122.57142857142857 59  L 75.42857142857143 59  Z M 47.142857142857146 34  L 47.142857142857146 39  L 122.57142857142857 39  L 122.57142857142857 34  L 47.142857142857146 34  Z M 94.28571428571429 7  L 94.28571428571429 14  L 122.57142857142857 14  L 122.57142857142857 7  L 94.28571428571429 7  Z M 130.60044642857142 54.07599431818181  C 131.53348214285714 54.7327178030303  132 55.51041666666666  132 56.40909090909091  L 132 69.68181818181819  C 132 70.58049242424242  131.53348214285714 71.35819128787878  130.60044642857142 72.01491477272727  C 129.66741071428572 72.67163825757576  128.5625 73  127.28571428571429 73  L 4.714285714285714 73  C 3.4375 73  2.3325892857142856 72.67163825757576  1.3995535714285714 72.01491477272727  C 0.46651785714285715 71.35819128787878  0 70.58049242424242  0 69.68181818181819  L 0 56.40909090909091  C 0 55.51041666666666  0.46651785714285715 54.7327178030303  1.3995535714285714 54.07599431818181  C 2.3325892857142856 53.41927083333334  3.4375 53.09090909090909  4.714285714285714 53  L 127.28571428571429 53  C 128.5625 53.09090909090909  129.66741071428572 53.41927083333334  130.60044642857142 54.07599431818181  Z M 130.60044642857142 27.53053977272727  C 131.53348214285714 28.187263257575747  132 28.96496212121211  132 29.86363636363636  L 132 43.13636363636363  C 132 44.035037878787875  131.53348214285714 44.812736742424235  130.60044642857142 45.46946022727272  C 129.66741071428572 46.12618371212121  128.5625 46.45454545454545  127.28571428571429 46  L 4.714285714285714 46  C 3.4375 46.45454545454545  2.3325892857142856 46.12618371212121  1.3995535714285714 45.46946022727272  C 0.46651785714285715 44.812736742424235  0 44.035037878787875  0 43.13636363636363  L 0 29.86363636363636  C 0 28.96496212121211  0.46651785714285715 28.187263257575747  1.3995535714285714 27.53053977272727  C 2.3325892857142856 26.873816287878782  3.4375 26.545454545454547  4.714285714285714 27  L 127.28571428571429 27  C 128.5625 26.545454545454547  129.66741071428572 26.873816287878782  130.60044642857142 27.53053977272727  Z M 130.60044642857142 0.985085227272731  C 131.53348214285714 1.6418087121212022  132 2.4195075757575717  132 3.3181818181818152  L 132 16.590909090909093  C 132 17.48958333333333  131.53348214285714 18.26728219696969  130.60044642857142 18.924005681818183  C 129.66741071428572 19.580729166666657  128.5625 19.909090909090907  127.28571428571429 20  L 4.714285714285714 20  C 3.4375 19.909090909090907  2.3325892857142856 19.580729166666657  1.3995535714285714 18.924005681818183  C 0.46651785714285715 18.26728219696969  0 17.48958333333333  0 16.590909090909093  L 0 3.3181818181818152  C 0 2.4195075757575717  0.46651785714285715 1.6418087121212022  1.3995535714285714 0.985085227272731  C 2.3325892857142856 0.32836174242423555  3.4375 0  4.714285714285714 0  L 127.28571428571429 0  C 128.5625 0  129.66741071428572 0.32836174242423555  130.60044642857142 0.985085227272731  Z " fill-rule="nonzero" fill="#000000" stroke="none" transform="matrix(1 0 0 1 134 0 )" />
  </g>
</svg>