<?xml version="1.0" encoding="utf-8"?>
<svg version="1.1" xmlns:xlink="http://www.w3.org/1999/xlink" width="15px" height="10px" xmlns="http://www.w3.org/2000/svg">
  <g transform="matrix(1 0 0 1 -679 -663 )">
    <path d="M 14.7216796875 8.10763888888889  C 14.907226562500002 8.327546296296294  15 8.58796296296296  15 8.88888888888889  C 15 9.189814814814813  14.907226562500002 9.450231481481481  14.7216796875 9.67013888888889  C 14.5361328125 9.890046296296298  14.31640625 10  14.0625 10  L 0.9375 10  C 0.6835937500000001 10  0.4638671875 9.890046296296298  0.2783203125 9.67013888888889  C 0.0927734375 9.450231481481481  0 9.189814814814813  0 8.88888888888889  C 0 8.58796296296296  0.0927734375 8.327546296296294  0.2783203125 8.10763888888889  L 6.8408203125 0.3298611111111116  C 7.026367187500001 0.10995370370370239  7.246093750000001 0  7.5 0  C 7.753906250000001 0  7.973632812500001 0.10995370370370239  8.1591796875 0.3298611111111116  L 14.7216796875 8.10763888888889  Z " fill-rule="nonzero" fill="#214373" stroke="none" transform="matrix(1 0 0 1 679 663 )" />
  </g>
</svg>