<?xml version="1.0" encoding="utf-8"?>
<svg version="1.1" xmlns:xlink="http://www.w3.org/1999/xlink" width="11px" height="7px" xmlns="http://www.w3.org/2000/svg">
  <g transform="matrix(1 0 0 1 -485 -439 )">
    <path d="M 10.7958984375 5.675347222222221  C 10.931966145833334 5.829282407407405  11 6.011574074074073  11 6.222222222222221  C 11 6.43287037037037  10.931966145833334 6.615162037037036  10.7958984375 6.769097222222221  C 10.659830729166668 6.923032407407408  10.498697916666668 7  10.3125 7  L 0.6875 7  C 0.5013020833333334 7  0.34016927083333337 6.923032407407408  0.2041015625 6.769097222222221  C 0.06803385416666666 6.615162037037036  0 6.43287037037037  0 6.222222222222221  C 0 6.011574074074073  0.06803385416666666 5.829282407407405  0.2041015625 5.675347222222221  L 5.0166015625 0.23090277777777812  C 5.152669270833334 0.07696759259259167  5.313802083333334 0  5.5 0  C 5.686197916666667 0  5.847330729166667 0.07696759259259167  5.9833984375 0.23090277777777812  L 10.7958984375 5.675347222222221  Z " fill-rule="nonzero" fill="#214373" stroke="none" transform="matrix(1 0 0 1 485 439 )" />
  </g>
</svg>