<?xml version="1.0" encoding="utf-8"?>
<svg version="1.1" xmlns:xlink="http://www.w3.org/1999/xlink" width="7px" height="5px" xmlns="http://www.w3.org/2000/svg">
  <g transform="matrix(1 0 0 1 -25 -522 )">
    <path d="M 6.8701171875 4.053819444444445  C 6.956705729166667 4.163773148148147  7 4.29398148148148  7 4.444444444444445  C 7 4.5949074074074066  6.956705729166667 4.7251157407407405  6.8701171875 4.835069444444445  C 6.783528645833334 4.945023148148149  6.680989583333334 5  6.5625 5  L 0.4375 5  C 0.3190104166666667 5  0.21647135416666669 4.945023148148149  0.1298828125 4.835069444444445  C 0.04329427083333333 4.7251157407407405  0 4.5949074074074066  0 4.444444444444445  C 0 4.29398148148148  0.04329427083333333 4.163773148148147  0.1298828125 4.053819444444445  L 3.1923828125 0.1649305555555558  C 3.278971354166667 0.054976851851851194  3.381510416666667 0  3.5 0  C 3.6184895833333335 0  3.7210286458333335 0.054976851851851194  3.8076171875 0.1649305555555558  L 6.8701171875 4.053819444444445  Z " fill-rule="nonzero" fill="#214373" stroke="none" transform="matrix(1 0 0 1 25 522 )" />
  </g>
</svg>