<?xml version="1.0" encoding="utf-8"?>
<svg version="1.1" xmlns:xlink="http://www.w3.org/1999/xlink" width="132px" height="73px" xmlns="http://www.w3.org/2000/svg">
  <g transform="matrix(1 0 0 1 -134 0 )">
    <path d="M 9 67  L 132 67  L 132 73  L 0 73  L 0 0  L 9 0  L 9 67  Z M 123.169921875 6.511067708333336  C 123.55664062500001 6.796223958333336  123.75000000000001 7.160590277777771  123 7.604166666666664  L 123 28.277994791666664  C 123.75000000000001 28.943359374999993  123.33105468750001 29.41069878472222  122.4931640625 29.680013020833336  C 121.65527343750001 29.949327256944443  120.89257812500001 29.83051215277778  120.205078125 29.323567708333336  L 112.40625 23.572916666666664  L 71.607421875 53.65690104166667  C 71.17773437500001 53.97374131944444  70.68359375 54.13216145833333  70.125 54.13216145833333  C 69.56640625000001 54.13216145833333  69.072265625 53.97374131944444  68.642578125 53.65690104166667  L 53.625 42.58333333333333  L 26.8125 62.354166666666664  L 14.4375 53.22916666666667  L 52.142578125 25.426432291666664  C 52.57226562500001 25.109592013888886  53.06640625000001 24.951171875  53.625 24.951171875  C 54.18359375000001 24.951171875  54.677734375 25.109592013888886  55.107421875 25.426432291666664  L 70.125 36.5  L 100.03125 14.447916666666664  L 92.232421875 8.697265625  C 91.54492187500001 8.19032118055555  91.38378906250001 7.6279296875  91.7490234375 7.010091145833336  C 92.1142578125 6.392252604166664  92.748046875 6.083333333333336  93.650390625 6  L 121.6875 6  C 122.28906250000001 6.083333333333336  122.78320312500001 6.225911458333336  123.169921875 6.511067708333336  Z " fill-rule="nonzero" fill="#000000" stroke="none" transform="matrix(1 0 0 1 134 0 )" />
  </g>
</svg>