<?xml version="1.0" encoding="utf-8"?>
<svg version="1.1" xmlns:xlink="http://www.w3.org/1999/xlink" width="232px" height="173px" xmlns="http://www.w3.org/2000/svg">
  <g transform="matrix(1 0 0 1 -146 0 )">
    <path d="M 15 158  L 232 158  L 232 173  L 0 173  L 0 0  L 15 0  L 15 158  Z M 216.48046875 15.430338541666673  C 217.16015625000003 16.10611979166667  217.50000000000003 16.96961805555554  217 18.02083333333333  L 217 67.01497395833333  C 217.50000000000003 68.59179687499999  216.76367187500003 69.69932725694444  215.291015625 70.33756510416667  C 213.81835937500003 70.97580295138889  212.47786458333337 70.69422743055556  211.26953125 69.49283854166667  L 197.5625 55.86458333333333  L 125.85546875 127.15950520833334  C 125.10026041666669 127.91037326388889  124.23177083333334 128.28580729166666  123.25 128.28580729166666  C 122.26822916666669 128.28580729166666  121.39973958333334 127.91037326388889  120.64453125 127.15950520833334  L 94.25 100.91666666666666  L 47.125 147.77083333333331  L 25.375 126.14583333333334  L 91.64453125 60.25716145833333  C 92.39973958333334 59.50629340277777  93.26822916666669 59.130859375  94.25 59.130859375  C 95.23177083333334 59.130859375  96.10026041666667 59.50629340277777  96.85546875 60.25716145833333  L 123.25 86.5  L 175.8125 34.23958333333333  L 162.10546875 20.611328125  C 160.89713541666669 19.409939236111097  160.61393229166669 18.0771484375  161.255859375 16.61295572916667  C 161.89778645833334 15.148763020833327  163.01171875 14.416666666666673  164.59765625 15  L 213.875 15  C 214.93229166666669 14.416666666666673  215.80078125000003 14.754557291666673  216.48046875 15.430338541666673  Z " fill-rule="nonzero" fill="#000000" stroke="none" transform="matrix(1 0 0 1 146 0 )" />
  </g>
</svg>