<?xml version="1.0" encoding="utf-8"?>
<svg version="1.1" xmlns:xlink="http://www.w3.org/1999/xlink" width="11px" height="11px" xmlns="http://www.w3.org/2000/svg">
  <g transform="matrix(1 0 0 1 -536 -437 )">
    <path d="M 541.5 437  C 544.58 437  547 439.42  547 442.5  C 547 445.58  544.58 448  541.5 448  C 538.42 448  536 445.58  536 442.5  C 536 439.42  538.42 437  541.5 437  Z " fill-rule="nonzero" fill="#000000" stroke="none" />
    <path d="M 541.5 437.5  C 544.3 437.5  546.5 439.7  546.5 442.5  C 546.5 445.3  544.3 447.5  541.5 447.5  C 538.7 447.5  536.5 445.3  536.5 442.5  C 536.5 439.7  538.7 437.5  541.5 437.5  Z " stroke-width="1" stroke="#000000" fill="none" />
  </g>
</svg>