<?xml version="1.0" encoding="utf-8"?>
<svg version="1.1" xmlns:xlink="http://www.w3.org/1999/xlink" width="7px" height="7px" xmlns="http://www.w3.org/2000/svg">
  <g transform="matrix(1 0 0 1 -286 -520 )">
    <path d="M 289.5 520  C 291.46 520  293 521.54  293 523.5  C 293 525.46  291.46 527  289.5 527  C 287.54 527  286 525.46  286 523.5  C 286 521.54  287.54 520  289.5 520  Z " fill-rule="nonzero" fill="#ffffff" stroke="none" />
    <path d="M 289.5 520.5  C 291.18 520.5  292.5 521.82  292.5 523.5  C 292.5 525.18  291.18 526.5  289.5 526.5  C 287.82 526.5  286.5 525.18  286.5 523.5  C 286.5 521.82  287.82 520.5  289.5 520.5  Z " stroke-width="1" stroke="#000000" fill="none" />
  </g>
</svg>