<?xml version="1.0" encoding="utf-8"?>
<svg version="1.1" xmlns:xlink="http://www.w3.org/1999/xlink" width="15px" height="15px" xmlns="http://www.w3.org/2000/svg">
  <g transform="matrix(1 0 0 1 -1120 -660 )">
    <path d="M 1127.5 660  C 1131.7 660  1135 663.3  1135 667.5  C 1135 671.7  1131.7 675  1127.5 675  C 1123.3 675  1120 671.7  1120 667.5  C 1120 663.3  1123.3 660  1127.5 660  Z " fill-rule="nonzero" fill="#ffffff" stroke="none" />
    <path d="M 1127.5 660.5  C 1131.42 660.5  1134.5 663.58  1134.5 667.5  C 1134.5 671.42  1131.42 674.5  1127.5 674.5  C 1123.58 674.5  1120.5 671.42  1120.5 667.5  C 1120.5 663.58  1123.58 660.5  1127.5 660.5  Z " stroke-width="1" stroke="#000000" fill="none" />
  </g>
</svg>