<?xml version="1.0" encoding="utf-8"?>
<svg version="1.1" xmlns:xlink="http://www.w3.org/1999/xlink" width="15px" height="10px" xmlns="http://www.w3.org/2000/svg">
  <g>
    <path d="M 14.814453125 0.1236979166666663  C 14.938151041666666 0.2061631944444431  15 0.3038194444444431  15 0.4166666666666663  L 15 9.583333333333334  C 15 9.696180555555555  14.938151041666666 9.793836805555555  14.814453125 9.876302083333334  C 14.690755208333336 9.95876736111111  14.544270833333336 10  14.375 10  L 9.375 10  C 9.205729166666666 10  9.059244791666666 9.95876736111111  8.935546875 9.876302083333334  C 8.811848958333334 9.793836805555555  8.75 9.696180555555555  8.75 9.583333333333334  L 8.75 0.4166666666666663  C 8.75 0.3038194444444431  8.811848958333334 0.2061631944444431  8.935546875 0.1236979166666663  C 9.059244791666666 0.041232638888888395  9.205729166666666 0  9.375 0  L 14.375 0  C 14.544270833333336 0  14.690755208333336 0.041232638888888395  14.814453125 0.1236979166666663  Z M 6.064453125 0.1236979166666663  C 6.188151041666668 0.2061631944444431  6.25 0.3038194444444431  6.25 0.4166666666666663  L 6.25 9.583333333333334  C 6.25 9.696180555555555  6.188151041666668 9.793836805555555  6.064453125 9.876302083333334  C 5.940755208333334 9.95876736111111  5.794270833333334 10  5.625 10  L 0.625 10  C 0.45572916666666674 10  0.3092447916666667 9.95876736111111  0.185546875 9.876302083333334  C 0.061848958333333336 9.793836805555555  0 9.696180555555555  0 9.583333333333334  L 0 0.4166666666666663  C 0 0.3038194444444431  0.061848958333333336 0.2061631944444431  0.185546875 0.1236979166666663  C 0.3092447916666667 0.041232638888888395  0.45572916666666674 0  0.625 0  L 5.625 0  C 5.794270833333334 0  5.940755208333334 0.041232638888888395  6.064453125 0.1236979166666663  Z " fill-rule="nonzero" fill="#d7d7d7" stroke="none" />
  </g>
</svg>