<?xml version="1.0" encoding="utf-8"?>
<svg version="1.1" xmlns:xlink="http://www.w3.org/1999/xlink" width="132px" height="73px" xmlns="http://www.w3.org/2000/svg">
  <g transform="matrix(1 0 0 1 -134 0 )">
    <path d="M 99.34375 2.7700892857142883  L 126.15625 15.479910714285712  C 127.76041666666667 16.240327380952376  129.13541666666669 17.27232142857143  130.28125 18.575892857142858  C 131.42708333333334 19.87946428571429  132 21.07440476190476  132 22.16071428571429  L 132 69.08928571428571  C 132 70.17559523809524  131.19791666666666 71.09895833333333  129.59375 71.859375  C 127.98958333333336 72.61979166666667  126.04166666666667 73  123.75 73  L 8.25 73  C 5.958333333333334 73  4.010416666666667 72.61979166666667  2.40625 71.859375  C 0.8020833333333333 71.09895833333333  0 70.17559523809524  0 69.08928571428571  L 0 3.9107142857142883  C 0 2.82440476190476  0.8020833333333333 1.9010416666666639  2.40625 1.140625  C 4.010416666666667 0.38020833333333603  5.958333333333334 0  8.25 0  L 85.25 0  C 87.54166666666667 0  90.0625 0.27157738095238404  92.8125 0.814732142857144  C 95.5625 1.357886904761904  97.73958333333334 2.009672619047616  99.34375 2.7700892857142883  Z M 91.5234375 6.436383928571432  C 90.8359375 6.110491071428568  89.66145833333334 5.811755952380944  88 5.540178571428568  L 88 21  L 120.3125 21  C 119.73958333333336 20.069568452380945  119.109375 19.51283482142857  118.421875 19.18694196428571  L 91.5234375 6.436383928571432  Z M 11 67  L 121 67  L 121 26  L 85.25 26  C 82.95833333333333 26.07142857142857  81.01041666666667 25.691220238095234  79.40625 24.93080357142857  C 77.80208333333333 24.170386904761905  77 23.2470238095238  77 22.16071428571429  L 77 6  L 11 6  L 11 67  Z M 33 35.19642857142857  L 33 32.589285714285715  C 33 32.20907738095237  33.2578125 31.896763392857142  33.7734375 31.65234375  C 34.28906250000001 31.407924107142858  34.94791666666667 31.28571428571429  35.75 32  L 96.25 32  C 97.05208333333336 31.28571428571429  97.7109375 31.407924107142858  98.2265625 31.65234375  C 98.7421875 31.896763392857142  99 32.20907738095237  99 32.589285714285715  L 99 35.19642857142857  C 99 35.576636904761905  98.7421875 35.888950892857146  98.2265625 36.133370535714285  C 97.7109375 36.37779017857143  97.05208333333336 36.5  96.25 36  L 35.75 36  C 34.94791666666667 36.5  34.28906250000001 36.37779017857143  33.7734375 36.133370535714285  C 33.2578125 35.888950892857146  33 35.576636904761905  33 35.19642857142857  Z M 35.75 41  L 96.25 41  C 97.05208333333336 41.714285714285715  97.7109375 41.836495535714285  98.2265625 42.08091517857142  C 98.7421875 42.32533482142858  99 42.63764880952381  99 43.017857142857146  L 99 45.625  C 99 46.00520833333333  98.7421875 46.31752232142858  98.2265625 46.561941964285715  C 97.7109375 46.806361607142854  97.05208333333336 46.92857142857142  96.25 47  L 35.75 47  C 34.94791666666667 46.92857142857142  34.28906250000001 46.806361607142854  33.7734375 46.561941964285715  C 33.2578125 46.31752232142858  33 46.00520833333333  33 45.625  L 33 43.017857142857146  C 33 42.63764880952381  33.2578125 42.32533482142858  33.7734375 42.08091517857142  C 34.28906250000001 41.836495535714285  34.94791666666667 41.714285714285715  35.75 41  Z M 35.75 52  L 96.25 52  C 97.05208333333336 52.142857142857146  97.7109375 52.265066964285715  98.2265625 52.509486607142854  C 98.7421875 52.75390625  99 53.06622023809524  99 53.44642857142858  L 99 56.05357142857142  C 99 56.43377976190476  98.7421875 56.74609375  98.2265625 56.990513392857146  C 97.7109375 57.234933035714285  97.05208333333336 57.357142857142854  96.25 57  L 35.75 57  C 34.94791666666667 57.357142857142854  34.28906250000001 57.234933035714285  33.7734375 56.990513392857146  C 33.2578125 56.74609375  33 56.43377976190476  33 56.05357142857142  L 33 53.44642857142858  C 33 53.06622023809524  33.2578125 52.75390625  33.7734375 52.509486607142854  C 34.28906250000001 52.265066964285715  34.94791666666667 52.142857142857146  35.75 52  Z " fill-rule="nonzero" fill="#000000" stroke="none" transform="matrix(1 0 0 1 134 0 )" />
  </g>
</svg>