<?xml version="1.0" encoding="utf-8"?>
<svg version="1.1" xmlns:xlink="http://www.w3.org/1999/xlink" width="232px" height="173px" xmlns="http://www.w3.org/2000/svg">
  <g transform="matrix(1 0 0 1 -146 0 )">
    <path d="M 174.60416666666666 6.564732142857149  L 221.72916666666666 36.685267857142854  C 224.54861111111114 38.487351190476176  226.9652777777778 40.93303571428572  228.97916666666666 44.02232142857142  C 230.99305555555554 47.111607142857146  232 49.94345238095238  232 52.517857142857146  L 232 163.73214285714286  C 232 166.30654761904762  230.59027777777777 168.49479166666666  227.77083333333334 170.296875  C 224.9513888888889 172.09895833333334  221.5277777777778 173  217.5 173  L 14.5 173  C 10.472222222222223 173  7.048611111111112 172.09895833333334  4.229166666666667 170.296875  C 1.409722222222222 168.49479166666666  0 166.30654761904762  0 163.73214285714286  L 0 9.267857142857148  C 0 6.693452380952376  1.409722222222222 4.505208333333327  4.229166666666667 2.703125  C 7.048611111111112 0.9010416666666731  10.472222222222223 0  14.5 0  L 149.83333333333334 0  C 153.86111111111114 0  158.29166666666666 0.6436011904761978  163.125 1.9308035714285743  C 167.95833333333334 3.2180059523809508  171.78472222222223 4.762648809523802  174.60416666666666 6.564732142857149  Z M 160.859375 15.253348214285722  C 159.65104166666666 14.481026785714278  157.58680555555557 13.773065476190457  154 13.129464285714278  L 154 50  L 211.45833333333334 50  C 210.4513888888889 47.56212797619045  209.34375 46.24274553571428  208.13541666666666 45.470424107142854  L 160.859375 15.253348214285722  Z M 20 160  L 212 160  L 212 62  L 149.83333333333334 62  C 145.80555555555554 61.78571428571428  142.38194444444446 60.884672619047606  139.5625 59.08258928571428  C 136.74305555555554 57.28050595238095  135.33333333333334 55.092261904761884  135 52.517857142857146  L 135 13  L 20 13  L 20 160  Z M 58 83.41071428571428  L 58 77.23214285714285  C 58 76.33110119047618  58.453125 75.59095982142857  59.359375 75.01171875  C 60.265625000000014 74.43247767857143  61.42361111111112 74.14285714285715  62.83333333333333 75  L 169.16666666666666 75  C 170.5763888888889 74.14285714285715  171.734375 74.43247767857143  172.640625 75.01171875  C 173.546875 75.59095982142857  174 76.33110119047618  174 77.23214285714285  L 174 83.41071428571428  C 174 84.31175595238095  173.546875 85.05189732142857  172.640625 85.63113839285715  C 171.734375 86.21037946428572  170.5763888888889 86.5  169.16666666666666 86  L 62.83333333333333 86  C 61.42361111111112 86.5  60.265625000000014 86.21037946428572  59.359375 85.63113839285715  C 58.453125 85.05189732142857  58 84.31175595238095  58 83.41071428571428  Z M 62.83333333333333 98  L 169.16666666666666 98  C 170.5763888888889 98.85714285714285  171.734375 99.14676339285715  172.640625 99.72600446428571  C 173.546875 100.30524553571429  174 101.0453869047619  174 101.94642857142857  L 174 108.125  C 174 109.02604166666666  173.546875 109.76618303571429  172.640625 110.34542410714285  C 171.734375 110.92466517857143  170.5763888888889 111.21428571428571  169.16666666666666 111  L 62.83333333333333 111  C 61.42361111111112 111.21428571428571  60.265625000000014 110.92466517857143  59.359375 110.34542410714285  C 58.453125 109.76618303571429  58 109.02604166666666  58 108.125  L 58 101.94642857142857  C 58 101.0453869047619  58.453125 100.30524553571429  59.359375 99.72600446428571  C 60.265625000000014 99.14676339285715  61.42361111111112 98.85714285714285  62.83333333333333 98  Z M 62.83333333333333 123  L 169.16666666666666 123  C 170.5763888888889 123.57142857142857  171.734375 123.86104910714285  172.640625 124.44029017857143  C 173.546875 125.01953125  174 125.75967261904762  174 126.66071428571429  L 174 132.8392857142857  C 174 133.74032738095238  173.546875 134.48046875  172.640625 135.05970982142858  C 171.734375 135.63895089285714  170.5763888888889 135.92857142857142  169.16666666666666 136  L 62.83333333333333 136  C 61.42361111111112 135.92857142857142  60.265625000000014 135.63895089285714  59.359375 135.05970982142858  C 58.453125 134.48046875  58 133.74032738095238  58 132.8392857142857  L 58 126.66071428571429  C 58 125.75967261904762  58.453125 125.01953125  59.359375 124.44029017857143  C 60.265625000000014 123.86104910714285  61.42361111111112 123.57142857142857  62.83333333333333 123  Z " fill-rule="nonzero" fill="#000000" stroke="none" transform="matrix(1 0 0 1 146 0 )" />
  </g>
</svg>