<?xml version="1.0" encoding="utf-8"?>
<svg version="1.1" xmlns:xlink="http://www.w3.org/1999/xlink" width="25px" height="13px" xmlns="http://www.w3.org/2000/svg">
  <g transform="matrix(1 0 0 1 -314 -74 )">
    <path d="M 24.749498997995993 10.632302405498281  C 24.916499665998664 10.781214203894613  25 10.9524627720504  25 11.146048109965637  C 25 11.339633447880868  24.916499665998664 11.510882016036653  24.749498997995993 11.659793814432991  L 23.49699398797595 12.776632302405497  C 23.329993319973283 12.92554410080183  23.13794255177021 13  22.92084168336673 13  C 22.70374081496326 13  22.511690046760187 12.92554410080183  22.344689378757515 12.776632302405497  L 12.5 3.9982817869415808  L 2.655310621242485 12.776632302405497  C 2.488309953239813 12.92554410080183  2.2962591850367406 13  2.0791583166332663 13  C 1.8620574482297931 13  1.6700066800267206 12.92554410080183  1.503006012024048 12.776632302405497  L 0.250501002004008 11.659793814432991  C 0.08350033400133625 11.510882016036653  0 11.339633447880868  0 11.146048109965637  C 0 10.9524627720504  0.08350033400133625 10.781214203894613  0.250501002004008 10.632302405498281  L 11.923847695390782 0.22336769759450237  C 12.090848363393455 0.07445589919816553  12.282899131596528 0  12.5 0  C 12.717100868403474 0  12.909151636606547 0.07445589919816553  13.076152304609218 0.22336769759450237  L 24.749498997995993 10.632302405498281  Z " fill-rule="nonzero" fill="#000000" stroke="none" transform="matrix(1 0 0 1 314 74 )" />
  </g>
</svg>