<?xml version="1.0" encoding="utf-8"?>
<svg version="1.1" xmlns:xlink="http://www.w3.org/1999/xlink" width="45px" height="37px" xmlns="http://www.w3.org/2000/svg">
  <g transform="matrix(1 0 0 1 -162 0 )">
    <path d="M 44.443359375 30.14921875  C 44.814453125 30.515364583333337  45 30.948958333333337  45 31.45  L 45 35.15  C 45 35.651041666666664  44.814453125 36.084635416666664  44.443359375 36.45078125  C 44.07226562500001 36.81692708333333  43.63281250000001 37  43.125 37  L 1.875 37  C 1.3671875000000002 37  0.927734375 36.81692708333333  0.556640625 36.45078125  C 0.185546875 36.084635416666664  0 35.651041666666664  0 35.15  L 0 31.45  C 0 30.948958333333337  0.185546875 30.515364583333337  0.556640625 30.14921875  C 0.927734375 29.783072916666665  1.3671875000000002 29.6  1.875 29  L 43.125 29  C 43.63281250000001 29.6  44.07226562500001 29.783072916666665  44.443359375 30.14921875  Z M 44.443359375 15.349218749999999  C 44.814453125 15.715364583333331  45 16.148958333333333  45 16.65  L 45 20.35  C 45 20.851041666666664  44.814453125 21.284635416666664  44.443359375 21.65078125  C 44.07226562500001 22.016927083333332  43.63281250000001 22.2  43.125 22  L 1.875 22  C 1.3671875000000002 22.2  0.927734375 22.016927083333332  0.556640625 21.65078125  C 0.185546875 21.284635416666664  0 20.851041666666664  0 20.35  L 0 16.65  C 0 16.148958333333333  0.185546875 15.715364583333331  0.556640625 15.349218749999999  C 0.927734375 14.98307291666667  1.3671875000000002 14.8  1.875 15  L 43.125 15  C 43.63281250000001 14.8  44.07226562500001 14.98307291666667  44.443359375 15.349218749999999  Z M 44.443359375 0.5492187500000016  C 44.814453125 0.9153645833333306  45 1.3489583333333306  45 1.8500000000000016  L 45 5.550000000000001  C 45 6.051041666666664  44.814453125 6.484635416666664  44.443359375 6.850781250000001  C 44.07226562500001 7.21692708333333  43.63281250000001 7.399999999999999  43.125 8  L 1.875 8  C 1.3671875000000002 7.399999999999999  0.927734375 7.21692708333333  0.556640625 6.850781250000001  C 0.185546875 6.484635416666664  0 6.051041666666664  0 5.550000000000001  L 0 1.8500000000000016  C 0 1.3489583333333306  0.185546875 0.9153645833333306  0.556640625 0.5492187500000016  C 0.927734375 0.18307291666666448  1.3671875000000002 0  1.875 0  L 43.125 0  C 43.63281250000001 0  44.07226562500001 0.18307291666666448  44.443359375 0.5492187500000016  Z " fill-rule="nonzero" fill="#a7e1f2" stroke="none" transform="matrix(1 0 0 1 162 0 )" />
  </g>
</svg>