<?xml version="1.0" encoding="utf-8"?>
<svg version="1.1" xmlns:xlink="http://www.w3.org/1999/xlink" width="45px" height="37px" xmlns="http://www.w3.org/2000/svg">
  <g>
    <path d="M 44.44335937500001 30.149218749999996  C 44.814453125 30.515364583333337  45 30.948958333333337  45 31.449999999999996  L 45 35.15  C 45 35.651041666666664  44.814453125 36.084635416666664  44.44335937500001 36.45078125  C 44.07226562500001 36.81692708333333  43.63281250000001 37  43.12500000000001 37  L 10.966666666666672 37  L 1.8749999999999996 37  C 1.3671875000000002 37  0.9277343749999998 36.81692708333333  0.5566406249999999 36.45078125  C 0.185546875 36.084635416666664  0 35.651041666666664  0 35.15  L 0 31.449999999999996  C 0 30.948958333333337  0.185546875 30.515364583333337  0.5566406249999999 30.149218749999996  C 0.9277343749999998 29.783072916666665  1.3671875000000002 29.6  1.8749999999999996 29  L 27.633333333333326 29  L 43.12500000000001 29.6  C 43.63281250000001 29.6  44.07226562500001 29.783072916666665  44.44335937500001 30.149218749999996  Z M 44.44335937500001 15.349218749999999  C 44.814453125 15.715364583333331  45 16.148958333333333  45 16.65  L 45 20.35  C 45 20.851041666666664  44.814453125 21.284635416666664  44.44335937500001 21.65078125  C 44.07226562500001 22.016927083333332  43.63281250000001 22.2  43.12500000000001 22  L 20.96666666666665 22  L 1.8749999999999996 22.2  C 1.3671875000000002 22.2  0.9277343749999998 22.016927083333332  0.5566406249999999 21.65078125  C 0.185546875 21.284635416666664  0 20.851041666666664  0 20.35  L 0 16.65  C 0 16.148958333333333  0.185546875 15.715364583333331  0.5566406249999999 15.349218749999999  C 0.9277343749999998 14.98307291666667  1.3671875000000002 14.8  1.8749999999999996 15  L 43.12500000000001 15  C 43.63281250000001 14.8  44.07226562500001 14.98307291666667  44.44335937500001 15.349218749999999  Z M 44.44335937500001 0.5492187500000016  C 44.814453125 0.9153645833333306  45 1.3489583333333306  45 1.8500000000000016  L 45 5.550000000000001  C 45 6.051041666666664  44.814453125 6.484635416666664  44.44335937500001 6.850781250000001  C 44.07226562500001 7.21692708333333  43.63281250000001 7.399999999999999  43.12500000000001 8  L 1.8749999999999996 8  C 1.3671875000000002 7.399999999999999  0.9277343749999998 7.21692708333333  0.5566406249999999 6.850781250000001  C 0.185546875 6.484635416666664  0 6.051041666666664  0 5.550000000000001  L 0 1.8500000000000016  C 0 1.3489583333333306  0.185546875 0.9153645833333306  0.5566406249999999 0.5492187500000016  C 0.9277343749999998 0.18307291666666448  1.3671875000000002 0  1.8749999999999996 0  L 43.12500000000001 0  C 43.63281250000001 0  44.07226562500001 0.18307291666666448  44.44335937500001 0.5492187500000016  Z " fill-rule="nonzero" fill="#a7e1f2" stroke="none" />
  </g>
</svg>