<?xml version="1.0" encoding="utf-8"?>
<svg version="1.1" xmlns:xlink="http://www.w3.org/1999/xlink" width="45px" height="45px" xmlns="http://www.w3.org/2000/svg">
  <g transform="matrix(1 0 0 1 -178 0 )">
    <path d="M 43.93939393939394 33.63636363636363  C 44.64646464646465 34.34343434343434  45 35.20202020202019  45 36.21212121212121  C 45 37.22222222222223  44.64646464646465 38.080808080808076  43.93939393939394 38.78787878787879  L 38.78787878787879 43.93939393939394  C 38.08080808080809 44.64646464646465  37.22222222222222 45  36.21212121212121 45  C 35.20202020202021 45  34.343434343434346 44.64646464646465  33.63636363636364 43.93939393939394  L 22.5 32.803030303030305  L 11.363636363636365 43.93939393939394  C 10.656565656565657 44.64646464646465  9.797979797979798 45  8.787878787878787 45  C 7.777777777777779 45  6.9191919191919204 44.64646464646465  6.212121212121213 43.93939393939394  L 1.0606060606060606 38.78787878787879  C 0.35353535353535387 38.080808080808076  0 37.22222222222223  0 36.21212121212121  C 0 35.20202020202019  0.35353535353535387 34.34343434343434  1.0606060606060606 33.63636363636363  L 12.196969696969697 22.5  L 1.0606060606060606 11.363636363636362  C 0.35353535353535387 10.656565656565654  0 9.797979797979798  0 8.787878787878787  C 0 7.777777777777778  0.35353535353535387 6.9191919191919125  1.0606060606060606 6.212121212121214  L 6.212121212121213 1.0606060606060608  C 6.9191919191919204 0.3535353535353519  7.777777777777779 0  8.787878787878787 0  C 9.797979797979798 0  10.656565656565657 0.3535353535353519  11.363636363636365 1.0606060606060608  L 22.5 12.196969696969699  L 33.63636363636364 1.0606060606060608  C 34.343434343434346 0.3535353535353519  35.20202020202021 0  36.21212121212121 0  C 37.22222222222222 0  38.08080808080809 0.3535353535353519  38.78787878787879 1.0606060606060608  L 43.93939393939394 6.212121212121214  C 44.64646464646465 6.9191919191919125  45 7.777777777777778  45 8.787878787878787  C 45 9.797979797979798  44.64646464646465 10.656565656565654  43.93939393939394 11.363636363636362  L 32.803030303030305 22.5  L 43.93939393939394 33.63636363636363  Z " fill-rule="nonzero" fill="#a7e1f2" stroke="none" transform="matrix(1 0 0 1 178 0 )" />
  </g>
</svg>