<?xml version="1.0" encoding="utf-8"?>
<svg version="1.1" xmlns:xlink="http://www.w3.org/1999/xlink" width="13px" height="15px" xmlns="http://www.w3.org/2000/svg">
  <g transform="matrix(1 0 0 1 -28 -91 )">
    <path d="M 1 11.517857142857142  L 1 13.928571428571429  L 3.25 13.928571428571429  L 3.25 11.517857142857142  L 1 11.517857142857142  Z M 3.7499999999999996 11.517857142857142  L 3.7499999999999996 13.928571428571429  L 6.25 13.928571428571429  L 6.25 11.517857142857142  L 3.7499999999999996 11.517857142857142  Z M 1 8.303571428571429  L 1 10.982142857142858  L 3.25 10.982142857142858  L 3.25 8.303571428571429  L 1 8.303571428571429  Z M 3.7499999999999996 8.303571428571429  L 3.7499999999999996 10.982142857142858  L 6.25 10.982142857142858  L 6.25 8.303571428571429  L 3.7499999999999996 8.303571428571429  Z M 1 5.357142857142857  L 1 7.767857142857142  L 3.25 7.767857142857142  L 3.25 5.357142857142857  L 1 5.357142857142857  Z M 6.750000000000001 11.517857142857142  L 6.750000000000001 13.928571428571429  L 9.25 13.928571428571429  L 9.25 11.517857142857142  L 6.750000000000001 11.517857142857142  Z M 3.7499999999999996 5.357142857142857  L 3.7499999999999996 7.767857142857142  L 6.25 7.767857142857142  L 6.25 5.357142857142857  L 3.7499999999999996 5.357142857142857  Z M 9.75 11.517857142857142  L 9.75 13.928571428571429  L 12 13.928571428571429  L 12 11.517857142857142  L 9.75 11.517857142857142  Z M 6.750000000000001 8.303571428571429  L 6.750000000000001 10.982142857142858  L 9.25 10.982142857142858  L 9.25 8.303571428571429  L 6.750000000000001 8.303571428571429  Z M 3.92578125 3.938337053571429  C 3.975260416666667 3.8853236607142847  4 3.8225446428571415  4 3.75  L 4 1.3392857142857144  C 4 1.2667410714285716  3.975260416666667 1.203962053571428  3.92578125 1.1509486607142856  C 3.876302083333334 1.0979352678571415  3.8177083333333335 1.071428571428571  3.7499999999999996 1.071428571428571  L 3.25 1.071428571428571  C 3.182291666666667 1.071428571428571  3.123697916666667 1.0979352678571415  3.07421875 1.1509486607142856  C 3.024739583333333 1.203962053571428  3 1.2667410714285716  3 1.3392857142857144  L 3 3.75  C 3 3.8225446428571415  3.024739583333333 3.8853236607142847  3.07421875 3.938337053571429  C 3.123697916666667 3.9913504464285716  3.182291666666667 4.017857142857143  3.25 4.017857142857143  L 3.7499999999999996 4.017857142857143  C 3.8177083333333335 4.017857142857143  3.876302083333334 3.9913504464285716  3.92578125 3.938337053571429  Z M 9.75 8.303571428571429  L 9.75 10.982142857142858  L 12 10.982142857142858  L 12 8.303571428571429  L 9.75 8.303571428571429  Z M 6.750000000000001 5.357142857142857  L 6.750000000000001 7.767857142857142  L 9.25 7.767857142857142  L 9.25 5.357142857142857  L 6.750000000000001 5.357142857142857  Z M 9.75 5.357142857142857  L 9.75 7.767857142857142  L 12 7.767857142857142  L 12 5.357142857142857  L 9.75 5.357142857142857  Z M 9.92578125 3.938337053571429  C 9.975260416666668 3.8853236607142847  10 3.8225446428571415  10 3.75  L 10 1.3392857142857144  C 10 1.2667410714285716  9.975260416666668 1.203962053571428  9.92578125 1.1509486607142856  C 9.876302083333334 1.0979352678571415  9.817708333333334 1.071428571428571  9.75 1.071428571428571  L 9.25 1.071428571428571  C 9.182291666666668 1.071428571428571  9.123697916666668 1.0979352678571415  9.07421875 1.1509486607142856  C 9.024739583333334 1.203962053571428  9 1.2667410714285716  9 1.3392857142857144  L 9 3.75  C 9 3.8225446428571415  9.024739583333334 3.8853236607142847  9.07421875 3.938337053571429  C 9.123697916666668 3.9913504464285716  9.182291666666668 4.017857142857143  9.25 4.017857142857143  L 9.75 4.017857142857143  C 9.817708333333334 4.017857142857143  9.876302083333334 3.9913504464285716  9.92578125 3.938337053571429  Z M 12.703125 2.4609375  C 12.901041666666668 2.6729910714285716  13 2.9241071428571423  13 3.2142857142857144  L 13 13.928571428571429  C 13 14.218750000000002  12.901041666666668 14.469866071428573  12.703125 14.681919642857144  C 12.505208333333334 14.893973214285714  12.270833333333334 15  12 15  L 1 15  C 0.7291666666666667 15  0.49479166666666674 14.893973214285714  0.296875 14.681919642857144  C 0.09895833333333333 14.469866071428573  0 14.218750000000002  0 13.928571428571429  L 0 3.2142857142857144  C 0 2.9241071428571423  0.09895833333333333 2.6729910714285716  0.296875 2.4609375  C 0.49479166666666674 2.248883928571427  0.7291666666666667 2.1428571428571437  1 2.1428571428571437  L 2 2.1428571428571437  L 2 1.3392857142857144  C 2 0.9709821428571436  2.1223958333333335 0.6556919642857134  2.3671875 0.39341517857142905  C 2.611979166666667 0.13113839285714302  2.90625 0  3.25 0  L 3.7499999999999996 0  C 4.09375 0  4.388020833333334 0.13113839285714302  4.6328125 0.39341517857142905  C 4.877604166666667 0.6556919642857134  5 0.9709821428571436  5 1.3392857142857144  L 5 2.1428571428571437  L 8 2.1428571428571437  L 8 1.3392857142857144  C 8 0.9709821428571436  8.122395833333334 0.6556919642857134  8.3671875 0.39341517857142905  C 8.611979166666668 0.13113839285714302  8.90625 0  9.25 0  L 9.75 0  C 10.09375 0  10.388020833333334 0.13113839285714302  10.6328125 0.39341517857142905  C 10.877604166666668 0.6556919642857134  11 0.9709821428571436  11 1.3392857142857144  L 11 2.1428571428571437  L 12 2.1428571428571437  C 12.270833333333334 2.1428571428571437  12.505208333333334 2.248883928571427  12.703125 2.4609375  Z " fill-rule="nonzero" fill="#f2f2f2" stroke="none" transform="matrix(1 0 0 1 28 91 )" />
  </g>
</svg>