<?xml version="1.0" encoding="utf-8"?>
<svg version="1.1" xmlns:xlink="http://www.w3.org/1999/xlink" width="15px" height="19px" xmlns="http://www.w3.org/2000/svg">
  <g transform="matrix(1 0 0 1 -36 -117 )">
    <path d="M 1.153846153846154 14.589285714285714  L 1.153846153846154 17.642857142857142  L 3.75 17.642857142857142  L 3.75 14.589285714285714  L 1.153846153846154 14.589285714285714  Z M 4.326923076923077 14.589285714285714  L 4.326923076923077 17.642857142857142  L 7.211538461538462 17.642857142857142  L 7.211538461538462 14.589285714285714  L 4.326923076923077 14.589285714285714  Z M 1.153846153846154 10.517857142857144  L 1.153846153846154 13.910714285714286  L 3.75 13.910714285714286  L 3.75 10.517857142857144  L 1.153846153846154 10.517857142857144  Z M 4.326923076923077 10.517857142857144  L 4.326923076923077 13.910714285714286  L 7.211538461538462 13.910714285714286  L 7.211538461538462 10.517857142857144  L 4.326923076923077 10.517857142857144  Z M 1.153846153846154 6.785714285714285  L 1.153846153846154 9.839285714285714  L 3.75 9.839285714285714  L 3.75 6.785714285714285  L 1.153846153846154 6.785714285714285  Z M 7.788461538461539 14.589285714285714  L 7.788461538461539 17.642857142857142  L 10.673076923076923 17.642857142857142  L 10.673076923076923 14.589285714285714  L 7.788461538461539 14.589285714285714  Z M 4.326923076923077 6.785714285714285  L 4.326923076923077 9.839285714285714  L 7.211538461538462 9.839285714285714  L 7.211538461538462 6.785714285714285  L 4.326923076923077 6.785714285714285  Z M 11.25 14.589285714285714  L 11.25 17.642857142857142  L 13.846153846153847 17.642857142857142  L 13.846153846153847 14.589285714285714  L 11.25 14.589285714285714  Z M 7.788461538461539 10.517857142857144  L 7.788461538461539 13.910714285714286  L 10.673076923076923 13.910714285714286  L 10.673076923076923 10.517857142857144  L 7.788461538461539 10.517857142857144  Z M 4.529747596153846 4.988560267857143  C 4.5868389423076925 4.921409970238094  4.615384615384616 4.841889880952379  4.615384615384616 4.75  L 4.615384615384616 1.6964285714285716  C 4.615384615384616 1.6045386904761907  4.5868389423076925 1.5250186011904754  4.529747596153846 1.4578683035714284  C 4.472656250000001 1.3907180059523792  4.405048076923077 1.3571428571428565  4.326923076923077 1.3571428571428565  L 3.75 1.3571428571428565  C 3.6718750000000004 1.3571428571428565  3.604266826923077 1.3907180059523792  3.547175480769231 1.4578683035714284  C 3.490084134615384 1.5250186011904754  3.4615384615384617 1.6045386904761907  3.4615384615384617 1.6964285714285716  L 3.4615384615384617 4.75  C 3.4615384615384617 4.841889880952379  3.490084134615384 4.921409970238094  3.547175480769231 4.988560267857143  C 3.604266826923077 5.055710565476191  3.6718750000000004 5.089285714285715  3.75 5.089285714285715  L 4.326923076923077 5.089285714285715  C 4.405048076923077 5.089285714285715  4.472656250000001 5.055710565476191  4.529747596153846 4.988560267857143  Z M 11.25 10.517857142857144  L 11.25 13.910714285714286  L 13.846153846153847 13.910714285714286  L 13.846153846153847 10.517857142857144  L 11.25 10.517857142857144  Z M 7.788461538461539 6.785714285714285  L 7.788461538461539 9.839285714285714  L 10.673076923076923 9.839285714285714  L 10.673076923076923 6.785714285714285  L 7.788461538461539 6.785714285714285  Z M 11.25 6.785714285714285  L 11.25 9.839285714285714  L 13.846153846153847 9.839285714285714  L 13.846153846153847 6.785714285714285  L 11.25 6.785714285714285  Z M 11.452824519230768 4.988560267857143  C 11.509915865384617 4.921409970238094  11.538461538461538 4.841889880952379  11.538461538461538 4.75  L 11.538461538461538 1.6964285714285716  C 11.538461538461538 1.6045386904761907  11.509915865384617 1.5250186011904754  11.452824519230768 1.4578683035714284  C 11.395733173076923 1.3907180059523792  11.328125 1.3571428571428565  11.25 1.3571428571428565  L 10.673076923076923 1.3571428571428565  C 10.594951923076925 1.3571428571428565  10.527343750000002 1.3907180059523792  10.470252403846153 1.4578683035714284  C 10.413161057692308 1.5250186011904754  10.384615384615385 1.6045386904761907  10.384615384615385 1.6964285714285716  L 10.384615384615385 4.75  C 10.384615384615385 4.841889880952379  10.413161057692308 4.921409970238094  10.470252403846153 4.988560267857143  C 10.527343750000002 5.055710565476191  10.594951923076925 5.089285714285715  10.673076923076923 5.089285714285715  L 11.25 5.089285714285715  C 11.328125 5.089285714285715  11.395733173076923 5.055710565476191  11.452824519230768 4.988560267857143  Z M 14.657451923076923 3.1171875  C 14.885817307692308 3.3857886904761907  15 3.703869047619047  15 4.071428571428572  L 15 17.642857142857142  C 15 18.010416666666668  14.885817307692308 18.328497023809526  14.657451923076923 18.597098214285715  C 14.42908653846154 18.865699404761905  14.158653846153847 19  13.846153846153847 19  L 1.153846153846154 19  C 0.841346153846154 19  0.5709134615384616 18.865699404761905  0.3425480769230769 18.597098214285715  C 0.1141826923076923 18.328497023809526  0 18.010416666666668  0 17.642857142857142  L 0 4.071428571428572  C 0 3.703869047619047  0.1141826923076923 3.3857886904761907  0.3425480769230769 3.1171875  C 0.5709134615384616 2.8485863095238075  0.841346153846154 2.7142857142857153  1.153846153846154 2.7142857142857153  L 2.307692307692308 2.7142857142857153  L 2.307692307692308 1.6964285714285716  C 2.307692307692308 1.2299107142857153  2.448918269230769 0.8305431547619037  2.731370192307692 0.49832589285714346  C 3.013822115384616 0.16610863095238115  3.3533653846153846 0  3.75 0  L 4.326923076923077 0  C 4.7235576923076925 0  5.063100961538463 0.16610863095238115  5.345552884615384 0.49832589285714346  C 5.628004807692308 0.8305431547619037  5.769230769230769 1.2299107142857153  5.769230769230769 1.6964285714285716  L 5.769230769230769 2.7142857142857153  L 9.230769230769232 2.7142857142857153  L 9.230769230769232 1.6964285714285716  C 9.230769230769232 1.2299107142857153  9.371995192307693 0.8305431547619037  9.654447115384615 0.49832589285714346  C 9.93689903846154 0.16610863095238115  10.276442307692308 0  10.673076923076923 0  L 11.25 0  C 11.646634615384615 0  11.986177884615385 0.16610863095238115  12.268629807692308 0.49832589285714346  C 12.551081730769232 0.8305431547619037  12.692307692307692 1.2299107142857153  12.692307692307692 1.6964285714285716  L 12.692307692307692 2.7142857142857153  L 13.846153846153847 2.7142857142857153  C 14.158653846153847 2.7142857142857153  14.42908653846154 2.8485863095238075  14.657451923076923 3.1171875  Z " fill-rule="nonzero" fill="#f2f2f2" stroke="none" transform="matrix(1 0 0 1 36 117 )" />
  </g>
</svg>