<?xml version="1.0" encoding="utf-8"?>
<svg version="1.1" xmlns:xlink="http://www.w3.org/1999/xlink" width="19px" height="21px" xmlns="http://www.w3.org/2000/svg">
  <g transform="matrix(1 0 0 1 -41 -146 )">
    <path d="M 1.4615384615384617 16.125  L 1.4615384615384617 19.5  L 4.75 19.5  L 4.75 16.125  L 1.4615384615384617 16.125  Z M 5.48076923076923 16.125  L 5.48076923076923 19.5  L 9.134615384615385 19.5  L 9.134615384615385 16.125  L 5.48076923076923 16.125  Z M 1.4615384615384617 11.625  L 1.4615384615384617 15.375000000000002  L 4.75 15.375000000000002  L 4.75 11.625  L 1.4615384615384617 11.625  Z M 5.48076923076923 11.625  L 5.48076923076923 15.375000000000002  L 9.134615384615385 15.375000000000002  L 9.134615384615385 11.625  L 5.48076923076923 11.625  Z M 1.4615384615384617 7.499999999999999  L 1.4615384615384617 10.874999999999998  L 4.75 10.874999999999998  L 4.75 7.499999999999999  L 1.4615384615384617 7.499999999999999  Z M 9.865384615384617 16.125  L 9.865384615384617 19.5  L 13.51923076923077 19.5  L 13.51923076923077 16.125  L 9.865384615384617 16.125  Z M 5.48076923076923 7.499999999999999  L 5.48076923076923 10.874999999999998  L 9.134615384615385 10.874999999999998  L 9.134615384615385 7.499999999999999  L 5.48076923076923 7.499999999999999  Z M 14.25 16.125  L 14.25 19.5  L 17.53846153846154 19.5  L 17.53846153846154 16.125  L 14.25 16.125  Z M 9.865384615384617 11.625  L 9.865384615384617 15.375000000000002  L 13.51923076923077 15.375000000000002  L 13.51923076923077 11.625  L 9.865384615384617 11.625  Z M 5.737680288461538 5.513671875000001  C 5.809995993589744 5.439453124999999  5.846153846153847 5.351562499999998  5.846153846153847 5.25  L 5.846153846153847 1.8750000000000004  C 5.846153846153847 1.7734375  5.809995993589744 1.6855468749999991  5.737680288461538 1.6113281249999996  C 5.665364583333334 1.5371093749999978  5.579727564102564 1.4999999999999993  5.48076923076923 1.4999999999999993  L 4.75 1.4999999999999993  C 4.651041666666667 1.4999999999999993  4.565404647435898 1.5371093749999978  4.4930889423076925 1.6113281249999996  C 4.420773237179486 1.6855468749999991  4.384615384615385 1.7734375  4.384615384615385 1.8750000000000004  L 4.384615384615385 5.25  C 4.384615384615385 5.351562499999998  4.420773237179486 5.439453124999999  4.4930889423076925 5.513671875000001  C 4.565404647435898 5.587890625  4.651041666666667 5.625000000000001  4.75 5.625000000000001  L 5.48076923076923 5.625000000000001  C 5.579727564102564 5.625000000000001  5.665364583333334 5.587890625  5.737680288461538 5.513671875000001  Z M 14.25 11.625  L 14.25 15.375000000000002  L 17.53846153846154 15.375000000000002  L 17.53846153846154 11.625  L 14.25 11.625  Z M 9.865384615384617 7.499999999999999  L 9.865384615384617 10.874999999999998  L 13.51923076923077 10.874999999999998  L 13.51923076923077 7.499999999999999  L 9.865384615384617 7.499999999999999  Z M 14.25 7.499999999999999  L 14.25 10.874999999999998  L 17.53846153846154 10.874999999999998  L 17.53846153846154 7.499999999999999  L 14.25 7.499999999999999  Z M 14.506911057692307 5.513671875000001  C 14.579226762820515 5.439453124999999  14.615384615384617 5.351562499999998  14.615384615384617 5.25  L 14.615384615384617 1.8750000000000004  C 14.615384615384617 1.7734375  14.579226762820515 1.6855468749999991  14.506911057692307 1.6113281249999996  C 14.434595352564104 1.5371093749999978  14.348958333333334 1.4999999999999993  14.25 1.4999999999999993  L 13.51923076923077 1.4999999999999993  C 13.420272435897438 1.4999999999999993  13.334635416666668 1.5371093749999978  13.26231971153846 1.6113281249999996  C 13.190004006410257 1.6855468749999991  13.153846153846153 1.7734375  13.153846153846153 1.8750000000000004  L 13.153846153846153 5.25  C 13.153846153846153 5.351562499999998  13.190004006410257 5.439453124999999  13.26231971153846 5.513671875000001  C 13.334635416666668 5.587890625  13.420272435897438 5.625000000000001  13.51923076923077 5.625000000000001  L 14.25 5.625000000000001  C 14.348958333333334 5.625000000000001  14.434595352564104 5.587890625  14.506911057692307 5.513671875000001  Z M 18.56610576923077 3.4453125  C 18.85536858974359 3.7421875  19 4.093749999999999  19 4.5  L 19 19.5  C 19 19.90625  18.85536858974359 20.2578125  18.56610576923077 20.5546875  C 18.27684294871795 20.8515625  17.934294871794872 21  17.53846153846154 21  L 1.4615384615384617 21  C 1.0657051282051284 21  0.7231570512820513 20.8515625  0.4338942307692307 20.5546875  C 0.14463141025641024 20.2578125  0 19.90625  0 19.5  L 0 4.5  C 0 4.093749999999999  0.14463141025641024 3.7421875  0.4338942307692307 3.4453125  C 0.7231570512820513 3.1484374999999973  1.0657051282051284 3.000000000000001  1.4615384615384617 3.000000000000001  L 2.9230769230769234 3.000000000000001  L 2.9230769230769234 1.8750000000000004  C 2.9230769230769234 1.3593750000000009  3.101963141025641 0.9179687499999988  3.4597355769230766 0.5507812500000007  C 3.8175080128205137 0.18359375000000022  4.247596153846154 0  4.75 0  L 5.48076923076923 0  C 5.983173076923077 0  6.413261217948719 0.18359375000000022  6.771033653846153 0.5507812500000007  C 7.12880608974359 0.9179687499999988  7.307692307692308 1.3593750000000009  7.307692307692308 1.8750000000000004  L 7.307692307692308 3.000000000000001  L 11.692307692307693 3.000000000000001  L 11.692307692307693 1.8750000000000004  C 11.692307692307693 1.3593750000000009  11.87119391025641 0.9179687499999988  12.228966346153847 0.5507812500000007  C 12.586738782051285 0.18359375000000022  13.016826923076923 0  13.51923076923077 0  L 14.25 0  C 14.752403846153847 0  15.182491987179487 0.18359375000000022  15.540264423076923 0.5507812500000007  C 15.898036858974361 0.9179687499999988  16.076923076923077 1.3593750000000009  16.076923076923077 1.8750000000000004  L 16.076923076923077 3.000000000000001  L 17.53846153846154 3.000000000000001  C 17.934294871794872 3.000000000000001  18.27684294871795 3.1484374999999973  18.56610576923077 3.4453125  Z " fill-rule="nonzero" fill="#f2f2f2" stroke="none" transform="matrix(1 0 0 1 41 146 )" />
  </g>
</svg>