<?xml version="1.0" encoding="utf-8"?>
<svg version="1.1" xmlns:xlink="http://www.w3.org/1999/xlink" width="20px" height="20px" xmlns="http://www.w3.org/2000/svg">
  <g transform="matrix(1 0 0 1 -780 -1353 )">
    <path d="M 19.752604166666668 0.2473958333333326  C 19.91753472222222 0.4123263888888862  20 0.6076388888888862  20 0.8333333333333326  L 20 19.166666666666668  C 20 19.39236111111111  19.91753472222222 19.58767361111111  19.752604166666668 19.752604166666668  C 19.587673611111114 19.91753472222222  19.392361111111114 20  19.166666666666668 20  L 12.5 20  C 12.274305555555555 20  12.078993055555555 19.91753472222222  11.9140625 19.752604166666668  C 11.749131944444445 19.58767361111111  11.666666666666668 19.39236111111111  11.666666666666668 19.166666666666668  L 11.666666666666668 0.8333333333333326  C 11.666666666666668 0.6076388888888862  11.749131944444445 0.4123263888888862  11.9140625 0.2473958333333326  C 12.078993055555555 0.08246527777777679  12.274305555555555 0  12.5 0  L 19.166666666666668 0  C 19.392361111111114 0  19.587673611111114 0.08246527777777679  19.752604166666668 0.2473958333333326  Z M 8.0859375 0.2473958333333326  C 8.250868055555557 0.4123263888888862  8.333333333333334 0.6076388888888862  8.333333333333334 0.8333333333333326  L 8.333333333333334 19.166666666666668  C 8.333333333333334 19.39236111111111  8.250868055555557 19.58767361111111  8.0859375 19.752604166666668  C 7.9210069444444455 19.91753472222222  7.7256944444444455 20  7.5 20  L 0.8333333333333333 20  C 0.607638888888889 20  0.4123263888888889 19.91753472222222  0.24739583333333331 19.752604166666668  C 0.08246527777777778 19.58767361111111  0 19.39236111111111  0 19.166666666666668  L 0 0.8333333333333326  C 0 0.6076388888888862  0.08246527777777778 0.4123263888888862  0.24739583333333331 0.2473958333333326  C 0.4123263888888889 0.08246527777777679  0.607638888888889 0  0.8333333333333333 0  L 7.5 0  C 7.7256944444444455 0  7.9210069444444455 0.08246527777777679  8.0859375 0.2473958333333326  Z " fill-rule="nonzero" fill="#31afd9" stroke="none" transform="matrix(1 0 0 1 780 1353 )" />
  </g>
</svg>