<?xml version="1.0" encoding="utf-8"?>
<svg version="1.1" xmlns:xlink="http://www.w3.org/1999/xlink" width="25px" height="25px" xmlns="http://www.w3.org/2000/svg">
  <g transform="matrix(1 0 0 1 -1009 -1652 )">
    <path d="M 24.690755208333336 0.30924479166666574  C 24.896918402777775 0.5154079861111077  25 0.7595486111111077  25 1.0416666666666656  L 25 23.958333333333336  C 25 24.240451388888886  24.896918402777775 24.484592013888886  24.690755208333336 24.690755208333336  C 24.484592013888893 24.89691840277778  24.240451388888893 25  23.958333333333336 25  L 15.625 25  C 15.342881944444445 25  15.098741319444445 24.89691840277778  14.892578125 24.690755208333336  C 14.686414930555555 24.484592013888886  14.583333333333334 24.240451388888886  14.583333333333334 23.958333333333336  L 14.583333333333334 1.0416666666666656  C 14.583333333333334 0.7595486111111077  14.686414930555555 0.5154079861111077  14.892578125 0.30924479166666574  C 15.098741319444445 0.10308159722222099  15.342881944444445 0  15.625 0  L 23.958333333333336 0  C 24.240451388888893 0  24.484592013888893 0.10308159722222099  24.690755208333336 0.30924479166666574  Z M 10.107421875 0.30924479166666574  C 10.313585069444446 0.5154079861111077  10.416666666666668 0.7595486111111077  10.416666666666668 1.0416666666666656  L 10.416666666666668 23.958333333333336  C 10.416666666666668 24.240451388888886  10.313585069444446 24.484592013888886  10.107421875 24.690755208333336  C 9.901258680555557 24.89691840277778  9.657118055555557 25  9.375 25  L 1.0416666666666665 25  C 0.7595486111111112 25  0.515407986111111 24.89691840277778  0.30924479166666663 24.690755208333336  C 0.10308159722222222 24.484592013888886  0 24.240451388888886  0 23.958333333333336  L 0 1.0416666666666656  C 0 0.7595486111111077  0.10308159722222222 0.5154079861111077  0.30924479166666663 0.30924479166666574  C 0.515407986111111 0.10308159722222099  0.7595486111111112 0  1.0416666666666665 0  L 9.375 0  C 9.657118055555557 0  9.901258680555557 0.10308159722222099  10.107421875 0.30924479166666574  Z " fill-rule="nonzero" fill="#31afd9" stroke="none" transform="matrix(1 0 0 1 1009 1652 )" />
  </g>
</svg>