<?xml version="1.0" encoding="utf-8"?>
<svg version="1.1" xmlns:xlink="http://www.w3.org/1999/xlink" width="25px" height="25px" xmlns="http://www.w3.org/2000/svg">
  <g transform="matrix(1 0 0 1 -682 -593 )">
    <path d="M 694.5 594  C 700.94 594  706 599.06  706 605.5  C 706 611.94  700.94 617  694.5 617  C 688.06 617  683 611.94  683 605.5  C 683 599.06  688.06 594  694.5 594  Z " fill-rule="nonzero" fill="#110f1c" stroke="none" />
    <path d="M 694.5 594  C 700.94 594  706 599.06  706 605.5  C 706 611.94  700.94 617  694.5 617  C 688.06 617  683 611.94  683 605.5  C 683 599.06  688.06 594  694.5 594  Z " stroke-width="2" stroke="#ffffff" fill="none" />
  </g>
</svg>