<?xml version="1.0" encoding="utf-8"?>
<svg version="1.1" xmlns:xlink="http://www.w3.org/1999/xlink" width="50px" height="43px" xmlns="http://www.w3.org/2000/svg">
  <g transform="matrix(1 0 0 1 -1165 -3238 )">
    <path d="M 16.810825892857142 15.383138020833336  C 17.508370535714285 16.0830078125  17.857142857142858 16.92751736111111  17.857142857142858 17.916666666666664  C 17.857142857142858 18.90581597222222  17.508370535714285 19.750325520833336  16.810825892857142 20.4501953125  C 16.11328125 21.150065104166664  15.271577380952381 21.5  14.285714285714285 21.5  C 13.299851190476192 21.5  12.458147321428573 21.150065104166664  11.760602678571429 20.4501953125  C 11.063058035714286 19.750325520833336  10.714285714285714 18.90581597222222  10.714285714285714 17.916666666666664  C 10.714285714285714 16.92751736111111  11.063058035714286 16.0830078125  11.760602678571429 15.383138020833336  C 12.458147321428573 14.683268229166664  13.299851190476192 14.333333333333336  14.285714285714285 14.333333333333336  C 15.271577380952381 14.333333333333336  16.11328125 14.683268229166664  16.810825892857142 15.383138020833336  Z M 27.525111607142854 15.383138020833336  C 28.22265625 16.0830078125  28.57142857142857 16.92751736111111  28.57142857142857 17.916666666666664  C 28.57142857142857 18.90581597222222  28.22265625 19.750325520833336  27.525111607142854 20.4501953125  C 26.827566964285715 21.150065104166664  25.9858630952381 21.5  25 21.5  C 24.014136904761905 21.5  23.17243303571429 21.150065104166664  22.474888392857142 20.4501953125  C 21.77734375 19.750325520833336  21.428571428571427 18.90581597222222  21.428571428571427 17.916666666666664  C 21.428571428571427 16.92751736111111  21.77734375 16.0830078125  22.474888392857142 15.383138020833336  C 23.17243303571429 14.683268229166664  24.014136904761905 14.333333333333336  25 14.333333333333336  C 25.9858630952381 14.333333333333336  26.827566964285715 14.683268229166664  27.525111607142854 15.383138020833336  Z M 38.23939732142857 15.383138020833336  C 38.936941964285715 16.0830078125  39.285714285714285 16.92751736111111  39.285714285714285 17.916666666666664  C 39.285714285714285 18.90581597222222  38.936941964285715 19.750325520833336  38.23939732142857 20.4501953125  C 37.54185267857143 21.150065104166664  36.70014880952381 21.5  35.714285714285715 21.5  C 34.72842261904762 21.5  33.88671875 21.150065104166664  33.189174107142854 20.4501953125  C 32.491629464285715 19.750325520833336  32.142857142857146 18.90581597222222  32.142857142857146 17.916666666666664  C 32.142857142857146 16.92751736111111  32.491629464285715 16.0830078125  33.189174107142854 15.383138020833336  C 33.88671875 14.683268229166664  34.72842261904762 14.333333333333336  35.714285714285715 14.333333333333336  C 36.70014880952381 14.333333333333336  37.54185267857143 14.683268229166664  38.23939732142857 15.383138020833336  Z M 35.64453125 5.528971354166665  C 32.34281994047619 4.231879340277775  28.794642857142854 3.583333333333335  25 3.583333333333335  C 21.205357142857142 3.583333333333335  17.65718005952381 4.231879340277775  14.35546875 5.528971354166665  C 11.05375744047619 6.826063368055555  8.430989583333334 8.57573784722222  6.487165178571429 10.777994791666664  C 4.543340773809524 12.980251736111105  3.571428571428571 15.359809027777775  3.571428571428571 17.916666666666664  C 3.571428571428571 20.006944444444446  4.236421130952381 21.99924045138889  5.56640625 23.8935546875  C 6.8963913690476195 25.78786892361111  8.77046130952381 27.42556423611111  11.188616071428571 28.806640625  L 13.616071428571427 30.20638020833333  L 12.862723214285715 32.893880208333336  C 12.416294642857142 34.59223090277778  11.765252976190476 36.197265625  10.909598214285714 37.708984375  C 13.736979166666668 36.533203125  16.294642857142858 34.9375  18.582589285714285 32.921875  L 19.782366071428573 31.85807291666667  L 21.372767857142858 32.02604166666667  C 22.65625 32.17534722222222  23.86532738095238 32.25  25 32.25  C 28.794642857142854 32.25  32.34281994047619 31.60145399305555  35.64453125 30.30436197916667  C 38.94624255952381 29.00726996527777  41.56901041666667 27.25759548611111  43.51283482142857 25.05533854166667  C 45.456659226190474 22.85308159722222  46.42857142857143 20.473524305555554  46.42857142857143 17.916666666666664  C 46.42857142857143 15.359809027777775  45.456659226190474 12.980251736111105  43.51283482142857 10.777994791666664  C 41.56901041666667 8.57573784722222  38.94624255952381 6.826063368055555  35.64453125 5.528971354166665  Z M 48.018973214285715 10.9599609375  C 49.33965773809524 13.171549479166664  50 15.490451388888886  50 17.916666666666664  C 50 21.1640625  48.88392857142857 24.16417100694444  46.651785714285715 26.9169921875  C 44.419642857142854 29.66981336805555  41.38764880952381 31.84407552083333  37.55580357142857 33.439778645833336  C 33.723958333333336 35.035481770833336  29.538690476190478 35.833333333333336  25 35.833333333333336  C 23.697916666666668 35.833333333333336  22.349330357142858 35.75868055555556  20.954241071428573 35.609375  C 17.271205357142858 38.87543402777778  12.99293154761905 41.13368055555556  8.119419642857142 42.384114583333336  C 7.207961309523811 42.64539930555556  6.1476934523809526 42.85069444444444  4.938616071428571 43  L 4.799107142857143 43  C 4.520089285714286 43  4.268973214285714 42.902018229166664  4.045758928571429 42.7060546875  C 3.8225446428571432 42.510091145833336  3.67373511904762 42.25347222222222  3.5993303571428568 41.936197916666664  L 3.5993303571428568 41.908203125  C 3.5435267857142865 41.83355034722222  3.538876488095238 41.72157118055556  3.5853794642857144 41.572265625  C 3.631882440476191 41.42296006944444  3.6504836309523814 41.32964409722222  3.6411830357142856 41.292317708333336  C 3.631882440476191 41.25499131944444  3.67373511904762 41.166341145833336  3.766741071428571 41.0263671875  L 3.9341517857142856 40.7744140625  C 3.9341517857142856 40.7744140625  3.9992559523809526 40.695095486111114  4.129464285714286 40.536458333333336  C 4.2596726190476195 40.37782118055556  4.334077380952381 40.29383680555556  4.352678571428571 40.284505208333336  C 4.482886904761905 40.13519965277778  4.771205357142857 39.813259548611114  5.217633928571429 39.318684895833336  C 5.6640625 38.82411024305556  5.984933035714286 38.469509548611114  6.180245535714286 38.2548828125  C 6.3755580357142865 38.040256076388886  6.663876488095238 37.671657986111114  7.045200892857142 37.149088541666664  C 7.426525297619048 36.62651909722222  7.728794642857142 36.150607638888886  7.952008928571429 35.721354166666664  C 8.175223214285714 35.29210069444444  8.426339285714286 34.741536458333336  8.705357142857142 34.069661458333336  C 8.984375 33.397786458333336  9.226190476190476 32.68858506944444  9.430803571428571 31.94205729166667  C 6.510416666666667 30.28103298611111  4.208519345238095 28.22808159722222  2.525111607142857 25.783203125  C 0.841703869047619 23.33832465277777  0 20.716145833333336  0 17.916666666666664  C 0 15.490451388888886  0.6603422619047619 13.171549479166664  1.9810267857142856 10.9599609375  C 3.3017113095238098 8.748372395833336  5.078125 6.840060763888885  7.310267857142858 5.235026041666665  C 9.542410714285714 3.62999131944444  12.202380952380953 2.3562282986111054  15.290178571428573 1.4137369791666652  C 18.377976190476193 0.4712456597222201  21.614583333333336 0  25 0  C 28.385416666666668 0  31.622023809523814 0.4712456597222201  34.70982142857143 1.4137369791666652  C 37.79761904761905 2.3562282986111054  40.457589285714285 3.62999131944444  42.689732142857146 5.235026041666665  C 44.92187500000001 6.840060763888885  46.6982886904762 8.748372395833336  48.018973214285715 10.9599609375  Z " fill-rule="nonzero" fill="#31afd9" stroke="none" transform="matrix(1 0 0 1 1165 3238 )" />
  </g>
</svg>