<?xml version="1.0" encoding="utf-8"?>
<svg version="1.1" xmlns:xlink="http://www.w3.org/1999/xlink" width="25px" height="15px" xmlns="http://www.w3.org/2000/svg">
  <g transform="matrix(1 0 0 1 -413 -57 )">
    <path d="M 24.5361328125 0.4947916666666674  C 24.845377604166668 0.8246527777777762  25 1.2152777777777741  25 1.6666666666666674  C 25 2.118055555555554  24.845377604166668 2.5086805555555536  24.5361328125 2.8385416666666674  L 13.5986328125 14.505208333333332  C 13.289388020833334 14.835069444444446  12.923177083333334 15  12.5 15  C 12.076822916666668 15  11.710611979166668 14.835069444444446  11.4013671875 14.505208333333332  L 0.4638671875 2.8385416666666674  C 0.15462239583333331 2.5086805555555536  0 2.118055555555554  0 1.6666666666666674  C 0 1.2152777777777741  0.15462239583333331 0.8246527777777762  0.4638671875 0.4947916666666674  C 0.7731119791666667 0.16493055555555358  1.1393229166666667 0  1.5625 0  L 23.4375 0  C 23.860677083333336 0  24.226888020833336 0.16493055555555358  24.5361328125 0.4947916666666674  Z " fill-rule="nonzero" fill="#226683" stroke="none" transform="matrix(1 0 0 1 413 57 )" />
  </g>
</svg>