<?xml version="1.0" encoding="utf-8"?>
<svg version="1.1" xmlns:xlink="http://www.w3.org/1999/xlink" width="15px" height="19px" xmlns="http://www.w3.org/2000/svg">
  <g transform="matrix(1 0 0 1 -43 -178 )">
    <path d="M 10.1513671875 8.572265625  C 10.8837890625 7.953776041666666  11.25 7.207465277777778  11.25 6.333333333333334  C 11.25 5.4592013888888875  10.8837890625 4.712890625  10.1513671875 4.094401041666666  C 9.4189453125 3.475911458333334  8.535156250000002 3.166666666666666  7.5 3.166666666666666  C 6.464843750000001 3.166666666666666  5.5810546875 3.475911458333334  4.8486328125 4.094401041666666  C 4.1162109375 4.712890625  3.75 5.4592013888888875  3.75 6.333333333333334  C 3.75 7.207465277777778  4.1162109375 7.953776041666666  4.8486328125 8.572265625  C 5.5810546875 9.190755208333334  6.464843750000001 9.5  7.5 9.5  C 8.535156250000002 9.5  9.4189453125 9.190755208333334  10.1513671875 8.572265625  Z M 12.802734375 1.85546875  C 14.267578125 3.092447916666666  15 4.585069444444442  15 6.333333333333334  C 15 7.23220486111111  14.8388671875 7.970269097222222  14.5166015625 8.547526041666666  L 9.1845703125 18.121744791666664  C 9.0283203125 18.393880208333336  8.79638671875 18.608289930555554  8.48876953125 18.764973958333336  C 8.18115234375 18.92165798611111  7.8515625 19  7.5 19  C 7.1484375 19  6.81884765625 18.92165798611111  6.51123046875 18.764973958333336  C 6.20361328125 18.608289930555554  5.9765625 18.393880208333336  5.830078125 18.121744791666664  L 0.4833984375 8.547526041666666  C 0.1611328125 7.970269097222222  0 7.23220486111111  0 6.333333333333334  C 0 4.585069444444442  0.732421875 3.092447916666666  2.197265625 1.85546875  C 3.6621093750000004 0.618489583333334  5.4296875 0  7.5 0  C 9.5703125 0  11.337890625 0.618489583333334  12.802734375 1.85546875  Z " fill-rule="nonzero" fill="#7f7f7f" stroke="none" transform="matrix(1 0 0 1 43 178 )" />
  </g>
</svg>