<?xml version="1.0" encoding="utf-8"?>
<svg version="1.1" xmlns:xlink="http://www.w3.org/1999/xlink" width="12px" height="17px" xmlns="http://www.w3.org/2000/svg">
  <g transform="matrix(1 0 0 1 -38 -145 )">
    <path d="M 8.12109375 7.669921875  C 8.70703125 7.116536458333333  9 6.448784722222222  9 5.666666666666667  C 9 4.884548611111111  8.70703125 4.216796875  8.12109375 3.6634114583333326  C 7.53515625 3.1100260416666674  6.828125000000001 2.8333333333333326  6 2.8333333333333326  C 5.171875 2.8333333333333326  4.46484375 3.1100260416666674  3.87890625 3.6634114583333326  C 3.29296875 4.216796875  3 4.884548611111111  3 5.666666666666667  C 3 6.448784722222222  3.29296875 7.116536458333333  3.87890625 7.669921875  C 4.46484375 8.223307291666668  5.171875 8.5  6 8.5  C 6.828125000000001 8.5  7.53515625 8.223307291666668  8.12109375 7.669921875  Z M 10.2421875 1.66015625  C 11.4140625 2.7669270833333326  12 4.102430555555554  12 5.666666666666667  C 12 6.4709201388888875  11.87109375 7.131293402777778  11.61328125 7.647786458333333  L 7.34765625 16.214192708333332  C 7.22265625 16.457682291666668  7.037109375 16.649522569444443  6.791015625 16.789713541666668  C 6.544921875 16.92990451388889  6.28125 17  6 17  C 5.71875 17  5.455078125 16.92990451388889  5.208984375 16.789713541666668  C 4.962890625 16.649522569444443  4.78125 16.457682291666668  4.6640625 16.214192708333332  L 0.38671875 7.647786458333333  C 0.12890625 7.131293402777778  0 6.4709201388888875  0 5.666666666666667  C 0 4.102430555555554  0.5859375 2.7669270833333326  1.7578125 1.66015625  C 2.9296875000000004 0.5533854166666673  4.34375 0  6 0  C 7.65625 0  9.0703125 0.5533854166666673  10.2421875 1.66015625  Z " fill-rule="nonzero" fill="#7f7f7f" stroke="none" transform="matrix(1 0 0 1 38 145 )" />
  </g>
</svg>