<?xml version="1.0" encoding="utf-8"?>
<svg version="1.1" xmlns:xlink="http://www.w3.org/1999/xlink" width="10px" height="14px" xmlns="http://www.w3.org/2000/svg">
  <g transform="matrix(1 0 0 1 -30 -112 )">
    <path d="M 6.767578125 6.31640625  C 7.255859375 5.860677083333333  7.5 5.310763888888889  7.5 4.666666666666667  C 7.5 4.022569444444444  7.255859375 3.47265625  6.767578125 3.016927083333333  C 6.279296875 2.561197916666667  5.690104166666668 2.333333333333333  5 2.333333333333333  C 4.309895833333334 2.333333333333333  3.720703125 2.561197916666667  3.232421875 3.016927083333333  C 2.744140625 3.47265625  2.5 4.022569444444444  2.5 4.666666666666667  C 2.5 5.310763888888889  2.744140625 5.860677083333333  3.232421875 6.31640625  C 3.720703125 6.772135416666667  4.309895833333334 7  5 7  C 5.690104166666668 7  6.279296875 6.772135416666667  6.767578125 6.31640625  Z M 8.53515625 1.3671875  C 9.51171875 2.278645833333333  10 3.3784722222222205  10 4.666666666666667  C 10 5.3289930555555545  9.892578125 5.872829861111111  9.677734375 6.298177083333333  L 6.123046875 13.352864583333332  C 6.018880208333334 13.553385416666668  5.8642578125 13.711371527777777  5.6591796875 13.826822916666668  C 5.4541015625 13.942274305555557  5.234375 14  5 14  C 4.765625 14  4.5458984375 13.942274305555557  4.3408203125 13.826822916666668  C 4.1357421875 13.711371527777777  3.984375 13.553385416666668  3.88671875 13.352864583333332  L 0.322265625 6.298177083333333  C 0.107421875 5.872829861111111  0 5.3289930555555545  0 4.666666666666667  C 0 3.3784722222222205  0.48828125 2.278645833333333  1.46484375 1.3671875  C 2.4414062500000004 0.4557291666666672  3.619791666666667 0  5 0  C 6.380208333333334 0  7.55859375 0.4557291666666672  8.53515625 1.3671875  Z " fill-rule="nonzero" fill="#7f7f7f" stroke="none" transform="matrix(1 0 0 1 30 112 )" />
  </g>
</svg>