<?xml version="1.0" encoding="utf-8"?>
<svg version="1.1" xmlns:xlink="http://www.w3.org/1999/xlink" width="30px" height="19px" xmlns="http://www.w3.org/2000/svg">
  <g transform="matrix(1 0 0 1 -25 -19 )">
    <path d="M 29.69939879759519 15.539518900343642  C 29.8997995991984 15.75715922107674  30 16.007445589919815  30 16.290378006872853  C 30 16.573310423825884  29.8997995991984 16.823596792668955  29.69939879759519 17.04123711340206  L 28.196392785571145 18.67353951890034  C 27.99599198396794 18.89117983963344  27.765531062124253 19  27.50501002004008 19  C 27.244488977955914 19  27.014028056112227 18.89117983963344  26.81362725450902 18.67353951890034  L 15 5.843642611683849  L 3.186372745490982 18.67353951890034  C 2.9859719438877756 18.89117983963344  2.7555110220440886 19  2.49498997995992 19  C 2.234468937875752 19  2.004008016032065 18.89117983963344  1.8036072144288577 18.67353951890034  L 0.3006012024048096 17.04123711340206  C 0.1002004008016035 16.823596792668955  0 16.573310423825884  0 16.290378006872853  C 0 16.007445589919815  0.1002004008016035 15.75715922107674  0.3006012024048096 15.539518900343642  L 14.308617234468937 0.3264604810996573  C 14.509018036072147 0.10882016036654962  14.739478957915834 0  15 0  C 15.26052104208417 0  15.490981963927856 0.10882016036654962  15.691382765531062 0.3264604810996573  L 29.69939879759519 15.539518900343642  Z " fill-rule="nonzero" fill="#d7d7d7" stroke="none" transform="matrix(1 0 0 1 25 19 )" />
  </g>
</svg>