<?xml version="1.0" encoding="utf-8"?>
<svg version="1.1" xmlns:xlink="http://www.w3.org/1999/xlink" width="381px" height="39px" xmlns="http://www.w3.org/2000/svg">
  <defs>
    <filter x="803px" y="361px" width="381px" height="39px" filterUnits="userSpaceOnUse" id="filter215">
      <feOffset dx="5" dy="5" in="SourceAlpha" result="shadowOffsetInner" />
      <feGaussianBlur stdDeviation="2.5" in="shadowOffsetInner" result="shadowGaussian" />
      <feComposite in2="shadowGaussian" operator="atop" in="SourceAlpha" result="shadowComposite" />
      <feColorMatrix type="matrix" values="0 0 0 0 0  0 0 0 0 0  0 0 0 0 0  0 0 0 0.34901960784313724 0  " in="shadowComposite" />
    </filter>
    <g id="widget216">
      <path d="M 803.5 368  A 6.5 6.5 0 0 1 810 361.5 L 1167 361.5  A 6.5 6.5 0 0 1 1173.5 368 L 1173.5 383  A 6.5 6.5 0 0 1 1167 389.5 L 810 389.5  A 6.5 6.5 0 0 1 803.5 383 L 803.5 368  Z " fill-rule="nonzero" fill="#1720b6" stroke="none" />
      <path d="M 803.5 368  A 6.5 6.5 0 0 1 810 361.5 L 1167 361.5  A 6.5 6.5 0 0 1 1173.5 368 L 1173.5 383  A 6.5 6.5 0 0 1 1167 389.5 L 810 389.5  A 6.5 6.5 0 0 1 803.5 383 L 803.5 368  Z " stroke-width="1" stroke="#1720b6" fill="none" />
    </g>
  </defs>
  <g transform="matrix(1 0 0 1 -803 -361 )">
    <use xlink:href="#widget216" filter="url(#filter215)" />
    <use xlink:href="#widget216" />
  </g>
</svg>