<?xml version="1.0" encoding="utf-8"?>
<svg version="1.1" xmlns:xlink="http://www.w3.org/1999/xlink" width="560px" height="60px" xmlns="http://www.w3.org/2000/svg">
  <defs>
    <filter x="1143px" y="556px" width="560px" height="60px" filterUnits="userSpaceOnUse" id="filter317">
      <feOffset dx="5" dy="5" in="SourceAlpha" result="shadowOffsetInner" />
      <feGaussianBlur stdDeviation="2.5" in="shadowOffsetInner" result="shadowGaussian" />
      <feComposite in2="shadowGaussian" operator="atop" in="SourceAlpha" result="shadowComposite" />
      <feColorMatrix type="matrix" values="0 0 0 0 0  0 0 0 0 0  0 0 0 0 0  0 0 0 0.34901960784313724 0  " in="shadowComposite" />
    </filter>
    <g id="widget318">
      <path d="M 1143.5 563  A 6.5 6.5 0 0 1 1150 556.5 L 1686 556.5  A 6.5 6.5 0 0 1 1692.5 563 L 1692.5 599  A 6.5 6.5 0 0 1 1686 605.5 L 1150 605.5  A 6.5 6.5 0 0 1 1143.5 599 L 1143.5 563  Z " fill-rule="nonzero" fill="#1720b6" stroke="none" />
      <path d="M 1143.5 563  A 6.5 6.5 0 0 1 1150 556.5 L 1686 556.5  A 6.5 6.5 0 0 1 1692.5 563 L 1692.5 599  A 6.5 6.5 0 0 1 1686 605.5 L 1150 605.5  A 6.5 6.5 0 0 1 1143.5 599 L 1143.5 563  Z " stroke-width="1" stroke="#1720b6" fill="none" />
    </g>
  </defs>
  <g transform="matrix(1 0 0 1 -1143 -556 )">
    <use xlink:href="#widget318" filter="url(#filter317)" />
    <use xlink:href="#widget318" />
  </g>
</svg>