<?xml version="1.0" encoding="utf-8"?>
<svg version="1.1" xmlns:xlink="http://www.w3.org/1999/xlink" width="27px" height="20px" xmlns="http://www.w3.org/2000/svg">
  <g transform="matrix(1 0 0 1 -981 -620 )">
    <path d="M 26.4990234375 16.21527777777778  C 26.833007812500004 16.655092592592588  27 17.17592592592592  27 17.77777777777778  C 27 18.379629629629626  26.833007812500004 18.900462962962962  26.4990234375 19.34027777777778  C 26.1650390625 19.780092592592595  25.76953125 20  25.3125 20  L 1.6875 20  C 1.2304687500000002 20  0.8349609375 19.780092592592595  0.5009765625 19.34027777777778  C 0.1669921875 18.900462962962962  0 18.379629629629626  0 17.77777777777778  C 0 17.17592592592592  0.1669921875 16.655092592592588  0.5009765625 16.21527777777778  L 12.3134765625 0.6597222222222232  C 12.647460937500002 0.21990740740740478  13.042968750000002 0  13.5 0  C 13.957031250000002 0  14.352539062500002 0.21990740740740478  14.6865234375 0.6597222222222232  L 26.4990234375 16.21527777777778  Z " fill-rule="nonzero" fill="#d7d7d7" stroke="none" transform="matrix(1 0 0 1 981 620 )" />
  </g>
</svg>