<?xml version="1.0" encoding="utf-8"?>
<svg version="1.1" xmlns:xlink="http://www.w3.org/1999/xlink" width="365px" height="60px" xmlns="http://www.w3.org/2000/svg">
  <defs>
    <filter x="715px" y="345px" width="365px" height="60px" filterUnits="userSpaceOnUse" id="filter773">
      <feOffset dx="5" dy="5" in="SourceAlpha" result="shadowOffsetInner" />
      <feGaussianBlur stdDeviation="2.5" in="shadowOffsetInner" result="shadowGaussian" />
      <feComposite in2="shadowGaussian" operator="atop" in="SourceAlpha" result="shadowComposite" />
      <feColorMatrix type="matrix" values="0 0 0 0 0  0 0 0 0 0  0 0 0 0 0  0 0 0 0.34901960784313724 0  " in="shadowComposite" />
    </filter>
    <g id="widget774">
      <path d="M 715.5 352  A 6.5 6.5 0 0 1 722 345.5 L 1063 345.5  A 6.5 6.5 0 0 1 1069.5 352 L 1069.5 388  A 6.5 6.5 0 0 1 1063 394.5 L 722 394.5  A 6.5 6.5 0 0 1 715.5 388 L 715.5 352  Z " fill-rule="nonzero" fill="#02a7f0" stroke="none" fill-opacity="0" />
      <path d="M 715.5 352  A 6.5 6.5 0 0 1 722 345.5 L 1063 345.5  A 6.5 6.5 0 0 1 1069.5 352 L 1069.5 388  A 6.5 6.5 0 0 1 1063 394.5 L 722 394.5  A 6.5 6.5 0 0 1 715.5 388 L 715.5 352  Z " stroke-width="1" stroke="#1720b6" fill="none" />
    </g>
  </defs>
  <g transform="matrix(1 0 0 1 -715 -345 )">
    <use xlink:href="#widget774" filter="url(#filter773)" />
    <use xlink:href="#widget774" />
  </g>
</svg>