<?xml version="1.0" encoding="utf-8"?>
<svg version="1.1" xmlns:xlink="http://www.w3.org/1999/xlink" width="27px" height="9px" xmlns="http://www.w3.org/2000/svg">
  <g transform="matrix(1 0 0 1 9 -9 )">
    <path d="M 26.291852678571427 0.826171875  C 26.763950892857146 1.3769531249999987  27 2.0390625  27 2.8125  L 27 6.1875  C 27 6.9609375  26.763950892857146 7.623046875000002  26.291852678571427 8.173828125  C 25.81975446428572 8.724609374999998  25.252232142857146 9  24.589285714285715 9  L 2.4107142857142856 9  C 1.7477678571428572 9  1.1802455357142858 8.724609374999998  0.7081473214285714 8.173828125  C 0.23604910714285715 7.623046875000002  0 6.9609375  0 6.1875  L 0 2.8125  C 0 2.0390625  0.23604910714285715 1.3769531249999987  0.7081473214285714 0.826171875  C 1.1802455357142858 0.27539062500000133  1.7477678571428572 0  2.4107142857142856 0  L 24.589285714285715 0  C 25.252232142857146 0  25.81975446428572 0.27539062500000133  26.291852678571427 0.826171875  Z " fill-rule="nonzero" fill="#d7d7d7" stroke="none" transform="matrix(1 0 0 1 -9 9 )" />
  </g>
</svg>