<?xml version="1.0" encoding="utf-8"?>
<svg version="1.1" xmlns:xlink="http://www.w3.org/1999/xlink" width="10px" height="9px" xmlns="http://www.w3.org/2000/svg">
  <g transform="matrix(1 0 0 1 -609 -472 )">
    <path d="M 614 472  C 616.8 472  619 473.98  619 476.5  C 619 479.02  616.8 481  614 481  C 611.2 481  609 479.02  609 476.5  C 609 473.98  611.2 472  614 472  Z " fill-rule="nonzero" fill="#1720b6" stroke="none" />
    <path d="M 614 472.5  C 616.52 472.5  618.5 474.26  618.5 476.5  C 618.5 478.74  616.52 480.5  614 480.5  C 611.48 480.5  609.5 478.74  609.5 476.5  C 609.5 474.26  611.48 472.5  614 472.5  Z " stroke-width="1" stroke="#1720b6" fill="none" />
  </g>
</svg>