<?xml version="1.0" encoding="utf-8"?>
<svg version="1.1" xmlns:xlink="http://www.w3.org/1999/xlink" width="17px" height="15px" xmlns="http://www.w3.org/2000/svg">
  <g transform="matrix(1 0 0 1 -706 -410 )">
    <path d="M 16.6845703125 12.161458333333332  C 16.894856770833336 12.49131944444444  17 12.881944444444441  17 13.333333333333332  C 17 13.784722222222221  16.894856770833336 14.17534722222222  16.6845703125 14.505208333333332  C 16.474283854166668 14.835069444444446  16.225260416666668 15  15.9375 15  L 1.0625 15  C 0.7747395833333334 15  0.5257161458333334 14.835069444444446  0.3154296875 14.505208333333332  C 0.10514322916666666 14.17534722222222  0 13.784722222222221  0 13.333333333333332  C 0 12.881944444444441  0.10514322916666666 12.49131944444444  0.3154296875 12.161458333333332  L 7.7529296875 0.4947916666666674  C 7.963216145833335 0.16493055555555358  8.212239583333334 0  8.5 0  C 8.787760416666668 0  9.036783854166668 0.16493055555555358  9.2470703125 0.4947916666666674  L 16.6845703125 12.161458333333332  Z " fill-rule="nonzero" fill="#d7d7d7" stroke="none" transform="matrix(1 0 0 1 706 410 )" />
  </g>
</svg>