<?xml version="1.0" encoding="utf-8"?>
<svg version="1.1" xmlns:xlink="http://www.w3.org/1999/xlink" width="17px" height="7px" xmlns="http://www.w3.org/2000/svg">
  <g transform="matrix(1 0 0 1 5 -5 )">
    <path d="M 16.554129464285715 0.642578125  C 16.85137648809524 1.0709635416666656  17 1.5859375  17 2.1875  L 17 4.8125  C 17 5.4140625  16.85137648809524 5.929036458333334  16.554129464285715 6.357421875  C 16.256882440476193 6.785807291666666  15.899553571428575 7  15.482142857142858 7  L 1.5178571428571428 7  C 1.1004464285714286 7  0.7431175595238096 6.785807291666666  0.4458705357142857 6.357421875  C 0.14862351190476192 5.929036458333334  0 5.4140625  0 4.8125  L 0 2.1875  C 0 1.5859375  0.14862351190476192 1.0709635416666656  0.4458705357142857 0.642578125  C 0.7431175595238096 0.21419270833333437  1.1004464285714286 0  1.5178571428571428 0  L 15.482142857142858 0  C 15.899553571428575 0  16.256882440476193 0.21419270833333437  16.554129464285715 0.642578125  Z " fill-rule="nonzero" fill="#d7d7d7" stroke="none" transform="matrix(1 0 0 1 -5 5 )" />
  </g>
</svg>