<?xml version="1.0" encoding="utf-8"?>
<svg version="1.1" xmlns:xlink="http://www.w3.org/1999/xlink" width="40px" height="32px" xmlns="http://www.w3.org/2000/svg">
  <g transform="matrix(1 0 0 1 14 38 )">
    <path d="M 39.05723905723906 23.919191919191917  C 39.68574635241302 24.421997755331084  40 25.032547699214362  40 25.75084175084175  C 40 26.46913580246914  39.68574635241302 27.07968574635241  39.05723905723906 27.58249158249158  L 34.47811447811448 31.245791245791246  C 33.849607182940524 31.748597081930416  33.08641975308642 32  32.18855218855219 32  C 31.290684624017963 32  30.527497194163864 31.748597081930416  29.8989898989899 31.245791245791246  L 20 23.32659932659933  L 10.101010101010102 31.245791245791246  C 9.47250280583614 31.748597081930416  8.709315375982044 32  7.811447811447811 32  C 6.913580246913581 32  6.150392817059485 31.748597081930416  5.5218855218855225 31.245791245791246  L 0.9427609427609428 27.58249158249158  C 0.3142536475869812 27.07968574635241  0 26.46913580246914  0 25.75084175084175  C 0 25.032547699214362  0.3142536475869812 24.421997755331084  0.9427609427609428 23.919191919191917  L 10.84175084175084 16  L 0.9427609427609428 8.08080808080808  C 0.3142536475869812 7.578002244668909  0 6.967452300785634  0 6.249158249158249  C 0 5.530864197530864  0.3142536475869812 4.920314253647582  0.9427609427609428 4.417508417508419  L 5.5218855218855225 0.7542087542087543  C 6.150392817059485 0.2514029180695836  6.913580246913581 0  7.811447811447811 0  C 8.709315375982044 0  9.47250280583614 0.2514029180695836  10.101010101010102 0.7542087542087543  L 20 8.673400673400675  L 29.8989898989899 0.7542087542087543  C 30.527497194163864 0.2514029180695836  31.290684624017963 0  32.18855218855219 0  C 33.08641975308642 0  33.849607182940524 0.2514029180695836  34.47811447811448 0.7542087542087543  L 39.05723905723906 4.417508417508419  C 39.68574635241302 4.920314253647582  40 5.530864197530864  40 6.249158249158249  C 40 6.967452300785634  39.68574635241302 7.578002244668909  39.05723905723906 8.08080808080808  L 29.158249158249156 16  L 39.05723905723906 23.919191919191917  Z " fill-rule="nonzero" fill="#ffffff" stroke="none" transform="matrix(1 0 0 1 -14 -38 )" />
  </g>
</svg>