<?xml version="1.0" encoding="utf-8"?>
<svg version="1.1" xmlns:xlink="http://www.w3.org/1999/xlink" width="30px" height="22px" xmlns="http://www.w3.org/2000/svg">
  <g transform="matrix(1 0 0 1 14 50 )">
    <path d="M 29.292929292929294 16.444444444444443  C 29.764309764309765 16.79012345679012  30 17.209876543209873  30 17.703703703703702  C 30 18.19753086419753  29.764309764309765 18.61728395061728  29.292929292929294 18.962962962962962  L 25.858585858585858 21.48148148148148  C 25.38720538720539 21.82716049382716  24.814814814814817 22  24.141414141414142 22  C 23.46801346801347 22  22.8956228956229 21.82716049382716  22.424242424242426 21.48148148148148  L 15 16.037037037037038  L 7.575757575757576 21.48148148148148  C 7.104377104377106 21.82716049382716  6.531986531986532 22  5.858585858585858 22  C 5.185185185185186 22  4.612794612794613 21.82716049382716  4.141414141414142 21.48148148148148  L 0.7070707070707071 18.962962962962962  C 0.23569023569023592 18.61728395061728  0 18.19753086419753  0 17.703703703703702  C 0 17.209876543209873  0.23569023569023592 16.79012345679012  0.7070707070707071 16.444444444444443  L 8.131313131313131 11  L 0.7070707070707071 5.5555555555555545  C 0.23569023569023592 5.209876543209875  0 4.790123456790123  0 4.296296296296296  C 0 3.802469135802469  0.23569023569023592 3.382716049382713  0.7070707070707071 3.037037037037038  L 4.141414141414142 0.5185185185185186  C 4.612794612794613 0.17283950617283872  5.185185185185186 0  5.858585858585858 0  C 6.531986531986532 0  7.104377104377106 0.17283950617283872  7.575757575757576 0.5185185185185186  L 15 5.962962962962964  L 22.424242424242426 0.5185185185185186  C 22.8956228956229 0.17283950617283872  23.46801346801347 0  24.141414141414142 0  C 24.814814814814817 0  25.38720538720539 0.17283950617283872  25.858585858585858 0.5185185185185186  L 29.292929292929294 3.037037037037038  C 29.764309764309765 3.382716049382713  30 3.802469135802469  30 4.296296296296296  C 30 4.790123456790123  29.764309764309765 5.209876543209875  29.292929292929294 5.5555555555555545  L 21.86868686868687 11  L 29.292929292929294 16.444444444444443  Z " fill-rule="nonzero" fill="#ffffff" stroke="none" transform="matrix(1 0 0 1 -14 -50 )" />
  </g>
</svg>