<?xml version="1.0" encoding="utf-8"?>
<svg version="1.1" xmlns:xlink="http://www.w3.org/1999/xlink" width="50px" height="42px" xmlns="http://www.w3.org/2000/svg">
  <g>
    <path d="M 48.821548821548824 31.39393939393939  C 49.607182940516275 32.05387205387205  50 32.85521885521885  50 33.7979797979798  C 50 34.74074074074075  49.607182940516275 35.542087542087536  48.821548821548824 36.2020202020202  L 43.09764309764309 41.01010101010101  C 42.31200897867565 41.670033670033675  41.358024691358025 42  40.235690235690235 42  C 39.11335578002245 42  38.15937149270483 41.670033670033675  37.37373737373738 41.01010101010101  L 25 30.61616161616162  L 12.626262626262626 41.01010101010101  C 11.840628507295175 41.670033670033675  10.886644219977553 42  9.764309764309765 42  C 8.641975308641976 42  7.687991021324356 41.670033670033675  6.902356902356903 41.01010101010101  L 1.1784511784511784 36.2020202020202  C 0.3928170594837265 35.542087542087536  0 34.74074074074075  0 33.7979797979798  C 0 32.85521885521885  0.3928170594837265 32.05387205387205  1.1784511784511784 31.39393939393939  L 13.552188552188552 21  L 1.1784511784511784 10.606060606060604  C 0.3928170594837265 9.946127946127943  0 9.144781144781145  0 8.202020202020202  C 0 7.259259259259259  0.3928170594837265 6.457912457912451  1.1784511784511784 5.797979797979799  L 6.902356902356903 0.9898989898989901  C 7.687991021324356 0.32996632996632846  8.641975308641976 0  9.764309764309765 0  C 10.886644219977553 0  11.840628507295175 0.32996632996632846  12.626262626262626 0.9898989898989901  L 25 11.383838383838386  L 37.37373737373738 0.9898989898989901  C 38.15937149270483 0.32996632996632846  39.11335578002245 0  40.235690235690235 0  C 41.358024691358025 0  42.31200897867565 0.32996632996632846  43.09764309764309 0.9898989898989901  L 48.821548821548824 5.797979797979799  C 49.607182940516275 6.457912457912451  50 7.259259259259259  50 8.202020202020202  C 50 9.144781144781145  49.607182940516275 9.946127946127943  48.821548821548824 10.606060606060604  L 36.447811447811446 21  L 48.821548821548824 31.39393939393939  Z " fill-rule="nonzero" fill="#ffffff" stroke="none" />
  </g>
</svg>