<?xml version="1.0" encoding="utf-8"?>
<svg version="1.1" xmlns:xlink="http://www.w3.org/1999/xlink" width="40px" height="32px" xmlns="http://www.w3.org/2000/svg">
  <g transform="matrix(1 0 0 1 -58 -56 )">
    <path d="M 39.505208333333336 26.075  C 39.83506944444444 26.39166666666667  40 26.76666666666667  40 27.2  L 40 30.4  C 40 30.833333333333332  39.83506944444444 31.208333333333332  39.505208333333336 31.525  C 39.17534722222223 31.84166666666667  38.78472222222223 32  38.333333333333336 32  L 1.6666666666666665 32  C 1.215277777777778 32  0.8246527777777778 31.84166666666667  0.49479166666666663 31.525  C 0.16493055555555555 31.208333333333332  0 30.833333333333332  0 30.4  L 0 27.2  C 0 26.76666666666667  0.16493055555555555 26.39166666666667  0.49479166666666663 26.075  C 0.8246527777777778 25.758333333333333  1.215277777777778 25.6  1.6666666666666665 25  L 38.333333333333336 25  C 38.78472222222223 25.6  39.17534722222223 25.758333333333333  39.505208333333336 26.075  Z M 39.505208333333336 13.274999999999999  C 39.83506944444444 13.591666666666665  40 13.966666666666665  40 14.399999999999999  L 40 17.6  C 40 18.03333333333333  39.83506944444444 18.40833333333333  39.505208333333336 18.725  C 39.17534722222223 19.041666666666664  38.78472222222223 19.2  38.333333333333336 19  L 1.6666666666666665 19  C 1.215277777777778 19.2  0.8246527777777778 19.041666666666664  0.49479166666666663 18.725  C 0.16493055555555555 18.40833333333333  0 18.03333333333333  0 17.6  L 0 14.399999999999999  C 0 13.966666666666665  0.16493055555555555 13.591666666666665  0.49479166666666663 13.274999999999999  C 0.8246527777777778 12.958333333333336  1.215277777777778 12.8  1.6666666666666665 13  L 38.333333333333336 13  C 38.78472222222223 12.8  39.17534722222223 12.958333333333336  39.505208333333336 13.274999999999999  Z M 39.505208333333336 0.4750000000000014  C 39.83506944444444 0.7916666666666643  40 1.1666666666666643  40 1.6000000000000014  L 40 4.800000000000001  C 40 5.233333333333331  39.83506944444444 5.608333333333331  39.505208333333336 5.925000000000001  C 39.17534722222223 6.241666666666664  38.78472222222223 6.399999999999999  38.333333333333336 7  L 1.6666666666666665 7  C 1.215277777777778 6.399999999999999  0.8246527777777778 6.241666666666664  0.49479166666666663 5.925000000000001  C 0.16493055555555555 5.608333333333331  0 5.233333333333331  0 4.800000000000001  L 0 1.6000000000000014  C 0 1.1666666666666643  0.16493055555555555 0.7916666666666643  0.49479166666666663 0.4750000000000014  C 0.8246527777777778 0.15833333333333144  1.215277777777778 0  1.6666666666666665 0  L 38.333333333333336 0  C 38.78472222222223 0  39.17534722222223 0.15833333333333144  39.505208333333336 0.4750000000000014  Z " fill-rule="nonzero" fill="#ffffff" stroke="none" transform="matrix(1 0 0 1 58 56 )" />
  </g>
</svg>