<?xml version="1.0" encoding="utf-8"?>
<svg version="1.1" xmlns:xlink="http://www.w3.org/1999/xlink" width="50px" height="39px" xmlns="http://www.w3.org/2000/svg">
  <g transform="matrix(1 0 0 1 -1678 -33 )">
    <path d="M 12.451171875 2.679786524349567  C 16.28146701388889 0.8932621747831875  20.464409722222225 0  25 0  C 29.53559027777778 0  33.718532986111114 0.8932621747831875  37.548828125 2.679786524349567  C 41.37912326388889 4.466310873915941  44.411892361111114 6.890260173448964  46.64713541666667 9.951634422948631  C 48.882378472222214 13.013008672448297  50 16.3562374916611  50 19.98132088058706  C 50 24.33488992661774  48.410373263888886 28.250500333555706  45.23111979166667 31.72815210140093  C 42.05186631944445 35.20580386924617  37.94487847222223 37.612408272181455  32.91015625 38.947965310206804  C 32.32421875000001 39.03468979319547  31.890190972222225 38.9739826551034  31.608072916666668 38.76584389593062  C 31.32595486111111 38.55770513675784  31.184895833333332 38.29753168779186  31.184895833333332 37.98532354903269  C 31.184895833333332 37.93328885923949  31.190321180555557 37.26984656437625  31.201171875 35.994996664442965  C 31.212022569444446 34.72014676450967  31.217447916666668 33.55370246831221  31.217447916666668 32.495663775850566  C 31.217447916666668 30.813208805870577  30.653211805555557 29.58172114743162  29.524739583333332 28.80120080053369  C 30.76171875 28.697131420947297  31.873914930555557 28.54102735156771  32.861328125 28.33288859239493  C 33.84874131944445 28.12474983322215  34.86870659722223 27.786524349566378  35.92122395833333 27.31821214142762  C 36.97374131944445 26.849899933288857  37.85264756944445 26.273182121414276  38.55794270833333 25.588058705803867  C 39.26323784722223 24.902935290193458  39.838324652777786 23.992328218812542  40.283203125 22.856237491661105  C 40.72808159722223 21.720146764509675  40.95052083333333 20.41494329553035  40.95052083333333 18.94062708472315  C 40.95052083333333 16.87658438959306  40.09331597222223 15.090060040026685  38.37890625 13.581054036024018  C 39.18185763888889 12.00266844563042  39.09505208333333 10.233488992661774  38.11848958333333 8.273515677118079  C 37.51085069444445 8.117411607738495  36.63194444444445 8.212808539026012  35.48177083333333 8.559706470980656  C 34.33159722222223 8.906604402935288  33.33333333333333 9.288192128085392  32.48697916666667 9.704469646430953  L 31.25 10.3288859239493  C 29.231770833333336 9.87791861240827  27.148437500000007 9.652434956637759  25 9.652434956637759  C 22.8515625 9.652434956637759  20.768229166666664 9.87791861240827  18.75 10.3288859239493  C 18.40277777777778 10.138092061374246  17.941623263888893 9.903935957304865  17.366536458333336 9.626417611741159  C 16.79144965277778 9.34889926617745  15.885416666666668 9.015010006671115  14.6484375 8.624749833222149  C 13.411458333333334 8.234489659773184  12.489149305555557 8.117411607738495  11.881510416666668 8.273515677118079  C 10.904947916666668 10.233488992661774  10.818142361111112 12.00266844563042  11.62109375 13.581054036024018  C 9.906684027777779 15.090060040026685  9.049479166666668 16.87658438959306  9.049479166666668 18.94062708472315  C 9.049479166666668 20.41494329553035  9.271918402777779 21.71581054036024  9.716796875 22.84322881921281  C 10.161675347222223 23.970647098065374  10.731336805555557 24.881254169446294  11.42578125 25.57505003335557  C 12.120225694444446 26.26884589726484  12.993706597222223 26.849899933288857  14.046223958333334 27.31821214142762  C 15.098741319444445 27.786524349566378  16.118706597222225 28.12474983322215  17.106119791666664 28.33288859239493  C 18.093532986111114 28.54102735156771  19.205729166666664 28.697131420947297  20.442708333333336 28.80120080053369  C 19.596354166666664 29.425617078052035  19.064670138888893 30.318879252835224  18.84765625 31.480987324883255  C 18.391927083333336 31.654436290860577  17.903645833333336 31.784523015343563  17.3828125 31.87124749833222  C 16.861979166666664 31.95797198132088  16.243489583333336 32.00133422281521  15.52734375 32.00133422281521  C 14.811197916666668 32.00133422281521  14.100477430555557 31.81487658438959  13.395182291666666 31.44196130753836  C 12.689887152777779 31.069046030687126  12.087673611111112 30.527018012008007  11.588541666666668 29.815877251501  C 11.176215277777779 29.260840560373577  10.649956597222223 28.809873248832552  10.009765625 28.46297531687792  C 9.369574652777779 28.11607738492328  8.832465277777779 27.907938625750496  8.3984375 27.838559039359573  L 7.747395833333333 27.76050700466978  C 7.291666666666667 27.76050700466978  6.976996527777778 27.799533022014675  6.803385416666667 27.877585056704472  C 6.629774305555556 27.955637091394262  6.575520833333334 28.05537024683122  6.640625 28.176784523015343  C 6.705729166666667 28.29819879919946  6.803385416666667 28.419613075383587  6.93359375 28.54102735156771  C 7.063802083333334 28.662441627751832  7.204861111111112 28.76651100733822  7.356770833333333 28.853235490326888  L 7.584635416666667 28.983322214809874  C 8.062065972222223 29.15677118078719  8.534071180555557 29.486324216144098  9.000651041666668 29.971981320880584  C 9.467230902777779 30.457638425617073  9.809027777777779 30.899933288859234  10.026041666666668 31.29886591060707  L 10.3515625 31.897264843228818  C 10.633680555555557 32.55637091394262  11.111111111111112 33.08972648432288  11.783854166666668 33.49733155436958  C 12.456597222222225 33.90493662441628  13.183593750000004 34.16511007338226  13.96484375 34.27785190126751  C 14.746093750000004 34.39059372915276  15.500217013888893 34.45130086724483  16.227213541666664 34.4599733155437  C 16.954210069444446 34.46864576384256  17.556423611111114 34.43829219479653  18.033854166666664 34.3689126084056  L 18.782552083333336 34.26484322881922  C 18.782552083333336 34.92394929953302  18.787977430555557 35.69146097398265  18.798828125 36.56737825216811  C 18.809678819444446 37.443295530353566  18.815104166666664 37.915943962641755  18.815104166666664 37.98532354903269  C 18.815104166666664 38.29753168779186  18.674045138888893 38.55770513675784  18.391927083333336 38.76584389593062  C 18.10980902777778 38.9739826551034  17.67578125 39.03468979319547  17.08984375 38.947965310206804  C 12.055121527777779 37.612408272181455  7.948133680555556 35.20580386924617  4.768880208333334 31.72815210140093  C 1.589626736111111 28.250500333555706  0 24.33488992661774  0 19.98132088058706  C 0 16.3562374916611  1.1176215277777777 13.013008672448297  3.3528645833333335 9.951634422948631  C 5.588107638888889 6.890260173448964  8.620876736111112 4.466310873915941  12.451171875 2.679786524349567  Z M 9.049479166666668 28.749166110740493  C 9.244791666666668 28.853235490326888  9.385850694444446 28.835890593729154  9.47265625 28.697131420947297  C 9.537760416666668 28.575717144763175  9.461805555555557 28.471647765176783  9.244791666666668 28.384923282188126  C 9.027777777777779 28.33288859239493  8.88671875 28.350233488992657  8.821614583333332 28.43695797198132  C 8.756510416666668 28.55837224816544  8.832465277777779 28.662441627751832  9.049479166666668 28.749166110740493  Z M 9.9609375 29.50366911274183  C 10.17795138888889 29.677118078719143  10.3515625 29.70313542361574  10.481770833333332 29.58172114743162  C 10.633680555555557 29.494996664442958  10.611979166666668 29.35623749166111  10.416666666666668 29.16544362908606  C 10.199652777777779 29.00933955970647  10.026041666666668 28.983322214809874  9.895833333333332 29.087391594396266  C 9.743923611111112 29.17411607738492  9.765625 29.312875250166776  9.9609375 29.50366911274183  Z M 10.904947916666668 30.570380253502332  C 11.100260416666668 30.79586390927285  11.284722222222223 30.85657104736491  11.458333333333332 30.752501667778517  C 11.653645833333332 30.631087391594395  11.653645833333332 30.466310873915944  11.458333333333332 30.25817211474316  C 11.284722222222223 30.032688458972647  11.100260416666668 29.98065376917945  10.904947916666668 30.102068045363573  C 10.709635416666668 30.188792528352234  10.709635416666668 30.344896597731818  10.904947916666668 30.570380253502332  Z M 12.174479166666668 31.767178118745832  C 12.434895833333332 31.975316877918615  12.651909722222223 32.00133422281521  12.825520833333334 31.845230153435626  C 12.999131944444445 31.70647098065377  12.955729166666668 31.541694462975315  12.6953125 31.350900600400266  C 12.434895833333332 31.142761841227482  12.217881944444446 31.116744496330888  12.044270833333332 31.272848565710472  C 11.848958333333332 31.411607738492325  11.892361111111112 31.576384256170776  12.174479166666668 31.767178118745832  Z M 14.0625 32.651767845230154  C 14.388020833333334 32.755837224816545  14.594184027777779 32.70380253502335  14.680989583333334 32.495663775850566  C 14.74609375 32.30486991327552  14.605034722222223 32.16611074049366  14.2578125 32.079386257505  C 13.932291666666668 32.01000667111408  13.726128472222223 32.07071380920614  13.639322916666666 32.26150767178119  C 13.552517361111112 32.45230153435624  13.69357638888889 32.582388258839224  14.0625 32.651767845230154  Z M 16.2109375 32.911941294196126  C 16.558159722222225 32.911941294196126  16.731770833333336 32.8165443629086  16.731770833333336 32.62575050033356  C 16.731770833333336 32.40026684456304  16.54730902777778 32.30486991327552  16.178385416666664 32.33955970647098  C 15.831163194444445 32.33955970647098  15.657552083333334 32.43495663775851  15.657552083333334 32.62575050033356  C 15.657552083333334 32.85123415610407  15.84201388888889 32.946631087391594  16.2109375 32.911941294196126  Z M 18.1640625 32.729819879919944  C 18.511284722222225 32.66044029352902  18.663194444444446 32.5390260173449  18.619791666666664 32.36557705136758  C 18.576388888888893 32.17478318879253  18.381076388888893 32.096731154102734  18.033854166666664 32.131420947298196  C 17.686631944444446 32.18345563709139  17.534722222222225 32.31354236157438  17.578125 32.52168112074716  C 17.62152777777778 32.729819879919944  17.81684027777778 32.79919946631088  18.1640625 32.729819879919944  Z " fill-rule="nonzero" fill="#fdfdfa" stroke="none" transform="matrix(1 0 0 1 1678 33 )" />
  </g>
</svg>