<?xml version="1.0" encoding="utf-8"?>
<svg version="1.1" xmlns:xlink="http://www.w3.org/1999/xlink" width="30px" height="17px" xmlns="http://www.w3.org/2000/svg">
  <g transform="matrix(1 0 0 1 -21 -30 )">
    <path d="M 29.69939879759519 13.903780068728523  C 29.8997995991984 14.098510882016033  30 14.322451317296677  30 14.575601374570448  C 30 14.828751431844212  29.8997995991984 15.052691867124855  29.69939879759519 15.247422680412372  L 28.196392785571145 16.707903780068726  C 27.99599198396794 16.902634593356236  27.765531062124253 17  27.50501002004008 17  C 27.244488977955914 17  27.014028056112227 16.902634593356236  26.81362725450902 16.707903780068726  L 15 5.2285223367697595  L 3.186372745490982 16.707903780068726  C 2.9859719438877756 16.902634593356236  2.7555110220440886 17  2.49498997995992 17  C 2.234468937875752 17  2.004008016032065 16.902634593356236  1.8036072144288577 16.707903780068726  L 0.3006012024048096 15.247422680412372  C 0.1002004008016035 15.052691867124855  0 14.828751431844212  0 14.575601374570448  C 0 14.322451317296677  0.1002004008016035 14.098510882016033  0.3006012024048096 13.903780068728523  L 14.308617234468937 0.2920962199312723  C 14.509018036072147 0.09736540664375493  14.739478957915834 0  15 0  C 15.26052104208417 0  15.490981963927856 0.09736540664375493  15.691382765531062 0.2920962199312723  L 29.69939879759519 13.903780068728523  Z " fill-rule="nonzero" fill="#000000" stroke="none" transform="matrix(1 0 0 1 21 30 )" />
  </g>
</svg>