<?xml version="1.0" encoding="utf-8"?>
<svg version="1.1" xmlns:xlink="http://www.w3.org/1999/xlink" width="37px" height="30px" xmlns="http://www.w3.org/2000/svg">
  <g transform="matrix(1 0 0 1 -1816 -47 )">
    <path d="M 1 9.747956403269756  L 9 9.747956403269756  L 9 30  L 1 30  L 1 9.747956403269756  Z M 7.684244791666666 0.9911444141689374  C 8.487196180555557 1.6519073569482279  8.89670138888889 2.4863760217983613  8.912760416666666 3.4945504087193466  C 8.928819444444445 4.48910081743869  8.523328993055557 5.320163487738418  7.6962890625 5.987738419618528  C 6.869249131944445 6.655313351498635  5.78125 6.989100817438693  4.432291666666667 6.989100817438693  L 4.384114583333333 6.989100817438693  C 3.067274305555556 6.989100817438693  2.0073784722222223 6.655313351498635  1.2044270833333335 5.987738419618528  C 0.40147569444444436 5.320163487738418  0 4.48910081743869  0 3.4945504087193466  C 0 2.4863760217983613  0.41351996527777773 1.6519073569482279  1.2405598958333335 0.9911444141689374  C 2.0675998263888893 0.3303814713896436  3.147569444444445 0  4.48046875 0  C 5.813368055555555 0  6.881293402777779 0.3303814713896436  7.684244791666666 0.9911444141689374  Z M 34.494791666666664 11.597411444141688  C 36.16493055555555 13.143732970027248  37 15.408719346049045  37 18.392370572207085  L 37 30  L 29 30  L 29 19.16893732970027  C 29.074869791666664 17.73841961852861  28.749674479166664 16.617847411444142  28.099283854166664 15.807220708446867  C 27.448893229166664 14.996594005449587  26.433159722222225 14.591280653950955  25.052083333333336 14.591280653950955  C 24.040364583333336 14.591280653950955  23.193250868055557 14.826294277929154  22.5107421875 15.296321525885556  C 21.828233506944446 15.766348773841962  21.318359375 16.348773841961854  20.981119791666664 17.04359673024523  C 20.804470486111114 17.452316076294277  20.716145833333336 18.004087193460492  20 18.698910081743872  L 20 30  L 12.791015625 30  C 12.823133680555557 24.56403269754768  12.839192708333332 20.1566757493188  12.839192708333332 16.777929155313352  C 12.839192708333332 13.399182561307901  12.831163194444446 11.38283378746594  12.815104166666668 10.728882833787466  L 12.791015625 9.747956403269756  L 20.716145833333336 9.747956403269756  L 20.716145833333336 12.690735694822887  L 20.66796875 12.690735694822887  C 20.989149305555557 12.25476839237057  21.318359375 11.873297002724795  21.655598958333336 11.54632152588556  C 21.992838541666664 11.219346049046322  22.446506076388893 10.865122615803813  23.0166015625 10.483651226158038  C 23.586697048611114 10.102179836512258  24.285264756944446 9.805858310626702  25.1123046875 9.594686648501364  C 25.93934461805556 9.383514986376023  26.858723958333336 9.27792915531335  27.870442708333336 9.27792915531335  C 30.616536458333336 9.27792915531335  32.82465277777778 10.05108991825613  34.494791666666664 11.597411444141688  Z " fill-rule="nonzero" fill="#fdfdfa" stroke="none" transform="matrix(1 0 0 1 1816 47 )" />
  </g>
</svg>