<?xml version="1.0" encoding="utf-8"?>
<svg version="1.1" xmlns:xlink="http://www.w3.org/1999/xlink" width="37px" height="25px" xmlns="http://www.w3.org/2000/svg">
  <g transform="matrix(1 0 0 1 -1704 -52 )">
    <path d="M 34.93526785714286 9.605823863636365  C 35.71986607142858 9.144176136363635  36.40811011904762 8.629261363636365  37 8.061079545454545  L 37 22.15909090909091  C 37 22.94034090909091  36.67652529761905 23.60913825757576  36.02957589285714 24.165482954545457  C 35.38262648809524 24.72182765151515  34.60491071428572 25  33.69642857142857 25  L 3.303571428571429 25  C 2.395089285714286 25  1.617373511904762 24.72182765151515  0.9704241071428573 24.165482954545457  C 0.3234747023809525 23.60913825757576  0 22.94034090909091  0 22.15909090909091  L 0 8.061079545454545  C 0.6056547619047621 8.641098484848483  1.3007812500000002 9.156013257575754  2.0853794642857144 9.605823863636365  C 7.06826636904762 12.517755681818182  10.488839285714285 14.559659090909092  12.347098214285715 15.731534090909092  C 13.131696428571429 16.228693181818183  13.76832217261905 16.61635890151515  14.256975446428571 16.89453125  C 14.745628720238097 17.172703598484844  15.396019345238097 17.456794507575758  16.20814732142857 17.74680397727273  C 17.02027529761905 18.036813446969695  17.77734375 18.181818181818183  18.47935267857143 18.181818181818183  L 18.5 18.181818181818183  L 18.52064732142857 18.181818181818183  C 19.222656250000004 18.181818181818183  19.979724702380953 18.036813446969695  20.79185267857143 17.74680397727273  C 21.60398065476191 17.456794507575758  22.25437127976191 17.172703598484844  22.74302455357143 16.89453125  C 23.231677827380953 16.61635890151515  23.86830357142857 16.228693181818183  24.65290178571429 15.731534090909092  C 26.99293154761905 14.275568181818182  30.42038690476191 12.233664772727273  34.93526785714286 9.605823863636365  Z M 36.01925223214286 0.8345170454545442  C 36.673084077380956 1.3908617424242404  37 2.0596590909090913  37 2.8409090909090913  C 37 3.776041666666663  36.66276041666667 4.6697443181818175  35.98828125 5.522017045454544  C 35.313802083333336 6.374289772727273  34.4741443452381 7.102272727272727  33.469308035714285 7.705965909090909  C 28.29371279761905 10.795454545454545  25.07273065476191 12.718986742424242  23.806361607142858 13.4765625  C 23.66871279761905 13.559422348484848  23.376209077380953 13.739938446969695  22.92885044642857 14.018110795454547  C 22.481491815476193 14.296283143939393  22.10984002976191 14.521188446969695  21.81389508928571 14.692826704545453  C 21.517950148809522 14.86446496212121  21.16006324404762 15.056818181818182  20.740234375 15.269886363636365  C 20.320405505952383 15.482954545454547  19.92466517857143 15.642755681818182  19.553013392857142 15.74928977272727  C 19.181361607142858 15.855823863636365  18.837239583333336 15.909090909090908  18.52064732142857 15.909090909090908  L 18.5 15.909090909090908  L 18.47935267857143 15.909090909090908  C 18.162760416666668 15.909090909090908  17.818638392857142 15.855823863636365  17.446986607142858 15.74928977272727  C 17.07533482142857 15.642755681818182  16.67959449404762 15.482954545454547  16.259765625 15.269886363636365  C 15.839936755952381 15.056818181818182  15.482049851190476 14.86446496212121  15.186104910714285 14.692826704545453  C 14.890159970238097 14.521188446969695  14.51850818452381 14.296283143939393  14.071149553571429 14.018110795454547  C 13.62379092261905 13.739938446969695  13.331287202380954 13.559422348484848  13.193638392857144 13.4765625  C 11.941034226190476 12.718986742424242  10.137834821428571 11.638849431818182  7.784040178571428 10.236150568181818  C 5.430245535714286 8.833451704545453  4.019345238095239 7.990056818181815  3.551339285714286 7.705965909090909  C 2.697916666666667 7.208806818181815  1.8926711309523814 6.5252130681818175  1.1356026785714288 5.655184659090909  C 0.37853422619047633 4.78515625  0 3.9772727272727266  0 3.2315340909090913  C 0 2.3082386363636354  0.2856212797619049 1.5388257575757542  0.8568638392857144 0.9232954545454558  C 1.4281063988095242 0.30776515151514916  2.243675595238096 0  3.303571428571429 0  L 33.69642857142857 0  C 34.591145833333336 0  35.365420386904766 0.2781723484848453  36.01925223214286 0.8345170454545442  Z " fill-rule="nonzero" fill="#ffffff" stroke="none" transform="matrix(1 0 0 1 1704 52 )" />
  </g>
</svg>