<?xml version="1.0" encoding="utf-8"?>
<svg version="1.1" xmlns:xlink="http://www.w3.org/1999/xlink" width="14px" height="15px" xmlns="http://www.w3.org/2000/svg">
  <g transform="matrix(1 0 0 1 -744 -9 )">
    <path d="M 10.436197916666668 9.1259765625  C 10.466579861111112 9.1552734375  10.481770833333332 9.192708333333332  10.481770833333332 9.238281250000002  L 10.481770833333332 10.302734374999998  C 10.481770833333332 10.628255208333332  10.370876736111112 10.917968749999998  10.149088541666668 11.171875000000002  C 9.927300347222223 11.42578125  9.641710069444445 11.622721354166664  9.292317708333332 11.7626953125  C 8.942925347222223 11.902669270833334  8.584418402777779 12.008463541666668  8.216796875 12.080078125  C 7.849175347222223 12.151692708333334  7.4921875 12.1875  7.145833333333333 12.1875  C 5.900173611111112 12.1875  4.85959201388889 11.735026041666668  4.024088541666666 10.830078124999998  C 3.188585069444445 9.925130208333332  2.770833333333333 8.798828125000002  2.770833333333333 7.451171874999999  C 2.770833333333333 6.129557291666667  3.184027777777778 5.026041666666666  4.010416666666666 4.140624999999999  C 4.836805555555556 3.2552083333333326  5.866753472222222 2.8125  7.100260416666667 2.8125  C 7.306857638888889 2.8125  7.5362413194444455 2.8271484375  7.788411458333333 2.8564453125  C 8.040581597222223 2.8857421875  8.323133680555557 2.9443359375  8.636067708333332 3.0322265625  C 8.949001736111112 3.1201171875  9.230034722222223 3.230794270833333  9.479166666666668 3.3642578124999996  C 9.728298611111112 3.4977213541666656  9.93793402777778 3.6816406250000004  10.108072916666668 3.9160156250000004  C 10.278211805555557 4.150390625000001  10.36328125 4.414062500000001  10.36328125 4.707031250000001  L 10.36328125 5.771484375  C 10.36328125 5.875651041666664  10.31467013888889 5.927734374999999  10.217447916666668 5.927734374999999  L 9.141927083333332 5.927734374999999  C 9.044704861111112 5.927734374999999  8.996093750000002 5.875651041666664  8.99609375 5.771484375  L 8.99609375 5.087890625000001  C 8.996093750000002 4.807942708333332  8.79709201388889 4.588216145833332  8.399088541666668 4.428710937500001  C 8.001085069444445 4.269205729166665  7.583333333333333 4.189453125  7.145833333333333 4.189453125  C 6.29513888888889 4.189453125  5.600911458333334 4.487304687500001  5.063151041666666 5.0830078125  C 4.525390625 5.678710937499999  4.256510416666666 6.451822916666667  4.256510416666666 7.402343750000001  C 4.256510416666666 8.385416666666664  4.534505208333334 9.197591145833334  5.090494791666666 9.838867187500002  C 5.646484375 10.480143229166664  6.355902777777779 10.800781249999998  7.21875 10.800781249999998  C 7.6319444444444455 10.800781249999998  8.051215277777779 10.72265625  8.4765625 10.566406249999998  C 8.901909722222223 10.410156250000002  9.114583333333332 10.1953125  9.114583333333332 9.921874999999998  L 9.114583333333332 9.238281250000002  C 9.114583333333332 9.192708333333332  9.128255208333332 9.1552734375  9.155598958333332 9.1259765625  C 9.182942708333332 9.0966796875  9.21484375 9.08203125  9.251302083333332 9.08203125  L 10.3359375 9.08203125  C 10.372395833333332 9.08203125  10.405815972222223 9.0966796875  10.436197916666668 9.1259765625  Z M 9.264973958333332 1.7480468750000004  C 8.544921875 1.4160156249999996  7.789930555555556 1.2500000000000004  7 1.2500000000000004  C 6.210069444444445 1.2500000000000004  5.455078125 1.4160156249999996  4.735026041666666 1.7480468750000004  C 4.014973958333334 2.080078125  3.395182291666667 2.5244140625000004  2.875651041666667 3.0810546875000004  C 2.356119791666667 3.6376953125000004  1.94140625 4.301757812499999  1.6315104166666665 5.073242187500001  C 1.3216145833333335 5.8447265625  1.1666666666666665 6.653645833333332  1.1666666666666665 7.5  C 1.1666666666666665 8.346354166666668  1.3216145833333335 9.1552734375  1.6315104166666665 9.926757812500002  C 1.94140625 10.698242187499998  2.356119791666667 11.3623046875  2.875651041666667 11.9189453125  C 3.395182291666667 12.4755859375  4.014973958333334 12.919921875  4.735026041666666 13.251953125  C 5.455078125 13.583984375  6.210069444444445 13.75  7 13.75  C 7.789930555555556 13.75  8.544921875 13.583984375  9.264973958333332 13.251953125  C 9.985026041666668 12.919921875  10.604817708333332 12.4755859375  11.124348958333332 11.9189453125  C 11.643880208333332 11.3623046875  12.05859375 10.698242187499998  12.368489583333332 9.926757812500002  C 12.678385416666668 9.1552734375  12.833333333333332 8.346354166666668  12.833333333333332 7.5  C 12.833333333333332 6.653645833333332  12.678385416666668 5.8447265625  12.368489583333332 5.073242187500001  C 12.05859375 4.301757812499999  11.643880208333332 3.6376953125000004  11.124348958333332 3.0810546875000004  C 10.604817708333332 2.5244140625000004  9.985026041666668 2.080078125  9.264973958333332 1.7480468750000004  Z M 13.061197916666668 3.7353515625  C 13.68706597222222 4.884440104166665  14 6.139322916666664  14 7.5  C 14 8.860677083333334  13.68706597222222 10.115559895833332  13.061197916666668 11.2646484375  C 12.435329861111112 12.413736979166666  11.58615451388889 13.323567708333334  10.513671875 13.994140625  C 9.441189236111112 14.664713541666668  8.269965277777779 15  7 15  C 5.730034722222222 15  4.558810763888889 14.664713541666668  3.486328125 13.994140625  C 2.413845486111111 13.323567708333334  1.564670138888889 12.413736979166666  0.9388020833333334 11.2646484375  C 0.31293402777777773 10.115559895833332  0 8.860677083333334  0 7.5  C 0 6.139322916666664  0.31293402777777773 4.884440104166665  0.9388020833333334 3.7353515625  C 1.564670138888889 2.586263020833333  2.413845486111111 1.6764322916666652  3.486328125 1.0058593749999996  C 4.558810763888889 0.33528645833333204  5.730034722222222 0  7 0  C 8.269965277777779 0  9.441189236111112 0.33528645833333204  10.513671875 1.0058593749999996  C 11.58615451388889 1.6764322916666652  12.435329861111112 2.586263020833333  13.061197916666668 3.7353515625  Z " fill-rule="nonzero" fill="#d7d7d7" stroke="none" transform="matrix(1 0 0 1 744 9 )" />
  </g>
</svg>