<?xml version="1.0" encoding="utf-8"?>
<svg version="1.1" xmlns:xlink="http://www.w3.org/1999/xlink" width="50px" height="39px" xmlns="http://www.w3.org/2000/svg">
  <g transform="matrix(1 0 0 1 -910 -33 )">
    <path d="M 1 13  L 12 13  L 12 39  L 1 39  L 1 13  Z M 10.384114583333332 1.2884877384196187  C 11.469184027777779 2.1474795640326962  12.022569444444446 3.2322888283378695  12.044270833333332 4.542915531335151  C 12.065972222222223 5.835831062670296  11.518012152777779 6.916212534059943  10.400390625 7.784059945504087  C 9.282769097222223 8.651907356948225  7.8125 9.085831062670302  5.989583333333334 9.085831062670302  L 5.924479166666666 9.085831062670302  C 4.144965277777779 9.085831062670302  2.7126736111111116 8.651907356948225  1.6276041666666667 7.784059945504087  C 0.5425347222222221 6.916212534059943  0 5.835831062670296  0 4.542915531335151  C 0 3.2322888283378695  0.5588107638888888 2.1474795640326962  1.6764322916666667 1.2884877384196187  C 2.7940538194444446 0.42949591280653665  4.253472222222223 0  6.0546875 0  C 7.855902777777778 0  9.29904513888889 0.42949591280653665  10.384114583333332 1.2884877384196187  Z M 46.61458333333333 15.076634877384196  C 48.87152777777777 17.08685286103542  50 20.03133514986376  50 23.910081743869213  L 50 39  L 39 39  L 39 24.919618528610354  C 39.29036458333333 23.059945504087192  38.85091145833333 21.603201634877383  37.97200520833333 20.549386920980925  C 37.09309895833333 19.495572207084464  35.720486111111114 18.96866485013624  33.85416666666667 18.96866485013624  C 32.48697916666667 18.96866485013624  31.34223090277778 19.2741825613079  30.419921875 19.885217983651224  C 29.497612847222225 20.49625340599455  28.80859375 21.253405994550413  28.352864583333332 22.1566757493188  C 28.114149305555557 22.68801089918256  27.994791666666668 23.405313351498638  28 24.308583106267033  L 28 39  L 17.28515625 39  C 17.32855902777778 31.933242506811986  17.350260416666664 26.20367847411444  17.350260416666664 21.81130790190736  C 17.350260416666664 17.41893732970027  17.339409722222225 14.797683923705721  17.317708333333336 13.947547683923705  L 17.28515625 13  L 27.994791666666668 13  L 27.994791666666668 16.497956403269754  L 27.9296875 16.497956403269754  C 28.36371527777778 15.931198910081742  28.80859375 15.435286103542234  29.264322916666668 15.010217983651229  C 29.720052083333332 14.585149863760218  30.333116319444446 14.124659400544957  31.103515625 13.628746594005449  C 31.873914930555557 13.132833787465936  32.81792534722223 12.747615803814712  33.935546875 12.473092643051773  C 35.053168402777786 12.198569482288828  36.29557291666667 12.061307901907355  37.66276041666667 12.061307901907355  C 41.37369791666667 12.061307901907355  44.35763888888889 13.066416893732969  46.61458333333333 15.076634877384196  Z " fill-rule="nonzero" fill="#fdfdfa" stroke="none" transform="matrix(1 0 0 1 910 33 )" />
  </g>
</svg>