<?xml version="1.0" encoding="utf-8"?>
<svg version="1.1" xmlns:xlink="http://www.w3.org/1999/xlink" width="25px" height="14px" xmlns="http://www.w3.org/2000/svg">
  <g transform="matrix(1 0 0 1 -21 -30 )">
    <path d="M 24.749498997995993 11.450171821305842  C 24.916499665998664 11.610538373424967  25 11.79495990836197  25 12.003436426116838  C 25 12.211912943871704  24.916499665998664 12.396334478808704  24.749498997995993 12.556701030927835  L 23.49699398797595 13.759450171821305  C 23.329993319973283 13.91981672394043  23.13794255177021 14  22.92084168336673 14  C 22.70374081496326 14  22.511690046760187 13.91981672394043  22.344689378757515 13.759450171821305  L 12.5 4.305841924398626  L 2.655310621242485 13.759450171821305  C 2.488309953239813 13.91981672394043  2.2962591850367406 14  2.0791583166332663 14  C 1.8620574482297931 14  1.6700066800267206 13.91981672394043  1.503006012024048 13.759450171821305  L 0.250501002004008 12.556701030927835  C 0.08350033400133625 12.396334478808704  0 12.211912943871704  0 12.003436426116838  C 0 11.79495990836197  0.08350033400133625 11.610538373424967  0.250501002004008 11.450171821305842  L 11.923847695390782 0.24054982817869486  C 12.090848363393455 0.08018327605956288  12.282899131596528 0  12.5 0  C 12.717100868403474 0  12.909151636606547 0.08018327605956288  13.076152304609218 0.24054982817869486  L 24.749498997995993 11.450171821305842  Z " fill-rule="nonzero" fill="#000000" stroke="none" transform="matrix(1 0 0 1 21 30 )" />
  </g>
</svg>