<?xml version="1.0" encoding="utf-8"?>
<svg version="1.1" xmlns:xlink="http://www.w3.org/1999/xlink" width="30px" height="25px" xmlns="http://www.w3.org/2000/svg">
  <g transform="matrix(1 0 0 1 -1208 -13 )">
    <path d="M 7.470703125 1.7178118745830555  C 9.768880208333334 0.572603958194351  12.278645833333334 0  15 0  C 17.721354166666668 0  20.23111979166667 0.572603958194351  22.529296875 1.7178118745830555  C 24.827473958333332 2.8630197909717574  26.64713541666667 4.416833444518567  27.98828125 6.379252835223481  C 29.32942708333333 8.341672225928395  30 10.484767622859682  30 12.808539026017346  C 30 15.599288414498552  29.04622395833333 18.10929508561263  27.138671875 20.338559039359573  C 25.231119791666668 22.567822993106518  22.766927083333336 24.11051812319324  19.74609375 24.96664442961975  C 19.394531250000004 25.02223704692017  19.134114583333336 24.98332221480987  18.96484375 24.84989993328886  C 18.795572916666668 24.716477651767846  18.7109375 24.549699799866577  18.7109375 24.34956637758506  C 18.7109375 24.3162108072048  18.714192708333336 23.890927284856573  18.720703125 23.07371581054036  C 18.727213541666668 22.25650433622415  18.73046875 21.50878363353347  18.73046875 20.830553702468315  C 18.73046875 19.752056926840115  18.391927083333336 18.962641761174115  17.71484375 18.46230820547031  C 18.45703125 18.395597064709808  19.124348958333336 18.295530353569045  19.716796875 18.162108072048035  C 20.309244791666668 18.028685790527017  20.921223958333336 17.81187458305537  21.552734375 17.511674449633087  C 22.184244791666668 17.211474316210808  22.711588541666668 16.841783411162996  23.134765625 16.402601734489657  C 23.557942708333336 15.963420057816318  23.90299479166667 15.379697576161885  24.169921875 14.65143428952635  C 24.436848958333336 13.923171002890816  24.5703125 13.086502112519454  24.5703125 12.141427618412276  C 24.5703125 10.818323326662219  24.055989583333336 9.673115410273518  23.02734375 8.705803869246164  C 23.509114583333332 7.694018234378475  23.45703125 6.559928841449855  22.87109375 5.303535690460307  C 22.506510416666668 5.203468979319547  21.979166666666668 5.264620858350008  21.2890625 5.486991327551702  C 20.598958333333336 5.70936179675339  20 5.953969312875252  19.4921875 6.220813875917278  L 18.75 6.621080720480322  C 17.539062500000004 6.3319991105181215  16.289062500000004 6.1874583055370245  15 6.1874583055370245  C 13.7109375 6.1874583055370245  12.4609375 6.3319991105181215  11.25 6.621080720480322  C 11.041666666666668 6.498776962419389  10.764973958333336 6.3486768957082464  10.419921875 6.170780520346897  C 10.074869791666668 5.992884144985544  9.531250000000002 5.77885256837892  8.7890625 5.528685790527018  C 8.046875 5.278519012675117  7.493489583333335 5.203468979319547  7.12890625 5.303535690460307  C 6.54296875 6.559928841449855  6.490885416666667 7.694018234378475  6.97265625 8.705803869246164  C 5.944010416666668 9.673115410273518  5.4296875 10.818323326662219  5.4296875 12.141427618412276  C 5.4296875 13.086502112519454  5.563151041666668 13.920391372025795  5.830078125 14.643095396931288  C 6.097005208333333 15.36579942183678  6.438802083333334 15.949521903491215  6.85546875 16.394262841894598  C 7.272135416666668 16.839003780297972  7.796223958333334 17.211474316210808  8.427734375 17.511674449633087  C 9.059244791666666 17.81187458305537  9.671223958333334 18.028685790527017  10.263671875 18.162108072048035  C 10.856119791666668 18.295530353569045  11.5234375 18.395597064709808  12.265625 18.46230820547031  C 11.7578125 18.862575050033357  11.438802083333336 19.435179008227706  11.30859375 20.180120080053367  C 11.03515625 20.291305314654213  10.7421875 20.37469424060485  10.4296875 20.43028685790527  C 10.1171875 20.485879475205692  9.74609375 20.513675783855902  9.31640625 20.513675783855902  C 8.886718750000002 20.513675783855902  8.460286458333336 20.394151656659997  8.037109375 20.15510340226818  C 7.613932291666668 19.916055147876364  7.252604166666667 19.56860128974872  6.953125 19.11274182788526  C 6.705729166666668 18.75694907716255  6.389973958333333 18.467867467200357  6.005859375 18.245496997998668  C 5.621744791666668 18.023126528796972  5.299479166666668 17.889704247275958  5.0390625 17.845230153435622  L 4.6484375 17.79519679786524  C 4.375 17.79519679786524  4.186197916666667 17.82021347565043  4.08203125 17.870246831220815  C 3.977864583333334 17.920280186791192  3.9453125000000004 17.984211696686682  3.984375 18.062041360907273  C 4.0234375 18.13987102512786  4.08203125 18.217700689348455  4.16015625 18.295530353569045  C 4.238281250000001 18.373360017789636  4.322916666666667 18.440071158550143  4.4140625 18.495663775850566  L 4.55078125 18.579052701801203  C 4.837239583333333 18.690237936402042  5.120442708333334 18.90148988214365  5.400390625 19.212808539026017  C 5.680338541666668 19.52412719590838  5.885416666666668 19.807649544140535  6.015625 20.063375583722483  L 6.2109375 20.4469646430954  C 6.380208333333334 20.869468534578605  6.666666666666667 21.211363130976206  7.0703125 21.472648432288192  C 7.473958333333335 21.733933733600182  7.910156250000002 21.900711585501448  8.37890625 21.972981987991993  C 8.847656250000002 22.045252390482542  9.300130208333336 22.08416722259284  9.736328125 22.089726484322885  C 10.172526041666666 22.095285746052923  10.533854166666668 22.075828329997776  10.8203125 22.031354236157437  L 11.26953125 21.964643095396934  C 11.26953125 22.38714698688014  11.272786458333336 22.87914164998888  11.279296875 23.440627084723147  C 11.285807291666666 24.002112519457416  11.2890625 24.305092283744717  11.2890625 24.34956637758506  C 11.2890625 24.549699799866577  11.204427083333336 24.716477651767846  11.03515625 24.84989993328886  C 10.865885416666668 24.98332221480987  10.60546875 25.02223704692017  10.25390625 24.96664442961975  C 7.233072916666668 24.11051812319324  4.768880208333334 22.567822993106518  2.861328125 20.338559039359573  C 0.9537760416666665 18.10929508561263  0 15.599288414498552  0 12.808539026017346  C 0 10.484767622859682  0.6705729166666665 8.341672225928395  2.01171875 6.379252835223481  C 3.352864583333334 4.416833444518567  5.172526041666667 2.8630197909717574  7.470703125 1.7178118745830555  Z M 5.4296875 18.42895263509006  C 5.546875 18.495663775850566  5.631510416666668 18.484545252390483  5.68359375 18.395597064709808  C 5.72265625 18.317767400489217  5.677083333333334 18.251056259728706  5.546875 18.195463642428287  C 5.416666666666668 18.162108072048035  5.33203125 18.173226595508112  5.29296875 18.22881921280854  C 5.25390625 18.306648877029126  5.299479166666668 18.373360017789636  5.4296875 18.42895263509006  Z M 5.9765625 18.912608405603738  C 6.106770833333334 19.023793640204577  6.2109375 19.040471425394706  6.2890625 18.962641761174115  C 6.380208333333334 18.907049143873692  6.3671875 18.818100956193017  6.25 18.695797198132087  C 6.119791666666668 18.59573048699133  6.015625 18.579052701801203  5.9375 18.645763842561706  C 5.846354166666667 18.70135645986213  5.859375 18.790304647542804  5.9765625 18.912608405603738  Z M 6.54296875 19.596397598398934  C 6.66015625 19.74093840338003  6.770833333333333 19.77985323549033  6.875 19.713142094729818  C 6.9921875 19.635312430509227  6.9921875 19.529686457638427  6.875 19.396264176117413  C 6.770833333333333 19.25172337113631  6.66015625 19.21836780075606  6.54296875 19.29619746497665  C 6.42578125 19.351790082277073  6.42578125 19.451856793417832  6.54296875 19.596397598398934  Z M 7.3046875 20.363575717144762  C 7.4609375 20.496997998665776  7.591145833333334 20.513675783855902  7.695312500000001 20.413609072715143  C 7.799479166666667 20.32466088503447  7.773437500000001 20.219034912163664  7.6171875 20.096731154102734  C 7.4609375 19.96330887258172  7.330729166666668 19.946631087391594  7.2265625 20.046697798532353  C 7.109375 20.13564598621303  7.135416666666667 20.241271959083832  7.3046875 20.363575717144762  Z M 8.4375 20.930620413609073  C 8.6328125 20.99733155436958  8.756510416666668 20.963975983989325  8.80859375 20.830553702468315  C 8.84765625 20.708249944407385  8.763020833333334 20.619301756726706  8.5546875 20.563709139426283  C 8.359375000000002 20.519235045585944  8.235677083333334 20.558149877696245  8.18359375 20.68045363575717  C 8.131510416666668 20.8027573938181  8.216145833333334 20.886146319768734  8.4375 20.930620413609073  Z M 9.7265625 21.09739826551034  C 9.934895833333334 21.09739826551034  10.0390625 21.036246386479874  10.0390625 20.913942628418948  C 10.0390625 20.769401823437846  9.928385416666668 20.708249944407385  9.70703125 20.730486991327552  C 9.498697916666666 20.730486991327552  9.39453125 20.791638870358017  9.39453125 20.913942628418948  C 9.39453125 21.058483433400045  9.505208333333334 21.119635312430507  9.7265625 21.09739826551034  Z M 10.8984375 20.98065376917945  C 11.106770833333334 20.936179675339115  11.197916666666666 20.858350011118524  11.171875 20.74716477651768  C 11.145833333333336 20.62486101845675  11.028645833333336 20.57482766288637  10.8203125 20.59706470980654  C 10.611979166666666 20.63042028018679  10.520833333333334 20.713809206137423  10.546875 20.847231487658437  C 10.572916666666668 20.98065376917945  10.690104166666668 21.025127863019794  10.8984375 20.98065376917945  Z " fill-rule="nonzero" fill="#1720b6" stroke="none" transform="matrix(1 0 0 1 1208 13 )" />
  </g>
</svg>