<?xml version="1.0" encoding="utf-8"?>
<svg version="1.1" xmlns:xlink="http://www.w3.org/1999/xlink" width="25px" height="20px" xmlns="http://www.w3.org/2000/svg">
  <g transform="matrix(1 0 0 1 -1264 -16 )">
    <path d="M 0.30924479166666663 6.498637602179837  L 6 6.498637602179837  L 6 20  L 0.30924479166666663 20  L 0.30924479166666663 6.498637602179837  Z M 5.192057291666666 0.6607629427792916  C 5.734592013888889 1.1012715712988186  6.011284722222223 1.6575840145322407  6.022135416666666 2.3297002724795646  C 6.032986111111112 2.9927338782924595  5.759006076388889 3.5467756584922783  5.2001953125 3.9918256130790186  C 4.641384548611112 4.436875567665757  3.90625 4.659400544959129  2.994791666666667 4.659400544959129  L 2.962239583333333 4.659400544959129  C 2.0724826388888893 4.659400544959129  1.3563368055555558 4.436875567665757  0.8138020833333334 3.9918256130790186  C 0.27126736111111105 3.5467756584922783  0 2.9927338782924595  0 2.3297002724795646  C 0 1.6575840145322407  0.2794053819444444 1.1012715712988186  0.8382161458333334 0.6607629427792916  C 1.3970269097222223 0.22025431425976238  2.1267361111111116 0  3.02734375 0  C 3.927951388888889 0  4.649522569444445 0.22025431425976238  5.192057291666666 0.6607629427792916  Z M 23.307291666666664 7.731607629427792  C 24.435763888888886 8.762488646684831  25 10.272479564032697  25 12.26158038147139  L 25 20  L 19.645182291666664 20  L 19.645182291666664 12.779291553133515  C 19.645182291666664 11.825613079019073  19.425455729166664 11.07856494096276  18.986002604166664 10.538147138964577  C 18.546549479166664 9.997729336966392  17.860243055555557 9.727520435967303  16.927083333333336 9.727520435967303  C 16.243489583333336 9.727520435967303  15.67111545138889 9.884196185286102  15.2099609375 10.197547683923705  C 14.748806423611112 10.510899182561309  14.404296875 10.899182561307903  14.176432291666666 11.362397820163487  C 14.057074652777779 11.634877384196185  13.997395833333334 12.002724795640328  13.997395833333334 12.465940054495913  L 13.997395833333334 20  L 8.642578125 20  C 8.66427951388889 16.376021798365123  8.675130208333332 13.4377838328792  8.675130208333332 11.185286103542236  C 8.675130208333332 8.932788374205266  8.669704861111112 7.588555858310626  8.658854166666668 7.15258855585831  L 8.642578125 6.498637602179837  L 13.997395833333334 6.498637602179837  L 13.997395833333334 8.460490463215258  L 13.96484375 8.460490463215258  C 14.18185763888889 8.169845594913713  14.404296875 7.915531335149863  14.632161458333334 7.697547683923707  C 14.860026041666666 7.479564032697548  15.166558159722223 7.243415077202542  15.5517578125 6.9891008174386915  C 15.936957465277779 6.734786557674839  16.408962673611114 6.537238873751134  16.9677734375 6.396457765667575  C 17.526584201388893 6.255676657584015  18.147786458333336 6.185286103542234  18.831380208333336 6.185286103542234  C 20.686848958333336 6.185286103542234  22.178819444444446 6.700726612170753  23.307291666666664 7.731607629427792  Z " fill-rule="nonzero" fill="#1720b6" stroke="none" transform="matrix(1 0 0 1 1264 16 )" />
  </g>
</svg>