<?xml version="1.0" encoding="utf-8"?>
<svg version="1.1" xmlns:xlink="http://www.w3.org/1999/xlink" width="39px" height="25px" xmlns="http://www.w3.org/2000/svg">
  <g transform="matrix(1 0 0 1 -1804 -13 )">
    <path d="M 1 8.123297002724797  L 9 8.123297002724797  L 9 25  L 1 25  L 1 8.123297002724797  Z M 8.099609375 0.8259536784741145  C 8.945963541666668 1.3765894641235232  9.377604166666668 2.0719800181653008  9.39453125 2.912125340599456  C 9.411458333333334 3.740917347865574  8.984049479166668 4.433469573115348  8.1123046875 4.989782016348773  C 7.240559895833333 5.546094459582196  6.09375 5.824250681198912  4.671875 5.824250681198912  L 4.62109375 5.824250681198912  C 3.233072916666667 5.824250681198912  2.115885416666667 5.546094459582196  1.26953125 4.989782016348773  C 0.42317708333333326 4.433469573115348  0 3.740917347865574  0 2.912125340599456  C 0 2.0719800181653008  0.43587239583333326 1.3765894641235232  1.3076171875 0.8259536784741145  C 2.179361979166667 0.275317892824703  3.317708333333334 0  4.72265625 0  C 6.127604166666667 0  7.253255208333334 0.275317892824703  8.099609375 0.8259536784741145  Z M 36.359375 9.66450953678474  C 38.119791666666664 10.95311080835604  39 12.840599455040872  39 15.32697547683924  L 39 25  L 30.646484375 25  L 30.646484375 15.974114441416893  C 30.646484375 14.78201634877384  30.3037109375 13.848206176203451  29.6181640625 13.172683923705723  C 28.9326171875 12.49716167120799  27.86197916666667 12.159400544959128  26.40625 12.159400544959128  C 25.33984375 12.159400544959128  24.446940104166668 12.355245231607629  23.7275390625 12.74693460490463  C 23.008138020833336 13.138623978201636  22.470703125 13.623978201634879  22.115234375 14.20299727520436  C 21.929036458333336 14.54359673024523  21.8359375 15.003405994550409  21.8359375 15.582425068119893  L 21.8359375 25  L 13.482421875 25  C 13.516276041666668 20.470027247956402  13.533203125 16.797229791099  13.533203125 13.981607629427796  C 13.533203125 11.165985467756585  13.524739583333334 9.485694822888282  13.5078125 8.940735694822887  L 13.482421875 8.123297002724797  L 21.8359375 8.123297002724797  L 21.8359375 10.575613079019073  L 21.78515625 10.575613079019073  C 22.123697916666668 10.212306993642143  22.470703125 9.89441416893733  22.826171875 9.621934604904633  C 23.181640625 9.349455040871934  23.659830729166668 9.054268846503177  24.2607421875 8.736376021798364  C 24.861653645833336 8.418483197093549  25.597981770833336 8.171548592188918  26.4697265625 7.99557220708447  C 27.34147135416667 7.819595821980019  28.310546875 7.731607629427792  29.376953125 7.731607629427792  C 32.271484375 7.731607629427792  34.598958333333336 8.375908265213441  36.359375 9.66450953678474  Z " fill-rule="nonzero" fill="#110f1c" stroke="none" transform="matrix(1 0 0 1 1804 13 )" />
  </g>
</svg>