<?xml version="1.0" encoding="utf-8"?>
<svg version="1.1" xmlns:xlink="http://www.w3.org/1999/xlink" width="25px" height="20px" xmlns="http://www.w3.org/2000/svg">
  <g transform="matrix(1 0 0 1 -1208 -16 )">
    <path d="M 6.2255859375 1.3742494996664445  C 8.140733506944445 0.45808316655548076  10.232204861111112 0  12.5 0  C 14.76779513888889 0  16.859266493055557 0.45808316655548076  18.7744140625 1.3742494996664445  C 20.689561631944446 2.290415832777406  22.205946180555557 3.5334667556148536  23.323567708333336 5.103402268178785  C 24.441189236111107 6.673337780742717  25 8.387814098287745  25 10.246831220813878  C 25 12.479430731598843  24.205186631944443 14.487436068490105  22.615559895833336 16.270847231487657  C 21.025933159722225 18.054258394485213  18.972439236111114 19.288414498554594  16.455078125 19.973315543695797  C 16.162109375000004 20.017789637536136  15.945095486111112 19.9866577718479  15.804036458333334 19.879919946631087  C 15.662977430555555 19.773182121414276  15.592447916666666 19.639759839893262  15.592447916666666 19.479653102068045  C 15.592447916666666 19.452968645763843  15.595160590277779 19.11274182788526  15.6005859375 18.458972648432287  C 15.606011284722223 17.80520346897932  15.608723958333334 17.207026906826776  15.608723958333334 16.66444296197465  C 15.608723958333334 15.80164554147209  15.326605902777779 15.170113408939292  14.762369791666666 14.76984656437625  C 15.380859375 14.716477651767846  15.936957465277779 14.636424282855236  16.4306640625 14.529686457638427  C 16.924370659722225 14.422948632421615  17.434353298611114 14.249499666444297  17.960611979166664 14.00933955970647  C 18.486870659722225 13.769179452968645  18.926323784722225 13.473426728930399  19.278971354166664 13.122081387591727  C 19.631618923611114 12.770736046253056  19.919162326388893 12.303758060929509  20.1416015625 11.72114743162108  C 20.364040798611114 11.138536802312654  20.475260416666664 10.469201690015563  20.475260416666664 9.713142094729822  C 20.475260416666664 8.654658661329774  20.046657986111114 7.738492328218813  19.189453125 6.964643095396932  C 19.590928819444446 6.15521458750278  19.547526041666664 5.247943073159885  19.059244791666664 4.242828552368245  C 18.755425347222225 4.162775183455638  18.315972222222225 4.211696686680007  17.740885416666664 4.389593062041362  C 17.165798611111114 4.5674894374027115  16.666666666666664 4.763175450300201  16.243489583333336 4.976651100733822  L 15.625 5.296864576384257  C 14.615885416666668 5.065599288414497  13.574218750000004 4.94996664442962  12.5 4.94996664442962  C 11.42578125 4.94996664442962  10.384114583333332 5.065599288414497  9.375 5.296864576384257  C 9.20138888888889 5.199021569935511  8.970811631944446 5.078941516566598  8.683268229166668 4.9366244162775175  C 8.39572482638889 4.794307315988435  7.942708333333334 4.623082054703136  7.32421875 4.422948632421615  C 6.705729166666667 4.222815210140094  6.244574652777779 4.162775183455638  5.940755208333334 4.242828552368245  C 5.452473958333334 5.247943073159885  5.409071180555556 6.15521458750278  5.810546875 6.964643095396932  C 4.953342013888889 7.738492328218813  4.524739583333334 8.654658661329774  4.524739583333334 9.713142094729822  C 4.524739583333334 10.469201690015563  4.635959201388889 11.136313097620636  4.8583984375 11.714476317545031  C 5.080837673611112 12.292639537469423  5.365668402777779 12.759617522792972  5.712890625 13.115410273515678  C 6.060112847222223 13.471203024238378  6.496853298611112 13.769179452968645  7.023111979166667 14.00933955970647  C 7.549370659722222 14.249499666444297  8.059353298611112 14.422948632421615  8.553059895833332 14.529686457638427  C 9.046766493055557 14.636424282855236  9.602864583333332 14.716477651767846  10.221354166666668 14.76984656437625  C 9.798177083333332 15.090060040026685  9.532335069444446 15.548143206582166  9.423828125 16.144096064042696  C 9.195963541666668 16.23304425172337  8.951822916666668 16.299755392483878  8.69140625 16.344229486324217  C 8.430989583333332 16.388703580164552  8.121744791666668 16.410940627084724  7.763671875 16.410940627084724  C 7.405598958333334 16.410940627084724  7.050238715277779 16.315321325327997  6.697591145833333 16.124082721814542  C 6.344943576388889 15.932844118301091  6.043836805555556 15.654881031798977  5.794270833333334 15.290193462308206  C 5.588107638888889 15.005559261730038  5.324978298611112 14.774293973760283  5.0048828125 14.596397598398934  C 4.684787326388889 14.418501223037579  4.416232638888889 14.311763397820767  4.19921875 14.276184122748498  L 3.8736979166666665 14.236157438292194  C 3.6458333333333335 14.236157438292194  3.488498263888889 14.256170780520346  3.4016927083333335 14.296197464976652  C 3.314887152777778 14.336224149432955  3.287760416666667 14.387369357349344  3.3203125 14.449633088725818  C 3.3528645833333335 14.511896820102288  3.4016927083333335 14.574160551478762  3.466796875 14.636424282855236  C 3.531901041666667 14.69868801423171  3.602430555555556 14.752056926840114  3.6783854166666665 14.796531020680455  L 3.7923177083333335 14.863242161440962  C 4.031032986111112 14.952190349121635  4.267035590277779 15.121191905714921  4.500325520833334 15.370246831220813  C 4.733615451388889 15.619301756726705  4.904513888888889 15.846119635312428  5.013020833333334 16.050700466977986  L 5.17578125 16.357571714476318  C 5.316840277777779 16.695574827662885  5.555555555555556 16.969090504780965  5.891927083333334 17.178118745830552  C 6.2282986111111125 17.387146986880143  6.591796875000002 17.520569268401157  6.982421875 17.578385590393594  C 7.373046875000002 17.636201912386035  7.750108506944446 17.667333778074273  8.113606770833332 17.671781187458308  C 8.477105034722223 17.67622859684234  8.778211805555557 17.66066266399822  9.016927083333332 17.62508338892595  L 9.391276041666668 17.571714476317545  C 9.391276041666668 17.909717589504112  9.393988715277779 18.303313319991105  9.3994140625 18.752501667778517  C 9.404839409722223 19.201690015565934  9.407552083333332 19.444073826995773  9.407552083333332 19.479653102068045  C 9.407552083333332 19.639759839893262  9.337022569444446 19.773182121414276  9.195963541666668 19.879919946631087  C 9.05490451388889 19.9866577718479  8.837890625 20.017789637536136  8.544921875 19.973315543695797  C 6.027560763888889 19.288414498554594  3.974066840277778 18.054258394485213  2.384440104166667 16.270847231487657  C 0.7948133680555555 14.487436068490105  0 12.479430731598843  0 10.246831220813878  C 0 8.387814098287745  0.5588107638888888 6.673337780742717  1.6764322916666667 5.103402268178785  C 2.7940538194444446 3.5334667556148536  4.310438368055556 2.290415832777406  6.2255859375 1.3742494996664445  Z M 4.524739583333334 14.743162108072047  C 4.622395833333334 14.796531020680455  4.692925347222223 14.787636201912386  4.736328125 14.716477651767846  C 4.768880208333334 14.654213920391372  4.730902777777779 14.600845007782965  4.622395833333334 14.55637091394263  C 4.513888888888889 14.529686457638427  4.443359375 14.53858127640649  4.410807291666666 14.583055370246832  C 4.378255208333334 14.645319101623302  4.416232638888889 14.69868801423171  4.524739583333334 14.743162108072047  Z M 4.98046875 15.13008672448299  C 5.088975694444445 15.219034912163663  5.17578125 15.232377140315766  5.240885416666666 15.170113408939292  C 5.316840277777779 15.125639315098953  5.305989583333334 15.054480764954414  5.208333333333334 14.956637758505671  C 5.099826388888889 14.876584389593061  5.013020833333334 14.863242161440962  4.947916666666666 14.916611074049367  C 4.871961805555556 14.961085167889703  4.8828125 15.032243718034245  4.98046875 15.13008672448299  Z M 5.452473958333334 15.677118078719145  C 5.550130208333334 15.792750722704024  5.642361111111112 15.823882588392262  5.729166666666666 15.770513675783855  C 5.826822916666666 15.708249944407381  5.826822916666666 15.623749166110741  5.729166666666666 15.51701134089393  C 5.642361111111112 15.401378696909049  5.550130208333334 15.374694240604846  5.452473958333334 15.43695797198132  C 5.354817708333334 15.481432065821659  5.354817708333334 15.561485434734266  5.452473958333334 15.677118078719145  Z M 6.087239583333334 16.29086057371581  C 6.217447916666666 16.397598398932622  6.325954861111112 16.410940627084724  6.412760416666667 16.330887258172115  C 6.499565972222222 16.259728708027573  6.477864583333334 16.17522792973093  6.34765625 16.07738492328219  C 6.217447916666666 15.970647098065376  6.108940972222223 15.957304869913276  6.022135416666666 16.03735823882588  C 5.924479166666666 16.108516788970423  5.946180555555556 16.193017567267066  6.087239583333334 16.29086057371581  Z M 7.03125 16.74449633088726  C 7.194010416666667 16.797865243495664  7.297092013888889 16.77118078719146  7.340494791666667 16.66444296197465  C 7.373046875 16.566599955525906  7.302517361111112 16.495441405381364  7.12890625 16.450967311541028  C 6.966145833333334 16.415388036468755  6.863064236111112 16.446519902156997  6.819661458333333 16.544362908605738  C 6.776258680555556 16.64220591505448  6.846788194444445 16.708917055814986  7.03125 16.74449633088726  Z M 8.10546875 16.877918612408273  C 8.279079861111112 16.877918612408273  8.365885416666668 16.8289971091839  8.365885416666668 16.731154102735157  C 8.365885416666668 16.615521458750276  8.27365451388889 16.566599955525906  8.089192708333332 16.584389593062042  C 7.915581597222222 16.584389593062042  7.828776041666667 16.633311096286413  7.828776041666667 16.731154102735157  C 7.828776041666667 16.84678674672004  7.921006944444445 16.895708249944406  8.10546875 16.877918612408273  Z M 9.08203125 16.784523015343563  C 9.255642361111112 16.74894374027129  9.331597222222223 16.68668000889482  9.309895833333332 16.597731821214143  C 9.288194444444446 16.4998888147654  9.190538194444446 16.459862130309094  9.016927083333332 16.47765176784523  C 8.843315972222223 16.504336224149434  8.767361111111112 16.571047364909937  8.7890625 16.67778519012675  C 8.81076388888889 16.784523015343563  8.90842013888889 16.820102290415836  9.08203125 16.784523015343563  Z " fill-rule="nonzero" fill="#110f1c" stroke="none" transform="matrix(1 0 0 1 1208 16 )" />
  </g>
</svg>