<?xml version="1.0" encoding="utf-8"?>
<svg version="1.1" xmlns:xlink="http://www.w3.org/1999/xlink" width="30px" height="25px" xmlns="http://www.w3.org/2000/svg">
  <g transform="matrix(1 0 0 1 -1264 -13 )">
    <path d="M 0.37109375 8.123297002724797  L 7 8.123297002724797  L 7 25  L 0.37109375 25  L 0.37109375 8.123297002724797  Z M 6.23046875 0.8259536784741145  C 6.881510416666668 1.3765894641235232  7.213541666666668 2.0719800181653008  7.2265625 2.912125340599456  C 7.239583333333333 3.740917347865574  6.910807291666668 4.433469573115348  6.240234375 4.989782016348773  C 5.569661458333333 5.546094459582196  4.6875 5.824250681198912  3.59375 5.824250681198912  L 3.5546875 5.824250681198912  C 2.486979166666667 5.824250681198912  1.627604166666667 5.546094459582196  0.9765625000000001 4.989782016348773  C 0.32552083333333326 4.433469573115348  0 3.740917347865574  0 2.912125340599456  C 0 2.0719800181653008  0.33528645833333326 1.3765894641235232  1.005859375 0.8259536784741145  C 1.676432291666667 0.275317892824703  2.552083333333334 0  3.6328125 0  C 4.713541666666667 0  5.579427083333334 0.275317892824703  6.23046875 0.8259536784741145  Z M 27.96875 9.66450953678474  C 29.322916666666664 10.95311080835604  30 12.840599455040872  30 15.32697547683924  L 30 25  L 23.57421875 25  L 23.57421875 15.974114441416893  C 23.57421875 14.78201634877384  23.310546875 13.848206176203451  22.783203125 13.172683923705723  C 22.255859375 12.49716167120799  21.43229166666667 12.159400544959128  20.3125 12.159400544959128  C 19.4921875 12.159400544959128  18.805338541666668 12.355245231607629  18.251953125 12.74693460490463  C 17.698567708333336 13.138623978201636  17.28515625 13.623978201634879  17.01171875 14.20299727520436  C 16.868489583333336 14.54359673024523  16.796875 15.003405994550409  16.796875 15.582425068119893  L 16.796875 25  L 10.37109375 25  C 10.397135416666668 20.470027247956402  10.41015625 16.797229791099  10.41015625 13.981607629427796  C 10.41015625 11.165985467756585  10.403645833333334 9.485694822888282  10.390625 8.940735694822887  L 10.37109375 8.123297002724797  L 16.796875 8.123297002724797  L 16.796875 10.575613079019073  L 16.7578125 10.575613079019073  C 17.018229166666668 10.212306993642143  17.28515625 9.89441416893733  17.55859375 9.621934604904633  C 17.83203125 9.349455040871934  18.199869791666668 9.054268846503177  18.662109375 8.736376021798364  C 19.124348958333336 8.418483197093549  19.690755208333336 8.171548592188918  20.361328125 7.99557220708447  C 21.03190104166667 7.819595821980019  21.77734375 7.731607629427792  22.59765625 7.731607629427792  C 24.82421875 7.731607629427792  26.614583333333332 8.375908265213441  27.96875 9.66450953678474  Z " fill-rule="nonzero" fill="#110f1c" stroke="none" transform="matrix(1 0 0 1 1264 13 )" />
  </g>
</svg>