<?xml version="1.0" encoding="utf-8"?>
<svg version="1.1" xmlns:xlink="http://www.w3.org/1999/xlink" width="50px" height="29px" xmlns="http://www.w3.org/2000/svg">
  <g transform="matrix(1 0 0 1 -30 -40 )">
    <path d="M 49.498997995991985 23.718213058419245  C 49.83299933199733 24.05040091638029  50 24.432416953035506  50 24.864261168384882  C 50 25.296105383734243  49.83299933199733 25.678121420389456  49.498997995991985 26.010309278350515  L 46.9939879759519 28.501718213058417  C 46.65998663994657 28.833906071019463  46.27588510354042 29  45.84168336673346 29  C 45.40748162992652 29  45.02338009352037 28.833906071019463  44.68937875751503 28.501718213058417  L 25 8.919243986254296  L 5.31062124248497 28.501718213058417  C 4.976619906479626 28.833906071019463  4.592518370073481 29  4.158316633266533 29  C 3.7241148964595863 29  3.340013360053441 28.833906071019463  3.006012024048096 28.501718213058417  L 0.501002004008016 26.010309278350515  C 0.1670006680026725 25.678121420389456  0 25.296105383734243  0 24.864261168384882  C 0 24.432416953035506  0.1670006680026725 24.05040091638029  0.501002004008016 23.718213058419245  L 23.847695390781563 0.4982817869415822  C 24.18169672678691 0.1660939289805231  24.565798263193056 0  25 0  C 25.434201736806948 0  25.818303273213093 0.1660939289805231  26.152304609218437 0.4982817869415822  L 49.498997995991985 23.718213058419245  Z " fill-rule="nonzero" fill="#000000" stroke="none" transform="matrix(1 0 0 1 30 40 )" />
  </g>
</svg>