<?xml version="1.0" encoding="utf-8"?>
<svg version="1.1" xmlns:xlink="http://www.w3.org/1999/xlink" width="35px" height="21px" xmlns="http://www.w3.org/2000/svg">
  <g transform="matrix(1 0 0 1 -14 -28 )">
    <path d="M 34.64929859719439 17.175257731958762  C 34.883099532398134 17.415807560137452  35 17.692439862542955  35 18.00515463917526  C 35 18.317869415807557  34.883099532398134 18.594501718213056  34.64929859719439 18.835051546391753  L 32.895791583166336 20.639175257731956  C 32.6619906479626 20.879725085910646  32.39311957247829 21  32.089178356713425 21  C 31.785237140948563 21  31.516366065464265 20.879725085910646  31.282565130260522 20.639175257731956  L 17.5 6.458762886597938  L 3.7174348697394786 20.639175257731956  C 3.4836339345357383 20.879725085910646  3.214762859051437 21  2.9108216432865732 21  C 2.6068804275217103 21  2.338009352037409 20.879725085910646  2.1042084168336674 20.639175257731956  L 0.3507014028056112 18.835051546391753  C 0.11690046760187074 18.594501718213056  0 18.317869415807557  0 18.00515463917526  C 0 17.692439862542955  0.11690046760187074 17.415807560137452  0.3507014028056112 17.175257731958762  L 16.693386773547093 0.3608247422680423  C 16.92718770875084 0.12027491408934432  17.196058784235138 0  17.5 0  C 17.803941215764866 0  18.072812291249168 0.12027491408934432  18.306613226452903 0.3608247422680423  L 34.64929859719439 17.175257731958762  Z " fill-rule="nonzero" fill="#000000" stroke="none" transform="matrix(1 0 0 1 14 28 )" />
  </g>
</svg>