<?xml version="1.0" encoding="utf-8"?>
<svg version="1.1" xmlns:xlink="http://www.w3.org/1999/xlink" width="10px" height="11px" xmlns="http://www.w3.org/2000/svg">
  <g transform="matrix(1 0 0 1 -58 -34 )">
    <path d="M 7.454427083333334 6.6923828125  C 7.476128472222223 6.7138671875  7.486979166666666 6.741319444444443  7.486979166666666 6.774739583333334  L 7.486979166666666 7.555338541666666  C 7.486979166666666 7.794053819444443  7.407769097222223 8.006510416666666  7.249348958333334 8.192708333333334  C 7.0909288194444455 8.37890625  6.886935763888889 8.523328993055554  6.637369791666666 8.6259765625  C 6.3878038194444455 8.728624131944445  6.131727430555555 8.806206597222223  5.869140625 8.858723958333332  C 5.6065538194444455 8.911241319444445  5.3515625 8.9375  5.104166666666666 8.9375  C 4.214409722222222 8.9375  3.4711371527777786 8.60568576388889  2.874348958333333 7.942057291666666  C 2.2775607638888893 7.278428819444443  1.9791666666666665 6.452473958333334  1.9791666666666665 5.464192708333333  C 1.9791666666666665 4.495008680555555  2.274305555555556 3.6857638888888884  2.864583333333333 3.036458333333333  C 3.4548611111111116 2.3871527777777772  4.190538194444445 2.0625  5.071614583333334 2.0625  C 5.219184027777778 2.0625  5.383029513888889 2.0732421875  5.563151041666666 2.0947265625  C 5.7432725694444455 2.1162109375  5.945095486111112 2.1591796875  6.168619791666666 2.2236328125  C 6.392144097222223 2.2880859375  6.5928819444444455 2.369249131944444  6.770833333333334 2.467122395833333  C 6.948784722222223 2.5649956597222214  7.098524305555557 2.699869791666667  7.220052083333334 2.871744791666667  C 7.341579861111112 3.043619791666667  7.40234375 3.236979166666667  7.40234375 3.451822916666667  L 7.40234375 4.232421875  C 7.40234375 4.3088107638888875  7.367621527777778 4.347005208333333  7.298177083333334 4.347005208333333  L 6.529947916666666 4.347005208333333  C 6.460503472222223 4.347005208333333  6.425781250000001 4.3088107638888875  6.42578125 4.232421875  L 6.42578125 3.731119791666667  C 6.425781250000001 3.5258246527777772  6.283637152777778 3.3646918402777772  5.999348958333334 3.247721354166667  C 5.715060763888889 3.1307508680555545  5.416666666666666 3.072265625  5.104166666666666 3.072265625  C 4.496527777777779 3.072265625  4.000651041666667 3.290690104166667  3.616536458333333 3.7275390625  C 3.232421875 4.164388020833333  3.040364583333333 4.731336805555555  3.040364583333333 5.428385416666667  C 3.040364583333333 6.1493055555555545  3.238932291666667 6.744900173611112  3.636067708333333 7.215169270833334  C 4.033203125 7.6854383680555545  4.539930555555555 7.920572916666666  5.15625 7.920572916666666  C 5.451388888888889 7.920572916666666  5.750868055555555 7.86328125  6.0546875 7.748697916666666  C 6.3585069444444455 7.634114583333334  6.510416666666666 7.4765625  6.510416666666666 7.276041666666666  L 6.510416666666666 6.774739583333334  C 6.510416666666666 6.741319444444443  6.520182291666666 6.7138671875  6.539713541666666 6.6923828125  C 6.559244791666666 6.6708984375  6.58203125 6.66015625  6.608072916666666 6.66015625  L 7.3828125 6.66015625  C 7.408854166666666 6.66015625  7.4327256944444455 6.6708984375  7.454427083333334 6.6923828125  Z M 6.617838541666666 1.281901041666667  C 6.103515625 1.038411458333333  5.564236111111112 0.9166666666666671  5 0.9166666666666671  C 4.435763888888889 0.9166666666666671  3.896484375 1.038411458333333  3.382161458333333 1.281901041666667  C 2.867838541666667 1.525390625  2.4251302083333335 1.851236979166667  2.0540364583333335 2.259440104166667  C 1.6829427083333335 2.667643229166667  1.38671875 3.154622395833333  1.1653645833333333 3.720377604166667  C 0.9440104166666667 4.2861328125  0.8333333333333333 4.879340277777777  0.8333333333333333 5.5  C 0.8333333333333333 6.120659722222223  0.9440104166666667 6.7138671875  1.1653645833333333 7.279622395833334  C 1.38671875 7.845377604166666  1.6829427083333335 8.332356770833332  2.0540364583333335 8.740559895833332  C 2.4251302083333335 9.148763020833332  2.867838541666667 9.474609375  3.382161458333333 9.718098958333332  C 3.896484375 9.961588541666668  4.435763888888889 10.083333333333332  5 10.083333333333332  C 5.564236111111112 10.083333333333332  6.103515625 9.961588541666668  6.617838541666666 9.718098958333332  C 7.132161458333334 9.474609375  7.574869791666666 9.148763020833332  7.945963541666666 8.740559895833332  C 8.317057291666666 8.332356770833332  8.61328125 7.845377604166666  8.834635416666666 7.279622395833334  C 9.055989583333334 6.7138671875  9.166666666666666 6.120659722222223  9.166666666666666 5.5  C 9.166666666666666 4.879340277777777  9.055989583333334 4.2861328125  8.834635416666666 3.720377604166667  C 8.61328125 3.154622395833333  8.317057291666666 2.667643229166667  7.945963541666666 2.259440104166667  C 7.574869791666666 1.851236979166667  7.132161458333334 1.525390625  6.617838541666666 1.281901041666667  Z M 9.329427083333334 2.7392578125  C 9.776475694444443 3.5819227430555545  10 4.5021701388888875  10 5.5  C 10 6.497829861111112  9.776475694444443 7.418077256944443  9.329427083333334 8.2607421875  C 8.882378472222223 9.103407118055555  8.275824652777779 9.770616319444445  7.509765625 10.262369791666668  C 6.743706597222223 10.75412326388889  5.907118055555555 11  5 11  C 4.092881944444445 11  3.2562934027777777 10.75412326388889  2.490234375 10.262369791666668  C 1.7241753472222223 9.770616319444445  1.117621527777778 9.103407118055555  0.6705729166666667 8.2607421875  C 0.22352430555555552 7.418077256944443  0 6.497829861111112  0 5.5  C 0 4.5021701388888875  0.22352430555555552 3.5819227430555545  0.6705729166666667 2.7392578125  C 1.117621527777778 1.8965928819444442  1.7241753472222223 1.2293836805555545  2.490234375 0.7376302083333329  C 3.2562934027777777 0.24587673611111016  4.092881944444445 0  5 0  C 5.907118055555555 0  6.743706597222223 0.24587673611111016  7.509765625 0.7376302083333329  C 8.275824652777779 1.2293836805555545  8.882378472222223 1.8965928819444442  9.329427083333334 2.7392578125  Z " fill-rule="nonzero" fill="#000000" stroke="none" transform="matrix(1 0 0 1 58 34 )" />
  </g>
</svg>