<?xml version="1.0" encoding="utf-8"?>
<svg version="1.1" xmlns:xlink="http://www.w3.org/1999/xlink" width="30px" height="19px" xmlns="http://www.w3.org/2000/svg">
  <g transform="matrix(1 0 0 1 -176 -6 )">
    <path d="M 0.37109375 6.173705722070846  L 7 6.173705722070846  L 7 19  L 0.37109375 19  L 0.37109375 6.173705722070846  Z M 6.23046875 0.627724795640327  C 6.881510416666668 1.0462079927338777  7.213541666666668 1.5747048138056288  7.2265625 2.2132152588555862  C 7.239583333333333 2.8430971843778368  6.910807291666668 3.3694368755676645  6.240234375 3.7922343324250676  C 5.569661458333333 4.2150317892824685  4.6875 4.4264305177111725  3.59375 4.4264305177111725  L 3.5546875 4.4264305177111725  C 2.486979166666667 4.4264305177111725  1.627604166666667 4.2150317892824685  0.9765625000000001 3.7922343324250676  C 0.32552083333333326 3.3694368755676645  0 2.8430971843778368  0 2.2132152588555862  C 0 1.5747048138056288  0.33528645833333326 1.0462079927338777  1.005859375 0.627724795640327  C 1.676432291666667 0.20924159854677427  2.552083333333334 0  3.6328125 0  C 4.713541666666667 0  5.579427083333334 0.20924159854677427  6.23046875 0.627724795640327  Z M 27.96875 7.345027247956403  C 29.322916666666664 8.32436421435059  30 9.758855585831062  30 11.648501362397822  L 30 19  L 23.57421875 19  L 23.57421875 12.140326975476839  C 23.57421875 11.23433242506812  23.310546875 10.524636693914623  22.783203125 10.011239782016348  C 22.255859375 9.497842870118072  21.43229166666667 9.241144414168938  20.3125 9.241144414168938  C 19.4921875 9.241144414168938  18.805338541666668 9.389986376021797  18.251953125 9.68767029972752  C 17.698567708333336 9.985354223433243  17.28515625 10.354223433242508  17.01171875 10.794277929155314  C 16.868489583333336 11.053133514986376  16.796875 11.40258855585831  16.796875 11.842643051771118  L 16.796875 19  L 10.37109375 19  C 10.397135416666668 15.557220708446865  10.41015625 12.76589464123524  10.41015625 10.626021798365123  C 10.41015625 8.486148955495004  10.403645833333334 7.209128065395094  10.390625 6.794959128065395  L 10.37109375 6.173705722070846  L 16.796875 6.173705722070846  L 16.796875 8.037465940054496  L 16.7578125 8.037465940054496  C 17.018229166666668 7.761353315168028  17.28515625 7.51975476839237  17.55859375 7.312670299727522  C 17.83203125 7.105585831062671  18.199869791666668 6.881244323342415  18.662109375 6.639645776566757  C 19.124348958333336 6.398047229791097  19.690755208333336 6.210376930063577  20.361328125 6.076634877384197  C 21.03190104166667 5.942892824704814  21.77734375 5.876021798365122  22.59765625 5.876021798365122  C 24.82421875 5.876021798365122  26.614583333333332 6.365690281562215  27.96875 7.345027247956403  Z " fill-rule="nonzero" fill="#fdfdfa" stroke="none" transform="matrix(1 0 0 1 176 6 )" />
  </g>
</svg>