<?xml version="1.0" encoding="utf-8"?>
<svg version="1.1" xmlns:xlink="http://www.w3.org/1999/xlink" width="16px" height="7px" xmlns="http://www.w3.org/2000/svg">
  <g transform="matrix(1 0 0 1 3 -14 )">
    <path d="M 15.839679358717435 5.725085910652921  C 15.946559786239145 5.805269186712484  16 5.897479954180985  16 6.001718213058419  C 16 6.105956471935852  15.946559786239145 6.198167239404352  15.839679358717435 6.278350515463917  L 15.03807615230461 6.8797250859106525  C 14.931195724782901 6.959908361970215  14.808283233132935 7  14.669338677354709 7  C 14.530394121576487 7  14.40748162992652 6.959908361970215  14.30060120240481 6.8797250859106525  L 8 2.152920962199313  L 1.6993987975951903 6.8797250859106525  C 1.5925183700734804 6.959908361970215  1.469605878423514 7  1.3306613226452906 7  C 1.1917167668670676 7  1.0688042752171012 6.959908361970215  0.9619238476953907 6.8797250859106525  L 0.16032064128256512 6.278350515463917  C 0.0534402137608552 6.198167239404352  0 6.105956471935852  0 6.001718213058419  C 0 5.897479954180985  0.0534402137608552 5.805269186712484  0.16032064128256512 5.725085910652921  L 7.6312625250501 0.12027491408934743  C 7.7381429525718115 0.04009163802978144  7.861055444221778 0  8 0  C 8.138944555778224 0  8.26185704742819 0.04009163802978144  8.3687374749499 0.12027491408934743  L 15.839679358717435 5.725085910652921  Z " fill-rule="nonzero" fill="#4040ff" stroke="none" transform="matrix(1 0 0 1 -3 14 )" />
  </g>
</svg>