<?xml version="1.0" encoding="utf-8"?>
<svg version="1.1" xmlns:xlink="http://www.w3.org/1999/xlink" width="27px" height="20px" xmlns="http://www.w3.org/2000/svg">
  <g transform="matrix(1 0 0 1 -1094 -13 )">
    <path d="M 6.7236328125 1.3742494996664445  C 8.7919921875 0.45808316655548076  11.05078125 0  13.5 0  C 15.94921875 0  18.208007812500004 0.45808316655548076  20.2763671875 1.3742494996664445  C 22.3447265625 2.290415832777406  23.982421875000004 3.5334667556148536  25.189453125 5.103402268178785  C 26.396484374999996 6.673337780742717  27 8.387814098287745  27 10.246831220813878  C 27 12.479430731598843  26.141601562499996 14.487436068490105  24.4248046875 16.270847231487657  C 22.7080078125 18.054258394485213  20.490234375000004 19.288414498554594  17.771484375 19.973315543695797  C 17.455078125000004 20.017789637536136  17.220703125000004 19.9866577718479  17.068359375 19.879919946631087  C 16.916015625 19.773182121414276  16.83984375 19.639759839893262  16.83984375 19.479653102068045  C 16.83984375 19.452968645763843  16.8427734375 19.11274182788526  16.8486328125 18.458972648432287  C 16.8544921875 17.80520346897932  16.857421875 17.207026906826776  16.857421875 16.66444296197465  C 16.857421875 15.80164554147209  16.552734375 15.170113408939292  15.943359374999998 14.76984656437625  C 16.611328125 14.716477651767846  17.2119140625 14.636424282855236  17.7451171875 14.529686457638427  C 18.2783203125 14.422948632421615  18.829101562500004 14.249499666444297  19.3974609375 14.00933955970647  C 19.9658203125 13.769179452968645  20.4404296875 13.473426728930399  20.8212890625 13.122081387591727  C 21.202148437500004 12.770736046253056  21.512695312500004 12.303758060929509  21.7529296875 11.72114743162108  C 21.993164062500004 11.138536802312654  22.11328125 10.469201690015563  22.11328125 9.713142094729822  C 22.11328125 8.654658661329774  21.650390625000004 7.738492328218813  20.724609375 6.964643095396932  C 21.158203125 6.15521458750278  21.111328125 5.247943073159885  20.583984375 4.242828552368245  C 20.255859375 4.162775183455638  19.78125 4.211696686680007  19.16015625 4.389593062041362  C 18.539062500000004 4.5674894374027115  18 4.763175450300201  17.54296875 4.976651100733822  L 16.875 5.296864576384257  C 15.785156250000002 5.065599288414497  14.660156250000004 4.94996664442962  13.5 4.94996664442962  C 12.33984375 4.94996664442962  11.21484375 5.065599288414497  10.125 5.296864576384257  C 9.9375 5.199021569935511  9.688476562500002 5.078941516566598  9.3779296875 4.9366244162775175  C 9.0673828125 4.794307315988435  8.578125000000002 4.623082054703136  7.91015625 4.422948632421615  C 7.242187500000001 4.222815210140094  6.744140625000002 4.162775183455638  6.416015625 4.242828552368245  C 5.888671875 5.247943073159885  5.841796875 6.15521458750278  6.275390625 6.964643095396932  C 5.349609375000001 7.738492328218813  4.88671875 8.654658661329774  4.88671875 9.713142094729822  C 4.88671875 10.469201690015563  5.006835937500001 11.136313097620636  5.2470703125 11.714476317545031  C 5.4873046875 12.292639537469423  5.794921875000001 12.759617522792972  6.169921875 13.115410273515678  C 6.544921875000001 13.471203024238378  7.016601562500001 13.769179452968645  7.584960937500001 14.00933955970647  C 8.1533203125 14.249499666444297  8.7041015625 14.422948632421615  9.2373046875 14.529686457638427  C 9.770507812500002 14.636424282855236  10.37109375 14.716477651767846  11.0390625 14.76984656437625  C 10.58203125 15.090060040026685  10.294921875000002 15.548143206582166  10.177734375 16.144096064042696  C 9.931640625 16.23304425172337  9.66796875 16.299755392483878  9.38671875 16.344229486324217  C 9.10546875 16.388703580164552  8.771484375 16.410940627084724  8.384765625 16.410940627084724  C 7.998046875000001 16.410940627084724  7.614257812500002 16.315321325327997  7.233398437499999 16.124082721814542  C 6.852539062500001 15.932844118301091  6.52734375 15.654881031798977  6.2578125 15.290193462308206  C 6.035156250000001 15.005559261730038  5.7509765625 14.774293973760283  5.4052734375 14.596397598398934  C 5.059570312500001 14.418501223037579  4.769531250000001 14.311763397820767  4.53515625 14.276184122748498  L 4.18359375 14.236157438292194  C 3.9375000000000004 14.236157438292194  3.767578125 14.256170780520346  3.6738281250000004 14.296197464976652  C 3.5800781250000004 14.336224149432955  3.5507812500000004 14.387369357349344  3.5859375 14.449633088725818  C 3.6210937500000004 14.511896820102288  3.6738281250000004 14.574160551478762  3.744140625 14.636424282855236  C 3.8144531250000004 14.69868801423171  3.8906250000000004 14.752056926840114  3.9726562499999996 14.796531020680455  L 4.095703125 14.863242161440962  C 4.353515625 14.952190349121635  4.608398437500001 15.121191905714921  4.8603515625 15.370246831220813  C 5.112304687500001 15.619301756726705  5.296875000000001 15.846119635312428  5.4140625 16.050700466977986  L 5.58984375 16.357571714476318  C 5.742187500000001 16.695574827662885  6 16.969090504780965  6.36328125 17.178118745830552  C 6.726562500000002 17.387146986880143  7.119140625000002 17.520569268401157  7.541015625 17.578385590393594  C 7.962890625000002 17.636201912386035  8.370117187500002 17.667333778074273  8.7626953125 17.671781187458308  C 9.1552734375 17.67622859684234  9.480468750000002 17.66066266399822  9.73828125 17.62508338892595  L 10.142578125 17.571714476317545  C 10.142578125 17.909717589504112  10.145507812500002 18.303313319991105  10.1513671875 18.752501667778517  C 10.1572265625 19.201690015565934  10.16015625 19.444073826995773  10.16015625 19.479653102068045  C 10.16015625 19.639759839893262  10.083984375000002 19.773182121414276  9.931640625 19.879919946631087  C 9.779296875 19.9866577718479  9.544921875 20.017789637536136  9.228515625 19.973315543695797  C 6.509765625000001 19.288414498554594  4.291992187500001 18.054258394485213  2.5751953125 16.270847231487657  C 0.8583984374999999 14.487436068490105  0 12.479430731598843  0 10.246831220813878  C 0 8.387814098287745  0.6035156249999999 6.673337780742717  1.8105468750000002 5.103402268178785  C 3.0175781250000004 3.5334667556148536  4.6552734375 2.290415832777406  6.7236328125 1.3742494996664445  Z M 4.88671875 14.743162108072047  C 4.9921875 14.796531020680455  5.068359375000001 14.787636201912386  5.115234375 14.716477651767846  C 5.150390625 14.654213920391372  5.109375000000001 14.600845007782965  4.9921875 14.55637091394263  C 4.875000000000001 14.529686457638427  4.798828125 14.53858127640649  4.763671875 14.583055370246832  C 4.728515625 14.645319101623302  4.769531250000001 14.69868801423171  4.88671875 14.743162108072047  Z M 5.37890625 15.13008672448299  C 5.49609375 15.219034912163663  5.58984375 15.232377140315766  5.66015625 15.170113408939292  C 5.742187500000001 15.125639315098953  5.73046875 15.054480764954414  5.625 14.956637758505671  C 5.507812500000001 14.876584389593061  5.4140625 14.863242161440962  5.34375 14.916611074049367  C 5.26171875 14.961085167889703  5.2734375 15.032243718034245  5.37890625 15.13008672448299  Z M 5.888671875 15.677118078719145  C 5.994140625 15.792750722704024  6.09375 15.823882588392262  6.1875 15.770513675783855  C 6.29296875 15.708249944407381  6.29296875 15.623749166110741  6.1875 15.51701134089393  C 6.09375 15.401378696909049  5.994140625 15.374694240604846  5.888671875 15.43695797198132  C 5.783203125 15.481432065821659  5.783203125 15.561485434734266  5.888671875 15.677118078719145  Z M 6.57421875 16.29086057371581  C 6.71484375 16.397598398932622  6.832031250000001 16.410940627084724  6.925781250000001 16.330887258172115  C 7.01953125 16.259728708027573  6.996093750000001 16.17522792973093  6.85546875 16.07738492328219  C 6.71484375 15.970647098065376  6.597656250000001 15.957304869913276  6.50390625 16.03735823882588  C 6.3984375 16.108516788970423  6.421875 16.193017567267066  6.57421875 16.29086057371581  Z M 7.59375 16.74449633088726  C 7.769531250000001 16.797865243495664  7.880859375000001 16.77118078719146  7.927734375000001 16.66444296197465  C 7.962890625 16.566599955525906  7.886718750000001 16.495441405381364  7.69921875 16.450967311541028  C 7.523437500000001 16.415388036468755  7.412109375000001 16.446519902156997  7.365234374999999 16.544362908605738  C 7.318359375000001 16.64220591505448  7.39453125 16.708917055814986  7.59375 16.74449633088726  Z M 8.75390625 16.877918612408273  C 8.94140625 16.877918612408273  9.03515625 16.8289971091839  9.03515625 16.731154102735157  C 9.03515625 16.615521458750276  8.935546875 16.566599955525906  8.736328125 16.584389593062042  C 8.548828125 16.584389593062042  8.455078125 16.633311096286413  8.455078125 16.731154102735157  C 8.455078125 16.84678674672004  8.5546875 16.895708249944406  8.75390625 16.877918612408273  Z M 9.80859375 16.784523015343563  C 9.99609375 16.74894374027129  10.078125 16.68668000889482  10.0546875 16.597731821214143  C 10.031250000000002 16.4998888147654  9.925781250000002 16.459862130309094  9.73828125 16.47765176784523  C 9.55078125 16.504336224149434  9.46875 16.571047364909937  9.4921875 16.67778519012675  C 9.515625 16.784523015343563  9.62109375 16.820102290415836  9.80859375 16.784523015343563  Z " fill-rule="nonzero" fill="#000000" stroke="none" transform="matrix(1 0 0 1 1094 13 )" />
  </g>
</svg>