<?xml version="1.0" encoding="utf-8"?>
<svg version="1.1" xmlns:xlink="http://www.w3.org/1999/xlink" width="7px" height="7px" xmlns="http://www.w3.org/2000/svg">
  <g transform="matrix(1 0 0 1 -75 -550 )">
    <path d="M 78.5 550  C 80.46 550  82 551.54  82 553.5  C 82 555.46  80.46 557  78.5 557  C 76.54 557  75 555.46  75 553.5  C 75 551.54  76.54 550  78.5 550  Z " fill-rule="nonzero" fill="#ffffff" stroke="none" />
    <path d="M 78.5 550.5  C 80.18 550.5  81.5 551.82  81.5 553.5  C 81.5 555.18  80.18 556.5  78.5 556.5  C 76.82 556.5  75.5 555.18  75.5 553.5  C 75.5 551.82  76.82 550.5  78.5 550.5  Z " stroke-width="1" stroke="#1720b6" fill="none" />
  </g>
</svg>