<?xml version="1.0" encoding="utf-8"?>
<svg version="1.1" xmlns:xlink="http://www.w3.org/1999/xlink" width="7px" height="7px" xmlns="http://www.w3.org/2000/svg">
  <g transform="matrix(1 0 0 1 -90 -580 )">
    <path d="M 93.5 580  C 95.46 580  97 581.54  97 583.5  C 97 585.46  95.46 587  93.5 587  C 91.54 587  90 585.46  90 583.5  C 90 581.54  91.54 580  93.5 580  Z " fill-rule="nonzero" fill="#1720b6" stroke="none" />
    <path d="M 93.5 580.5  C 95.18 580.5  96.5 581.82  96.5 583.5  C 96.5 585.18  95.18 586.5  93.5 586.5  C 91.82 586.5  90.5 585.18  90.5 583.5  C 90.5 581.82  91.82 580.5  93.5 580.5  Z " stroke-width="1" stroke="#1720b6" fill="none" />
  </g>
</svg>