<?xml version="1.0" encoding="utf-8"?>
<svg version="1.1" xmlns:xlink="http://www.w3.org/1999/xlink" width="7px" height="7px" xmlns="http://www.w3.org/2000/svg">
  <g transform="matrix(1 0 0 1 -188 -606 )">
    <path d="M 191.5 606  C 193.46 606  195 607.54  195 609.5  C 195 611.46  193.46 613  191.5 613  C 189.54 613  188 611.46  188 609.5  C 188 607.54  189.54 606  191.5 606  Z " fill-rule="nonzero" fill="#ffffff" stroke="none" />
    <path d="M 191.5 606.5  C 193.18 606.5  194.5 607.82  194.5 609.5  C 194.5 611.18  193.18 612.5  191.5 612.5  C 189.82 612.5  188.5 611.18  188.5 609.5  C 188.5 607.82  189.82 606.5  191.5 606.5  Z " stroke-width="1" stroke="#1720b6" fill="none" />
  </g>
</svg>